%TF.GenerationSoftware,KiCad,Pcbnew,9.0.6*%
%TF.CreationDate,2026-03-01T21:32:30+05:30*%
%TF.ProjectId,4th_YearProject,3474685f-5965-4617-9250-726f6a656374,RaunakR16*%
%TF.SameCoordinates,Original*%
%TF.FileFunction,Copper,L2,Bot*%
%TF.FilePolarity,Positive*%
%FSLAX46Y46*%
G04 Gerber Fmt 4.6, Leading zero omitted, Abs format (unit mm)*
G04 Created by KiCad (PCBNEW 9.0.6) date 2026-03-01 21:32:30*
%MOMM*%
%LPD*%
G01*
G04 APERTURE LIST*
G04 Aperture macros list*
%AMRoundRect*
0 Rectangle with rounded corners*
0 $1 Rounding radius*
0 $2 $3 $4 $5 $6 $7 $8 $9 X,Y pos of 4 corners*
0 Add a 4 corners polygon primitive as box body*
4,1,4,$2,$3,$4,$5,$6,$7,$8,$9,$2,$3,0*
0 Add four circle primitives for the rounded corners*
1,1,$1+$1,$2,$3*
1,1,$1+$1,$4,$5*
1,1,$1+$1,$6,$7*
1,1,$1+$1,$8,$9*
0 Add four rect primitives between the rounded corners*
20,1,$1+$1,$2,$3,$4,$5,0*
20,1,$1+$1,$4,$5,$6,$7,0*
20,1,$1+$1,$6,$7,$8,$9,0*
20,1,$1+$1,$8,$9,$2,$3,0*%
G04 Aperture macros list end*
%TA.AperFunction,ComponentPad*%
%ADD10RoundRect,0.250000X-0.650000X-0.650000X0.650000X-0.650000X0.650000X0.650000X-0.650000X0.650000X0*%
%TD*%
%TA.AperFunction,ComponentPad*%
%ADD11C,1.800000*%
%TD*%
%TA.AperFunction,ComponentPad*%
%ADD12C,1.400000*%
%TD*%
%TA.AperFunction,ComponentPad*%
%ADD13C,1.600000*%
%TD*%
%TA.AperFunction,ComponentPad*%
%ADD14RoundRect,0.250001X-1.149999X-1.149999X1.149999X-1.149999X1.149999X1.149999X-1.149999X1.149999X0*%
%TD*%
%TA.AperFunction,ComponentPad*%
%ADD15C,2.800000*%
%TD*%
%TA.AperFunction,ComponentPad*%
%ADD16RoundRect,0.250000X0.725000X-0.600000X0.725000X0.600000X-0.725000X0.600000X-0.725000X-0.600000X0*%
%TD*%
%TA.AperFunction,ComponentPad*%
%ADD17O,1.950000X1.700000*%
%TD*%
%TA.AperFunction,ComponentPad*%
%ADD18C,1.200000*%
%TD*%
%TA.AperFunction,ComponentPad*%
%ADD19R,1.800000X1.800000*%
%TD*%
%TA.AperFunction,ComponentPad*%
%ADD20C,1.524000*%
%TD*%
%TA.AperFunction,ComponentPad*%
%ADD21O,1.524000X1.524000*%
%TD*%
%TA.AperFunction,ComponentPad*%
%ADD22R,2.000000X1.905000*%
%TD*%
%TA.AperFunction,ComponentPad*%
%ADD23O,2.000000X1.905000*%
%TD*%
%TA.AperFunction,ComponentPad*%
%ADD24R,1.350000X1.350000*%
%TD*%
%TA.AperFunction,ComponentPad*%
%ADD25C,1.350000*%
%TD*%
%TA.AperFunction,HeatsinkPad*%
%ADD26C,0.600000*%
%TD*%
%TA.AperFunction,ComponentPad*%
%ADD27RoundRect,0.250001X1.149999X-1.149999X1.149999X1.149999X-1.149999X1.149999X-1.149999X-1.149999X0*%
%TD*%
%TA.AperFunction,ComponentPad*%
%ADD28RoundRect,0.250001X-1.149999X1.149999X-1.149999X-1.149999X1.149999X-1.149999X1.149999X1.149999X0*%
%TD*%
%TA.AperFunction,ComponentPad*%
%ADD29RoundRect,0.250000X0.750000X-0.600000X0.750000X0.600000X-0.750000X0.600000X-0.750000X-0.600000X0*%
%TD*%
%TA.AperFunction,ComponentPad*%
%ADD30O,2.000000X1.700000*%
%TD*%
%TA.AperFunction,ViaPad*%
%ADD31C,0.600000*%
%TD*%
%TA.AperFunction,Conductor*%
%ADD32C,1.367030*%
%TD*%
%TA.AperFunction,Conductor*%
%ADD33C,0.525491*%
%TD*%
%TA.AperFunction,Conductor*%
%ADD34C,2.765520*%
%TD*%
G04 APERTURE END LIST*
D10*
%TO.P,D1,1,K*%
%TO.N,Net-(D1-K)*%
X116790000Y-96491742D03*
D11*
%TO.P,D1,2,A*%
%TO.N,GND*%
X119330000Y-96491742D03*
%TD*%
D12*
%TO.P,R4,1*%
%TO.N,Net-(D3-K)*%
X159875000Y-111946742D03*
%TO.P,R4,2*%
%TO.N,GND*%
X152255000Y-111946742D03*
%TD*%
%TO.P,R3,1*%
%TO.N,Bat_Lvl*%
X135335000Y-87080000D03*
%TO.P,R3,2*%
%TO.N,GND*%
X135335000Y-94700000D03*
%TD*%
D13*
%TO.P,C3,1*%
%TO.N,+5V*%
X135335000Y-100696742D03*
%TO.P,C3,2*%
%TO.N,GND*%
X135335000Y-98196742D03*
%TD*%
D14*
%TO.P,J1,1,Pin_1*%
%TO.N,GND*%
X118585000Y-126979242D03*
D15*
%TO.P,J1,2,Pin_2*%
%TO.N,+12V*%
X123585000Y-126979242D03*
%TD*%
D14*
%TO.P,J2,1,Pin_1*%
%TO.N,GND*%
X131038600Y-126974600D03*
D15*
%TO.P,J2,2,Pin_2*%
%TO.N,+12V*%
X136038600Y-126974600D03*
%TD*%
D16*
%TO.P,J4,1,Pin_1*%
%TO.N,+3v3*%
X170790000Y-122241742D03*
D17*
%TO.P,J4,2,Pin_2*%
%TO.N,GND*%
X170790000Y-119741742D03*
%TO.P,J4,3,Pin_3*%
%TO.N,SDA*%
X170790000Y-117241742D03*
%TO.P,J4,4,Pin_4*%
%TO.N,SCL*%
X170790000Y-114741742D03*
%TD*%
D18*
%TO.P,C2,1*%
%TO.N,+5V*%
X145790000Y-110991742D03*
%TO.P,C2,2*%
%TO.N,GND*%
X145790000Y-112991742D03*
%TD*%
D12*
%TO.P,R7,1*%
%TO.N,GPIO 36*%
X110900000Y-96700000D03*
%TO.P,R7,2*%
%TO.N,GND*%
X110900000Y-104320000D03*
%TD*%
D13*
%TO.P,C7,1*%
%TO.N,+3v3*%
X127835000Y-83446742D03*
%TO.P,C7,2*%
%TO.N,GND*%
X127835000Y-88446742D03*
%TD*%
D19*
%TO.P,D2,1,K*%
%TO.N,Net-(D2-K)*%
X124290000Y-77991742D03*
D11*
%TO.P,D2,2,A*%
%TO.N,+5V*%
X121750000Y-77991742D03*
%TD*%
D20*
%TO.P,SW1,1,1*%
%TO.N,RTS*%
X147830000Y-126946742D03*
D21*
%TO.P,SW1,2,2*%
%TO.N,GND*%
X142790000Y-126946742D03*
%TD*%
D19*
%TO.P,D4,1,K*%
%TO.N,GND*%
X165205000Y-104536742D03*
D11*
%TO.P,D4,2,A*%
%TO.N,Net-(D4-A)*%
X162665000Y-104536742D03*
%TD*%
D22*
%TO.P,Q1,1,G*%
%TO.N,Mosfet*%
X164745000Y-83991742D03*
D23*
%TO.P,Q1,2,D*%
%TO.N,Net-(J5-Pin_2)*%
X164745000Y-81451742D03*
%TO.P,Q1,3,S*%
%TO.N,GND*%
X164745000Y-78911742D03*
%TD*%
D24*
%TO.P,J6,1,Pin_1*%
%TO.N,+3v3*%
X171040000Y-98241742D03*
D25*
%TO.P,J6,2,Pin_2*%
%TO.N,TXD*%
X171040000Y-96241742D03*
%TO.P,J6,3,Pin_3*%
%TO.N,RXD*%
X171040000Y-94241742D03*
%TO.P,J6,4,Pin_4*%
%TO.N,GND*%
X171040000Y-92241742D03*
%TO.P,J6,5,Pin_5*%
%TO.N,RTS*%
X171040000Y-90241742D03*
%TO.P,J6,6,Pin_6*%
%TO.N,DTR*%
X171040000Y-88241742D03*
%TD*%
D12*
%TO.P,R1,1*%
%TO.N,Net-(D2-K)*%
X127715000Y-76446742D03*
%TO.P,R1,2*%
%TO.N,GND*%
X135335000Y-76446742D03*
%TD*%
D13*
%TO.P,C5,1*%
%TO.N,Bat_Lvl*%
X145790000Y-103741742D03*
%TO.P,C5,2*%
%TO.N,GND*%
X145790000Y-106241742D03*
%TD*%
D12*
%TO.P,R5,1*%
%TO.N,RTS*%
X159645000Y-117991742D03*
%TO.P,R5,2*%
%TO.N,+3v3*%
X152025000Y-117991742D03*
%TD*%
D26*
%TO.P,U3,39,GND*%
%TO.N,GND*%
X147335000Y-83264242D03*
X147335000Y-84789242D03*
X148097500Y-82501742D03*
X148097500Y-84026742D03*
X148097500Y-85551742D03*
X148860000Y-83264242D03*
X148860000Y-84789242D03*
X149622500Y-82501742D03*
X149622500Y-84026742D03*
X149622500Y-85551742D03*
X150385000Y-83264242D03*
X150385000Y-84789242D03*
%TD*%
D13*
%TO.P,C6,1*%
%TO.N,RTS*%
X135335000Y-79946742D03*
%TO.P,C6,2*%
%TO.N,GND*%
X135335000Y-82446742D03*
%TD*%
D19*
%TO.P,U1,1,VIN*%
%TO.N,+12V*%
X124035000Y-107046742D03*
D11*
%TO.P,U1,2,OUT*%
%TO.N,Net-(D1-K)*%
X120335000Y-105346742D03*
%TO.P,U1,3,GND*%
%TO.N,GND*%
X124035000Y-103646742D03*
%TO.P,U1,4,FB*%
%TO.N,+5V*%
X120335000Y-101946742D03*
%TO.P,U1,5,~{ON}/OFF*%
%TO.N,GND*%
X124035000Y-100246742D03*
%TD*%
D27*
%TO.P,J10,1,Pin_1*%
%TO.N,GND*%
X110100000Y-114800000D03*
D15*
%TO.P,J10,2,Pin_2*%
%TO.N,+5V*%
X110100000Y-109800000D03*
%TD*%
D28*
%TO.P,J9,1,Pin_1*%
%TO.N,+5V*%
X110900000Y-84100000D03*
D15*
%TO.P,J9,2,Pin_2*%
%TO.N,GPIO 36*%
X110900000Y-89100000D03*
%TD*%
D12*
%TO.P,R2,1*%
%TO.N,+12V*%
X139100000Y-105991742D03*
%TO.P,R2,2*%
%TO.N,Bat_Lvl*%
X131480000Y-105991742D03*
%TD*%
D29*
%TO.P,J5,1,Pin_1*%
%TO.N,+5V*%
X170745000Y-81991742D03*
D30*
%TO.P,J5,2,Pin_2*%
%TO.N,Net-(J5-Pin_2)*%
X170745000Y-79491742D03*
%TD*%
D13*
%TO.P,C8,1*%
%TO.N,DTR*%
X164245000Y-88491742D03*
%TO.P,C8,2*%
%TO.N,GND*%
X164245000Y-90991742D03*
%TD*%
D12*
%TO.P,R6,1*%
%TO.N,Net-(D4-A)*%
X159790000Y-104491742D03*
%TO.P,R6,2*%
%TO.N,Net-(U3-IO2)*%
X152170000Y-104491742D03*
%TD*%
D18*
%TO.P,C4,1*%
%TO.N,+3v3*%
X145790000Y-118991742D03*
%TO.P,C4,2*%
%TO.N,GND*%
X145790000Y-116991742D03*
%TD*%
D27*
%TO.P,J8,1,Pin_1*%
%TO.N,GND*%
X110000000Y-127900000D03*
D15*
%TO.P,J8,2,Pin_2*%
%TO.N,+12V*%
X110000000Y-122900000D03*
%TD*%
D13*
%TO.P,C1,1*%
%TO.N,+12V*%
X123585000Y-115979242D03*
%TO.P,C1,2*%
%TO.N,GND*%
X118585000Y-115979242D03*
%TD*%
D16*
%TO.P,J7,1,Pin_1*%
%TO.N,GND*%
X170740000Y-108241742D03*
D17*
%TO.P,J7,2,Pin_2*%
%TO.N,ESC SIgnal*%
X170740000Y-105741742D03*
%TO.P,J7,3,Pin_3*%
%TO.N,+5V*%
X170740000Y-103241742D03*
%TD*%
D19*
%TO.P,D3,1,K*%
%TO.N,Net-(D3-K)*%
X162750000Y-111991742D03*
D11*
%TO.P,D3,2,A*%
%TO.N,Mosfet*%
X165290000Y-111991742D03*
%TD*%
D20*
%TO.P,SW2,1,1*%
%TO.N,DTR*%
X156040000Y-126946742D03*
D21*
%TO.P,SW2,2,2*%
%TO.N,GND*%
X151000000Y-126946742D03*
%TD*%
D13*
%TO.P,L1,1,1*%
%TO.N,Net-(D1-K)*%
X117170000Y-85946742D03*
%TO.P,L1,2,2*%
%TO.N,+5V*%
X119710000Y-85946742D03*
%TD*%
D24*
%TO.P,J3,1,Pin_1*%
%TO.N,+3v3*%
X169540000Y-126991742D03*
D25*
%TO.P,J3,2,Pin_2*%
%TO.N,+5V*%
X167540000Y-126991742D03*
%TO.P,J3,3,Pin_3*%
%TO.N,GND*%
X165540000Y-126991742D03*
%TO.P,J3,4,Pin_4*%
%TO.N,GPIO 4*%
X163540000Y-126991742D03*
%TO.P,J3,5,Pin_5*%
%TO.N,GPIO 25*%
X161540000Y-126991742D03*
%TO.P,J3,6,Pin_6*%
%TO.N,GPIO 26*%
X159540000Y-126991742D03*
%TD*%
D31*
%TO.N,GND*%
X143830000Y-95951742D03*
X139090000Y-118291742D03*
%TO.N,+3v3*%
X152790000Y-129991742D03*
X130685000Y-113096742D03*
%TO.N,DTR*%
X157813983Y-95991742D03*
X159540000Y-93196742D03*
%TO.N,Mosfet*%
X161790000Y-98991742D03*
X167813030Y-83991742D03*
X168290000Y-92491742D03*
X168290000Y-90228997D03*
%TO.N,GPIO 4*%
X159290000Y-94873233D03*
X159725000Y-91926742D03*
%TO.N,GPIO 25*%
X142290000Y-88116742D03*
%TO.N,GPIO 26*%
X142290000Y-89386742D03*
%TO.N,SDA*%
X161290000Y-93991742D03*
X159745000Y-83036742D03*
%TO.N,SCL*%
X156290000Y-79491742D03*
X162566525Y-96740853D03*
%TO.N,TXD*%
X160515000Y-81766742D03*
X162790000Y-83991742D03*
%TO.N,ESC SIgnal*%
X162290000Y-87491742D03*
X162290000Y-93491742D03*
%TO.N,GPIO 36*%
X124000000Y-93200000D03*
%TD*%
D32*
%TO.N,GND*%
X145790000Y-116991742D02*
X145889422Y-116991742D01*
X172649515Y-128751257D02*
X172649515Y-119741742D01*
X168910000Y-108241742D02*
X170740000Y-108241742D01*
X135335000Y-98196742D02*
X135335000Y-94700000D01*
D33*
X168040000Y-90991742D02*
X164245000Y-90991742D01*
D32*
X165205000Y-104536742D02*
X168910000Y-108241742D01*
X164850432Y-78911742D02*
X164745000Y-78911742D01*
X137019515Y-80762227D02*
X137019515Y-78131257D01*
X147274515Y-107726257D02*
X147274515Y-111491742D01*
D33*
X169290000Y-92241742D02*
X168040000Y-90991742D01*
D32*
X142790000Y-103241742D02*
X145790000Y-106241742D01*
D34*
X118585000Y-126979242D02*
X118585000Y-115979242D01*
D32*
X145889422Y-116991742D02*
X151000000Y-122102320D01*
X170790000Y-119741742D02*
X172649515Y-119741742D01*
D34*
X128050198Y-129963002D02*
X131038600Y-126974600D01*
X134022360Y-129958360D02*
X139778382Y-129958360D01*
D33*
X161290000Y-75491742D02*
X164710000Y-78911742D01*
X136290000Y-75491742D02*
X135335000Y-76446742D01*
D32*
X165205000Y-104536742D02*
X165205000Y-104221742D01*
X151000000Y-126946742D02*
X151000000Y-128553257D01*
D34*
X121568760Y-129963002D02*
X128050198Y-129963002D01*
X126518760Y-104562982D02*
X126518760Y-109530502D01*
D32*
X124035000Y-100246742D02*
X124035000Y-103646742D01*
D33*
X149622500Y-82501742D02*
X149622500Y-81659242D01*
D32*
X147729515Y-111946742D02*
X147274515Y-111491742D01*
X166629515Y-88607227D02*
X164245000Y-90991742D01*
D34*
X120070020Y-115979242D02*
X118585000Y-115979242D01*
D32*
X154599515Y-129801257D02*
X165540000Y-129801257D01*
X119330000Y-96491742D02*
X119330000Y-96863116D01*
D33*
X155790000Y-75491742D02*
X161290000Y-75491742D01*
D34*
X118585000Y-126979242D02*
X110920758Y-126979242D01*
D32*
X141495000Y-98196742D02*
X142790000Y-99491742D01*
X165540000Y-129801257D02*
X171599515Y-129801257D01*
X137019515Y-78131257D02*
X135335000Y-76446742D01*
X135335000Y-98196742D02*
X141495000Y-98196742D01*
D33*
X143830000Y-95951742D02*
X141585000Y-98196742D01*
D32*
X171599515Y-129801257D02*
X172649515Y-128751257D01*
D33*
X171040000Y-92241742D02*
X169290000Y-92241742D01*
D32*
X147274515Y-112355755D02*
X146638528Y-112991742D01*
X135335000Y-82446742D02*
X133835000Y-82446742D01*
X111873116Y-104320000D02*
X110900000Y-104320000D01*
X110100000Y-114800000D02*
X117405758Y-114800000D01*
X151040000Y-128593257D02*
X153391515Y-128593257D01*
D34*
X131038600Y-126974600D02*
X134022360Y-129958360D01*
D32*
X123085000Y-100246742D02*
X119330000Y-96491742D01*
D34*
X126518760Y-109530502D02*
X120070020Y-115979242D01*
D33*
X164710000Y-78911742D02*
X164745000Y-78911742D01*
D32*
X147274515Y-111491742D02*
X147274515Y-112355755D01*
X151000000Y-122102320D02*
X151000000Y-126946742D01*
X135335000Y-82446742D02*
X137019515Y-80762227D01*
X166629515Y-80690825D02*
X164850432Y-78911742D01*
X145790000Y-106241742D02*
X147274515Y-107726257D01*
D33*
X142290000Y-75491742D02*
X136290000Y-75491742D01*
D34*
X124035000Y-103646742D02*
X125602520Y-103646742D01*
X139778382Y-129958360D02*
X142790000Y-126946742D01*
D33*
X148290000Y-82309242D02*
X148290000Y-81491742D01*
D34*
X110920758Y-126979242D02*
X110000000Y-127900000D01*
D32*
X152255000Y-111946742D02*
X147729515Y-111946742D01*
X172649515Y-119741742D02*
X172649515Y-110151257D01*
X117405758Y-114800000D02*
X118585000Y-115979242D01*
X144436515Y-128593257D02*
X142790000Y-126946742D01*
X139090000Y-118291742D02*
X140390000Y-116991742D01*
X165540000Y-126991742D02*
X165540000Y-129801257D01*
X172649515Y-110151257D02*
X170740000Y-108241742D01*
X140390000Y-116991742D02*
X145790000Y-116991742D01*
X142790000Y-99491742D02*
X142790000Y-103241742D01*
X146638528Y-112991742D02*
X145790000Y-112991742D01*
X145790000Y-112991742D02*
X145790000Y-116991742D01*
X166629515Y-88607227D02*
X166629515Y-80690825D01*
D33*
X141585000Y-98196742D02*
X141495000Y-98196742D01*
D32*
X119330000Y-96863116D02*
X111873116Y-104320000D01*
X151040000Y-128593257D02*
X144436515Y-128593257D01*
D33*
X149622500Y-81659242D02*
X155790000Y-75491742D01*
X148097500Y-82501742D02*
X148290000Y-82309242D01*
D32*
X124035000Y-100246742D02*
X123085000Y-100246742D01*
X133835000Y-82446742D02*
X127835000Y-88446742D01*
D33*
X148290000Y-81491742D02*
X142290000Y-75491742D01*
D34*
X118585000Y-126979242D02*
X121568760Y-129963002D01*
D32*
X153391515Y-128593257D02*
X154599515Y-129801257D01*
D34*
X125602520Y-103646742D02*
X126518760Y-104562982D01*
D32*
X151000000Y-128553257D02*
X151040000Y-128593257D01*
D33*
%TO.N,+5V*%
X161290000Y-103491742D02*
X163540000Y-101241742D01*
D32*
X135335000Y-100696742D02*
X136466370Y-100696742D01*
D33*
X161290000Y-119491742D02*
X161290000Y-103491742D01*
X163540000Y-101241742D02*
X169790000Y-101241742D01*
D32*
X136466370Y-100696742D02*
X145706485Y-109936857D01*
X145706485Y-109936857D02*
X145706485Y-110991742D01*
D33*
X167540000Y-125741742D02*
X161290000Y-119491742D01*
X169790000Y-101241742D02*
X170740000Y-102191742D01*
X170740000Y-102191742D02*
X170740000Y-103241742D01*
X167540000Y-126991742D02*
X167540000Y-125741742D01*
%TO.N,+3v3*%
X173796775Y-98748517D02*
X173290000Y-98241742D01*
X173796775Y-129226468D02*
X173796775Y-98748517D01*
D32*
X126150485Y-85131257D02*
X127835000Y-83446742D01*
X126150485Y-89144491D02*
X126150485Y-85131257D01*
X129895485Y-112307227D02*
X130685000Y-113096742D01*
D33*
X153790000Y-130991742D02*
X152790000Y-129991742D01*
D32*
X129895485Y-92889491D02*
X129895485Y-112307227D01*
X129895485Y-92889491D02*
X126150485Y-89144491D01*
D33*
X172031501Y-130991742D02*
X153790000Y-130991742D01*
X173290000Y-98241742D02*
X171040000Y-98241742D01*
X173796775Y-129226468D02*
X172031501Y-130991742D01*
%TO.N,DTR*%
X158290000Y-95515725D02*
X158290000Y-94446742D01*
X157813983Y-95991742D02*
X158290000Y-95515725D01*
X158290000Y-94446742D02*
X159540000Y-93196742D01*
%TO.N,Mosfet*%
X167813030Y-84014772D02*
X167813030Y-83991742D01*
X168290000Y-84491742D02*
X167813030Y-84014772D01*
X168290000Y-90228997D02*
X168290000Y-84491742D01*
X161790000Y-98991742D02*
X168290000Y-92491742D01*
%TO.N,GPIO 4*%
X160303745Y-93859488D02*
X160303745Y-92505487D01*
X159290000Y-94873233D02*
X160303745Y-93859488D01*
X160303745Y-92505487D02*
X159725000Y-91926742D01*
%TO.N,GPIO 25*%
X154516491Y-108690820D02*
X154516491Y-115190819D01*
X161540000Y-122214328D02*
X161540000Y-126991742D01*
X148016491Y-93843233D02*
X148016491Y-102190819D01*
X154516491Y-115190819D02*
X161540000Y-122214328D01*
X142290000Y-88116742D02*
X148016491Y-93843233D01*
X148016491Y-102190819D02*
X154516491Y-108690820D01*
%TO.N,GPIO 26*%
X147290000Y-102491742D02*
X147290000Y-94386742D01*
X153790000Y-115491742D02*
X159540000Y-121241742D01*
X159540000Y-121241742D02*
X159540000Y-126991742D01*
X153790000Y-115491742D02*
X153790000Y-108991742D01*
X147290000Y-94386742D02*
X142290000Y-89386742D01*
X153790000Y-108991742D02*
X147290000Y-102491742D01*
%TO.N,SDA*%
X159790000Y-83081742D02*
X159790000Y-83491742D01*
X160290000Y-90491742D02*
X161290000Y-91491742D01*
X159745000Y-83036742D02*
X159790000Y-83081742D01*
X160290000Y-83991742D02*
X160290000Y-90491742D01*
X161290000Y-91491742D02*
X161290000Y-93991742D01*
X159790000Y-83491742D02*
X160290000Y-83991742D01*
%TO.N,SCL*%
X156290000Y-95547858D02*
X156290000Y-79491742D01*
X162566525Y-96740853D02*
X162551891Y-96755487D01*
X162551891Y-96755487D02*
X157497629Y-96755487D01*
X157497629Y-96755487D02*
X156290000Y-95547858D01*
%TO.N,TXD*%
X162240000Y-83491742D02*
X160515000Y-81766742D01*
X162790000Y-83991742D02*
X162290000Y-83491742D01*
X162290000Y-83491742D02*
X162240000Y-83491742D01*
%TO.N,ESC SIgnal*%
X162290000Y-87491742D02*
X162290000Y-93491742D01*
%TO.N,GPIO 36*%
X114400000Y-93200000D02*
X110900000Y-96700000D01*
X124000000Y-93200000D02*
X114400000Y-93200000D01*
%TD*%
%TA.AperFunction,Conductor*%
%TO.N,GND*%
G36*
X162383033Y-121664865D02*
G01*
X162391198Y-121672332D01*
X166706419Y-125987552D01*
X166708354Y-125991095D01*
X166711770Y-125993251D01*
X166724959Y-126021506D01*
X166739904Y-126048875D01*
X166739615Y-126052903D01*
X166741324Y-126056563D01*
X166737144Y-126087459D01*
X166734920Y-126118567D01*
X166732343Y-126122950D01*
X166731958Y-126125802D01*
X166723116Y-126138650D01*
X166713125Y-126155651D01*
X166709912Y-126159421D01*
X166643379Y-126225955D01*
X166586355Y-126304441D01*
X166583233Y-126308106D01*
X166565732Y-126319560D01*
X165940000Y-126945293D01*
X165940000Y-126939081D01*
X165912741Y-126837348D01*
X165860080Y-126746136D01*
X165785606Y-126671662D01*
X165694394Y-126619001D01*
X165592661Y-126591742D01*
X165586447Y-126591742D01*
X166176431Y-126001758D01*
X166176430Y-126001757D01*
X166155834Y-125986792D01*
X165991043Y-125902826D01*
X165991040Y-125902825D01*
X165815147Y-125845675D01*
X165632473Y-125816742D01*
X165447527Y-125816742D01*
X165264852Y-125845675D01*
X165088959Y-125902825D01*
X165088956Y-125902826D01*
X164924167Y-125986791D01*
X164903568Y-126001757D01*
X165493554Y-126591742D01*
X165487339Y-126591742D01*
X165385606Y-126619001D01*
X165294394Y-126671662D01*
X165219920Y-126746136D01*
X165167259Y-126837348D01*
X165140000Y-126939081D01*
X165140000Y-126945294D01*
X164528310Y-126333604D01*
X164527844Y-126333233D01*
X164524541Y-126332278D01*
X164512885Y-126321315D01*
X164497773Y-126309274D01*
X164494109Y-126305080D01*
X164436621Y-126225955D01*
X164305787Y-126095121D01*
X164156096Y-125986364D01*
X164102778Y-125959197D01*
X163991235Y-125902362D01*
X163991232Y-125902361D01*
X163815265Y-125845187D01*
X163672972Y-125822650D01*
X163632514Y-125816242D01*
X163447486Y-125816242D01*
X163407028Y-125822650D01*
X163264734Y-125845187D01*
X163088767Y-125902361D01*
X163088764Y-125902362D01*
X162923903Y-125986364D01*
X162875535Y-126021506D01*
X162774213Y-126095121D01*
X162774211Y-126095123D01*
X162774210Y-126095123D01*
X162643381Y-126225952D01*
X162640314Y-126230174D01*
X162584981Y-126272836D01*
X162515367Y-126278811D01*
X162453574Y-126246201D01*
X162451059Y-126243685D01*
X162444886Y-126237330D01*
X162436621Y-126225955D01*
X162338951Y-126128285D01*
X162338304Y-126127619D01*
X162322404Y-126097472D01*
X162306079Y-126067573D01*
X162305936Y-126066247D01*
X162305710Y-126065818D01*
X162305790Y-126064886D01*
X162303245Y-126041216D01*
X162303245Y-122139152D01*
X162303244Y-122139150D01*
X162273915Y-121991705D01*
X162273914Y-121991698D01*
X162273912Y-121991693D01*
X162216382Y-121852802D01*
X162216374Y-121852787D01*
X162200416Y-121828905D01*
X162179537Y-121762228D01*
X162198021Y-121694848D01*
X162249999Y-121648157D01*
X162318969Y-121636980D01*
X162383033Y-121664865D01*
G37*
%TD.AperFunction*%
%TA.AperFunction,Conductor*%
G36*
X163258448Y-89344821D02*
G01*
X163264926Y-89350853D01*
X163397786Y-89483713D01*
X163563385Y-89604026D01*
X163563387Y-89604027D01*
X163563390Y-89604029D01*
X163617378Y-89631537D01*
X163668174Y-89679511D01*
X163684969Y-89747332D01*
X163662432Y-89813467D01*
X163617378Y-89852507D01*
X163563644Y-89879885D01*
X163519077Y-89912265D01*
X163519077Y-89912266D01*
X164198554Y-90591742D01*
X164192339Y-90591742D01*
X164090606Y-90619001D01*
X163999394Y-90671662D01*
X163924920Y-90746136D01*
X163872259Y-90837348D01*
X163845000Y-90939081D01*
X163845000Y-90945295D01*
X163157682Y-90257977D01*
X163118597Y-90249767D01*
X163068840Y-90200716D01*
X163053245Y-90140513D01*
X163053245Y-89438534D01*
X163072930Y-89371495D01*
X163125734Y-89325740D01*
X163194892Y-89315796D01*
X163258448Y-89344821D01*
G37*
%TD.AperFunction*%
%TA.AperFunction,Conductor*%
G36*
X125483039Y-69170185D02*
G01*
X125528794Y-69222989D01*
X125540000Y-69274500D01*
X125540000Y-75136742D01*
X127125193Y-75136742D01*
X127192232Y-75156427D01*
X127237987Y-75209231D01*
X127247931Y-75278389D01*
X127218906Y-75341945D01*
X127181488Y-75371227D01*
X127085800Y-75419982D01*
X126998579Y-75483352D01*
X126932927Y-75531052D01*
X126932925Y-75531054D01*
X126932924Y-75531054D01*
X126799312Y-75664666D01*
X126799312Y-75664667D01*
X126799310Y-75664669D01*
X126751610Y-75730321D01*
X126688240Y-75817542D01*
X126602454Y-75985905D01*
X126544059Y-76165623D01*
X126514500Y-76352255D01*
X126514500Y-76541228D01*
X126544059Y-76727860D01*
X126602454Y-76907578D01*
X126688104Y-77075675D01*
X126688240Y-77075941D01*
X126799310Y-77228815D01*
X126932927Y-77362432D01*
X127085801Y-77473502D01*
X127165347Y-77514032D01*
X127254163Y-77559287D01*
X127254165Y-77559287D01*
X127254168Y-77559289D01*
X127350497Y-77590588D01*
X127433881Y-77617682D01*
X127620514Y-77647242D01*
X127620519Y-77647242D01*
X127809486Y-77647242D01*
X127996118Y-77617682D01*
X127997623Y-77617193D01*
X128175832Y-77559289D01*
X128344199Y-77473502D01*
X128370182Y-77454624D01*
X134680669Y-77454624D01*
X134680670Y-77454625D01*
X134706059Y-77473071D01*
X134874362Y-77558827D01*
X135053997Y-77617193D01*
X135240553Y-77646742D01*
X135429447Y-77646742D01*
X135616002Y-77617193D01*
X135795637Y-77558827D01*
X135963937Y-77473073D01*
X135989328Y-77454625D01*
X135989328Y-77454624D01*
X135335001Y-76800296D01*
X135335000Y-76800296D01*
X134680669Y-77454624D01*
X128370182Y-77454624D01*
X128497073Y-77362432D01*
X128630690Y-77228815D01*
X128741760Y-77075941D01*
X128827547Y-76907574D01*
X128885940Y-76727860D01*
X128891327Y-76693846D01*
X128915500Y-76541228D01*
X128915500Y-76352294D01*
X134135000Y-76352294D01*
X134135000Y-76541189D01*
X134164548Y-76727744D01*
X134222914Y-76907379D01*
X134308666Y-77075675D01*
X134327116Y-77101070D01*
X134981446Y-76446742D01*
X134981446Y-76446741D01*
X134935369Y-76400664D01*
X134985000Y-76400664D01*
X134985000Y-76492820D01*
X135008852Y-76581837D01*
X135054930Y-76661647D01*
X135120095Y-76726812D01*
X135199905Y-76772890D01*
X135288922Y-76796742D01*
X135381078Y-76796742D01*
X135470095Y-76772890D01*
X135549905Y-76726812D01*
X135615070Y-76661647D01*
X135661148Y-76581837D01*
X135685000Y-76492820D01*
X135685000Y-76446741D01*
X135688554Y-76446741D01*
X135688554Y-76446742D01*
X136342882Y-77101070D01*
X136342883Y-77101070D01*
X136361331Y-77075679D01*
X136447085Y-76907379D01*
X136505451Y-76727744D01*
X136535000Y-76541189D01*
X136535000Y-76352294D01*
X136505451Y-76165739D01*
X136447085Y-75986104D01*
X136361329Y-75817801D01*
X136342883Y-75792412D01*
X136342882Y-75792411D01*
X135688554Y-76446741D01*
X135685000Y-76446741D01*
X135685000Y-76400664D01*
X135661148Y-76311647D01*
X135615070Y-76231837D01*
X135549905Y-76166672D01*
X135470095Y-76120594D01*
X135381078Y-76096742D01*
X135288922Y-76096742D01*
X135199905Y-76120594D01*
X135120095Y-76166672D01*
X135054930Y-76231837D01*
X135008852Y-76311647D01*
X134985000Y-76400664D01*
X134935369Y-76400664D01*
X134327116Y-75792411D01*
X134327116Y-75792412D01*
X134308669Y-75817802D01*
X134222914Y-75986104D01*
X134164548Y-76165739D01*
X134135000Y-76352294D01*
X128915500Y-76352294D01*
X128915500Y-76352255D01*
X128885940Y-76165623D01*
X128827545Y-75985905D01*
X128782290Y-75897089D01*
X128741760Y-75817543D01*
X128630690Y-75664669D01*
X128497073Y-75531052D01*
X128344199Y-75419982D01*
X128248512Y-75371227D01*
X128197716Y-75323252D01*
X128180921Y-75255431D01*
X128203458Y-75189296D01*
X128258174Y-75145845D01*
X128304807Y-75136742D01*
X134746295Y-75136742D01*
X134813334Y-75156427D01*
X134859089Y-75209231D01*
X134869033Y-75278389D01*
X134840008Y-75341945D01*
X134802590Y-75371227D01*
X134706060Y-75420411D01*
X134680670Y-75438858D01*
X134680669Y-75438858D01*
X135335000Y-76093188D01*
X135335001Y-76093188D01*
X135989328Y-75438858D01*
X135963933Y-75420408D01*
X135867410Y-75371227D01*
X135816614Y-75323252D01*
X135799819Y-75255431D01*
X135822356Y-75189296D01*
X135877072Y-75145845D01*
X135923705Y-75136742D01*
X173540000Y-75136742D01*
X173540000Y-72687836D01*
X173559685Y-72620797D01*
X173612489Y-72575042D01*
X173681647Y-72565098D01*
X173745203Y-72594123D01*
X173751681Y-72600155D01*
X173785354Y-72633828D01*
X173944595Y-72749524D01*
X174027455Y-72791743D01*
X174119970Y-72838882D01*
X174119972Y-72838882D01*
X174119975Y-72838884D01*
X174186502Y-72860500D01*
X174307173Y-72899709D01*
X174501578Y-72930500D01*
X174501583Y-72930500D01*
X174698422Y-72930500D01*
X174892826Y-72899709D01*
X175080025Y-72838884D01*
X175255405Y-72749524D01*
X175414646Y-72633828D01*
X175553828Y-72494646D01*
X175669524Y-72335405D01*
X175758884Y-72160025D01*
X175819709Y-71972826D01*
X175831629Y-71897568D01*
X175850500Y-71778422D01*
X175850500Y-71581577D01*
X175819709Y-71387173D01*
X175758882Y-71199970D01*
X175708265Y-71100629D01*
X175669524Y-71024595D01*
X175553828Y-70865354D01*
X175414646Y-70726172D01*
X175255405Y-70610476D01*
X175080029Y-70521117D01*
X174892826Y-70460290D01*
X174698422Y-70429500D01*
X174698417Y-70429500D01*
X174501583Y-70429500D01*
X174501578Y-70429500D01*
X174307173Y-70460290D01*
X174119970Y-70521117D01*
X173944594Y-70610476D01*
X173881700Y-70656172D01*
X173785354Y-70726172D01*
X173785352Y-70726174D01*
X173785351Y-70726174D01*
X173751681Y-70759845D01*
X173690358Y-70793330D01*
X173620666Y-70788346D01*
X173564733Y-70746474D01*
X173540316Y-70681010D01*
X173540000Y-70672164D01*
X173540000Y-69274500D01*
X173559685Y-69207461D01*
X173612489Y-69161706D01*
X173664000Y-69150500D01*
X174994877Y-69150500D01*
X175061916Y-69170185D01*
X175082558Y-69186819D01*
X176863181Y-70967442D01*
X176896666Y-71028765D01*
X176899500Y-71055123D01*
X176899500Y-131154877D01*
X176879815Y-131221916D01*
X176863181Y-131242558D01*
X175082558Y-133023181D01*
X175021235Y-133056666D01*
X174994877Y-133059500D01*
X105745123Y-133059500D01*
X105678084Y-133039815D01*
X105657442Y-133023181D01*
X103876819Y-131242558D01*
X103843334Y-131181235D01*
X103840500Y-131154877D01*
X103840500Y-129912895D01*
X151989500Y-129912895D01*
X151989500Y-130070588D01*
X152020261Y-130225231D01*
X152020264Y-130225243D01*
X152080602Y-130370914D01*
X152080609Y-130370927D01*
X152168210Y-130502030D01*
X152168213Y-130502034D01*
X152279710Y-130613531D01*
X152345487Y-130657481D01*
X152410821Y-130701136D01*
X152410828Y-130701139D01*
X152414322Y-130703007D01*
X152443553Y-130724686D01*
X153197149Y-131478282D01*
X153303457Y-131584590D01*
X153303461Y-131584594D01*
X153428461Y-131668117D01*
X153428474Y-131668124D01*
X153567365Y-131725654D01*
X153567370Y-131725656D01*
X153714822Y-131754986D01*
X153714825Y-131754987D01*
X153714827Y-131754987D01*
X172106676Y-131754987D01*
X172106677Y-131754986D01*
X172254131Y-131725656D01*
X172393033Y-131668121D01*
X172518041Y-131584593D01*
X174389626Y-129713009D01*
X174473153Y-129588001D01*
X174473154Y-129588000D01*
X174530689Y-129449098D01*
X174560020Y-129301641D01*
X174560020Y-98673344D01*
X174530689Y-98525886D01*
X174496086Y-98442348D01*
X174473155Y-98386986D01*
X174389626Y-98261976D01*
X173776543Y-97648893D01*
X173776539Y-97648890D01*
X173651538Y-97565366D01*
X173651525Y-97565359D01*
X173512634Y-97507829D01*
X173512622Y-97507826D01*
X173365176Y-97478497D01*
X173365173Y-97478497D01*
X172302362Y-97478497D01*
X172235323Y-97458812D01*
X172189568Y-97406008D01*
X172186180Y-97397830D01*
X172158797Y-97324413D01*
X172158793Y-97324406D01*
X172072547Y-97209197D01*
X172049242Y-97191751D01*
X172046902Y-97189999D01*
X171987460Y-97145500D01*
X171945590Y-97089566D01*
X171940606Y-97019874D01*
X171961454Y-96973349D01*
X172045378Y-96857838D01*
X172129379Y-96692977D01*
X172186555Y-96517006D01*
X172215500Y-96334256D01*
X172215500Y-96149228D01*
X172186555Y-95966478D01*
X172129778Y-95791734D01*
X172129380Y-95790509D01*
X172129379Y-95790506D01*
X172075038Y-95683857D01*
X172045378Y-95625646D01*
X171936621Y-95475955D01*
X171805787Y-95345121D01*
X171801576Y-95342061D01*
X171758909Y-95286736D01*
X171752926Y-95217123D01*
X171785529Y-95155327D01*
X171801570Y-95141426D01*
X171805787Y-95138363D01*
X171936621Y-95007529D01*
X172045378Y-94857838D01*
X172129379Y-94692977D01*
X172186555Y-94517006D01*
X172215500Y-94334256D01*
X172215500Y-94149228D01*
X172186555Y-93966478D01*
X172129379Y-93790507D01*
X172129379Y-93790506D01*
X172045377Y-93625645D01*
X172041713Y-93620602D01*
X171936621Y-93475955D01*
X171805787Y-93345121D01*
X171805786Y-93345120D01*
X171731165Y-93290904D01*
X171716190Y-93271484D01*
X171086448Y-92641742D01*
X171092661Y-92641742D01*
X171194394Y-92614483D01*
X171285606Y-92561822D01*
X171360080Y-92487348D01*
X171412741Y-92396136D01*
X171440000Y-92294403D01*
X171440000Y-92288189D01*
X172029983Y-92878172D01*
X172029984Y-92878172D01*
X172044942Y-92857587D01*
X172044947Y-92857578D01*
X172128915Y-92692785D01*
X172128916Y-92692782D01*
X172186066Y-92516889D01*
X172215000Y-92334215D01*
X172215000Y-92149268D01*
X172186066Y-91966594D01*
X172128916Y-91790701D01*
X172128915Y-91790698D01*
X172044949Y-91625907D01*
X172029983Y-91605310D01*
X171440000Y-92195293D01*
X171440000Y-92189081D01*
X171412741Y-92087348D01*
X171360080Y-91996136D01*
X171285606Y-91921662D01*
X171194394Y-91869001D01*
X171092661Y-91841742D01*
X171086447Y-91841742D01*
X171700675Y-91227513D01*
X171731165Y-91192578D01*
X171805787Y-91138363D01*
X171936621Y-91007529D01*
X172045378Y-90857838D01*
X172129379Y-90692977D01*
X172186555Y-90517006D01*
X172215500Y-90334256D01*
X172215500Y-90149228D01*
X172186555Y-89966478D01*
X172136839Y-89813467D01*
X172129380Y-89790509D01*
X172129379Y-89790506D01*
X172081715Y-89696962D01*
X172045378Y-89625646D01*
X171936621Y-89475955D01*
X171805787Y-89345121D01*
X171801576Y-89342061D01*
X171758909Y-89286736D01*
X171752926Y-89217123D01*
X171785529Y-89155327D01*
X171801570Y-89141426D01*
X171805787Y-89138363D01*
X171936621Y-89007529D01*
X172045378Y-88857838D01*
X172129379Y-88692977D01*
X172186555Y-88517006D01*
X172215500Y-88334256D01*
X172215500Y-88149228D01*
X172186555Y-87966478D01*
X172146831Y-87844218D01*
X172129380Y-87790509D01*
X172129379Y-87790506D01*
X172066989Y-87668060D01*
X172045378Y-87625646D01*
X171936621Y-87475955D01*
X171805787Y-87345121D01*
X171656096Y-87236364D01*
X171614597Y-87215219D01*
X171491235Y-87152362D01*
X171491232Y-87152361D01*
X171315265Y-87095187D01*
X171223889Y-87080714D01*
X171132514Y-87066242D01*
X170947486Y-87066242D01*
X170886569Y-87075890D01*
X170764734Y-87095187D01*
X170588767Y-87152361D01*
X170588764Y-87152362D01*
X170423903Y-87236364D01*
X170354866Y-87286523D01*
X170274213Y-87345121D01*
X170274211Y-87345123D01*
X170274210Y-87345123D01*
X170143381Y-87475952D01*
X170143381Y-87475953D01*
X170143379Y-87475955D01*
X170126072Y-87499776D01*
X170034622Y-87625645D01*
X169950620Y-87790506D01*
X169950619Y-87790509D01*
X169893445Y-87966476D01*
X169880732Y-88046742D01*
X169864500Y-88149228D01*
X169864500Y-88334256D01*
X169873975Y-88394081D01*
X169893445Y-88517007D01*
X169950619Y-88692974D01*
X169950620Y-88692977D01*
X170015079Y-88819483D01*
X170034622Y-88857838D01*
X170143379Y-89007529D01*
X170274213Y-89138363D01*
X170278421Y-89141420D01*
X170278432Y-89141428D01*
X170321094Y-89196761D01*
X170327069Y-89266375D01*
X170294459Y-89328168D01*
X170278432Y-89342056D01*
X170274210Y-89345123D01*
X170143381Y-89475952D01*
X170143381Y-89475953D01*
X170143379Y-89475955D01*
X170106862Y-89526216D01*
X170034622Y-89625645D01*
X169950620Y-89790506D01*
X169950619Y-89790509D01*
X169893445Y-89966476D01*
X169893445Y-89966478D01*
X169864500Y-90149228D01*
X169864500Y-90334256D01*
X169867909Y-90355781D01*
X169893445Y-90517007D01*
X169950619Y-90692974D01*
X169950620Y-90692977D01*
X170032300Y-90853280D01*
X170034622Y-90857838D01*
X170143379Y-91007529D01*
X170274213Y-91138363D01*
X170299871Y-91157005D01*
X170348831Y-91192576D01*
X170363806Y-91211996D01*
X170993554Y-91841742D01*
X170987339Y-91841742D01*
X170885606Y-91869001D01*
X170794394Y-91921662D01*
X170719920Y-91996136D01*
X170667259Y-92087348D01*
X170640000Y-92189081D01*
X170640000Y-92195295D01*
X170050015Y-91605310D01*
X170035049Y-91625909D01*
X169951084Y-91790698D01*
X169951083Y-91790701D01*
X169893933Y-91966594D01*
X169865000Y-92149268D01*
X169865000Y-92334215D01*
X169893933Y-92516889D01*
X169951083Y-92692782D01*
X169951084Y-92692785D01*
X170035050Y-92857576D01*
X170050015Y-92878172D01*
X170050016Y-92878173D01*
X170640000Y-92288189D01*
X170640000Y-92294403D01*
X170667259Y-92396136D01*
X170719920Y-92487348D01*
X170794394Y-92561822D01*
X170885606Y-92614483D01*
X170987339Y-92641742D01*
X170993553Y-92641742D01*
X170379355Y-93255938D01*
X170348833Y-93290905D01*
X170274213Y-93345120D01*
X170143381Y-93475952D01*
X170143381Y-93475953D01*
X170143379Y-93475955D01*
X170104441Y-93529548D01*
X170034622Y-93625645D01*
X169950620Y-93790506D01*
X169950619Y-93790509D01*
X169893445Y-93966476D01*
X169870154Y-94113528D01*
X169864500Y-94149228D01*
X169864500Y-94334256D01*
X169877922Y-94418997D01*
X169893445Y-94517007D01*
X169950619Y-94692974D01*
X169950620Y-94692977D01*
X170023034Y-94835095D01*
X170034622Y-94857838D01*
X170143379Y-95007529D01*
X170274213Y-95138363D01*
X170278421Y-95141420D01*
X170278432Y-95141428D01*
X170321094Y-95196761D01*
X170327069Y-95266375D01*
X170294459Y-95328168D01*
X170278432Y-95342056D01*
X170274210Y-95345123D01*
X170143381Y-95475952D01*
X170143381Y-95475953D01*
X170143379Y-95475955D01*
X170104797Y-95529059D01*
X170034622Y-95625645D01*
X169950620Y-95790506D01*
X169950619Y-95790509D01*
X169893445Y-95966476D01*
X169864500Y-96149228D01*
X169864500Y-96334255D01*
X169893445Y-96517007D01*
X169950619Y-96692974D01*
X169950620Y-96692977D01*
X170034624Y-96857841D01*
X170118545Y-96973349D01*
X170142025Y-97039155D01*
X170126200Y-97107209D01*
X170092539Y-97145500D01*
X170007452Y-97209197D01*
X169921206Y-97324406D01*
X169921202Y-97324413D01*
X169870908Y-97459259D01*
X169864501Y-97518858D01*
X169864500Y-97518877D01*
X169864500Y-98964612D01*
X169864501Y-98964618D01*
X169870908Y-99024225D01*
X169921202Y-99159070D01*
X169921206Y-99159077D01*
X170007452Y-99274286D01*
X170007455Y-99274289D01*
X170122664Y-99360535D01*
X170122671Y-99360539D01*
X170257517Y-99410833D01*
X170257516Y-99410833D01*
X170264444Y-99411577D01*
X170317127Y-99417242D01*
X171762872Y-99417241D01*
X171822483Y-99410833D01*
X171957331Y-99360538D01*
X172072546Y-99274288D01*
X172158796Y-99159073D01*
X172170017Y-99128987D01*
X172186180Y-99085654D01*
X172228051Y-99029720D01*
X172293515Y-99005303D01*
X172302362Y-99004987D01*
X172909530Y-99004987D01*
X172976569Y-99024672D01*
X173022324Y-99077476D01*
X173033530Y-99128987D01*
X173033530Y-128858959D01*
X173013845Y-128925998D01*
X172997211Y-128946640D01*
X171751674Y-130192178D01*
X171690351Y-130225663D01*
X171663993Y-130228497D01*
X154157508Y-130228497D01*
X154090469Y-130208812D01*
X154069827Y-130192178D01*
X153522944Y-129645295D01*
X153501265Y-129616064D01*
X153499396Y-129612569D01*
X153499394Y-129612563D01*
X153436439Y-129518344D01*
X153411789Y-129481452D01*
X153300292Y-129369955D01*
X153300288Y-129369952D01*
X153169185Y-129282351D01*
X153169172Y-129282344D01*
X153023501Y-129222006D01*
X153023489Y-129222003D01*
X152868845Y-129191242D01*
X152868842Y-129191242D01*
X152711158Y-129191242D01*
X152711155Y-129191242D01*
X152556510Y-129222003D01*
X152556498Y-129222006D01*
X152410827Y-129282344D01*
X152410814Y-129282351D01*
X152279711Y-129369952D01*
X152279707Y-129369955D01*
X152168213Y-129481449D01*
X152168210Y-129481453D01*
X152080609Y-129612556D01*
X152080602Y-129612569D01*
X152020264Y-129758240D01*
X152020261Y-129758252D01*
X151989500Y-129912895D01*
X103840500Y-129912895D01*
X103840500Y-126700014D01*
X108100000Y-126700014D01*
X108100000Y-127650000D01*
X109399999Y-127650000D01*
X109374979Y-127710402D01*
X109350000Y-127835981D01*
X109350000Y-127964019D01*
X109374979Y-128089598D01*
X109399999Y-128150000D01*
X108100000Y-128150000D01*
X108100000Y-129099985D01*
X108110493Y-129202689D01*
X108110494Y-129202696D01*
X108165641Y-129369118D01*
X108165643Y-129369123D01*
X108257684Y-129518344D01*
X108381655Y-129642315D01*
X108530876Y-129734356D01*
X108530881Y-129734358D01*
X108697303Y-129789505D01*
X108697310Y-129789506D01*
X108800014Y-129799999D01*
X108800027Y-129800000D01*
X109750000Y-129800000D01*
X109750000Y-128500001D01*
X109810402Y-128525021D01*
X109935981Y-128550000D01*
X110064019Y-128550000D01*
X110189598Y-128525021D01*
X110250000Y-128500001D01*
X110250000Y-129800000D01*
X111199973Y-129800000D01*
X111199985Y-129799999D01*
X111302689Y-129789506D01*
X111302696Y-129789505D01*
X111303913Y-129789102D01*
X111469118Y-129734358D01*
X111469123Y-129734356D01*
X111618344Y-129642315D01*
X111742315Y-129518344D01*
X111834356Y-129369123D01*
X111834358Y-129369118D01*
X111889505Y-129202696D01*
X111889506Y-129202689D01*
X111899999Y-129099985D01*
X111900000Y-129099972D01*
X111900000Y-128150000D01*
X110600001Y-128150000D01*
X110625021Y-128089598D01*
X110650000Y-127964019D01*
X110650000Y-127835981D01*
X110625021Y-127710402D01*
X110600001Y-127650000D01*
X111900000Y-127650000D01*
X111900000Y-126700027D01*
X111899999Y-126700014D01*
X111889506Y-126597310D01*
X111889505Y-126597303D01*
X111834358Y-126430881D01*
X111834356Y-126430876D01*
X111742315Y-126281655D01*
X111618344Y-126157684D01*
X111469123Y-126065643D01*
X111469118Y-126065641D01*
X111302696Y-126010494D01*
X111302689Y-126010493D01*
X111199985Y-126000000D01*
X110250000Y-126000000D01*
X110250000Y-127299998D01*
X110189598Y-127274979D01*
X110064019Y-127250000D01*
X109935981Y-127250000D01*
X109810402Y-127274979D01*
X109750000Y-127299998D01*
X109750000Y-126000000D01*
X108800014Y-126000000D01*
X108697310Y-126010493D01*
X108697303Y-126010494D01*
X108530881Y-126065641D01*
X108530876Y-126065643D01*
X108381655Y-126157684D01*
X108257684Y-126281655D01*
X108165643Y-126430876D01*
X108165641Y-126430881D01*
X108110494Y-126597303D01*
X108110493Y-126597310D01*
X108100000Y-126700014D01*
X103840500Y-126700014D01*
X103840500Y-125779256D01*
X116685000Y-125779256D01*
X116685000Y-126729242D01*
X117984999Y-126729242D01*
X117959979Y-126789644D01*
X117935000Y-126915223D01*
X117935000Y-127043261D01*
X117959979Y-127168840D01*
X117984999Y-127229242D01*
X116685000Y-127229242D01*
X116685000Y-128179227D01*
X116695493Y-128281931D01*
X116695494Y-128281938D01*
X116750641Y-128448360D01*
X116750643Y-128448365D01*
X116842684Y-128597586D01*
X116966655Y-128721557D01*
X117115876Y-128813598D01*
X117115881Y-128813600D01*
X117282303Y-128868747D01*
X117282310Y-128868748D01*
X117385014Y-128879241D01*
X117385027Y-128879242D01*
X118335000Y-128879242D01*
X118335000Y-127579243D01*
X118395402Y-127604263D01*
X118520981Y-127629242D01*
X118649019Y-127629242D01*
X118774598Y-127604263D01*
X118835000Y-127579243D01*
X118835000Y-128879242D01*
X119784973Y-128879242D01*
X119784985Y-128879241D01*
X119887689Y-128868748D01*
X119887696Y-128868747D01*
X120054118Y-128813600D01*
X120054123Y-128813598D01*
X120203344Y-128721557D01*
X120327315Y-128597586D01*
X120419356Y-128448365D01*
X120419358Y-128448360D01*
X120474505Y-128281938D01*
X120474506Y-128281931D01*
X120484999Y-128179227D01*
X120485000Y-128179214D01*
X120485000Y-127229242D01*
X119185001Y-127229242D01*
X119210021Y-127168840D01*
X119235000Y-127043261D01*
X119235000Y-126915223D01*
X119222958Y-126854683D01*
X121684500Y-126854683D01*
X121684500Y-127103800D01*
X121684501Y-127103817D01*
X121716406Y-127346165D01*
X121717018Y-127350807D01*
X121727239Y-127388951D01*
X121781498Y-127591449D01*
X121876830Y-127821603D01*
X121876837Y-127821618D01*
X122001400Y-128037368D01*
X122153060Y-128235016D01*
X122153066Y-128235023D01*
X122329218Y-128411175D01*
X122329225Y-128411181D01*
X122526873Y-128562841D01*
X122742623Y-128687404D01*
X122742638Y-128687411D01*
X122813868Y-128716915D01*
X122972793Y-128782744D01*
X123213435Y-128847224D01*
X123460435Y-128879742D01*
X123460442Y-128879742D01*
X123709558Y-128879742D01*
X123709565Y-128879742D01*
X123956565Y-128847224D01*
X124197207Y-128782744D01*
X124427373Y-128687406D01*
X124643127Y-128562841D01*
X124840776Y-128411180D01*
X125016938Y-128235018D01*
X125168599Y-128037369D01*
X125293164Y-127821615D01*
X125388502Y-127591449D01*
X125452982Y-127350807D01*
X125485500Y-127103807D01*
X125485500Y-126854677D01*
X125452982Y-126607677D01*
X125388502Y-126367035D01*
X125293164Y-126136869D01*
X125293162Y-126136865D01*
X125168602Y-125921119D01*
X125154565Y-125902826D01*
X125093045Y-125822651D01*
X125056185Y-125774614D01*
X129138600Y-125774614D01*
X129138600Y-126724600D01*
X130438599Y-126724600D01*
X130413579Y-126785002D01*
X130388600Y-126910581D01*
X130388600Y-127038619D01*
X130413579Y-127164198D01*
X130438599Y-127224600D01*
X129138600Y-127224600D01*
X129138600Y-128174585D01*
X129149093Y-128277289D01*
X129149094Y-128277296D01*
X129204241Y-128443718D01*
X129204243Y-128443723D01*
X129296284Y-128592944D01*
X129420255Y-128716915D01*
X129569476Y-128808956D01*
X129569481Y-128808958D01*
X129735903Y-128864105D01*
X129735910Y-128864106D01*
X129838614Y-128874599D01*
X129838627Y-128874600D01*
X130788600Y-128874600D01*
X130788600Y-127574601D01*
X130849002Y-127599621D01*
X130974581Y-127624600D01*
X131102619Y-127624600D01*
X131228198Y-127599621D01*
X131288600Y-127574601D01*
X131288600Y-128874600D01*
X132238573Y-128874600D01*
X132238585Y-128874599D01*
X132341289Y-128864106D01*
X132341296Y-128864105D01*
X132507718Y-128808958D01*
X132507723Y-128808956D01*
X132656944Y-128716915D01*
X132780915Y-128592944D01*
X132872956Y-128443723D01*
X132872958Y-128443718D01*
X132928105Y-128277296D01*
X132928106Y-128277289D01*
X132938599Y-128174585D01*
X132938600Y-128174572D01*
X132938600Y-127224600D01*
X131638601Y-127224600D01*
X131663621Y-127164198D01*
X131688600Y-127038619D01*
X131688600Y-126910581D01*
X131676558Y-126850041D01*
X134138100Y-126850041D01*
X134138100Y-127099158D01*
X134138101Y-127099175D01*
X134170617Y-127346161D01*
X134235098Y-127586807D01*
X134330430Y-127816961D01*
X134330437Y-127816976D01*
X134455000Y-128032726D01*
X134606660Y-128230374D01*
X134606666Y-128230381D01*
X134782818Y-128406533D01*
X134782825Y-128406539D01*
X134980473Y-128558199D01*
X135196223Y-128682762D01*
X135196238Y-128682769D01*
X135278675Y-128716915D01*
X135426393Y-128778102D01*
X135667035Y-128842582D01*
X135914035Y-128875100D01*
X135914042Y-128875100D01*
X136163158Y-128875100D01*
X136163165Y-128875100D01*
X136410165Y-128842582D01*
X136650807Y-128778102D01*
X136880973Y-128682764D01*
X137096727Y-128558199D01*
X137294376Y-128406538D01*
X137470538Y-128230376D01*
X137622199Y-128032727D01*
X137746764Y-127816973D01*
X137842102Y-127586807D01*
X137906582Y-127346165D01*
X137939100Y-127099165D01*
X137939100Y-126850035D01*
X137918919Y-126696741D01*
X141551865Y-126696741D01*
X141551865Y-126696742D01*
X142501184Y-126696742D01*
X142485124Y-126712802D01*
X142434964Y-126799681D01*
X142409000Y-126896582D01*
X142409000Y-126996902D01*
X142434964Y-127093803D01*
X142485124Y-127180682D01*
X142501184Y-127196742D01*
X141551865Y-127196742D01*
X141559074Y-127242259D01*
X141620456Y-127431177D01*
X141710641Y-127608174D01*
X141827403Y-127768881D01*
X141827403Y-127768882D01*
X141967859Y-127909338D01*
X142128567Y-128026100D01*
X142305562Y-128116284D01*
X142494473Y-128177664D01*
X142540000Y-128184875D01*
X142540000Y-127235558D01*
X142556060Y-127251618D01*
X142642939Y-127301778D01*
X142739840Y-127327742D01*
X142840160Y-127327742D01*
X142937061Y-127301778D01*
X143023940Y-127251618D01*
X143040000Y-127235558D01*
X143040000Y-128184874D01*
X143085526Y-128177664D01*
X143274437Y-128116284D01*
X143451432Y-128026100D01*
X143612139Y-127909338D01*
X143612140Y-127909338D01*
X143752596Y-127768882D01*
X143752596Y-127768881D01*
X143869358Y-127608174D01*
X143959543Y-127431177D01*
X144020925Y-127242259D01*
X144028134Y-127196742D01*
X143078816Y-127196742D01*
X143094876Y-127180682D01*
X143145036Y-127093803D01*
X143171000Y-126996902D01*
X143171000Y-126896582D01*
X143157817Y-126847381D01*
X146567500Y-126847381D01*
X146567500Y-127046103D01*
X146576641Y-127103814D01*
X146598587Y-127242379D01*
X146659993Y-127431371D01*
X146659994Y-127431374D01*
X146748087Y-127604263D01*
X146750213Y-127608436D01*
X146867019Y-127769206D01*
X147007536Y-127909723D01*
X147168306Y-128026529D01*
X147189579Y-128037368D01*
X147345367Y-128116747D01*
X147345370Y-128116748D01*
X147439866Y-128147451D01*
X147534364Y-128178155D01*
X147730639Y-128209242D01*
X147730640Y-128209242D01*
X147929360Y-128209242D01*
X147929361Y-128209242D01*
X148125636Y-128178155D01*
X148314632Y-128116747D01*
X148491694Y-128026529D01*
X148652464Y-127909723D01*
X148792981Y-127769206D01*
X148909787Y-127608436D01*
X149000005Y-127431374D01*
X149061413Y-127242378D01*
X149092500Y-127046103D01*
X149092500Y-126847381D01*
X149068641Y-126696741D01*
X149761865Y-126696741D01*
X149761865Y-126696742D01*
X150711184Y-126696742D01*
X150695124Y-126712802D01*
X150644964Y-126799681D01*
X150619000Y-126896582D01*
X150619000Y-126996902D01*
X150644964Y-127093803D01*
X150695124Y-127180682D01*
X150711184Y-127196742D01*
X149761865Y-127196742D01*
X149769074Y-127242259D01*
X149830456Y-127431177D01*
X149920641Y-127608174D01*
X150037403Y-127768881D01*
X150037403Y-127768882D01*
X150177859Y-127909338D01*
X150338567Y-128026100D01*
X150515562Y-128116284D01*
X150704473Y-128177664D01*
X150750000Y-128184875D01*
X150750000Y-127235558D01*
X150766060Y-127251618D01*
X150852939Y-127301778D01*
X150949840Y-127327742D01*
X151050160Y-127327742D01*
X151147061Y-127301778D01*
X151233940Y-127251618D01*
X151250000Y-127235558D01*
X151250000Y-128184874D01*
X151295526Y-128177664D01*
X151484437Y-128116284D01*
X151661432Y-128026100D01*
X151822139Y-127909338D01*
X151822140Y-127909338D01*
X151962596Y-127768882D01*
X151962596Y-127768881D01*
X152079358Y-127608174D01*
X152169543Y-127431177D01*
X152230925Y-127242259D01*
X152238134Y-127196742D01*
X151288816Y-127196742D01*
X151304876Y-127180682D01*
X151355036Y-127093803D01*
X151381000Y-126996902D01*
X151381000Y-126896582D01*
X151367817Y-126847381D01*
X154777500Y-126847381D01*
X154777500Y-127046103D01*
X154786641Y-127103814D01*
X154808587Y-127242379D01*
X154869993Y-127431371D01*
X154869994Y-127431374D01*
X154958087Y-127604263D01*
X154960213Y-127608436D01*
X155077019Y-127769206D01*
X155217536Y-127909723D01*
X155378306Y-128026529D01*
X155399579Y-128037368D01*
X155555367Y-128116747D01*
X155555370Y-128116748D01*
X155649866Y-128147451D01*
X155744364Y-128178155D01*
X155940639Y-128209242D01*
X155940640Y-128209242D01*
X156139360Y-128209242D01*
X156139361Y-128209242D01*
X156335636Y-128178155D01*
X156524632Y-128116747D01*
X156701694Y-128026529D01*
X156862464Y-127909723D01*
X157002981Y-127769206D01*
X157119787Y-127608436D01*
X157210005Y-127431374D01*
X157271413Y-127242378D01*
X157302500Y-127046103D01*
X157302500Y-126847381D01*
X157271413Y-126651106D01*
X157235477Y-126540506D01*
X157210006Y-126462112D01*
X157210005Y-126462109D01*
X157159196Y-126362392D01*
X157119787Y-126285048D01*
X157002981Y-126124278D01*
X156862464Y-125983761D01*
X156701694Y-125866955D01*
X156696570Y-125864344D01*
X156524632Y-125776736D01*
X156524629Y-125776735D01*
X156335637Y-125715329D01*
X156237498Y-125699785D01*
X156139361Y-125684242D01*
X155940639Y-125684242D01*
X155875214Y-125694604D01*
X155744362Y-125715329D01*
X155555370Y-125776735D01*
X155555367Y-125776736D01*
X155378305Y-125866955D01*
X155217533Y-125983763D01*
X155077021Y-126124275D01*
X154960213Y-126285047D01*
X154869994Y-126462109D01*
X154869993Y-126462112D01*
X154808587Y-126651104D01*
X154796211Y-126729242D01*
X154777500Y-126847381D01*
X151367817Y-126847381D01*
X151355036Y-126799681D01*
X151304876Y-126712802D01*
X151288816Y-126696742D01*
X152238135Y-126696742D01*
X152238134Y-126696741D01*
X152230925Y-126651224D01*
X152169543Y-126462306D01*
X152079358Y-126285309D01*
X151962596Y-126124602D01*
X151962596Y-126124601D01*
X151822140Y-125984145D01*
X151661432Y-125867383D01*
X151484434Y-125777198D01*
X151484436Y-125777198D01*
X151295517Y-125715816D01*
X151250000Y-125708607D01*
X151250000Y-126657926D01*
X151233940Y-126641866D01*
X151147061Y-126591706D01*
X151050160Y-126565742D01*
X150949840Y-126565742D01*
X150852939Y-126591706D01*
X150766060Y-126641866D01*
X150750000Y-126657926D01*
X150750000Y-125708607D01*
X150749999Y-125708607D01*
X150704482Y-125715816D01*
X150515564Y-125777198D01*
X150338567Y-125867383D01*
X150177860Y-125984145D01*
X150177859Y-125984145D01*
X150037403Y-126124601D01*
X150037403Y-126124602D01*
X149920641Y-126285309D01*
X149830456Y-126462306D01*
X149769074Y-126651224D01*
X149761865Y-126696741D01*
X149068641Y-126696741D01*
X149061413Y-126651106D01*
X149061413Y-126651105D01*
X149000006Y-126462112D01*
X149000005Y-126462109D01*
X148949196Y-126362392D01*
X148909787Y-126285048D01*
X148792981Y-126124278D01*
X148652464Y-125983761D01*
X148491694Y-125866955D01*
X148486570Y-125864344D01*
X148314632Y-125776736D01*
X148314629Y-125776735D01*
X148125637Y-125715329D01*
X148027498Y-125699785D01*
X147929361Y-125684242D01*
X147730639Y-125684242D01*
X147665214Y-125694604D01*
X147534362Y-125715329D01*
X147345370Y-125776735D01*
X147345367Y-125776736D01*
X147168305Y-125866955D01*
X147007533Y-125983763D01*
X146867021Y-126124275D01*
X146750213Y-126285047D01*
X146659994Y-126462109D01*
X146659993Y-126462112D01*
X146598587Y-126651104D01*
X146586211Y-126729242D01*
X146567500Y-126847381D01*
X143157817Y-126847381D01*
X143145036Y-126799681D01*
X143094876Y-126712802D01*
X143078816Y-126696742D01*
X144028135Y-126696742D01*
X144028134Y-126696741D01*
X144020925Y-126651224D01*
X143959543Y-126462306D01*
X143869358Y-126285309D01*
X143752596Y-126124602D01*
X143752596Y-126124601D01*
X143612140Y-125984145D01*
X143451432Y-125867383D01*
X143274434Y-125777198D01*
X143274436Y-125777198D01*
X143085517Y-125715816D01*
X143040000Y-125708607D01*
X143040000Y-126657926D01*
X143023940Y-126641866D01*
X142937061Y-126591706D01*
X142840160Y-126565742D01*
X142739840Y-126565742D01*
X142642939Y-126591706D01*
X142556060Y-126641866D01*
X142540000Y-126657926D01*
X142540000Y-125708607D01*
X142539999Y-125708607D01*
X142494482Y-125715816D01*
X142305564Y-125777198D01*
X142128567Y-125867383D01*
X141967860Y-125984145D01*
X141967859Y-125984145D01*
X141827403Y-126124601D01*
X141827403Y-126124602D01*
X141710641Y-126285309D01*
X141620456Y-126462306D01*
X141559074Y-126651224D01*
X141551865Y-126696741D01*
X137918919Y-126696741D01*
X137906582Y-126603035D01*
X137842102Y-126362393D01*
X137756467Y-126155651D01*
X137746769Y-126132238D01*
X137746762Y-126132223D01*
X137622199Y-125916473D01*
X137470539Y-125718825D01*
X137470533Y-125718818D01*
X137294381Y-125542666D01*
X137294374Y-125542660D01*
X137096726Y-125391000D01*
X136880976Y-125266437D01*
X136880961Y-125266430D01*
X136650807Y-125171098D01*
X136567933Y-125148892D01*
X136410165Y-125106618D01*
X136410164Y-125106617D01*
X136410161Y-125106617D01*
X136163175Y-125074101D01*
X136163170Y-125074100D01*
X136163165Y-125074100D01*
X135914035Y-125074100D01*
X135914029Y-125074100D01*
X135914024Y-125074101D01*
X135667038Y-125106617D01*
X135426392Y-125171098D01*
X135196238Y-125266430D01*
X135196223Y-125266437D01*
X134980473Y-125391000D01*
X134782825Y-125542660D01*
X134782818Y-125542666D01*
X134606666Y-125718818D01*
X134606660Y-125718825D01*
X134455000Y-125916473D01*
X134330437Y-126132223D01*
X134330430Y-126132238D01*
X134235098Y-126362392D01*
X134170617Y-126603038D01*
X134138101Y-126850024D01*
X134138100Y-126850041D01*
X131676558Y-126850041D01*
X131663621Y-126785002D01*
X131638601Y-126724600D01*
X132938600Y-126724600D01*
X132938600Y-125774627D01*
X132938599Y-125774614D01*
X132928106Y-125671910D01*
X132928105Y-125671903D01*
X132872958Y-125505481D01*
X132872956Y-125505476D01*
X132780915Y-125356255D01*
X132656944Y-125232284D01*
X132507723Y-125140243D01*
X132507718Y-125140241D01*
X132341296Y-125085094D01*
X132341289Y-125085093D01*
X132238585Y-125074600D01*
X131288600Y-125074600D01*
X131288600Y-126374598D01*
X131228198Y-126349579D01*
X131102619Y-126324600D01*
X130974581Y-126324600D01*
X130849002Y-126349579D01*
X130788600Y-126374598D01*
X130788600Y-125074600D01*
X129838614Y-125074600D01*
X129735910Y-125085093D01*
X129735903Y-125085094D01*
X129569481Y-125140241D01*
X129569476Y-125140243D01*
X129420255Y-125232284D01*
X129296284Y-125356255D01*
X129204243Y-125505476D01*
X129204241Y-125505481D01*
X129149094Y-125671903D01*
X129149093Y-125671910D01*
X129138600Y-125774614D01*
X125056185Y-125774614D01*
X125016939Y-125723467D01*
X125016933Y-125723460D01*
X124840781Y-125547308D01*
X124840774Y-125547302D01*
X124643126Y-125395642D01*
X124427376Y-125271079D01*
X124427361Y-125271072D01*
X124197207Y-125175740D01*
X123956561Y-125111259D01*
X123709575Y-125078743D01*
X123709570Y-125078742D01*
X123709565Y-125078742D01*
X123460435Y-125078742D01*
X123460429Y-125078742D01*
X123460424Y-125078743D01*
X123213438Y-125111259D01*
X122972792Y-125175740D01*
X122742638Y-125271072D01*
X122742623Y-125271079D01*
X122526873Y-125395642D01*
X122329225Y-125547302D01*
X122329218Y-125547308D01*
X122153066Y-125723460D01*
X122153060Y-125723467D01*
X122001400Y-125921115D01*
X121876837Y-126136865D01*
X121876830Y-126136880D01*
X121781498Y-126367034D01*
X121717017Y-126607680D01*
X121684501Y-126854666D01*
X121684500Y-126854683D01*
X119222958Y-126854683D01*
X119210021Y-126789644D01*
X119185001Y-126729242D01*
X120485000Y-126729242D01*
X120485000Y-125779269D01*
X120484999Y-125779256D01*
X120474506Y-125676552D01*
X120474505Y-125676545D01*
X120419358Y-125510123D01*
X120419356Y-125510118D01*
X120327315Y-125360897D01*
X120203344Y-125236926D01*
X120054123Y-125144885D01*
X120054118Y-125144883D01*
X119887696Y-125089736D01*
X119887689Y-125089735D01*
X119784985Y-125079242D01*
X118835000Y-125079242D01*
X118835000Y-126379240D01*
X118774598Y-126354221D01*
X118649019Y-126329242D01*
X118520981Y-126329242D01*
X118395402Y-126354221D01*
X118335000Y-126379240D01*
X118335000Y-125079242D01*
X117385014Y-125079242D01*
X117282310Y-125089735D01*
X117282303Y-125089736D01*
X117115881Y-125144883D01*
X117115876Y-125144885D01*
X116966655Y-125236926D01*
X116842684Y-125360897D01*
X116750643Y-125510118D01*
X116750641Y-125510123D01*
X116695494Y-125676545D01*
X116695493Y-125676552D01*
X116685000Y-125779256D01*
X103840500Y-125779256D01*
X103840500Y-122775441D01*
X108099500Y-122775441D01*
X108099500Y-123024558D01*
X108099501Y-123024575D01*
X108132017Y-123271561D01*
X108196498Y-123512207D01*
X108291830Y-123742361D01*
X108291837Y-123742376D01*
X108416400Y-123958126D01*
X108568060Y-124155774D01*
X108568066Y-124155781D01*
X108744218Y-124331933D01*
X108744225Y-124331939D01*
X108941873Y-124483599D01*
X109157623Y-124608162D01*
X109157638Y-124608169D01*
X109256825Y-124649253D01*
X109387793Y-124703502D01*
X109628435Y-124767982D01*
X109875435Y-124800500D01*
X109875442Y-124800500D01*
X110124558Y-124800500D01*
X110124565Y-124800500D01*
X110371565Y-124767982D01*
X110612207Y-124703502D01*
X110842373Y-124608164D01*
X111058127Y-124483599D01*
X111255776Y-124331938D01*
X111431938Y-124155776D01*
X111583599Y-123958127D01*
X111708164Y-123742373D01*
X111803502Y-123512207D01*
X111867982Y-123271565D01*
X111900500Y-123024565D01*
X111900500Y-122775435D01*
X111867982Y-122528435D01*
X111803502Y-122287793D01*
X111708164Y-122057627D01*
X111707781Y-122056964D01*
X111583599Y-121841873D01*
X111431939Y-121644225D01*
X111431933Y-121644218D01*
X111255781Y-121468066D01*
X111255774Y-121468060D01*
X111058126Y-121316400D01*
X110842376Y-121191837D01*
X110842361Y-121191830D01*
X110612207Y-121096498D01*
X110371561Y-121032017D01*
X110124575Y-120999501D01*
X110124570Y-120999500D01*
X110124565Y-120999500D01*
X109875435Y-120999500D01*
X109875429Y-120999500D01*
X109875424Y-120999501D01*
X109628438Y-121032017D01*
X109387792Y-121096498D01*
X109157638Y-121191830D01*
X109157623Y-121191837D01*
X108941873Y-121316400D01*
X108744225Y-121468060D01*
X108744218Y-121468066D01*
X108568066Y-121644218D01*
X108568060Y-121644225D01*
X108416400Y-121841873D01*
X108291837Y-122057623D01*
X108291830Y-122057638D01*
X108196498Y-122287792D01*
X108132017Y-122528438D01*
X108099501Y-122775424D01*
X108099500Y-122775441D01*
X103840500Y-122775441D01*
X103840500Y-118905131D01*
X144689500Y-118905131D01*
X144689500Y-119078352D01*
X144709614Y-119205352D01*
X144716598Y-119249443D01*
X144770127Y-119414187D01*
X144848768Y-119568530D01*
X144950586Y-119708670D01*
X145073072Y-119831156D01*
X145213212Y-119932974D01*
X145367555Y-120011615D01*
X145532299Y-120065144D01*
X145703389Y-120092242D01*
X145703390Y-120092242D01*
X145876610Y-120092242D01*
X145876611Y-120092242D01*
X146047701Y-120065144D01*
X146212445Y-120011615D01*
X146366788Y-119932974D01*
X146506928Y-119831156D01*
X146629414Y-119708670D01*
X146731232Y-119568530D01*
X146809873Y-119414187D01*
X146863402Y-119249443D01*
X146890500Y-119078353D01*
X146890500Y-118905131D01*
X146863402Y-118734041D01*
X146809873Y-118569297D01*
X146731232Y-118414954D01*
X146629414Y-118274814D01*
X146506928Y-118152328D01*
X146501789Y-118148594D01*
X146419479Y-118088791D01*
X146413140Y-118080570D01*
X146404063Y-118075530D01*
X146392168Y-118053374D01*
X146376813Y-118033461D01*
X146375047Y-118021482D01*
X146371014Y-118013970D01*
X146368747Y-117978749D01*
X146372736Y-117928030D01*
X146341961Y-117897255D01*
X150824500Y-117897255D01*
X150824500Y-118086228D01*
X150854059Y-118272860D01*
X150912454Y-118452578D01*
X150983617Y-118592242D01*
X150998240Y-118620941D01*
X151109310Y-118773815D01*
X151242927Y-118907432D01*
X151395801Y-119018502D01*
X151426579Y-119034184D01*
X151564163Y-119104287D01*
X151564165Y-119104287D01*
X151564168Y-119104289D01*
X151625552Y-119124234D01*
X151743881Y-119162682D01*
X151930514Y-119192242D01*
X151930519Y-119192242D01*
X152119486Y-119192242D01*
X152306118Y-119162682D01*
X152343327Y-119150592D01*
X152485832Y-119104289D01*
X152654199Y-119018502D01*
X152807073Y-118907432D01*
X152940690Y-118773815D01*
X153051760Y-118620941D01*
X153137547Y-118452574D01*
X153195940Y-118272860D01*
X153215030Y-118152330D01*
X153225500Y-118086228D01*
X153225500Y-117897255D01*
X153195940Y-117710623D01*
X153168846Y-117627239D01*
X153137547Y-117530910D01*
X153137545Y-117530907D01*
X153137545Y-117530905D01*
X153051759Y-117362542D01*
X153041214Y-117348028D01*
X152940690Y-117209669D01*
X152807073Y-117076052D01*
X152654199Y-116964982D01*
X152629203Y-116952246D01*
X152485836Y-116879196D01*
X152306118Y-116820801D01*
X152119486Y-116791242D01*
X152119481Y-116791242D01*
X151930519Y-116791242D01*
X151930514Y-116791242D01*
X151743881Y-116820801D01*
X151564163Y-116879196D01*
X151395800Y-116964982D01*
X151322959Y-117017905D01*
X151242927Y-117076052D01*
X151242925Y-117076054D01*
X151242924Y-117076054D01*
X151109312Y-117209666D01*
X151109312Y-117209667D01*
X151109310Y-117209669D01*
X151064534Y-117271298D01*
X150998240Y-117362542D01*
X150912454Y-117530905D01*
X150854059Y-117710623D01*
X150824500Y-117897255D01*
X146341961Y-117897255D01*
X145790001Y-117345295D01*
X145790000Y-117345295D01*
X145207261Y-117928031D01*
X145211253Y-117978745D01*
X145196889Y-118047123D01*
X145160521Y-118088791D01*
X145073078Y-118152323D01*
X145073069Y-118152330D01*
X144950588Y-118274811D01*
X144950588Y-118274812D01*
X144950586Y-118274814D01*
X144906859Y-118334998D01*
X144848768Y-118414953D01*
X144770128Y-118569294D01*
X144716597Y-118734044D01*
X144689500Y-118905131D01*
X103840500Y-118905131D01*
X103840500Y-113600014D01*
X108200000Y-113600014D01*
X108200000Y-114550000D01*
X109499999Y-114550000D01*
X109474979Y-114610402D01*
X109450000Y-114735981D01*
X109450000Y-114864019D01*
X109474979Y-114989598D01*
X109499999Y-115050000D01*
X108200000Y-115050000D01*
X108200000Y-115999985D01*
X108210493Y-116102689D01*
X108210494Y-116102696D01*
X108265641Y-116269118D01*
X108265643Y-116269123D01*
X108357684Y-116418344D01*
X108481655Y-116542315D01*
X108630876Y-116634356D01*
X108630881Y-116634358D01*
X108797303Y-116689505D01*
X108797310Y-116689506D01*
X108900014Y-116699999D01*
X108900027Y-116700000D01*
X109850000Y-116700000D01*
X109850000Y-115400001D01*
X109910402Y-115425021D01*
X110035981Y-115450000D01*
X110164019Y-115450000D01*
X110289598Y-115425021D01*
X110350000Y-115400001D01*
X110350000Y-116700000D01*
X111299973Y-116700000D01*
X111299985Y-116699999D01*
X111402689Y-116689506D01*
X111402696Y-116689505D01*
X111569118Y-116634358D01*
X111569123Y-116634356D01*
X111718344Y-116542315D01*
X111842315Y-116418344D01*
X111934356Y-116269123D01*
X111934358Y-116269118D01*
X111989505Y-116102696D01*
X111989506Y-116102689D01*
X111999999Y-115999985D01*
X112000000Y-115999972D01*
X112000000Y-115876924D01*
X117285000Y-115876924D01*
X117285000Y-116081559D01*
X117317009Y-116283659D01*
X117380244Y-116478273D01*
X117473141Y-116660592D01*
X117473147Y-116660601D01*
X117505523Y-116705163D01*
X117505524Y-116705164D01*
X118185000Y-116025688D01*
X118185000Y-116031903D01*
X118212259Y-116133636D01*
X118264920Y-116224848D01*
X118339394Y-116299322D01*
X118430606Y-116351983D01*
X118532339Y-116379242D01*
X118538553Y-116379242D01*
X117859076Y-117058716D01*
X117903650Y-117091101D01*
X118085968Y-117183997D01*
X118280582Y-117247232D01*
X118482683Y-117279242D01*
X118687317Y-117279242D01*
X118889417Y-117247232D01*
X119084031Y-117183997D01*
X119266349Y-117091101D01*
X119310921Y-117058716D01*
X118631447Y-116379242D01*
X118637661Y-116379242D01*
X118739394Y-116351983D01*
X118830606Y-116299322D01*
X118905080Y-116224848D01*
X118957741Y-116133636D01*
X118985000Y-116031903D01*
X118985000Y-116025689D01*
X119664474Y-116705163D01*
X119696859Y-116660591D01*
X119789755Y-116478273D01*
X119852990Y-116283659D01*
X119885000Y-116081559D01*
X119885000Y-115876924D01*
X119884995Y-115876890D01*
X122284500Y-115876890D01*
X122284500Y-116081593D01*
X122316522Y-116283776D01*
X122379781Y-116478465D01*
X122443691Y-116603895D01*
X122472585Y-116660601D01*
X122472715Y-116660855D01*
X122593028Y-116826455D01*
X122737786Y-116971213D01*
X122892749Y-117083798D01*
X122903390Y-117091529D01*
X123019607Y-117150745D01*
X123085776Y-117184460D01*
X123085778Y-117184460D01*
X123085781Y-117184462D01*
X123163351Y-117209666D01*
X123280465Y-117247719D01*
X123381557Y-117263730D01*
X123482648Y-117279742D01*
X123482649Y-117279742D01*
X123687351Y-117279742D01*
X123687352Y-117279742D01*
X123889534Y-117247719D01*
X124084219Y-117184462D01*
X124266610Y-117091529D01*
X124367946Y-117017905D01*
X124432213Y-116971213D01*
X124432215Y-116971210D01*
X124432219Y-116971208D01*
X124498257Y-116905170D01*
X144690000Y-116905170D01*
X144690000Y-117078313D01*
X144717085Y-117249326D01*
X144770592Y-117414001D01*
X144849196Y-117568267D01*
X144853709Y-117574478D01*
X144853709Y-117574479D01*
X145436446Y-116991743D01*
X145436446Y-116991741D01*
X145396951Y-116952246D01*
X145490000Y-116952246D01*
X145490000Y-117031238D01*
X145510444Y-117107538D01*
X145549940Y-117175947D01*
X145605795Y-117231802D01*
X145674204Y-117271298D01*
X145750504Y-117291742D01*
X145829496Y-117291742D01*
X145905796Y-117271298D01*
X145974205Y-117231802D01*
X146030060Y-117175947D01*
X146069556Y-117107538D01*
X146090000Y-117031238D01*
X146090000Y-116991741D01*
X146143553Y-116991741D01*
X146143553Y-116991743D01*
X146726289Y-117574479D01*
X146726289Y-117574478D01*
X146730803Y-117568267D01*
X146809408Y-117413999D01*
X146862914Y-117249326D01*
X146890000Y-117078313D01*
X146890000Y-116905170D01*
X146862914Y-116734157D01*
X146809408Y-116569484D01*
X146730801Y-116415213D01*
X146726290Y-116409004D01*
X146726289Y-116409003D01*
X146143553Y-116991741D01*
X146090000Y-116991741D01*
X146090000Y-116952246D01*
X146069556Y-116875946D01*
X146030060Y-116807537D01*
X145974205Y-116751682D01*
X145905796Y-116712186D01*
X145829496Y-116691742D01*
X145750504Y-116691742D01*
X145674204Y-116712186D01*
X145605795Y-116751682D01*
X145549940Y-116807537D01*
X145510444Y-116875946D01*
X145490000Y-116952246D01*
X145396951Y-116952246D01*
X144853709Y-116409003D01*
X144853708Y-116409003D01*
X144849203Y-116415205D01*
X144849193Y-116415222D01*
X144770592Y-116569482D01*
X144717085Y-116734157D01*
X144690000Y-116905170D01*
X124498257Y-116905170D01*
X124576966Y-116826461D01*
X124581078Y-116820802D01*
X124602554Y-116791242D01*
X124697287Y-116660852D01*
X124790220Y-116478461D01*
X124853477Y-116283776D01*
X124885500Y-116081594D01*
X124885500Y-116055450D01*
X145207261Y-116055450D01*
X145207261Y-116055451D01*
X145790000Y-116638188D01*
X145790001Y-116638188D01*
X146372737Y-116055451D01*
X146366525Y-116050938D01*
X146212259Y-115972334D01*
X146047584Y-115918827D01*
X145876571Y-115891742D01*
X145703429Y-115891742D01*
X145532415Y-115918827D01*
X145367740Y-115972334D01*
X145213480Y-116050935D01*
X145213463Y-116050945D01*
X145207261Y-116055450D01*
X124885500Y-116055450D01*
X124885500Y-115876890D01*
X124853477Y-115674707D01*
X124818453Y-115566915D01*
X124790220Y-115480023D01*
X124790218Y-115480020D01*
X124790218Y-115480018D01*
X124756503Y-115413849D01*
X124697287Y-115297632D01*
X124689556Y-115286991D01*
X124576971Y-115132028D01*
X124432213Y-114987270D01*
X124266613Y-114866957D01*
X124266612Y-114866956D01*
X124266610Y-114866955D01*
X124180954Y-114823311D01*
X124084223Y-114774023D01*
X123889534Y-114710764D01*
X123714995Y-114683120D01*
X123687352Y-114678742D01*
X123482648Y-114678742D01*
X123458329Y-114682593D01*
X123280465Y-114710764D01*
X123085776Y-114774023D01*
X122903386Y-114866957D01*
X122737786Y-114987270D01*
X122593028Y-115132028D01*
X122472715Y-115297628D01*
X122379781Y-115480018D01*
X122316522Y-115674707D01*
X122284500Y-115876890D01*
X119884995Y-115876890D01*
X119852990Y-115674824D01*
X119789755Y-115480210D01*
X119696859Y-115297892D01*
X119664474Y-115253319D01*
X119664474Y-115253318D01*
X118985000Y-115932793D01*
X118985000Y-115926581D01*
X118957741Y-115824848D01*
X118905080Y-115733636D01*
X118830606Y-115659162D01*
X118739394Y-115606501D01*
X118637661Y-115579242D01*
X118631446Y-115579242D01*
X119310922Y-114899766D01*
X119310921Y-114899765D01*
X119266359Y-114867389D01*
X119266350Y-114867383D01*
X119084031Y-114774486D01*
X118889417Y-114711251D01*
X118687317Y-114679242D01*
X118482683Y-114679242D01*
X118280582Y-114711251D01*
X118085968Y-114774486D01*
X117903644Y-114867385D01*
X117859077Y-114899765D01*
X117859077Y-114899766D01*
X118538554Y-115579242D01*
X118532339Y-115579242D01*
X118430606Y-115606501D01*
X118339394Y-115659162D01*
X118264920Y-115733636D01*
X118212259Y-115824848D01*
X118185000Y-115926581D01*
X118185000Y-115932795D01*
X117505524Y-115253319D01*
X117505523Y-115253319D01*
X117473143Y-115297886D01*
X117380244Y-115480210D01*
X117317009Y-115674824D01*
X117285000Y-115876924D01*
X112000000Y-115876924D01*
X112000000Y-115050000D01*
X110700001Y-115050000D01*
X110725021Y-114989598D01*
X110750000Y-114864019D01*
X110750000Y-114735981D01*
X110725021Y-114610402D01*
X110700001Y-114550000D01*
X112000000Y-114550000D01*
X112000000Y-113600027D01*
X111999999Y-113600014D01*
X111989506Y-113497310D01*
X111989505Y-113497303D01*
X111934358Y-113330881D01*
X111934356Y-113330876D01*
X111842315Y-113181655D01*
X111718344Y-113057684D01*
X111569123Y-112965643D01*
X111569118Y-112965641D01*
X111402696Y-112910494D01*
X111402689Y-112910493D01*
X111299985Y-112900000D01*
X110350000Y-112900000D01*
X110350000Y-114199998D01*
X110289598Y-114174979D01*
X110164019Y-114150000D01*
X110035981Y-114150000D01*
X109910402Y-114174979D01*
X109850000Y-114199998D01*
X109850000Y-112900000D01*
X108900014Y-112900000D01*
X108797310Y-112910493D01*
X108797303Y-112910494D01*
X108630881Y-112965641D01*
X108630876Y-112965643D01*
X108481655Y-113057684D01*
X108357684Y-113181655D01*
X108265643Y-113330876D01*
X108265641Y-113330881D01*
X108210494Y-113497303D01*
X108210493Y-113497310D01*
X108200000Y-113600014D01*
X103840500Y-113600014D01*
X103840500Y-109675441D01*
X108199500Y-109675441D01*
X108199500Y-109924558D01*
X108199501Y-109924575D01*
X108232017Y-110171561D01*
X108296498Y-110412207D01*
X108391830Y-110642361D01*
X108391837Y-110642376D01*
X108516400Y-110858126D01*
X108668060Y-111055774D01*
X108668066Y-111055781D01*
X108844218Y-111231933D01*
X108844225Y-111231939D01*
X109041873Y-111383599D01*
X109257623Y-111508162D01*
X109257638Y-111508169D01*
X109356825Y-111549253D01*
X109487793Y-111603502D01*
X109728435Y-111667982D01*
X109975435Y-111700500D01*
X109975442Y-111700500D01*
X110224558Y-111700500D01*
X110224565Y-111700500D01*
X110471565Y-111667982D01*
X110712207Y-111603502D01*
X110942373Y-111508164D01*
X111158127Y-111383599D01*
X111355776Y-111231938D01*
X111531938Y-111055776D01*
X111683599Y-110858127D01*
X111808164Y-110642373D01*
X111903502Y-110412207D01*
X111967982Y-110171565D01*
X112000500Y-109924565D01*
X112000500Y-109675435D01*
X111967982Y-109428435D01*
X111903502Y-109187793D01*
X111849253Y-109056825D01*
X111808169Y-108957638D01*
X111808162Y-108957623D01*
X111683599Y-108741873D01*
X111531939Y-108544225D01*
X111531933Y-108544218D01*
X111355781Y-108368066D01*
X111355774Y-108368060D01*
X111158126Y-108216400D01*
X110942376Y-108091837D01*
X110942361Y-108091830D01*
X110712207Y-107996498D01*
X110471561Y-107932017D01*
X110224575Y-107899501D01*
X110224570Y-107899500D01*
X110224565Y-107899500D01*
X109975435Y-107899500D01*
X109975429Y-107899500D01*
X109975424Y-107899501D01*
X109728438Y-107932017D01*
X109487792Y-107996498D01*
X109257638Y-108091830D01*
X109257623Y-108091837D01*
X109041873Y-108216400D01*
X108844225Y-108368060D01*
X108844218Y-108368066D01*
X108668066Y-108544218D01*
X108668060Y-108544225D01*
X108516400Y-108741873D01*
X108391837Y-108957623D01*
X108391830Y-108957638D01*
X108296498Y-109187792D01*
X108232017Y-109428438D01*
X108199501Y-109675424D01*
X108199500Y-109675441D01*
X103840500Y-109675441D01*
X103840500Y-105327882D01*
X110245669Y-105327882D01*
X110245670Y-105327883D01*
X110271059Y-105346329D01*
X110439362Y-105432085D01*
X110618997Y-105490451D01*
X110805553Y-105520000D01*
X110994447Y-105520000D01*
X111181002Y-105490451D01*
X111360637Y-105432085D01*
X111528937Y-105346331D01*
X111554328Y-105327883D01*
X111554328Y-105327882D01*
X111545775Y-105319329D01*
X111462966Y-105236520D01*
X118934500Y-105236520D01*
X118934500Y-105456963D01*
X118968985Y-105674694D01*
X119037103Y-105884345D01*
X119037104Y-105884346D01*
X119037105Y-105884348D01*
X119125578Y-106057985D01*
X119137187Y-106080767D01*
X119266752Y-106259100D01*
X119266756Y-106259105D01*
X119422636Y-106414985D01*
X119422641Y-106414989D01*
X119522236Y-106487348D01*
X119600978Y-106544557D01*
X119729375Y-106609979D01*
X119797393Y-106644637D01*
X119797396Y-106644638D01*
X119902221Y-106678697D01*
X120007049Y-106712757D01*
X120224778Y-106747242D01*
X120224779Y-106747242D01*
X120445221Y-106747242D01*
X120445222Y-106747242D01*
X120662951Y-106712757D01*
X120872606Y-106644637D01*
X121069022Y-106544557D01*
X121247365Y-106414984D01*
X121403242Y-106259107D01*
X121519655Y-106098877D01*
X122634500Y-106098877D01*
X122634500Y-107994612D01*
X122634501Y-107994618D01*
X122640908Y-108054225D01*
X122691202Y-108189070D01*
X122691206Y-108189077D01*
X122777452Y-108304286D01*
X122777455Y-108304289D01*
X122892664Y-108390535D01*
X122892671Y-108390539D01*
X123027517Y-108440833D01*
X123027516Y-108440833D01*
X123034444Y-108441577D01*
X123087127Y-108447242D01*
X124982872Y-108447241D01*
X125042483Y-108440833D01*
X125177331Y-108390538D01*
X125292546Y-108304288D01*
X125378796Y-108189073D01*
X125429091Y-108054225D01*
X125435500Y-107994615D01*
X125435499Y-106098870D01*
X125429091Y-106039259D01*
X125413007Y-105996136D01*
X125378797Y-105904413D01*
X125378793Y-105904406D01*
X125292547Y-105789197D01*
X125292544Y-105789194D01*
X125177335Y-105702948D01*
X125177328Y-105702944D01*
X125042482Y-105652650D01*
X125042483Y-105652650D01*
X124982883Y-105646243D01*
X124982881Y-105646242D01*
X124982873Y-105646242D01*
X124982864Y-105646242D01*
X123087129Y-105646242D01*
X123087123Y-105646243D01*
X123027516Y-105652650D01*
X122892671Y-105702944D01*
X122892664Y-105702948D01*
X122777455Y-105789194D01*
X122777452Y-105789197D01*
X122691206Y-105904406D01*
X122691202Y-105904413D01*
X122640908Y-106039259D01*
X122634501Y-106098858D01*
X122634501Y-106098865D01*
X122634500Y-106098877D01*
X121519655Y-106098877D01*
X121532815Y-106080764D01*
X121583539Y-105981215D01*
X121632890Y-105884358D01*
X121632896Y-105884345D01*
X121641301Y-105858477D01*
X121701015Y-105674693D01*
X121735500Y-105456964D01*
X121735500Y-105236520D01*
X121701015Y-105018791D01*
X121649265Y-104859518D01*
X121632896Y-104809138D01*
X121631729Y-104806848D01*
X121631728Y-104806845D01*
X121631727Y-104806844D01*
X121627123Y-104797808D01*
X121532815Y-104612720D01*
X121477606Y-104536731D01*
X121403247Y-104434383D01*
X121403243Y-104434378D01*
X121247363Y-104278498D01*
X121247358Y-104278494D01*
X121069025Y-104148929D01*
X121069024Y-104148928D01*
X121069022Y-104148927D01*
X120982998Y-104105095D01*
X120872606Y-104048846D01*
X120872603Y-104048845D01*
X120662952Y-103980727D01*
X120527774Y-103959317D01*
X120445222Y-103946242D01*
X120224778Y-103946242D01*
X120152201Y-103957737D01*
X120007047Y-103980727D01*
X119797396Y-104048845D01*
X119797393Y-104048846D01*
X119600974Y-104148929D01*
X119422641Y-104278494D01*
X119422636Y-104278498D01*
X119266756Y-104434378D01*
X119266752Y-104434383D01*
X119137187Y-104612716D01*
X119037104Y-104809135D01*
X119037103Y-104809138D01*
X118968985Y-105018789D01*
X118934500Y-105236520D01*
X111462966Y-105236520D01*
X110900001Y-104673554D01*
X110900000Y-104673554D01*
X110245669Y-105327882D01*
X103840500Y-105327882D01*
X103840500Y-104225552D01*
X109700000Y-104225552D01*
X109700000Y-104414447D01*
X109729548Y-104601002D01*
X109787914Y-104780637D01*
X109873666Y-104948933D01*
X109892116Y-104974328D01*
X110546446Y-104320000D01*
X110546446Y-104319999D01*
X110500369Y-104273922D01*
X110550000Y-104273922D01*
X110550000Y-104366078D01*
X110573852Y-104455095D01*
X110619930Y-104534905D01*
X110685095Y-104600070D01*
X110764905Y-104646148D01*
X110853922Y-104670000D01*
X110946078Y-104670000D01*
X111035095Y-104646148D01*
X111114905Y-104600070D01*
X111180070Y-104534905D01*
X111226148Y-104455095D01*
X111250000Y-104366078D01*
X111250000Y-104319999D01*
X111253554Y-104319999D01*
X111253554Y-104320000D01*
X111907882Y-104974328D01*
X111907883Y-104974328D01*
X111926331Y-104948937D01*
X112012085Y-104780637D01*
X112070451Y-104601002D01*
X112100000Y-104414447D01*
X112100000Y-104225552D01*
X112070451Y-104038997D01*
X112012085Y-103859362D01*
X111926329Y-103691059D01*
X111907883Y-103665670D01*
X111907882Y-103665669D01*
X111253554Y-104319999D01*
X111250000Y-104319999D01*
X111250000Y-104273922D01*
X111226148Y-104184905D01*
X111180070Y-104105095D01*
X111114905Y-104039930D01*
X111035095Y-103993852D01*
X110946078Y-103970000D01*
X110853922Y-103970000D01*
X110764905Y-103993852D01*
X110685095Y-104039930D01*
X110619930Y-104105095D01*
X110573852Y-104184905D01*
X110550000Y-104273922D01*
X110500369Y-104273922D01*
X109892116Y-103665669D01*
X109892116Y-103665670D01*
X109873669Y-103691060D01*
X109787914Y-103859362D01*
X109729548Y-104038997D01*
X109700000Y-104225552D01*
X103840500Y-104225552D01*
X103840500Y-103312116D01*
X110245669Y-103312116D01*
X110900000Y-103966446D01*
X110900001Y-103966446D01*
X111329885Y-103536560D01*
X122635000Y-103536560D01*
X122635000Y-103756923D01*
X122669473Y-103974577D01*
X122737567Y-104184152D01*
X122837611Y-104380498D01*
X122883932Y-104444255D01*
X123511212Y-103816975D01*
X123522482Y-103859034D01*
X123594890Y-103984450D01*
X123697292Y-104086852D01*
X123822708Y-104159260D01*
X123864765Y-104170529D01*
X123237485Y-104797807D01*
X123237485Y-104797808D01*
X123301243Y-104844130D01*
X123497589Y-104944174D01*
X123707164Y-105012268D01*
X123924819Y-105046742D01*
X124145181Y-105046742D01*
X124362835Y-105012268D01*
X124572410Y-104944174D01*
X124768760Y-104844128D01*
X124832513Y-104797808D01*
X124832514Y-104797808D01*
X124205234Y-104170529D01*
X124247292Y-104159260D01*
X124372708Y-104086852D01*
X124475110Y-103984450D01*
X124547518Y-103859034D01*
X124558787Y-103816977D01*
X125186066Y-104444256D01*
X125186066Y-104444255D01*
X125232386Y-104380502D01*
X125332432Y-104184152D01*
X125400526Y-103974577D01*
X125435000Y-103756923D01*
X125435000Y-103536560D01*
X125400526Y-103318906D01*
X125332432Y-103109331D01*
X125232388Y-102912985D01*
X125186066Y-102849227D01*
X125186065Y-102849227D01*
X124558787Y-103476506D01*
X124547518Y-103434450D01*
X124475110Y-103309034D01*
X124372708Y-103206632D01*
X124247292Y-103134224D01*
X124205232Y-103122954D01*
X124832513Y-102495674D01*
X124768756Y-102449353D01*
X124572410Y-102349309D01*
X124362835Y-102281215D01*
X124145181Y-102246742D01*
X123924819Y-102246742D01*
X123707164Y-102281215D01*
X123497589Y-102349309D01*
X123301233Y-102449358D01*
X123237485Y-102495673D01*
X123237485Y-102495674D01*
X123864765Y-103122954D01*
X123822708Y-103134224D01*
X123697292Y-103206632D01*
X123594890Y-103309034D01*
X123522482Y-103434450D01*
X123511212Y-103476507D01*
X122883932Y-102849227D01*
X122883931Y-102849227D01*
X122837616Y-102912975D01*
X122737567Y-103109331D01*
X122669473Y-103318906D01*
X122635000Y-103536560D01*
X111329885Y-103536560D01*
X111422438Y-103444007D01*
X111554328Y-103312116D01*
X111528933Y-103293666D01*
X111360637Y-103207914D01*
X111181002Y-103149548D01*
X110994447Y-103120000D01*
X110805553Y-103120000D01*
X110618997Y-103149548D01*
X110439362Y-103207914D01*
X110271060Y-103293669D01*
X110245670Y-103312116D01*
X110245669Y-103312116D01*
X103840500Y-103312116D01*
X103840500Y-101836520D01*
X118934500Y-101836520D01*
X118934500Y-102056963D01*
X118968985Y-102274694D01*
X119037103Y-102484345D01*
X119037104Y-102484348D01*
X119079175Y-102566915D01*
X119111041Y-102629455D01*
X119137187Y-102680767D01*
X119266752Y-102859100D01*
X119266756Y-102859105D01*
X119422636Y-103014985D01*
X119422641Y-103014989D01*
X119484776Y-103060132D01*
X119600978Y-103144557D01*
X119722806Y-103206632D01*
X119797393Y-103244637D01*
X119797396Y-103244638D01*
X119872706Y-103269107D01*
X120007049Y-103312757D01*
X120224778Y-103347242D01*
X120224779Y-103347242D01*
X120445221Y-103347242D01*
X120445222Y-103347242D01*
X120662951Y-103312757D01*
X120872606Y-103244637D01*
X121069022Y-103144557D01*
X121247365Y-103014984D01*
X121403242Y-102859107D01*
X121532815Y-102680764D01*
X121632895Y-102484348D01*
X121701015Y-102274693D01*
X121735500Y-102056964D01*
X121735500Y-101836520D01*
X121701015Y-101618791D01*
X121644265Y-101444130D01*
X121632896Y-101409138D01*
X121631729Y-101406848D01*
X121631728Y-101406845D01*
X121631727Y-101406844D01*
X121627123Y-101397808D01*
X121532815Y-101212720D01*
X121516260Y-101189934D01*
X121403247Y-101034383D01*
X121403243Y-101034378D01*
X121247363Y-100878498D01*
X121247358Y-100878494D01*
X121069025Y-100748929D01*
X121069024Y-100748928D01*
X121069022Y-100748927D01*
X121006096Y-100716864D01*
X120872606Y-100648846D01*
X120872603Y-100648845D01*
X120662952Y-100580727D01*
X120554086Y-100563484D01*
X120445222Y-100546242D01*
X120224778Y-100546242D01*
X120152201Y-100557737D01*
X120007047Y-100580727D01*
X119797396Y-100648845D01*
X119797393Y-100648846D01*
X119600974Y-100748929D01*
X119422641Y-100878494D01*
X119422636Y-100878498D01*
X119266756Y-101034378D01*
X119266752Y-101034383D01*
X119137187Y-101212716D01*
X119037104Y-101409135D01*
X119037103Y-101409138D01*
X118968985Y-101618789D01*
X118934500Y-101836520D01*
X103840500Y-101836520D01*
X103840500Y-100136560D01*
X122635000Y-100136560D01*
X122635000Y-100356923D01*
X122669473Y-100574577D01*
X122737567Y-100784152D01*
X122837611Y-100980498D01*
X122883932Y-101044255D01*
X123511212Y-100416975D01*
X123522482Y-100459034D01*
X123594890Y-100584450D01*
X123697292Y-100686852D01*
X123822708Y-100759260D01*
X123864765Y-100770529D01*
X123237485Y-101397807D01*
X123237485Y-101397808D01*
X123301243Y-101444130D01*
X123497589Y-101544174D01*
X123707164Y-101612268D01*
X123924819Y-101646742D01*
X124145181Y-101646742D01*
X124362835Y-101612268D01*
X124572410Y-101544174D01*
X124768760Y-101444128D01*
X124832513Y-101397808D01*
X124832514Y-101397808D01*
X124205234Y-100770529D01*
X124247292Y-100759260D01*
X124372708Y-100686852D01*
X124475110Y-100584450D01*
X124547518Y-100459034D01*
X124558787Y-100416977D01*
X125186066Y-101044256D01*
X125186066Y-101044255D01*
X125232386Y-100980502D01*
X125332432Y-100784152D01*
X125400526Y-100574577D01*
X125435000Y-100356923D01*
X125435000Y-100136560D01*
X125400526Y-99918906D01*
X125332432Y-99709331D01*
X125232388Y-99512985D01*
X125186066Y-99449227D01*
X125186065Y-99449227D01*
X124558787Y-100076506D01*
X124547518Y-100034450D01*
X124475110Y-99909034D01*
X124372708Y-99806632D01*
X124247292Y-99734224D01*
X124205232Y-99722954D01*
X124832513Y-99095674D01*
X124768756Y-99049353D01*
X124572410Y-98949309D01*
X124362835Y-98881215D01*
X124145181Y-98846742D01*
X123924819Y-98846742D01*
X123707164Y-98881215D01*
X123497589Y-98949309D01*
X123301233Y-99049358D01*
X123237485Y-99095673D01*
X123237485Y-99095674D01*
X123864765Y-99722954D01*
X123822708Y-99734224D01*
X123697292Y-99806632D01*
X123594890Y-99909034D01*
X123522482Y-100034450D01*
X123511212Y-100076507D01*
X122883932Y-99449227D01*
X122883931Y-99449227D01*
X122837616Y-99512975D01*
X122737567Y-99709331D01*
X122669473Y-99918906D01*
X122635000Y-100136560D01*
X103840500Y-100136560D01*
X103840500Y-96605513D01*
X109699500Y-96605513D01*
X109699500Y-96794486D01*
X109729059Y-96981118D01*
X109787454Y-97160836D01*
X109852888Y-97289256D01*
X109873240Y-97329199D01*
X109984310Y-97482073D01*
X110117927Y-97615690D01*
X110270801Y-97726760D01*
X110350347Y-97767290D01*
X110439163Y-97812545D01*
X110439165Y-97812545D01*
X110439168Y-97812547D01*
X110533471Y-97843188D01*
X110618881Y-97870940D01*
X110805514Y-97900500D01*
X110805519Y-97900500D01*
X110994486Y-97900500D01*
X111181118Y-97870940D01*
X111360832Y-97812547D01*
X111529199Y-97726760D01*
X111682073Y-97615690D01*
X111815690Y-97482073D01*
X111926760Y-97329199D01*
X112012547Y-97160832D01*
X112070940Y-96981118D01*
X112100500Y-96794486D01*
X112100500Y-96630252D01*
X112120185Y-96563213D01*
X112136819Y-96542571D01*
X112887666Y-95791725D01*
X115389500Y-95791725D01*
X115389500Y-97191743D01*
X115389501Y-97191760D01*
X115400000Y-97294538D01*
X115400001Y-97294541D01*
X115455185Y-97461073D01*
X115455187Y-97461078D01*
X115475654Y-97494260D01*
X115547288Y-97610398D01*
X115671344Y-97734454D01*
X115820666Y-97826556D01*
X115987203Y-97881741D01*
X116089991Y-97892242D01*
X117490008Y-97892241D01*
X117592797Y-97881741D01*
X117759334Y-97826556D01*
X117908656Y-97734454D01*
X118032712Y-97610398D01*
X118124814Y-97461076D01*
X118173903Y-97312935D01*
X118203927Y-97264260D01*
X118887861Y-96580326D01*
X118910667Y-96665436D01*
X118969910Y-96768048D01*
X119053694Y-96851832D01*
X119156306Y-96911075D01*
X119241414Y-96933879D01*
X118532485Y-97642807D01*
X118532485Y-97642808D01*
X118596243Y-97689130D01*
X118792589Y-97789174D01*
X119002164Y-97857268D01*
X119219819Y-97891742D01*
X119440181Y-97891742D01*
X119657835Y-97857268D01*
X119867410Y-97789174D01*
X120063760Y-97689128D01*
X120127513Y-97642808D01*
X120127514Y-97642808D01*
X119418585Y-96933880D01*
X119503694Y-96911075D01*
X119606306Y-96851832D01*
X119690090Y-96768048D01*
X119749333Y-96665436D01*
X119772138Y-96580327D01*
X120481066Y-97289256D01*
X120481066Y-97289255D01*
X120527386Y-97225502D01*
X120627432Y-97029152D01*
X120695526Y-96819577D01*
X120730000Y-96601923D01*
X120730000Y-96381560D01*
X120695526Y-96163906D01*
X120627432Y-95954331D01*
X120527388Y-95757985D01*
X120481066Y-95694227D01*
X120481065Y-95694227D01*
X119772137Y-96403155D01*
X119749333Y-96318048D01*
X119690090Y-96215436D01*
X119606306Y-96131652D01*
X119503694Y-96072409D01*
X119418583Y-96049603D01*
X120127513Y-95340674D01*
X120063756Y-95294353D01*
X119867410Y-95194309D01*
X119657835Y-95126215D01*
X119440181Y-95091742D01*
X119219819Y-95091742D01*
X119002164Y-95126215D01*
X118792589Y-95194309D01*
X118596233Y-95294358D01*
X118532485Y-95340673D01*
X118532485Y-95340674D01*
X119241414Y-96049603D01*
X119156306Y-96072409D01*
X119053694Y-96131652D01*
X118969910Y-96215436D01*
X118910667Y-96318048D01*
X118887861Y-96403156D01*
X118203926Y-95719221D01*
X118173902Y-95670545D01*
X118124814Y-95522408D01*
X118032712Y-95373086D01*
X117908656Y-95249030D01*
X117792940Y-95177656D01*
X117759336Y-95156929D01*
X117759331Y-95156927D01*
X117757862Y-95156440D01*
X117592797Y-95101743D01*
X117592795Y-95101742D01*
X117490010Y-95091242D01*
X116089998Y-95091242D01*
X116089981Y-95091243D01*
X115987203Y-95101742D01*
X115987200Y-95101743D01*
X115820668Y-95156927D01*
X115820663Y-95156929D01*
X115671342Y-95249031D01*
X115547289Y-95373084D01*
X115455187Y-95522405D01*
X115455185Y-95522410D01*
X115435233Y-95582623D01*
X115400001Y-95688945D01*
X115400001Y-95688946D01*
X115400000Y-95688946D01*
X115389500Y-95791725D01*
X112887666Y-95791725D01*
X112978496Y-95700895D01*
X114679828Y-93999564D01*
X114741151Y-93966079D01*
X114767509Y-93963245D01*
X123726709Y-93963245D01*
X123762709Y-93968586D01*
X123766501Y-93969736D01*
X123766503Y-93969737D01*
X123766505Y-93969737D01*
X123766507Y-93969738D01*
X123921153Y-94000499D01*
X123921156Y-94000500D01*
X123921158Y-94000500D01*
X124078844Y-94000500D01*
X124078845Y-94000499D01*
X124233497Y-93969737D01*
X124379179Y-93909394D01*
X124510289Y-93821789D01*
X124621789Y-93710289D01*
X124709394Y-93579179D01*
X124712953Y-93570588D01*
X124752151Y-93475953D01*
X124769737Y-93433497D01*
X124800500Y-93278842D01*
X124800500Y-93121158D01*
X124800500Y-93121155D01*
X124800499Y-93121153D01*
X124789576Y-93066242D01*
X124769737Y-92966503D01*
X124733150Y-92878173D01*
X124709397Y-92820827D01*
X124709390Y-92820814D01*
X124621789Y-92689711D01*
X124621786Y-92689707D01*
X124510292Y-92578213D01*
X124510288Y-92578210D01*
X124379185Y-92490609D01*
X124379172Y-92490602D01*
X124233501Y-92430264D01*
X124233489Y-92430261D01*
X124078845Y-92399500D01*
X124078842Y-92399500D01*
X123921158Y-92399500D01*
X123921155Y-92399500D01*
X123766507Y-92430261D01*
X123762709Y-92431414D01*
X123726709Y-92436755D01*
X114324823Y-92436755D01*
X114206702Y-92460250D01*
X114206700Y-92460251D01*
X114177369Y-92466086D01*
X114177364Y-92466087D01*
X114126038Y-92487348D01*
X114038472Y-92523619D01*
X114038459Y-92523626D01*
X113996987Y-92551335D01*
X113996988Y-92551336D01*
X113913459Y-92607148D01*
X113913455Y-92607151D01*
X111057427Y-95463181D01*
X110996104Y-95496666D01*
X110969746Y-95499500D01*
X110805514Y-95499500D01*
X110618881Y-95529059D01*
X110439163Y-95587454D01*
X110270800Y-95673240D01*
X110197728Y-95726331D01*
X110117927Y-95784310D01*
X110117925Y-95784312D01*
X110117924Y-95784312D01*
X109984312Y-95917924D01*
X109984312Y-95917925D01*
X109984310Y-95917927D01*
X109945667Y-95971114D01*
X109873240Y-96070800D01*
X109787454Y-96239163D01*
X109729059Y-96418881D01*
X109699500Y-96605513D01*
X103840500Y-96605513D01*
X103840500Y-88975441D01*
X108999500Y-88975441D01*
X108999500Y-89224558D01*
X108999501Y-89224575D01*
X109031230Y-89465584D01*
X109032018Y-89471565D01*
X109077651Y-89641870D01*
X109096498Y-89712207D01*
X109191830Y-89942361D01*
X109191837Y-89942376D01*
X109316400Y-90158126D01*
X109468060Y-90355774D01*
X109468066Y-90355781D01*
X109644218Y-90531933D01*
X109644225Y-90531939D01*
X109841873Y-90683599D01*
X110057623Y-90808162D01*
X110057638Y-90808169D01*
X110128083Y-90837348D01*
X110287793Y-90903502D01*
X110528435Y-90967982D01*
X110775435Y-91000500D01*
X110775442Y-91000500D01*
X111024558Y-91000500D01*
X111024565Y-91000500D01*
X111271565Y-90967982D01*
X111512207Y-90903502D01*
X111742373Y-90808164D01*
X111958127Y-90683599D01*
X112155776Y-90531938D01*
X112331938Y-90355776D01*
X112483599Y-90158127D01*
X112608164Y-89942373D01*
X112703502Y-89712207D01*
X112767982Y-89471565D01*
X112800500Y-89224565D01*
X112800500Y-88975435D01*
X112767982Y-88728435D01*
X112703502Y-88487793D01*
X112639904Y-88334255D01*
X112608169Y-88257638D01*
X112608162Y-88257623D01*
X112483599Y-88041873D01*
X112331939Y-87844225D01*
X112331933Y-87844218D01*
X112155781Y-87668066D01*
X112155774Y-87668060D01*
X111958126Y-87516400D01*
X111742376Y-87391837D01*
X111742361Y-87391830D01*
X111512207Y-87296498D01*
X111369445Y-87258245D01*
X111271565Y-87232018D01*
X111271564Y-87232017D01*
X111271561Y-87232017D01*
X111024575Y-87199501D01*
X111024570Y-87199500D01*
X111024565Y-87199500D01*
X110775435Y-87199500D01*
X110775429Y-87199500D01*
X110775424Y-87199501D01*
X110528438Y-87232017D01*
X110287792Y-87296498D01*
X110057638Y-87391830D01*
X110057623Y-87391837D01*
X109841873Y-87516400D01*
X109644225Y-87668060D01*
X109644218Y-87668066D01*
X109468066Y-87844218D01*
X109468060Y-87844225D01*
X109316400Y-88041873D01*
X109191837Y-88257623D01*
X109191830Y-88257638D01*
X109096498Y-88487792D01*
X109032017Y-88728438D01*
X108999501Y-88975424D01*
X108999500Y-88975441D01*
X103840500Y-88975441D01*
X103840500Y-82899984D01*
X108999500Y-82899984D01*
X108999500Y-85300015D01*
X109010000Y-85402795D01*
X109010001Y-85402797D01*
X109023900Y-85444740D01*
X109065186Y-85569335D01*
X109065187Y-85569337D01*
X109157286Y-85718651D01*
X109157289Y-85718655D01*
X109281344Y-85842710D01*
X109281348Y-85842713D01*
X109430662Y-85934812D01*
X109430664Y-85934813D01*
X109430666Y-85934814D01*
X109597203Y-85989999D01*
X109699992Y-86000500D01*
X109699997Y-86000500D01*
X112100003Y-86000500D01*
X112100008Y-86000500D01*
X112202797Y-85989999D01*
X112369334Y-85934814D01*
X112515933Y-85844390D01*
X115869500Y-85844390D01*
X115869500Y-86049093D01*
X115901522Y-86251276D01*
X115964781Y-86445965D01*
X116057715Y-86628355D01*
X116178028Y-86793955D01*
X116322786Y-86938713D01*
X116477749Y-87051298D01*
X116488390Y-87059029D01*
X116593456Y-87112563D01*
X116670776Y-87151960D01*
X116670778Y-87151960D01*
X116670781Y-87151962D01*
X116740103Y-87174486D01*
X116865465Y-87215219D01*
X116966557Y-87231230D01*
X117067648Y-87247242D01*
X117067649Y-87247242D01*
X117272351Y-87247242D01*
X117272352Y-87247242D01*
X117474534Y-87215219D01*
X117669219Y-87151962D01*
X117851610Y-87059029D01*
X117958391Y-86981449D01*
X118017213Y-86938713D01*
X118017215Y-86938710D01*
X118017219Y-86938708D01*
X118161966Y-86793961D01*
X118161968Y-86793957D01*
X118161971Y-86793955D01*
X118282284Y-86628356D01*
X118282285Y-86628355D01*
X118282287Y-86628352D01*
X118329516Y-86535659D01*
X118377489Y-86484865D01*
X118445310Y-86468070D01*
X118511445Y-86490607D01*
X118550485Y-86535661D01*
X118597715Y-86628356D01*
X118718028Y-86793955D01*
X118862786Y-86938713D01*
X119017749Y-87051298D01*
X119028390Y-87059029D01*
X119133456Y-87112563D01*
X119210776Y-87151960D01*
X119210778Y-87151960D01*
X119210781Y-87151962D01*
X119280103Y-87174486D01*
X119405465Y-87215219D01*
X119506557Y-87231230D01*
X119607648Y-87247242D01*
X119607649Y-87247242D01*
X119812351Y-87247242D01*
X119812352Y-87247242D01*
X120014534Y-87215219D01*
X120209219Y-87151962D01*
X120391610Y-87059029D01*
X120498391Y-86981449D01*
X120557213Y-86938713D01*
X120557215Y-86938710D01*
X120557219Y-86938708D01*
X120701966Y-86793961D01*
X120701968Y-86793957D01*
X120701971Y-86793955D01*
X120776595Y-86691242D01*
X120822287Y-86628352D01*
X120915220Y-86445961D01*
X120978477Y-86251276D01*
X121010500Y-86049094D01*
X121010500Y-85844390D01*
X120990585Y-85718651D01*
X120978477Y-85642207D01*
X120915218Y-85447518D01*
X120869515Y-85357822D01*
X120822287Y-85265132D01*
X120765209Y-85186570D01*
X120706735Y-85106086D01*
X120706733Y-85106084D01*
X120701967Y-85099524D01*
X120640516Y-85038073D01*
X124966470Y-85038073D01*
X124966470Y-89237674D01*
X124995625Y-89421751D01*
X125053212Y-89598989D01*
X125053214Y-89598995D01*
X125089688Y-89670577D01*
X125135363Y-89760219D01*
X125137827Y-89765053D01*
X125247363Y-89915818D01*
X125247367Y-89915823D01*
X128675151Y-93343607D01*
X128708636Y-93404930D01*
X128711470Y-93431288D01*
X128711470Y-112214043D01*
X128711470Y-112400411D01*
X128713816Y-112415222D01*
X128740625Y-112584487D01*
X128798212Y-112761725D01*
X128798214Y-112761731D01*
X128827640Y-112819481D01*
X128874014Y-112910494D01*
X128882827Y-112927789D01*
X128992363Y-113078554D01*
X128992367Y-113078559D01*
X129913667Y-113999859D01*
X129913672Y-113999863D01*
X130002853Y-114064656D01*
X130064441Y-114109402D01*
X130172991Y-114164711D01*
X130230495Y-114194012D01*
X130230501Y-114194014D01*
X130407740Y-114251601D01*
X130407743Y-114251602D01*
X130591816Y-114280757D01*
X130591817Y-114280757D01*
X130778183Y-114280757D01*
X130778184Y-114280757D01*
X130962257Y-114251602D01*
X131021339Y-114232405D01*
X131139498Y-114194014D01*
X131139504Y-114194012D01*
X131305559Y-114109402D01*
X131456334Y-113999858D01*
X131528161Y-113928031D01*
X145207261Y-113928031D01*
X145207262Y-113928032D01*
X145213471Y-113932543D01*
X145367742Y-114011150D01*
X145532415Y-114064656D01*
X145703429Y-114091742D01*
X145876571Y-114091742D01*
X146047584Y-114064656D01*
X146212257Y-114011150D01*
X146366525Y-113932545D01*
X146372736Y-113928031D01*
X146372737Y-113928031D01*
X145790001Y-113345295D01*
X145790000Y-113345295D01*
X145207261Y-113928031D01*
X131528161Y-113928031D01*
X131588116Y-113868076D01*
X131697660Y-113717301D01*
X131782270Y-113551246D01*
X131839860Y-113373999D01*
X131869015Y-113189926D01*
X131869015Y-113003558D01*
X131853431Y-112905170D01*
X144690000Y-112905170D01*
X144690000Y-113078313D01*
X144717085Y-113249326D01*
X144770592Y-113414001D01*
X144849196Y-113568267D01*
X144853709Y-113574478D01*
X144853709Y-113574479D01*
X145436446Y-112991743D01*
X145436446Y-112991741D01*
X145396951Y-112952246D01*
X145490000Y-112952246D01*
X145490000Y-113031238D01*
X145510444Y-113107538D01*
X145549940Y-113175947D01*
X145605795Y-113231802D01*
X145674204Y-113271298D01*
X145750504Y-113291742D01*
X145829496Y-113291742D01*
X145905796Y-113271298D01*
X145974205Y-113231802D01*
X146030060Y-113175947D01*
X146069556Y-113107538D01*
X146090000Y-113031238D01*
X146090000Y-112991741D01*
X146143553Y-112991741D01*
X146143553Y-112991743D01*
X146726289Y-113574479D01*
X146726289Y-113574478D01*
X146730803Y-113568267D01*
X146809408Y-113413999D01*
X146862914Y-113249326D01*
X146890000Y-113078313D01*
X146890000Y-112905170D01*
X146862914Y-112734157D01*
X146809408Y-112569484D01*
X146730801Y-112415213D01*
X146726290Y-112409004D01*
X146726289Y-112409003D01*
X146143553Y-112991741D01*
X146090000Y-112991741D01*
X146090000Y-112952246D01*
X146069556Y-112875946D01*
X146030060Y-112807537D01*
X145974205Y-112751682D01*
X145905796Y-112712186D01*
X145829496Y-112691742D01*
X145750504Y-112691742D01*
X145674204Y-112712186D01*
X145605795Y-112751682D01*
X145549940Y-112807537D01*
X145510444Y-112875946D01*
X145490000Y-112952246D01*
X145396951Y-112952246D01*
X144853709Y-112409003D01*
X144853708Y-112409003D01*
X144849203Y-112415205D01*
X144849193Y-112415222D01*
X144770592Y-112569482D01*
X144717085Y-112734157D01*
X144690000Y-112905170D01*
X131853431Y-112905170D01*
X131839860Y-112819485D01*
X131810401Y-112728817D01*
X131782272Y-112642243D01*
X131782270Y-112642237D01*
X131724749Y-112529348D01*
X131697660Y-112476183D01*
X131683664Y-112456919D01*
X131588121Y-112325414D01*
X131588117Y-112325409D01*
X131115819Y-111853111D01*
X131082334Y-111791788D01*
X131079500Y-111765430D01*
X131079500Y-107288958D01*
X131099185Y-107221919D01*
X131151989Y-107176164D01*
X131221147Y-107166220D01*
X131222777Y-107166466D01*
X131316905Y-107181374D01*
X131385515Y-107192242D01*
X131385519Y-107192242D01*
X131574486Y-107192242D01*
X131761118Y-107162682D01*
X131940832Y-107104289D01*
X132109199Y-107018502D01*
X132262073Y-106907432D01*
X132395690Y-106773815D01*
X132506760Y-106620941D01*
X132592547Y-106452574D01*
X132650940Y-106272860D01*
X132672074Y-106139424D01*
X132680500Y-106086228D01*
X132680500Y-105897255D01*
X132650940Y-105710623D01*
X132614597Y-105598772D01*
X132592547Y-105530910D01*
X132592545Y-105530907D01*
X132592545Y-105530905D01*
X132538839Y-105425502D01*
X132506760Y-105362543D01*
X132395690Y-105209669D01*
X132262073Y-105076052D01*
X132109199Y-104964982D01*
X132068361Y-104944174D01*
X131940836Y-104879196D01*
X131761118Y-104820801D01*
X131574486Y-104791242D01*
X131574481Y-104791242D01*
X131385519Y-104791242D01*
X131385514Y-104791242D01*
X131222898Y-104816998D01*
X131153605Y-104808043D01*
X131100153Y-104763047D01*
X131079513Y-104696296D01*
X131079500Y-104694525D01*
X131079500Y-100594390D01*
X134034500Y-100594390D01*
X134034500Y-100799093D01*
X134066522Y-101001276D01*
X134129781Y-101195965D01*
X134222715Y-101378355D01*
X134343028Y-101543955D01*
X134487786Y-101688713D01*
X134642749Y-101801298D01*
X134653390Y-101809029D01*
X134769607Y-101868245D01*
X134835776Y-101901960D01*
X134835778Y-101901960D01*
X134835781Y-101901962D01*
X134940137Y-101935869D01*
X135030465Y-101965219D01*
X135131557Y-101981230D01*
X135232648Y-101997242D01*
X135232649Y-101997242D01*
X135437351Y-101997242D01*
X135437352Y-101997242D01*
X135639534Y-101965219D01*
X135834219Y-101901962D01*
X135834222Y-101901959D01*
X135834226Y-101901959D01*
X135849313Y-101894272D01*
X135862315Y-101891150D01*
X135870672Y-101885780D01*
X135905607Y-101880757D01*
X135924573Y-101880757D01*
X135991612Y-101900442D01*
X136012254Y-101917076D01*
X138749085Y-104653907D01*
X138782570Y-104715230D01*
X138777586Y-104784922D01*
X138735714Y-104840855D01*
X138699724Y-104859518D01*
X138639167Y-104879194D01*
X138470800Y-104964982D01*
X138383579Y-105028352D01*
X138317927Y-105076052D01*
X138317925Y-105076054D01*
X138317924Y-105076054D01*
X138184312Y-105209666D01*
X138184312Y-105209667D01*
X138184310Y-105209669D01*
X138174387Y-105223327D01*
X138073240Y-105362542D01*
X137987454Y-105530905D01*
X137929059Y-105710623D01*
X137899500Y-105897255D01*
X137899500Y-106086228D01*
X137929059Y-106272860D01*
X137987454Y-106452578D01*
X138043117Y-106561822D01*
X138073240Y-106620941D01*
X138184310Y-106773815D01*
X138317927Y-106907432D01*
X138470801Y-107018502D01*
X138505530Y-107036197D01*
X138639163Y-107104287D01*
X138639165Y-107104287D01*
X138639168Y-107104289D01*
X138735497Y-107135588D01*
X138818881Y-107162682D01*
X139005514Y-107192242D01*
X139005519Y-107192242D01*
X139194486Y-107192242D01*
X139381118Y-107162682D01*
X139560832Y-107104289D01*
X139729199Y-107018502D01*
X139882073Y-106907432D01*
X140015690Y-106773815D01*
X140126760Y-106620941D01*
X140212547Y-106452574D01*
X140232223Y-106392017D01*
X140271659Y-106334344D01*
X140336018Y-106307145D01*
X140404864Y-106319059D01*
X140437834Y-106342656D01*
X144486151Y-110390973D01*
X144519636Y-110452296D01*
X144522470Y-110478654D01*
X144522470Y-111084925D01*
X144551625Y-111269002D01*
X144609212Y-111446240D01*
X144609214Y-111446246D01*
X144666718Y-111559102D01*
X144689341Y-111603501D01*
X144693827Y-111612304D01*
X144803363Y-111763069D01*
X144803367Y-111763074D01*
X144935152Y-111894859D01*
X144935157Y-111894863D01*
X144990322Y-111934942D01*
X145085926Y-112004402D01*
X145211735Y-112068505D01*
X145243119Y-112091308D01*
X145790000Y-112638188D01*
X145790001Y-112638188D01*
X146372736Y-112055452D01*
X146371913Y-112044993D01*
X146386276Y-111976615D01*
X146422645Y-111934943D01*
X146477819Y-111894858D01*
X146520383Y-111852294D01*
X151055000Y-111852294D01*
X151055000Y-112041189D01*
X151084548Y-112227744D01*
X151142914Y-112407379D01*
X151228666Y-112575675D01*
X151247116Y-112601070D01*
X151901446Y-111946742D01*
X151901446Y-111946741D01*
X151247116Y-111292411D01*
X151247116Y-111292412D01*
X151228669Y-111317802D01*
X151142914Y-111486104D01*
X151084548Y-111665739D01*
X151055000Y-111852294D01*
X146520383Y-111852294D01*
X146609601Y-111763076D01*
X146719145Y-111612301D01*
X146803755Y-111446246D01*
X146861345Y-111268999D01*
X146890500Y-111084926D01*
X146890500Y-109843673D01*
X146861345Y-109659600D01*
X146839297Y-109591741D01*
X146803757Y-109482358D01*
X146803755Y-109482352D01*
X146741030Y-109359250D01*
X146719145Y-109316298D01*
X146686648Y-109271569D01*
X146609606Y-109165529D01*
X146609602Y-109165524D01*
X145028227Y-107584149D01*
X144994742Y-107522826D01*
X144999726Y-107453134D01*
X145041598Y-107397201D01*
X145107062Y-107372784D01*
X145172203Y-107385983D01*
X145290968Y-107446497D01*
X145485582Y-107509732D01*
X145687683Y-107541742D01*
X145892317Y-107541742D01*
X146094417Y-107509732D01*
X146289031Y-107446497D01*
X146471349Y-107353601D01*
X146515921Y-107321216D01*
X145836446Y-106641742D01*
X145842661Y-106641742D01*
X145944394Y-106614483D01*
X146035606Y-106561822D01*
X146110080Y-106487348D01*
X146162741Y-106396136D01*
X146190000Y-106294403D01*
X146190000Y-106288189D01*
X146869474Y-106967663D01*
X146901859Y-106923091D01*
X146994755Y-106740773D01*
X147057990Y-106546159D01*
X147090000Y-106344059D01*
X147090000Y-106139424D01*
X147057990Y-105937324D01*
X146994755Y-105742710D01*
X146901859Y-105560392D01*
X146869474Y-105515819D01*
X146869474Y-105515818D01*
X146190000Y-106195293D01*
X146190000Y-106189081D01*
X146162741Y-106087348D01*
X146110080Y-105996136D01*
X146035606Y-105921662D01*
X145944394Y-105869001D01*
X145842661Y-105841742D01*
X145836446Y-105841742D01*
X146515922Y-105162266D01*
X146515921Y-105162265D01*
X146471359Y-105129889D01*
X146471350Y-105129883D01*
X146417621Y-105102507D01*
X146366825Y-105054533D01*
X146350030Y-104986712D01*
X146372567Y-104920577D01*
X146417621Y-104881537D01*
X146471610Y-104854029D01*
X146533398Y-104809138D01*
X146637213Y-104733713D01*
X146637215Y-104733710D01*
X146637219Y-104733708D01*
X146781966Y-104588961D01*
X146781968Y-104588957D01*
X146781971Y-104588955D01*
X146870489Y-104467118D01*
X146902287Y-104423352D01*
X146995220Y-104240961D01*
X147058477Y-104046276D01*
X147090500Y-103844094D01*
X147090500Y-103670995D01*
X147110185Y-103603956D01*
X147162989Y-103558201D01*
X147232147Y-103548257D01*
X147295703Y-103577282D01*
X147302181Y-103583314D01*
X152990436Y-109271569D01*
X153023921Y-109332892D01*
X153026755Y-109359250D01*
X153026755Y-110790829D01*
X153007070Y-110857868D01*
X152954266Y-110903623D01*
X152885108Y-110913567D01*
X152846460Y-110901314D01*
X152715637Y-110834656D01*
X152536002Y-110776290D01*
X152349447Y-110746742D01*
X152160553Y-110746742D01*
X151973997Y-110776290D01*
X151794362Y-110834656D01*
X151626060Y-110920411D01*
X151600670Y-110938858D01*
X151600669Y-110938858D01*
X152258553Y-111596742D01*
X152208922Y-111596742D01*
X152119905Y-111620594D01*
X152040095Y-111666672D01*
X151974930Y-111731837D01*
X151928852Y-111811647D01*
X151905000Y-111900664D01*
X151905000Y-111992820D01*
X151928852Y-112081837D01*
X151974930Y-112161647D01*
X152040095Y-112226812D01*
X152119905Y-112272890D01*
X152208922Y-112296742D01*
X152258552Y-112296742D01*
X151600669Y-112954624D01*
X151600670Y-112954625D01*
X151626059Y-112973071D01*
X151794362Y-113058827D01*
X151973997Y-113117193D01*
X152160553Y-113146742D01*
X152349447Y-113146742D01*
X152536002Y-113117193D01*
X152715640Y-113058826D01*
X152715644Y-113058824D01*
X152846460Y-112992170D01*
X152915129Y-112979273D01*
X152979869Y-113005549D01*
X153020127Y-113062655D01*
X153026755Y-113102654D01*
X153026755Y-115566919D01*
X153056084Y-115714364D01*
X153056087Y-115714376D01*
X153113617Y-115853267D01*
X153113624Y-115853280D01*
X153197148Y-115978281D01*
X153197151Y-115978285D01*
X158740436Y-121521569D01*
X158773921Y-121582892D01*
X158776755Y-121609250D01*
X158776755Y-126041216D01*
X158757070Y-126108255D01*
X158740437Y-126128897D01*
X158643378Y-126225956D01*
X158534622Y-126375645D01*
X158450620Y-126540506D01*
X158450619Y-126540509D01*
X158393445Y-126716476D01*
X158371944Y-126852229D01*
X158364500Y-126899228D01*
X158364500Y-127084256D01*
X158367597Y-127103807D01*
X158393445Y-127267007D01*
X158450619Y-127442974D01*
X158450620Y-127442977D01*
X158505469Y-127550622D01*
X158534622Y-127607838D01*
X158643379Y-127757529D01*
X158774213Y-127888363D01*
X158923904Y-127997120D01*
X158993785Y-128032726D01*
X159088764Y-128081121D01*
X159088767Y-128081122D01*
X159176750Y-128109709D01*
X159264736Y-128138297D01*
X159447486Y-128167242D01*
X159447487Y-128167242D01*
X159632513Y-128167242D01*
X159632514Y-128167242D01*
X159815264Y-128138297D01*
X159991235Y-128081121D01*
X160156096Y-127997120D01*
X160305787Y-127888363D01*
X160436621Y-127757529D01*
X160439680Y-127753318D01*
X160495006Y-127710651D01*
X160564619Y-127704668D01*
X160626415Y-127737271D01*
X160640315Y-127753312D01*
X160643379Y-127757529D01*
X160774213Y-127888363D01*
X160923904Y-127997120D01*
X160993785Y-128032726D01*
X161088764Y-128081121D01*
X161088767Y-128081122D01*
X161176750Y-128109709D01*
X161264736Y-128138297D01*
X161447486Y-128167242D01*
X161447487Y-128167242D01*
X161632513Y-128167242D01*
X161632514Y-128167242D01*
X161815264Y-128138297D01*
X161991235Y-128081121D01*
X162156096Y-127997120D01*
X162305787Y-127888363D01*
X162436621Y-127757529D01*
X162439680Y-127753318D01*
X162495006Y-127710651D01*
X162564619Y-127704668D01*
X162626415Y-127737271D01*
X162640315Y-127753312D01*
X162643379Y-127757529D01*
X162774213Y-127888363D01*
X162923904Y-127997120D01*
X162993785Y-128032726D01*
X163088764Y-128081121D01*
X163088767Y-128081122D01*
X163176750Y-128109709D01*
X163264736Y-128138297D01*
X163447486Y-128167242D01*
X163447487Y-128167242D01*
X163632513Y-128167242D01*
X163632514Y-128167242D01*
X163815264Y-128138297D01*
X163991235Y-128081121D01*
X164156096Y-127997120D01*
X164305787Y-127888363D01*
X164436621Y-127757529D01*
X164494112Y-127678398D01*
X164497774Y-127674208D01*
X164514867Y-127663321D01*
X165140000Y-127038188D01*
X165140000Y-127044403D01*
X165167259Y-127146136D01*
X165219920Y-127237348D01*
X165294394Y-127311822D01*
X165385606Y-127364483D01*
X165487339Y-127391742D01*
X165493553Y-127391742D01*
X164903568Y-127981725D01*
X164903568Y-127981726D01*
X164924165Y-127996691D01*
X165088956Y-128080657D01*
X165088959Y-128080658D01*
X165264852Y-128137808D01*
X165447527Y-128166742D01*
X165632473Y-128166742D01*
X165815147Y-128137808D01*
X165991040Y-128080658D01*
X165991043Y-128080657D01*
X166155836Y-127996689D01*
X166155845Y-127996684D01*
X166176430Y-127981726D01*
X166176431Y-127981725D01*
X165586448Y-127391742D01*
X165592661Y-127391742D01*
X165694394Y-127364483D01*
X165785606Y-127311822D01*
X165860080Y-127237348D01*
X165912741Y-127146136D01*
X165940000Y-127044403D01*
X165940000Y-127038189D01*
X166554238Y-127652428D01*
X166589162Y-127682907D01*
X166640321Y-127753320D01*
X166643379Y-127757529D01*
X166774213Y-127888363D01*
X166923904Y-127997120D01*
X166993785Y-128032726D01*
X167088764Y-128081121D01*
X167088767Y-128081122D01*
X167176750Y-128109709D01*
X167264736Y-128138297D01*
X167447486Y-128167242D01*
X167447487Y-128167242D01*
X167632513Y-128167242D01*
X167632514Y-128167242D01*
X167815264Y-128138297D01*
X167991235Y-128081121D01*
X168156096Y-127997120D01*
X168271608Y-127913195D01*
X168337412Y-127889716D01*
X168405466Y-127905541D01*
X168443758Y-127939202D01*
X168507455Y-128024289D01*
X168622664Y-128110535D01*
X168622671Y-128110539D01*
X168757517Y-128160833D01*
X168757516Y-128160833D01*
X168764444Y-128161577D01*
X168817127Y-128167242D01*
X170262872Y-128167241D01*
X170322483Y-128160833D01*
X170457331Y-128110538D01*
X170572546Y-128024288D01*
X170658796Y-127909073D01*
X170709091Y-127774225D01*
X170715500Y-127714615D01*
X170715499Y-126268870D01*
X170709091Y-126209259D01*
X170695775Y-126173558D01*
X170658797Y-126074413D01*
X170658793Y-126074406D01*
X170572547Y-125959197D01*
X170572544Y-125959194D01*
X170457335Y-125872948D01*
X170457328Y-125872944D01*
X170322482Y-125822650D01*
X170322483Y-125822650D01*
X170262883Y-125816243D01*
X170262881Y-125816242D01*
X170262873Y-125816242D01*
X170262864Y-125816242D01*
X168817129Y-125816242D01*
X168817123Y-125816243D01*
X168757516Y-125822650D01*
X168622671Y-125872944D01*
X168622669Y-125872946D01*
X168501556Y-125963611D01*
X168436092Y-125988028D01*
X168367819Y-125973176D01*
X168318413Y-125923771D01*
X168303245Y-125864344D01*
X168303245Y-125666566D01*
X168303244Y-125666564D01*
X168273914Y-125519112D01*
X168222772Y-125395643D01*
X168216382Y-125380216D01*
X168216375Y-125380203D01*
X168132852Y-125255203D01*
X168109933Y-125232284D01*
X168026540Y-125148891D01*
X162799226Y-119921577D01*
X165049500Y-119921577D01*
X165049500Y-120118422D01*
X165080290Y-120312826D01*
X165141117Y-120500029D01*
X165191735Y-120599371D01*
X165230476Y-120675405D01*
X165346172Y-120834646D01*
X165485354Y-120973828D01*
X165644595Y-121089524D01*
X165727455Y-121131743D01*
X165819970Y-121178882D01*
X165819972Y-121178882D01*
X165819975Y-121178884D01*
X165920317Y-121211487D01*
X166007173Y-121239709D01*
X166201578Y-121270500D01*
X166201583Y-121270500D01*
X166398422Y-121270500D01*
X166592826Y-121239709D01*
X166780025Y-121178884D01*
X166955405Y-121089524D01*
X167114646Y-120973828D01*
X167253828Y-120834646D01*
X167369524Y-120675405D01*
X167458884Y-120500025D01*
X167519709Y-120312826D01*
X167540054Y-120184372D01*
X167550500Y-120118422D01*
X167550500Y-119921577D01*
X167519709Y-119727173D01*
X167468162Y-119568530D01*
X167458884Y-119539975D01*
X167458882Y-119539972D01*
X167458882Y-119539970D01*
X167400615Y-119425615D01*
X167369524Y-119364595D01*
X167253828Y-119205354D01*
X167114646Y-119066172D01*
X166955405Y-118950476D01*
X166780029Y-118861117D01*
X166592826Y-118800290D01*
X166398422Y-118769500D01*
X166398417Y-118769500D01*
X166201583Y-118769500D01*
X166201578Y-118769500D01*
X166007173Y-118800290D01*
X165819970Y-118861117D01*
X165644594Y-118950476D01*
X165553741Y-119016485D01*
X165485354Y-119066172D01*
X165485352Y-119066174D01*
X165485351Y-119066174D01*
X165346174Y-119205351D01*
X165346174Y-119205352D01*
X165346172Y-119205354D01*
X165332971Y-119223524D01*
X165230476Y-119364594D01*
X165141117Y-119539970D01*
X165080290Y-119727173D01*
X165049500Y-119921577D01*
X162799226Y-119921577D01*
X162089564Y-119211915D01*
X162056079Y-119150592D01*
X162053245Y-119124234D01*
X162053245Y-114635455D01*
X169314500Y-114635455D01*
X169314500Y-114848029D01*
X169347754Y-115057985D01*
X169411222Y-115253319D01*
X169413444Y-115260156D01*
X169509951Y-115449562D01*
X169634890Y-115621528D01*
X169785209Y-115771847D01*
X169785214Y-115771851D01*
X169949793Y-115891424D01*
X169992459Y-115946753D01*
X169998438Y-116016367D01*
X169965833Y-116078162D01*
X169949793Y-116092060D01*
X169785214Y-116211632D01*
X169785209Y-116211636D01*
X169634890Y-116361955D01*
X169509951Y-116533921D01*
X169413444Y-116723327D01*
X169347753Y-116925502D01*
X169314500Y-117135455D01*
X169314500Y-117348028D01*
X169343465Y-117530910D01*
X169347754Y-117557985D01*
X169397349Y-117710623D01*
X169413444Y-117760156D01*
X169509951Y-117949562D01*
X169634890Y-118121528D01*
X169785209Y-118271847D01*
X169785214Y-118271851D01*
X169950218Y-118391733D01*
X169992884Y-118447062D01*
X169998863Y-118516676D01*
X169966258Y-118578471D01*
X169950218Y-118592369D01*
X169785540Y-118712014D01*
X169785535Y-118712018D01*
X169635276Y-118862277D01*
X169635272Y-118862282D01*
X169510379Y-119034184D01*
X169413904Y-119223524D01*
X169348242Y-119425612D01*
X169348242Y-119425615D01*
X169337769Y-119491742D01*
X170385854Y-119491742D01*
X170347370Y-119558399D01*
X170315000Y-119679207D01*
X170315000Y-119804277D01*
X170347370Y-119925085D01*
X170385854Y-119991742D01*
X169337769Y-119991742D01*
X169348242Y-120057868D01*
X169348242Y-120057871D01*
X169413904Y-120259959D01*
X169510379Y-120449299D01*
X169635272Y-120621201D01*
X169635276Y-120621206D01*
X169774143Y-120760073D01*
X169807628Y-120821396D01*
X169802644Y-120891088D01*
X169760772Y-120947021D01*
X169751559Y-120953293D01*
X169596342Y-121049031D01*
X169472289Y-121173084D01*
X169380187Y-121322405D01*
X169380186Y-121322408D01*
X169325001Y-121488945D01*
X169325001Y-121488946D01*
X169325000Y-121488946D01*
X169314500Y-121591725D01*
X169314500Y-122891743D01*
X169314501Y-122891760D01*
X169325000Y-122994538D01*
X169325001Y-122994541D01*
X169380185Y-123161073D01*
X169380186Y-123161076D01*
X169472288Y-123310398D01*
X169596344Y-123434454D01*
X169745666Y-123526556D01*
X169912203Y-123581741D01*
X170014991Y-123592242D01*
X171565008Y-123592241D01*
X171667797Y-123581741D01*
X171834334Y-123526556D01*
X171983656Y-123434454D01*
X172107712Y-123310398D01*
X172199814Y-123161076D01*
X172254999Y-122994539D01*
X172265500Y-122891751D01*
X172265499Y-121591734D01*
X172254999Y-121488945D01*
X172199814Y-121322408D01*
X172107712Y-121173086D01*
X171983656Y-121049030D01*
X171834334Y-120956928D01*
X171834332Y-120956927D01*
X171828440Y-120953293D01*
X171781716Y-120901345D01*
X171770493Y-120832383D01*
X171798337Y-120768300D01*
X171805856Y-120760072D01*
X171944728Y-120621200D01*
X172069620Y-120449299D01*
X172166095Y-120259959D01*
X172231757Y-120057871D01*
X172231757Y-120057868D01*
X172242231Y-119991742D01*
X171194146Y-119991742D01*
X171232630Y-119925085D01*
X171265000Y-119804277D01*
X171265000Y-119679207D01*
X171232630Y-119558399D01*
X171194146Y-119491742D01*
X172242231Y-119491742D01*
X172231757Y-119425615D01*
X172231757Y-119425612D01*
X172166095Y-119223524D01*
X172069620Y-119034184D01*
X171944727Y-118862282D01*
X171944723Y-118862277D01*
X171794464Y-118712018D01*
X171794459Y-118712014D01*
X171629781Y-118592369D01*
X171587115Y-118537039D01*
X171581136Y-118467426D01*
X171613741Y-118405631D01*
X171629776Y-118391736D01*
X171794792Y-118271846D01*
X171945104Y-118121534D01*
X171945106Y-118121530D01*
X171945109Y-118121528D01*
X172070048Y-117949562D01*
X172070047Y-117949562D01*
X172070051Y-117949558D01*
X172166557Y-117760154D01*
X172232246Y-117557985D01*
X172265500Y-117348029D01*
X172265500Y-117135455D01*
X172232246Y-116925499D01*
X172166557Y-116723330D01*
X172070051Y-116533926D01*
X172070049Y-116533923D01*
X172070048Y-116533921D01*
X171945109Y-116361955D01*
X171794792Y-116211638D01*
X171794784Y-116211632D01*
X171630204Y-116092058D01*
X171587540Y-116036731D01*
X171581561Y-115967118D01*
X171614166Y-115905322D01*
X171630199Y-115891428D01*
X171794792Y-115771846D01*
X171945104Y-115621534D01*
X171945106Y-115621530D01*
X171945109Y-115621528D01*
X172070048Y-115449562D01*
X172070047Y-115449562D01*
X172070051Y-115449558D01*
X172166557Y-115260154D01*
X172232246Y-115057985D01*
X172265500Y-114848029D01*
X172265500Y-114635455D01*
X172232246Y-114425499D01*
X172166557Y-114223330D01*
X172070051Y-114033926D01*
X172070049Y-114033923D01*
X172070048Y-114033921D01*
X171945109Y-113861955D01*
X171794786Y-113711632D01*
X171622820Y-113586693D01*
X171433414Y-113490186D01*
X171433413Y-113490185D01*
X171433412Y-113490185D01*
X171231243Y-113424496D01*
X171231241Y-113424495D01*
X171231240Y-113424495D01*
X171069957Y-113398950D01*
X171021287Y-113391242D01*
X170558713Y-113391242D01*
X170510042Y-113398950D01*
X170348760Y-113424495D01*
X170146585Y-113490186D01*
X169957179Y-113586693D01*
X169785213Y-113711632D01*
X169634890Y-113861955D01*
X169509951Y-114033921D01*
X169413444Y-114223327D01*
X169347753Y-114425502D01*
X169328035Y-114550000D01*
X169314500Y-114635455D01*
X162053245Y-114635455D01*
X162053245Y-113516241D01*
X162072930Y-113449202D01*
X162125734Y-113403447D01*
X162177245Y-113392241D01*
X163697871Y-113392241D01*
X163697872Y-113392241D01*
X163757483Y-113385833D01*
X163892331Y-113335538D01*
X164007546Y-113249288D01*
X164093796Y-113134073D01*
X164097421Y-113124354D01*
X164123601Y-113054162D01*
X164165471Y-112998228D01*
X164230936Y-112973810D01*
X164299209Y-112988661D01*
X164327464Y-113009813D01*
X164377636Y-113059985D01*
X164377641Y-113059989D01*
X164457050Y-113117682D01*
X164555978Y-113189557D01*
X164673280Y-113249326D01*
X164752393Y-113289637D01*
X164752396Y-113289638D01*
X164857221Y-113323697D01*
X164962049Y-113357757D01*
X165179778Y-113392242D01*
X165179779Y-113392242D01*
X165400221Y-113392242D01*
X165400222Y-113392242D01*
X165617951Y-113357757D01*
X165827606Y-113289637D01*
X166024022Y-113189557D01*
X166202365Y-113059984D01*
X166358242Y-112904107D01*
X166487815Y-112725764D01*
X166587895Y-112529348D01*
X166656015Y-112319693D01*
X166690500Y-112101964D01*
X166690500Y-111881520D01*
X166656015Y-111663791D01*
X166605451Y-111508169D01*
X166587896Y-111454138D01*
X166587895Y-111454135D01*
X166551954Y-111383599D01*
X166487815Y-111257720D01*
X166420210Y-111164669D01*
X166358247Y-111079383D01*
X166358243Y-111079378D01*
X166202363Y-110923498D01*
X166202358Y-110923494D01*
X166024025Y-110793929D01*
X166024024Y-110793928D01*
X166024022Y-110793927D01*
X165961096Y-110761864D01*
X165827606Y-110693846D01*
X165827603Y-110693845D01*
X165617952Y-110625727D01*
X165509086Y-110608484D01*
X165400222Y-110591242D01*
X165179778Y-110591242D01*
X165107201Y-110602737D01*
X164962047Y-110625727D01*
X164752396Y-110693845D01*
X164752393Y-110693846D01*
X164555974Y-110793929D01*
X164377641Y-110923494D01*
X164377636Y-110923498D01*
X164327463Y-110973671D01*
X164266140Y-111007155D01*
X164196448Y-111002170D01*
X164140515Y-110960299D01*
X164123601Y-110929322D01*
X164093797Y-110849413D01*
X164093793Y-110849406D01*
X164007547Y-110734197D01*
X164007544Y-110734194D01*
X163892335Y-110647948D01*
X163892328Y-110647944D01*
X163757482Y-110597650D01*
X163757483Y-110597650D01*
X163697883Y-110591243D01*
X163697881Y-110591242D01*
X163697873Y-110591242D01*
X163697865Y-110591242D01*
X162177245Y-110591242D01*
X162110206Y-110571557D01*
X162064451Y-110518753D01*
X162053245Y-110467242D01*
X162053245Y-105981215D01*
X162072930Y-105914176D01*
X162125734Y-105868421D01*
X162194892Y-105858477D01*
X162215558Y-105863282D01*
X162337049Y-105902757D01*
X162554778Y-105937242D01*
X162554779Y-105937242D01*
X162775221Y-105937242D01*
X162775222Y-105937242D01*
X162992951Y-105902757D01*
X163202606Y-105834637D01*
X163399022Y-105734557D01*
X163577365Y-105604984D01*
X163627924Y-105554424D01*
X163689245Y-105520940D01*
X163758936Y-105525924D01*
X163814870Y-105567795D01*
X163831786Y-105598772D01*
X163861646Y-105678829D01*
X163861649Y-105678835D01*
X163947809Y-105793929D01*
X163947812Y-105793932D01*
X164062906Y-105880092D01*
X164062913Y-105880096D01*
X164197620Y-105930338D01*
X164197627Y-105930340D01*
X164257155Y-105936741D01*
X164257172Y-105936742D01*
X164955000Y-105936742D01*
X164955000Y-104912019D01*
X165031306Y-104956075D01*
X165145756Y-104986742D01*
X165264244Y-104986742D01*
X165378694Y-104956075D01*
X165455000Y-104912019D01*
X165455000Y-105936742D01*
X166152828Y-105936742D01*
X166152844Y-105936741D01*
X166212372Y-105930340D01*
X166212379Y-105930338D01*
X166347086Y-105880096D01*
X166347093Y-105880092D01*
X166462187Y-105793932D01*
X166462190Y-105793929D01*
X166548350Y-105678835D01*
X166548354Y-105678828D01*
X166598596Y-105544121D01*
X166598598Y-105544114D01*
X166604999Y-105484586D01*
X166605000Y-105484569D01*
X166605000Y-104786742D01*
X165580278Y-104786742D01*
X165624333Y-104710436D01*
X165655000Y-104595986D01*
X165655000Y-104477498D01*
X165624333Y-104363048D01*
X165580278Y-104286742D01*
X166605000Y-104286742D01*
X166605000Y-103588914D01*
X166604999Y-103588897D01*
X166598598Y-103529369D01*
X166598596Y-103529362D01*
X166548354Y-103394655D01*
X166548350Y-103394648D01*
X166462190Y-103279554D01*
X166462187Y-103279551D01*
X166347093Y-103193391D01*
X166347086Y-103193387D01*
X166212379Y-103143145D01*
X166212372Y-103143143D01*
X166152844Y-103136742D01*
X165455000Y-103136742D01*
X165455000Y-104161464D01*
X165378694Y-104117409D01*
X165264244Y-104086742D01*
X165145756Y-104086742D01*
X165031306Y-104117409D01*
X164955000Y-104161464D01*
X164955000Y-103136742D01*
X164257155Y-103136742D01*
X164197627Y-103143143D01*
X164197620Y-103143145D01*
X164062913Y-103193387D01*
X164062906Y-103193391D01*
X163947812Y-103279551D01*
X163947809Y-103279554D01*
X163861649Y-103394648D01*
X163861643Y-103394660D01*
X163831785Y-103474711D01*
X163789914Y-103530645D01*
X163724449Y-103555061D01*
X163656176Y-103540209D01*
X163627923Y-103519058D01*
X163577363Y-103468498D01*
X163577358Y-103468494D01*
X163399025Y-103338929D01*
X163399024Y-103338928D01*
X163399022Y-103338927D01*
X163310199Y-103293669D01*
X163202606Y-103238846D01*
X163202603Y-103238845D01*
X162992953Y-103170727D01*
X162972137Y-103167430D01*
X162909002Y-103137499D01*
X162872072Y-103078187D01*
X162873072Y-103008324D01*
X162903854Y-102957278D01*
X163819827Y-102041306D01*
X163881150Y-102007821D01*
X163907508Y-102004987D01*
X169422492Y-102004987D01*
X169451932Y-102013631D01*
X169481919Y-102020155D01*
X169486934Y-102023909D01*
X169489531Y-102024672D01*
X169510173Y-102041306D01*
X169620174Y-102151307D01*
X169653659Y-102212630D01*
X169648675Y-102282322D01*
X169620177Y-102326667D01*
X169584893Y-102361952D01*
X169584892Y-102361953D01*
X169459951Y-102533921D01*
X169363444Y-102723327D01*
X169297753Y-102925502D01*
X169264500Y-103135455D01*
X169264500Y-103348028D01*
X169295400Y-103543126D01*
X169297754Y-103557985D01*
X169362393Y-103756923D01*
X169363444Y-103760156D01*
X169459951Y-103949562D01*
X169584890Y-104121528D01*
X169735209Y-104271847D01*
X169735214Y-104271851D01*
X169899793Y-104391424D01*
X169942459Y-104446753D01*
X169948438Y-104516367D01*
X169915833Y-104578162D01*
X169899793Y-104592060D01*
X169735214Y-104711632D01*
X169735209Y-104711636D01*
X169584890Y-104861955D01*
X169459951Y-105033921D01*
X169363444Y-105223327D01*
X169297753Y-105425502D01*
X169264500Y-105635455D01*
X169264500Y-105848028D01*
X169294786Y-106039250D01*
X169297754Y-106057985D01*
X169363102Y-106259105D01*
X169363444Y-106260156D01*
X169459951Y-106449562D01*
X169584890Y-106621528D01*
X169724068Y-106760706D01*
X169757553Y-106822029D01*
X169752569Y-106891721D01*
X169710697Y-106947654D01*
X169701484Y-106953925D01*
X169546659Y-107049422D01*
X169546655Y-107049425D01*
X169422684Y-107173396D01*
X169330643Y-107322617D01*
X169330641Y-107322622D01*
X169275494Y-107489044D01*
X169275493Y-107489051D01*
X169265000Y-107591755D01*
X169265000Y-107991742D01*
X170335854Y-107991742D01*
X170297370Y-108058399D01*
X170265000Y-108179207D01*
X170265000Y-108304277D01*
X170297370Y-108425085D01*
X170335854Y-108491742D01*
X169265001Y-108491742D01*
X169265001Y-108891728D01*
X169275494Y-108994439D01*
X169330641Y-109160861D01*
X169330643Y-109160866D01*
X169422684Y-109310087D01*
X169546654Y-109434057D01*
X169695875Y-109526098D01*
X169695880Y-109526100D01*
X169862302Y-109581247D01*
X169862309Y-109581248D01*
X169965019Y-109591741D01*
X170489999Y-109591741D01*
X170490000Y-109591740D01*
X170490000Y-108645887D01*
X170556657Y-108684372D01*
X170677465Y-108716742D01*
X170802535Y-108716742D01*
X170923343Y-108684372D01*
X170990000Y-108645887D01*
X170990000Y-109591741D01*
X171514972Y-109591741D01*
X171514986Y-109591740D01*
X171617697Y-109581247D01*
X171784119Y-109526100D01*
X171784124Y-109526098D01*
X171933345Y-109434057D01*
X172057315Y-109310087D01*
X172149356Y-109160866D01*
X172149358Y-109160861D01*
X172204505Y-108994439D01*
X172204506Y-108994432D01*
X172214999Y-108891728D01*
X172215000Y-108891715D01*
X172215000Y-108491742D01*
X171144146Y-108491742D01*
X171182630Y-108425085D01*
X171215000Y-108304277D01*
X171215000Y-108179207D01*
X171182630Y-108058399D01*
X171144146Y-107991742D01*
X172214999Y-107991742D01*
X172214999Y-107591770D01*
X172214998Y-107591755D01*
X172204505Y-107489044D01*
X172149358Y-107322622D01*
X172149356Y-107322617D01*
X172057315Y-107173396D01*
X171933345Y-107049426D01*
X171778515Y-106953926D01*
X171731791Y-106901978D01*
X171720568Y-106833015D01*
X171748412Y-106768933D01*
X171755909Y-106760728D01*
X171895104Y-106621534D01*
X172020051Y-106449558D01*
X172116557Y-106260154D01*
X172182246Y-106057985D01*
X172215500Y-105848029D01*
X172215500Y-105635455D01*
X172182246Y-105425499D01*
X172116557Y-105223330D01*
X172020051Y-105033926D01*
X172020049Y-105033923D01*
X172020048Y-105033921D01*
X171895109Y-104861955D01*
X171744792Y-104711638D01*
X171721238Y-104694525D01*
X171580204Y-104592058D01*
X171537540Y-104536731D01*
X171531561Y-104467118D01*
X171564166Y-104405322D01*
X171580199Y-104391428D01*
X171744792Y-104271846D01*
X171895104Y-104121534D01*
X171895106Y-104121530D01*
X171895109Y-104121528D01*
X172020048Y-103949562D01*
X172020047Y-103949562D01*
X172020051Y-103949558D01*
X172116557Y-103760154D01*
X172182246Y-103557985D01*
X172215500Y-103348029D01*
X172215500Y-103135455D01*
X172182246Y-102925499D01*
X172116557Y-102723330D01*
X172020051Y-102533926D01*
X172020049Y-102533923D01*
X172020048Y-102533921D01*
X171895109Y-102361955D01*
X171744786Y-102211632D01*
X171572817Y-102086691D01*
X171542374Y-102071180D01*
X171491578Y-102023206D01*
X171477051Y-101984887D01*
X171473914Y-101969112D01*
X171473912Y-101969107D01*
X171416382Y-101830216D01*
X171416375Y-101830203D01*
X171332852Y-101705203D01*
X171316357Y-101688708D01*
X171226540Y-101598891D01*
X170823610Y-101195961D01*
X170276543Y-100648893D01*
X170276539Y-100648890D01*
X170151538Y-100565366D01*
X170151525Y-100565359D01*
X170012634Y-100507829D01*
X170012622Y-100507826D01*
X169865176Y-100478497D01*
X169865173Y-100478497D01*
X163615174Y-100478497D01*
X163464827Y-100478497D01*
X163464824Y-100478497D01*
X163317377Y-100507826D01*
X163317365Y-100507829D01*
X163178474Y-100565359D01*
X163178461Y-100565366D01*
X163053460Y-100648890D01*
X163053456Y-100648893D01*
X161353042Y-102349309D01*
X160803460Y-102898891D01*
X160776852Y-102925499D01*
X160697147Y-103005203D01*
X160613624Y-103130203D01*
X160613617Y-103130216D01*
X160556087Y-103269107D01*
X160556084Y-103269117D01*
X160540070Y-103349625D01*
X160507685Y-103411536D01*
X160446969Y-103446110D01*
X160377199Y-103442369D01*
X160362158Y-103435918D01*
X160250836Y-103379196D01*
X160071118Y-103320801D01*
X159884486Y-103291242D01*
X159884481Y-103291242D01*
X159695519Y-103291242D01*
X159695514Y-103291242D01*
X159508881Y-103320801D01*
X159329163Y-103379196D01*
X159160800Y-103464982D01*
X159086372Y-103519058D01*
X159007927Y-103576052D01*
X159007925Y-103576054D01*
X159007924Y-103576054D01*
X158874312Y-103709666D01*
X158874312Y-103709667D01*
X158874310Y-103709669D01*
X158867421Y-103719151D01*
X158763240Y-103862542D01*
X158677454Y-104030905D01*
X158619059Y-104210623D01*
X158589500Y-104397255D01*
X158589500Y-104586228D01*
X158619059Y-104772860D01*
X158677454Y-104952578D01*
X158740368Y-105076052D01*
X158763240Y-105120941D01*
X158874310Y-105273815D01*
X159007927Y-105407432D01*
X159160801Y-105518502D01*
X159231306Y-105554426D01*
X159329163Y-105604287D01*
X159329165Y-105604287D01*
X159329168Y-105604289D01*
X159396144Y-105626051D01*
X159508881Y-105662682D01*
X159695514Y-105692242D01*
X159695519Y-105692242D01*
X159884486Y-105692242D01*
X160071118Y-105662682D01*
X160101993Y-105652650D01*
X160250832Y-105604289D01*
X160346460Y-105555563D01*
X160415129Y-105542668D01*
X160479870Y-105568944D01*
X160520127Y-105626051D01*
X160526755Y-105666049D01*
X160526755Y-110729125D01*
X160507070Y-110796164D01*
X160454266Y-110841919D01*
X160385108Y-110851863D01*
X160346461Y-110839610D01*
X160335839Y-110834197D01*
X160156118Y-110775801D01*
X159969486Y-110746242D01*
X159969481Y-110746242D01*
X159780519Y-110746242D01*
X159780514Y-110746242D01*
X159593881Y-110775801D01*
X159414163Y-110834196D01*
X159245800Y-110919982D01*
X159171905Y-110973671D01*
X159092927Y-111031052D01*
X159092925Y-111031054D01*
X159092924Y-111031054D01*
X158959312Y-111164666D01*
X158959312Y-111164667D01*
X158959310Y-111164669D01*
X158950019Y-111177457D01*
X158848240Y-111317542D01*
X158762454Y-111485905D01*
X158704059Y-111665623D01*
X158674500Y-111852255D01*
X158674500Y-112041228D01*
X158704059Y-112227860D01*
X158762454Y-112407578D01*
X158844949Y-112569482D01*
X158848240Y-112575941D01*
X158959310Y-112728815D01*
X159092927Y-112862432D01*
X159245801Y-112973502D01*
X159308697Y-113005549D01*
X159414163Y-113059287D01*
X159414165Y-113059287D01*
X159414168Y-113059289D01*
X159473475Y-113078559D01*
X159593881Y-113117682D01*
X159780514Y-113147242D01*
X159780519Y-113147242D01*
X159969486Y-113147242D01*
X160156118Y-113117682D01*
X160157623Y-113117193D01*
X160335832Y-113059289D01*
X160346456Y-113053875D01*
X160415123Y-113040976D01*
X160479865Y-113067250D01*
X160520125Y-113124354D01*
X160526755Y-113164358D01*
X160526755Y-116905111D01*
X160507070Y-116972150D01*
X160454266Y-117017905D01*
X160385108Y-117027849D01*
X160329869Y-117005429D01*
X160274199Y-116964982D01*
X160105836Y-116879196D01*
X159926118Y-116820801D01*
X159739486Y-116791242D01*
X159739481Y-116791242D01*
X159550519Y-116791242D01*
X159550514Y-116791242D01*
X159363881Y-116820801D01*
X159184163Y-116879196D01*
X159015800Y-116964982D01*
X158942959Y-117017905D01*
X158862927Y-117076052D01*
X158862925Y-117076054D01*
X158862924Y-117076054D01*
X158729312Y-117209666D01*
X158729312Y-117209667D01*
X158729310Y-117209669D01*
X158684534Y-117271298D01*
X158618240Y-117362542D01*
X158532454Y-117530905D01*
X158474059Y-117710623D01*
X158463130Y-117779630D01*
X158433200Y-117842765D01*
X158373889Y-117879696D01*
X158304026Y-117878698D01*
X158252976Y-117847913D01*
X155316055Y-114910992D01*
X155282570Y-114849669D01*
X155279736Y-114823311D01*
X155279736Y-108615644D01*
X155279735Y-108615642D01*
X155263376Y-108533399D01*
X155250405Y-108468190D01*
X155241727Y-108447240D01*
X155192873Y-108329294D01*
X155192866Y-108329281D01*
X155109343Y-108204281D01*
X155084269Y-108179207D01*
X155003031Y-108097969D01*
X153852716Y-106947654D01*
X152671039Y-105765976D01*
X152637554Y-105704653D01*
X152642538Y-105634961D01*
X152684410Y-105579028D01*
X152702426Y-105567810D01*
X152702456Y-105567795D01*
X152799199Y-105518502D01*
X152952073Y-105407432D01*
X153085690Y-105273815D01*
X153196760Y-105120941D01*
X153282547Y-104952574D01*
X153340940Y-104772860D01*
X153350068Y-104715230D01*
X153370500Y-104586228D01*
X153370500Y-104397255D01*
X153340940Y-104210623D01*
X153288375Y-104048847D01*
X153282547Y-104030910D01*
X153282545Y-104030907D01*
X153282545Y-104030905D01*
X153196759Y-103862542D01*
X153194449Y-103859362D01*
X153085690Y-103709669D01*
X152952073Y-103576052D01*
X152799199Y-103464982D01*
X152630836Y-103379196D01*
X152451118Y-103320801D01*
X152264486Y-103291242D01*
X152264481Y-103291242D01*
X152075519Y-103291242D01*
X152075514Y-103291242D01*
X151888881Y-103320801D01*
X151709163Y-103379196D01*
X151540800Y-103464982D01*
X151466372Y-103519058D01*
X151387927Y-103576052D01*
X151387925Y-103576054D01*
X151387924Y-103576054D01*
X151254312Y-103709666D01*
X151254312Y-103709667D01*
X151254310Y-103709669D01*
X151217629Y-103760156D01*
X151143238Y-103862545D01*
X151093930Y-103959317D01*
X151045956Y-104010112D01*
X150978135Y-104026907D01*
X150912000Y-104004369D01*
X150895765Y-103990702D01*
X148816055Y-101910992D01*
X148782570Y-101849669D01*
X148779736Y-101823311D01*
X148779736Y-93768059D01*
X148779735Y-93768056D01*
X148767597Y-93707031D01*
X148750406Y-93620609D01*
X148750405Y-93620602D01*
X148729687Y-93570584D01*
X148692873Y-93481706D01*
X148692866Y-93481693D01*
X148609342Y-93356692D01*
X148609339Y-93356688D01*
X143022944Y-87770295D01*
X143001265Y-87741064D01*
X142999396Y-87737569D01*
X142999394Y-87737563D01*
X142926762Y-87628861D01*
X142911789Y-87606452D01*
X142800292Y-87494955D01*
X142800288Y-87494952D01*
X142669185Y-87407351D01*
X142669172Y-87407344D01*
X142523501Y-87347006D01*
X142523489Y-87347003D01*
X142368845Y-87316242D01*
X142368842Y-87316242D01*
X142211158Y-87316242D01*
X142211155Y-87316242D01*
X142056510Y-87347003D01*
X142056498Y-87347006D01*
X141910827Y-87407344D01*
X141910814Y-87407351D01*
X141779711Y-87494952D01*
X141779707Y-87494955D01*
X141668213Y-87606449D01*
X141668210Y-87606453D01*
X141580609Y-87737556D01*
X141580602Y-87737569D01*
X141520264Y-87883240D01*
X141520261Y-87883252D01*
X141489500Y-88037895D01*
X141489500Y-88195588D01*
X141520261Y-88350231D01*
X141520264Y-88350243D01*
X141580602Y-88495914D01*
X141580609Y-88495927D01*
X141668210Y-88627030D01*
X141668213Y-88627034D01*
X141705240Y-88664061D01*
X141738725Y-88725384D01*
X141733741Y-88795076D01*
X141705240Y-88839423D01*
X141668213Y-88876449D01*
X141668210Y-88876453D01*
X141580609Y-89007556D01*
X141580602Y-89007569D01*
X141520264Y-89153240D01*
X141520261Y-89153252D01*
X141489500Y-89307895D01*
X141489500Y-89465588D01*
X141520261Y-89620231D01*
X141520264Y-89620243D01*
X141580602Y-89765914D01*
X141580609Y-89765927D01*
X141668210Y-89897030D01*
X141668213Y-89897034D01*
X141779710Y-90008531D01*
X141845487Y-90052481D01*
X141910821Y-90096136D01*
X141910828Y-90096139D01*
X141914322Y-90098007D01*
X141943553Y-90119686D01*
X146490436Y-94666569D01*
X146523921Y-94727892D01*
X146526755Y-94754250D01*
X146526755Y-102455202D01*
X146507070Y-102522241D01*
X146454266Y-102567996D01*
X146385108Y-102577940D01*
X146346461Y-102565687D01*
X146289226Y-102536524D01*
X146094534Y-102473264D01*
X145919995Y-102445620D01*
X145892352Y-102441242D01*
X145687648Y-102441242D01*
X145663329Y-102445093D01*
X145485465Y-102473264D01*
X145290776Y-102536523D01*
X145108386Y-102629457D01*
X144942786Y-102749770D01*
X144798028Y-102894528D01*
X144677715Y-103060128D01*
X144584781Y-103242518D01*
X144521522Y-103437207D01*
X144489500Y-103639390D01*
X144489500Y-103844093D01*
X144521522Y-104046276D01*
X144584781Y-104240965D01*
X144625052Y-104319999D01*
X144668526Y-104405322D01*
X144677715Y-104423355D01*
X144798028Y-104588955D01*
X144942786Y-104733713D01*
X145108385Y-104854026D01*
X145108387Y-104854027D01*
X145108390Y-104854029D01*
X145162378Y-104881537D01*
X145213174Y-104929511D01*
X145229969Y-104997332D01*
X145207432Y-105063467D01*
X145162378Y-105102507D01*
X145108644Y-105129885D01*
X145064077Y-105162265D01*
X145064077Y-105162266D01*
X145743554Y-105841742D01*
X145737339Y-105841742D01*
X145635606Y-105869001D01*
X145544394Y-105921662D01*
X145469920Y-105996136D01*
X145417259Y-106087348D01*
X145390000Y-106189081D01*
X145390000Y-106195295D01*
X144710524Y-105515819D01*
X144710523Y-105515819D01*
X144678143Y-105560386D01*
X144585244Y-105742710D01*
X144522009Y-105937324D01*
X144490000Y-106139424D01*
X144490000Y-106344059D01*
X144522009Y-106546159D01*
X144585245Y-106740776D01*
X144645758Y-106859539D01*
X144658654Y-106928208D01*
X144632377Y-106992948D01*
X144575271Y-107033205D01*
X144505465Y-107036197D01*
X144447592Y-107003514D01*
X137237702Y-99793624D01*
X137237697Y-99793620D01*
X137086932Y-99684084D01*
X137086931Y-99684083D01*
X137086929Y-99684082D01*
X137033730Y-99656975D01*
X136920874Y-99599471D01*
X136920868Y-99599469D01*
X136743629Y-99541882D01*
X136743630Y-99541882D01*
X136592252Y-99517906D01*
X136559554Y-99512727D01*
X136559553Y-99512727D01*
X136117027Y-99512727D01*
X136049988Y-99493042D01*
X136004233Y-99440238D01*
X135994289Y-99371080D01*
X136023314Y-99307524D01*
X136044140Y-99288410D01*
X136060921Y-99276216D01*
X135381447Y-98596742D01*
X135387661Y-98596742D01*
X135489394Y-98569483D01*
X135580606Y-98516822D01*
X135655080Y-98442348D01*
X135707741Y-98351136D01*
X135735000Y-98249403D01*
X135735000Y-98243190D01*
X136414474Y-98922664D01*
X136414474Y-98922663D01*
X136446859Y-98878091D01*
X136539755Y-98695773D01*
X136602990Y-98501159D01*
X136635000Y-98299059D01*
X136635000Y-98094424D01*
X136602990Y-97892324D01*
X136539755Y-97697710D01*
X136446859Y-97515392D01*
X136414474Y-97470819D01*
X136414474Y-97470818D01*
X135735000Y-98150293D01*
X135735000Y-98144081D01*
X135707741Y-98042348D01*
X135655080Y-97951136D01*
X135580606Y-97876662D01*
X135489394Y-97824001D01*
X135387661Y-97796742D01*
X135381446Y-97796742D01*
X136060922Y-97117266D01*
X136060921Y-97117265D01*
X136016359Y-97084889D01*
X136016350Y-97084883D01*
X135834031Y-96991986D01*
X135639417Y-96928751D01*
X135437317Y-96896742D01*
X135232683Y-96896742D01*
X135030582Y-96928751D01*
X134835968Y-96991986D01*
X134653644Y-97084885D01*
X134609077Y-97117265D01*
X134609077Y-97117266D01*
X135288554Y-97796742D01*
X135282339Y-97796742D01*
X135180606Y-97824001D01*
X135089394Y-97876662D01*
X135014920Y-97951136D01*
X134962259Y-98042348D01*
X134935000Y-98144081D01*
X134935000Y-98150295D01*
X134255524Y-97470819D01*
X134255523Y-97470819D01*
X134223143Y-97515386D01*
X134130244Y-97697710D01*
X134067009Y-97892324D01*
X134035000Y-98094424D01*
X134035000Y-98299059D01*
X134067009Y-98501159D01*
X134130244Y-98695773D01*
X134223141Y-98878092D01*
X134223147Y-98878101D01*
X134255523Y-98922663D01*
X134255524Y-98922664D01*
X134935000Y-98243188D01*
X134935000Y-98249403D01*
X134962259Y-98351136D01*
X135014920Y-98442348D01*
X135089394Y-98516822D01*
X135180606Y-98569483D01*
X135282339Y-98596742D01*
X135288553Y-98596742D01*
X134609076Y-99276216D01*
X134653652Y-99308603D01*
X134707376Y-99335976D01*
X134758172Y-99383950D01*
X134774968Y-99451770D01*
X134752431Y-99517906D01*
X134707379Y-99556945D01*
X134653386Y-99584456D01*
X134487786Y-99704770D01*
X134343028Y-99849528D01*
X134222715Y-100015128D01*
X134129781Y-100197518D01*
X134066522Y-100392207D01*
X134034500Y-100594390D01*
X131079500Y-100594390D01*
X131079500Y-95707882D01*
X134680669Y-95707882D01*
X134680670Y-95707883D01*
X134706059Y-95726329D01*
X134874362Y-95812085D01*
X135053997Y-95870451D01*
X135240553Y-95900000D01*
X135429447Y-95900000D01*
X135616002Y-95870451D01*
X135795637Y-95812085D01*
X135963937Y-95726331D01*
X135989328Y-95707883D01*
X135989328Y-95707882D01*
X135335001Y-95053554D01*
X135335000Y-95053554D01*
X134680669Y-95707882D01*
X131079500Y-95707882D01*
X131079500Y-94605552D01*
X134135000Y-94605552D01*
X134135000Y-94794447D01*
X134164548Y-94981002D01*
X134222914Y-95160637D01*
X134308666Y-95328933D01*
X134327116Y-95354328D01*
X134981446Y-94700000D01*
X134981446Y-94699999D01*
X134935369Y-94653922D01*
X134985000Y-94653922D01*
X134985000Y-94746078D01*
X135008852Y-94835095D01*
X135054930Y-94914905D01*
X135120095Y-94980070D01*
X135199905Y-95026148D01*
X135288922Y-95050000D01*
X135381078Y-95050000D01*
X135470095Y-95026148D01*
X135549905Y-94980070D01*
X135615070Y-94914905D01*
X135661148Y-94835095D01*
X135685000Y-94746078D01*
X135685000Y-94699999D01*
X135688554Y-94699999D01*
X135688554Y-94700000D01*
X136342882Y-95354328D01*
X136342883Y-95354328D01*
X136361331Y-95328937D01*
X136447085Y-95160637D01*
X136505451Y-94981002D01*
X136535000Y-94794447D01*
X136535000Y-94605552D01*
X136505451Y-94418997D01*
X136447085Y-94239362D01*
X136361329Y-94071059D01*
X136342883Y-94045670D01*
X136342882Y-94045669D01*
X135688554Y-94699999D01*
X135685000Y-94699999D01*
X135685000Y-94653922D01*
X135661148Y-94564905D01*
X135615070Y-94485095D01*
X135549905Y-94419930D01*
X135470095Y-94373852D01*
X135381078Y-94350000D01*
X135288922Y-94350000D01*
X135199905Y-94373852D01*
X135120095Y-94419930D01*
X135054930Y-94485095D01*
X135008852Y-94564905D01*
X134985000Y-94653922D01*
X134935369Y-94653922D01*
X134327116Y-94045669D01*
X134327116Y-94045670D01*
X134308669Y-94071060D01*
X134222914Y-94239362D01*
X134164548Y-94418997D01*
X134135000Y-94605552D01*
X131079500Y-94605552D01*
X131079500Y-93692116D01*
X134680669Y-93692116D01*
X135335000Y-94346446D01*
X135335001Y-94346446D01*
X135989328Y-93692116D01*
X135963933Y-93673666D01*
X135795637Y-93587914D01*
X135616002Y-93529548D01*
X135429447Y-93500000D01*
X135240553Y-93500000D01*
X135053997Y-93529548D01*
X134874362Y-93587914D01*
X134706060Y-93673669D01*
X134680670Y-93692116D01*
X134680669Y-93692116D01*
X131079500Y-93692116D01*
X131079500Y-92796307D01*
X131062100Y-92686449D01*
X131050345Y-92612234D01*
X131050344Y-92612230D01*
X130992757Y-92434992D01*
X130992755Y-92434986D01*
X130963454Y-92377482D01*
X130908145Y-92268932D01*
X130855518Y-92196497D01*
X130798606Y-92118163D01*
X130798602Y-92118158D01*
X128453329Y-89772885D01*
X128419844Y-89711562D01*
X128424828Y-89641870D01*
X128466700Y-89585937D01*
X128484718Y-89574718D01*
X128516347Y-89558603D01*
X128560921Y-89526216D01*
X127881447Y-88846742D01*
X127887661Y-88846742D01*
X127989394Y-88819483D01*
X128080606Y-88766822D01*
X128155080Y-88692348D01*
X128207741Y-88601136D01*
X128235000Y-88499403D01*
X128235000Y-88493189D01*
X128914474Y-89172663D01*
X128946859Y-89128091D01*
X129039755Y-88945773D01*
X129102990Y-88751159D01*
X129135000Y-88549059D01*
X129135000Y-88344424D01*
X129102990Y-88142324D01*
X129039755Y-87947710D01*
X128946859Y-87765392D01*
X128914474Y-87720819D01*
X128914474Y-87720818D01*
X128235000Y-88400293D01*
X128235000Y-88394081D01*
X128207741Y-88292348D01*
X128155080Y-88201136D01*
X128080606Y-88126662D01*
X127989394Y-88074001D01*
X127887661Y-88046742D01*
X127881446Y-88046742D01*
X128560922Y-87367266D01*
X128560921Y-87367265D01*
X128516359Y-87334889D01*
X128516350Y-87334883D01*
X128334031Y-87241986D01*
X128139417Y-87178751D01*
X127937317Y-87146742D01*
X127732683Y-87146742D01*
X127530581Y-87178752D01*
X127530574Y-87178753D01*
X127496817Y-87189722D01*
X127468698Y-87190525D01*
X127440853Y-87194529D01*
X127434241Y-87191509D01*
X127426976Y-87191717D01*
X127402887Y-87177190D01*
X127377297Y-87165504D01*
X127373366Y-87159388D01*
X127367144Y-87155636D01*
X127354733Y-87130393D01*
X127339523Y-87106726D01*
X127338046Y-87096453D01*
X127336316Y-87092935D01*
X127334500Y-87071791D01*
X127334500Y-86985513D01*
X134134500Y-86985513D01*
X134134500Y-87174486D01*
X134164059Y-87361118D01*
X134222454Y-87540836D01*
X134287282Y-87668066D01*
X134308240Y-87709199D01*
X134419310Y-87862073D01*
X134552927Y-87995690D01*
X134705801Y-88106760D01*
X134744861Y-88126662D01*
X134874163Y-88192545D01*
X134874165Y-88192545D01*
X134874168Y-88192547D01*
X134970497Y-88223846D01*
X135053881Y-88250940D01*
X135240514Y-88280500D01*
X135240519Y-88280500D01*
X135429486Y-88280500D01*
X135616118Y-88250940D01*
X135795832Y-88192547D01*
X135964199Y-88106760D01*
X136117073Y-87995690D01*
X136250690Y-87862073D01*
X136361760Y-87709199D01*
X136447547Y-87540832D01*
X136505940Y-87361118D01*
X136517755Y-87286522D01*
X136535500Y-87174486D01*
X136535500Y-86985513D01*
X136505940Y-86798881D01*
X136447545Y-86619163D01*
X136361759Y-86450800D01*
X136358246Y-86445965D01*
X136250690Y-86297927D01*
X136117073Y-86164310D01*
X135964199Y-86053240D01*
X135956060Y-86049093D01*
X135795836Y-85967454D01*
X135616118Y-85909059D01*
X135429486Y-85879500D01*
X135429481Y-85879500D01*
X135240519Y-85879500D01*
X135240514Y-85879500D01*
X135053881Y-85909059D01*
X134874163Y-85967454D01*
X134705800Y-86053240D01*
X134618579Y-86116610D01*
X134552927Y-86164310D01*
X134552925Y-86164312D01*
X134552924Y-86164312D01*
X134419312Y-86297924D01*
X134419312Y-86297925D01*
X134419310Y-86297927D01*
X134371610Y-86363579D01*
X134308240Y-86450800D01*
X134222454Y-86619163D01*
X134164059Y-86798881D01*
X134134500Y-86985513D01*
X127334500Y-86985513D01*
X127334500Y-85673053D01*
X127354185Y-85606014D01*
X127370815Y-85585376D01*
X128268746Y-84687444D01*
X128318110Y-84657195D01*
X128334219Y-84651962D01*
X128516610Y-84559029D01*
X128537770Y-84543655D01*
X128682213Y-84438713D01*
X128682215Y-84438710D01*
X128682219Y-84438708D01*
X128826966Y-84293961D01*
X128826968Y-84293957D01*
X128826971Y-84293955D01*
X128879732Y-84221332D01*
X128947287Y-84128352D01*
X129040220Y-83945961D01*
X129103477Y-83751276D01*
X129135500Y-83549094D01*
X129135500Y-83344390D01*
X129124645Y-83275855D01*
X129103477Y-83142207D01*
X129059405Y-83006569D01*
X129040220Y-82947523D01*
X129040218Y-82947520D01*
X129040218Y-82947518D01*
X128974980Y-82819483D01*
X128947287Y-82765132D01*
X128932327Y-82744541D01*
X128826971Y-82599528D01*
X128682219Y-82454776D01*
X128661712Y-82439877D01*
X128661710Y-82439874D01*
X128516613Y-82334457D01*
X128516612Y-82334456D01*
X128516610Y-82334455D01*
X128459653Y-82305433D01*
X128334223Y-82241523D01*
X128139534Y-82178264D01*
X127964995Y-82150620D01*
X127937352Y-82146242D01*
X127732648Y-82146242D01*
X127708329Y-82150093D01*
X127530465Y-82178264D01*
X127335776Y-82241523D01*
X127153386Y-82334457D01*
X126987786Y-82454770D01*
X126843028Y-82599528D01*
X126722715Y-82765127D01*
X126629778Y-82947527D01*
X126624543Y-82963638D01*
X126594295Y-83012995D01*
X125379151Y-84228141D01*
X125247367Y-84359924D01*
X125247363Y-84359929D01*
X125137827Y-84510694D01*
X125053214Y-84676752D01*
X125053212Y-84676758D01*
X124995625Y-84853996D01*
X124966470Y-85038073D01*
X120640516Y-85038073D01*
X120557213Y-84954770D01*
X120391613Y-84834457D01*
X120391612Y-84834456D01*
X120391610Y-84834455D01*
X120334653Y-84805433D01*
X120209223Y-84741523D01*
X120014534Y-84678264D01*
X119839995Y-84650620D01*
X119812352Y-84646242D01*
X119607648Y-84646242D01*
X119583329Y-84650093D01*
X119405465Y-84678264D01*
X119210776Y-84741523D01*
X119028386Y-84834457D01*
X118862786Y-84954770D01*
X118718028Y-85099528D01*
X118597715Y-85265128D01*
X118550485Y-85357822D01*
X118502510Y-85408618D01*
X118434689Y-85425413D01*
X118368554Y-85402876D01*
X118329515Y-85357822D01*
X118328883Y-85356582D01*
X118282287Y-85265132D01*
X118274556Y-85254491D01*
X118161971Y-85099528D01*
X118017213Y-84954770D01*
X117851613Y-84834457D01*
X117851612Y-84834456D01*
X117851610Y-84834455D01*
X117794653Y-84805433D01*
X117669223Y-84741523D01*
X117474534Y-84678264D01*
X117299995Y-84650620D01*
X117272352Y-84646242D01*
X117067648Y-84646242D01*
X117043329Y-84650093D01*
X116865465Y-84678264D01*
X116670776Y-84741523D01*
X116488386Y-84834457D01*
X116322786Y-84954770D01*
X116178028Y-85099528D01*
X116057715Y-85265128D01*
X115964781Y-85447518D01*
X115901522Y-85642207D01*
X115869500Y-85844390D01*
X112515933Y-85844390D01*
X112518655Y-85842711D01*
X112642711Y-85718655D01*
X112734814Y-85569334D01*
X112789999Y-85402797D01*
X112800500Y-85300008D01*
X112800500Y-82899992D01*
X112789999Y-82797203D01*
X112734814Y-82630666D01*
X112713091Y-82595448D01*
X112642713Y-82481348D01*
X112642710Y-82481344D01*
X112518655Y-82357289D01*
X112518651Y-82357286D01*
X112369337Y-82265187D01*
X112369335Y-82265186D01*
X112271111Y-82232638D01*
X112202797Y-82210001D01*
X112202795Y-82210000D01*
X112100015Y-82199500D01*
X112100008Y-82199500D01*
X109699992Y-82199500D01*
X109699984Y-82199500D01*
X109597204Y-82210000D01*
X109597203Y-82210001D01*
X109430664Y-82265186D01*
X109430662Y-82265187D01*
X109281348Y-82357286D01*
X109281344Y-82357289D01*
X109157289Y-82481344D01*
X109157286Y-82481348D01*
X109065187Y-82630662D01*
X109065186Y-82630664D01*
X109010001Y-82797203D01*
X109010000Y-82797204D01*
X108999500Y-82899984D01*
X103840500Y-82899984D01*
X103840500Y-79844390D01*
X134034500Y-79844390D01*
X134034500Y-80049093D01*
X134066522Y-80251276D01*
X134129781Y-80445965D01*
X134222715Y-80628355D01*
X134343028Y-80793955D01*
X134487786Y-80938713D01*
X134653385Y-81059026D01*
X134653387Y-81059027D01*
X134653390Y-81059029D01*
X134707378Y-81086537D01*
X134758174Y-81134511D01*
X134774969Y-81202332D01*
X134752432Y-81268467D01*
X134707378Y-81307507D01*
X134653644Y-81334885D01*
X134609077Y-81367265D01*
X134609077Y-81367266D01*
X135288554Y-82046742D01*
X135282339Y-82046742D01*
X135180606Y-82074001D01*
X135089394Y-82126662D01*
X135014920Y-82201136D01*
X134962259Y-82292348D01*
X134935000Y-82394081D01*
X134935000Y-82400295D01*
X134255524Y-81720819D01*
X134255523Y-81720819D01*
X134223143Y-81765386D01*
X134130244Y-81947710D01*
X134067009Y-82142324D01*
X134035000Y-82344424D01*
X134035000Y-82549059D01*
X134067009Y-82751156D01*
X134130244Y-82945773D01*
X134223141Y-83128092D01*
X134223147Y-83128101D01*
X134255523Y-83172663D01*
X134255524Y-83172664D01*
X134935000Y-82493188D01*
X134935000Y-82499403D01*
X134962259Y-82601136D01*
X135014920Y-82692348D01*
X135089394Y-82766822D01*
X135180606Y-82819483D01*
X135282339Y-82846742D01*
X135288553Y-82846742D01*
X134609076Y-83526216D01*
X134653650Y-83558601D01*
X134835968Y-83651497D01*
X135030582Y-83714732D01*
X135232683Y-83746742D01*
X135437317Y-83746742D01*
X135639417Y-83714732D01*
X135834031Y-83651497D01*
X136016349Y-83558601D01*
X136060921Y-83526216D01*
X135381447Y-82846742D01*
X135387661Y-82846742D01*
X135489394Y-82819483D01*
X135580606Y-82766822D01*
X135655080Y-82692348D01*
X135707741Y-82601136D01*
X135735000Y-82499403D01*
X135735000Y-82493190D01*
X136414474Y-83172664D01*
X136414474Y-83172663D01*
X136446859Y-83128091D01*
X136539755Y-82945773D01*
X136602991Y-82751156D01*
X136635000Y-82549059D01*
X136635000Y-82344424D01*
X136602990Y-82142324D01*
X136539755Y-81947710D01*
X136446859Y-81765392D01*
X136414474Y-81720819D01*
X136414474Y-81720818D01*
X135735000Y-82400293D01*
X135735000Y-82394081D01*
X135707741Y-82292348D01*
X135655080Y-82201136D01*
X135580606Y-82126662D01*
X135489394Y-82074001D01*
X135387661Y-82046742D01*
X135381446Y-82046742D01*
X136060922Y-81367266D01*
X136060921Y-81367265D01*
X136016359Y-81334889D01*
X136016350Y-81334883D01*
X135962621Y-81307507D01*
X135911825Y-81259533D01*
X135895030Y-81191712D01*
X135917567Y-81125577D01*
X135962621Y-81086537D01*
X136016610Y-81059029D01*
X136101978Y-80997006D01*
X136182213Y-80938713D01*
X136182215Y-80938710D01*
X136182219Y-80938708D01*
X136326966Y-80793961D01*
X136326968Y-80793957D01*
X136326971Y-80793955D01*
X136402350Y-80690203D01*
X136447287Y-80628352D01*
X136540220Y-80445961D01*
X136603477Y-80251276D01*
X136635500Y-80049094D01*
X136635500Y-79844390D01*
X136622931Y-79765033D01*
X136603477Y-79642207D01*
X136580205Y-79570584D01*
X136540220Y-79447523D01*
X136522576Y-79412895D01*
X155489500Y-79412895D01*
X155489500Y-79570588D01*
X155520261Y-79725234D01*
X155521414Y-79729033D01*
X155526755Y-79765033D01*
X155526755Y-95623035D01*
X155556084Y-95770480D01*
X155556087Y-95770492D01*
X155613617Y-95909383D01*
X155613624Y-95909396D01*
X155697148Y-96034397D01*
X155697151Y-96034401D01*
X157011084Y-97348335D01*
X157011088Y-97348338D01*
X157136089Y-97431862D01*
X157136102Y-97431869D01*
X157206608Y-97461073D01*
X157274998Y-97489401D01*
X157299462Y-97494267D01*
X157348659Y-97504053D01*
X157422453Y-97518732D01*
X157422456Y-97518732D01*
X161884257Y-97518732D01*
X161951296Y-97538417D01*
X161997051Y-97591221D01*
X162006995Y-97660379D01*
X161977970Y-97723935D01*
X161971938Y-97730413D01*
X161443551Y-98258798D01*
X161414330Y-98280472D01*
X161410819Y-98282348D01*
X161279711Y-98369952D01*
X161279707Y-98369955D01*
X161168213Y-98481449D01*
X161168210Y-98481453D01*
X161080609Y-98612556D01*
X161080602Y-98612569D01*
X161020264Y-98758240D01*
X161020261Y-98758252D01*
X160989500Y-98912895D01*
X160989500Y-99070588D01*
X161020261Y-99225231D01*
X161020264Y-99225243D01*
X161080602Y-99370914D01*
X161080609Y-99370927D01*
X161168210Y-99502030D01*
X161168213Y-99502034D01*
X161279707Y-99613528D01*
X161279711Y-99613531D01*
X161410814Y-99701132D01*
X161410827Y-99701139D01*
X161556498Y-99761477D01*
X161556503Y-99761479D01*
X161711153Y-99792241D01*
X161711156Y-99792242D01*
X161711158Y-99792242D01*
X161868844Y-99792242D01*
X161868845Y-99792241D01*
X162023497Y-99761479D01*
X162169179Y-99701136D01*
X162300289Y-99613531D01*
X162411789Y-99502031D01*
X162499394Y-99370921D01*
X162499397Y-99370913D01*
X162501263Y-99367423D01*
X162522942Y-99338189D01*
X168636447Y-93224684D01*
X168665681Y-93203005D01*
X168669171Y-93201139D01*
X168669179Y-93201136D01*
X168800289Y-93113531D01*
X168911789Y-93002031D01*
X168999394Y-92870921D01*
X169059737Y-92725239D01*
X169090500Y-92570584D01*
X169090500Y-92412900D01*
X169090500Y-92412897D01*
X169090499Y-92412895D01*
X169074848Y-92334215D01*
X169059737Y-92258245D01*
X169052901Y-92241741D01*
X169032235Y-92191848D01*
X168999397Y-92112569D01*
X168999390Y-92112556D01*
X168911789Y-91981453D01*
X168911786Y-91981449D01*
X168800292Y-91869955D01*
X168800288Y-91869952D01*
X168669185Y-91782351D01*
X168669172Y-91782344D01*
X168523501Y-91722006D01*
X168523489Y-91722003D01*
X168368845Y-91691242D01*
X168368842Y-91691242D01*
X168211158Y-91691242D01*
X168211155Y-91691242D01*
X168056510Y-91722003D01*
X168056498Y-91722006D01*
X167910827Y-91782344D01*
X167910814Y-91782351D01*
X167779711Y-91869952D01*
X167779707Y-91869955D01*
X167668213Y-91981449D01*
X167668210Y-91981453D01*
X167580606Y-92112561D01*
X167578730Y-92116072D01*
X167557056Y-92145293D01*
X163408697Y-96293652D01*
X163347374Y-96327137D01*
X163277682Y-96322153D01*
X163221749Y-96280281D01*
X163217914Y-96274863D01*
X163194063Y-96239168D01*
X163188314Y-96230564D01*
X163188313Y-96230563D01*
X163188311Y-96230560D01*
X163076817Y-96119066D01*
X163076813Y-96119063D01*
X162945710Y-96031462D01*
X162945697Y-96031455D01*
X162800026Y-95971117D01*
X162800014Y-95971114D01*
X162645370Y-95940353D01*
X162645367Y-95940353D01*
X162487683Y-95940353D01*
X162487680Y-95940353D01*
X162333035Y-95971114D01*
X162333027Y-95971116D01*
X162319549Y-95976699D01*
X162304811Y-95982803D01*
X162257361Y-95992242D01*
X159104330Y-95992242D01*
X159037291Y-95972557D01*
X158991536Y-95919753D01*
X158981592Y-95850595D01*
X158989768Y-95820792D01*
X158997816Y-95801358D01*
X159023914Y-95738355D01*
X159023915Y-95738347D01*
X159023951Y-95738262D01*
X159067791Y-95683857D01*
X159134085Y-95661791D01*
X159162705Y-95664095D01*
X159211156Y-95673733D01*
X159211158Y-95673733D01*
X159368844Y-95673733D01*
X159368845Y-95673732D01*
X159523497Y-95642970D01*
X159669179Y-95582627D01*
X159800289Y-95495022D01*
X159911789Y-95383522D01*
X159999394Y-95252412D01*
X159999397Y-95252404D01*
X160001263Y-95248914D01*
X160022942Y-95219680D01*
X160617515Y-94625107D01*
X160678837Y-94591624D01*
X160748529Y-94596608D01*
X160773932Y-94611214D01*
X160774646Y-94610147D01*
X160910814Y-94701132D01*
X160910827Y-94701139D01*
X161056498Y-94761477D01*
X161056503Y-94761479D01*
X161211153Y-94792241D01*
X161211156Y-94792242D01*
X161211158Y-94792242D01*
X161368844Y-94792242D01*
X161368845Y-94792241D01*
X161523497Y-94761479D01*
X161669179Y-94701136D01*
X161800289Y-94613531D01*
X161911789Y-94502031D01*
X161999394Y-94370921D01*
X162006677Y-94353335D01*
X162050514Y-94298932D01*
X162116807Y-94276864D01*
X162145431Y-94279168D01*
X162211155Y-94292242D01*
X162211158Y-94292242D01*
X162368844Y-94292242D01*
X162368845Y-94292241D01*
X162523497Y-94261479D01*
X162669179Y-94201136D01*
X162800289Y-94113531D01*
X162911789Y-94002031D01*
X162999394Y-93870921D01*
X163059737Y-93725239D01*
X163090500Y-93570584D01*
X163090500Y-93412900D01*
X163090500Y-93412897D01*
X163059736Y-93258240D01*
X163058583Y-93254438D01*
X163053245Y-93218449D01*
X163053245Y-91842970D01*
X163072930Y-91775931D01*
X163125734Y-91730176D01*
X163158869Y-91724319D01*
X163845000Y-91038188D01*
X163845000Y-91044403D01*
X163872259Y-91146136D01*
X163924920Y-91237348D01*
X163999394Y-91311822D01*
X164090606Y-91364483D01*
X164192339Y-91391742D01*
X164198553Y-91391742D01*
X163519076Y-92071216D01*
X163563650Y-92103601D01*
X163745968Y-92196497D01*
X163940582Y-92259732D01*
X164142683Y-92291742D01*
X164347317Y-92291742D01*
X164549417Y-92259732D01*
X164744031Y-92196497D01*
X164926349Y-92103601D01*
X164970921Y-92071216D01*
X164291447Y-91391742D01*
X164297661Y-91391742D01*
X164399394Y-91364483D01*
X164490606Y-91311822D01*
X164565080Y-91237348D01*
X164617741Y-91146136D01*
X164645000Y-91044403D01*
X164645000Y-91038190D01*
X165324474Y-91717664D01*
X165324474Y-91717663D01*
X165356859Y-91673091D01*
X165449755Y-91490773D01*
X165512990Y-91296159D01*
X165545000Y-91094059D01*
X165545000Y-90889424D01*
X165512990Y-90687324D01*
X165449755Y-90492710D01*
X165356859Y-90310392D01*
X165324474Y-90265819D01*
X165324474Y-90265818D01*
X164645000Y-90945293D01*
X164645000Y-90939081D01*
X164617741Y-90837348D01*
X164565080Y-90746136D01*
X164490606Y-90671662D01*
X164399394Y-90619001D01*
X164297661Y-90591742D01*
X164291446Y-90591742D01*
X164970922Y-89912266D01*
X164970921Y-89912265D01*
X164926359Y-89879889D01*
X164926350Y-89879883D01*
X164872621Y-89852507D01*
X164821825Y-89804533D01*
X164805030Y-89736712D01*
X164827567Y-89670577D01*
X164872621Y-89631537D01*
X164926610Y-89604029D01*
X164989134Y-89558603D01*
X165092213Y-89483713D01*
X165092215Y-89483710D01*
X165092219Y-89483708D01*
X165236966Y-89338961D01*
X165236968Y-89338957D01*
X165236971Y-89338955D01*
X165310554Y-89237675D01*
X165357287Y-89173352D01*
X165450220Y-88990961D01*
X165513477Y-88796276D01*
X165545500Y-88594094D01*
X165545500Y-88389390D01*
X165538378Y-88344424D01*
X165513477Y-88187207D01*
X165450218Y-87992518D01*
X165416503Y-87926349D01*
X165357287Y-87810132D01*
X165307107Y-87741064D01*
X165236971Y-87644528D01*
X165092213Y-87499770D01*
X164926613Y-87379457D01*
X164926612Y-87379456D01*
X164926610Y-87379455D01*
X164862923Y-87347005D01*
X164744223Y-87286523D01*
X164549534Y-87223264D01*
X164368105Y-87194529D01*
X164347352Y-87191242D01*
X164142648Y-87191242D01*
X164121895Y-87194529D01*
X163940465Y-87223264D01*
X163745776Y-87286523D01*
X163563386Y-87379457D01*
X163397786Y-87499770D01*
X163397782Y-87499774D01*
X163302181Y-87595376D01*
X163240858Y-87628861D01*
X163171166Y-87623877D01*
X163115233Y-87582005D01*
X163090816Y-87516541D01*
X163090500Y-87507695D01*
X163090500Y-87412897D01*
X163090499Y-87412895D01*
X163081423Y-87367266D01*
X163059737Y-87258245D01*
X163059735Y-87258240D01*
X162999397Y-87112569D01*
X162999390Y-87112556D01*
X162911789Y-86981453D01*
X162911786Y-86981449D01*
X162800292Y-86869955D01*
X162800288Y-86869952D01*
X162669185Y-86782351D01*
X162669172Y-86782344D01*
X162523501Y-86722006D01*
X162523489Y-86722003D01*
X162368845Y-86691242D01*
X162368842Y-86691242D01*
X162211158Y-86691242D01*
X162211155Y-86691242D01*
X162056510Y-86722003D01*
X162056498Y-86722006D01*
X161910827Y-86782344D01*
X161910814Y-86782351D01*
X161779711Y-86869952D01*
X161779707Y-86869955D01*
X161668213Y-86981449D01*
X161668210Y-86981453D01*
X161580609Y-87112556D01*
X161580602Y-87112569D01*
X161520264Y-87258240D01*
X161520261Y-87258252D01*
X161489500Y-87412895D01*
X161489500Y-87570588D01*
X161520261Y-87725234D01*
X161521414Y-87729033D01*
X161526755Y-87765033D01*
X161526755Y-90349744D01*
X161507070Y-90416783D01*
X161454266Y-90462538D01*
X161385108Y-90472482D01*
X161321552Y-90443457D01*
X161315074Y-90437425D01*
X161089564Y-90211915D01*
X161056079Y-90150592D01*
X161053245Y-90124234D01*
X161053245Y-83916566D01*
X161053244Y-83916564D01*
X161023915Y-83769119D01*
X161023914Y-83769112D01*
X160969686Y-83638195D01*
X160962218Y-83568727D01*
X160993493Y-83506248D01*
X161053582Y-83470596D01*
X161123407Y-83473090D01*
X161171929Y-83503063D01*
X161753454Y-84084589D01*
X161753457Y-84084591D01*
X161753459Y-84084593D01*
X161804350Y-84118597D01*
X161878468Y-84168121D01*
X161882003Y-84169585D01*
X161890162Y-84174943D01*
X161893421Y-84178780D01*
X161909778Y-84190911D01*
X162057055Y-84338188D01*
X162078729Y-84367410D01*
X162080607Y-84370923D01*
X162168207Y-84502026D01*
X162168213Y-84502034D01*
X162279707Y-84613528D01*
X162279711Y-84613531D01*
X162410814Y-84701132D01*
X162410827Y-84701139D01*
X162556498Y-84761477D01*
X162556503Y-84761479D01*
X162711153Y-84792241D01*
X162711156Y-84792242D01*
X162711158Y-84792242D01*
X162868844Y-84792242D01*
X162868845Y-84792241D01*
X163023497Y-84761479D01*
X163073050Y-84740953D01*
X163142516Y-84733485D01*
X163204995Y-84764759D01*
X163240648Y-84824848D01*
X163244500Y-84855514D01*
X163244500Y-84992111D01*
X163244501Y-84992118D01*
X163250908Y-85051725D01*
X163301202Y-85186570D01*
X163301206Y-85186577D01*
X163387452Y-85301786D01*
X163387455Y-85301789D01*
X163502664Y-85388035D01*
X163502671Y-85388039D01*
X163637517Y-85438333D01*
X163637516Y-85438333D01*
X163644444Y-85439077D01*
X163697127Y-85444742D01*
X165792872Y-85444741D01*
X165852483Y-85438333D01*
X165987331Y-85388038D01*
X166102546Y-85301788D01*
X166188796Y-85186573D01*
X166239091Y-85051725D01*
X166245500Y-84992115D01*
X166245499Y-83912895D01*
X167012530Y-83912895D01*
X167012530Y-84070585D01*
X167043291Y-84225231D01*
X167043294Y-84225243D01*
X167103632Y-84370914D01*
X167103639Y-84370927D01*
X167191240Y-84502030D01*
X167191243Y-84502034D01*
X167302738Y-84613529D01*
X167302741Y-84613531D01*
X167381967Y-84666468D01*
X167400750Y-84681884D01*
X167490436Y-84771570D01*
X167523921Y-84832893D01*
X167526755Y-84859251D01*
X167526755Y-89955704D01*
X167521417Y-89991693D01*
X167520263Y-89995495D01*
X167489500Y-90150152D01*
X167489500Y-90307843D01*
X167520261Y-90462486D01*
X167520264Y-90462498D01*
X167580602Y-90608169D01*
X167580609Y-90608182D01*
X167668210Y-90739285D01*
X167668213Y-90739289D01*
X167779707Y-90850783D01*
X167779711Y-90850786D01*
X167910814Y-90938387D01*
X167910827Y-90938394D01*
X168007127Y-90978282D01*
X168056503Y-90998734D01*
X168211153Y-91029496D01*
X168211156Y-91029497D01*
X168211158Y-91029497D01*
X168368844Y-91029497D01*
X168368845Y-91029496D01*
X168523497Y-90998734D01*
X168669179Y-90938391D01*
X168800289Y-90850786D01*
X168911789Y-90739286D01*
X168999394Y-90608176D01*
X169059737Y-90462494D01*
X169090500Y-90307839D01*
X169090500Y-90150155D01*
X169090500Y-90150152D01*
X169059736Y-89995495D01*
X169058583Y-89991693D01*
X169053245Y-89955704D01*
X169053245Y-84416566D01*
X169053244Y-84416564D01*
X169041977Y-84359923D01*
X169023914Y-84269112D01*
X169018063Y-84254987D01*
X168982082Y-84168121D01*
X168966379Y-84130210D01*
X168926538Y-84070584D01*
X168882851Y-84005201D01*
X168882849Y-84005198D01*
X168882846Y-84005195D01*
X168562642Y-83684992D01*
X168535762Y-83644764D01*
X168522426Y-83612569D01*
X168522424Y-83612563D01*
X168486368Y-83558601D01*
X168434819Y-83481452D01*
X168323322Y-83369955D01*
X168323318Y-83369952D01*
X168192215Y-83282351D01*
X168192202Y-83282344D01*
X168046531Y-83222006D01*
X168046519Y-83222003D01*
X167891875Y-83191242D01*
X167891872Y-83191242D01*
X167734188Y-83191242D01*
X167734185Y-83191242D01*
X167579540Y-83222003D01*
X167579528Y-83222006D01*
X167433857Y-83282344D01*
X167433844Y-83282351D01*
X167302741Y-83369952D01*
X167302737Y-83369955D01*
X167191243Y-83481449D01*
X167191240Y-83481453D01*
X167103639Y-83612556D01*
X167103632Y-83612569D01*
X167043294Y-83758240D01*
X167043291Y-83758252D01*
X167012530Y-83912895D01*
X166245499Y-83912895D01*
X166245499Y-82991370D01*
X166239091Y-82931759D01*
X166231377Y-82911078D01*
X166188797Y-82796913D01*
X166188793Y-82796906D01*
X166102547Y-82681697D01*
X166102544Y-82681694D01*
X165987335Y-82595448D01*
X165987328Y-82595444D01*
X165959459Y-82585050D01*
X165903525Y-82543179D01*
X165879108Y-82477715D01*
X165893960Y-82409442D01*
X165902460Y-82396002D01*
X166035217Y-82213280D01*
X166139048Y-82009500D01*
X166192306Y-81845588D01*
X166209721Y-81791991D01*
X166209721Y-81791990D01*
X166209722Y-81791987D01*
X166245500Y-81566096D01*
X166245500Y-81337388D01*
X166209722Y-81111497D01*
X166209721Y-81111493D01*
X166209721Y-81111492D01*
X166139049Y-80893986D01*
X166090667Y-80799031D01*
X166035217Y-80690204D01*
X165900786Y-80505176D01*
X165739066Y-80343456D01*
X165654134Y-80281749D01*
X165611470Y-80226420D01*
X165605491Y-80156806D01*
X165638097Y-80095011D01*
X165654137Y-80081113D01*
X165738739Y-80019647D01*
X165900402Y-79857984D01*
X166034788Y-79673018D01*
X166138581Y-79469312D01*
X166165829Y-79385455D01*
X169244500Y-79385455D01*
X169244500Y-79598028D01*
X169277753Y-79807981D01*
X169343444Y-80010156D01*
X169439951Y-80199562D01*
X169564890Y-80371528D01*
X169703705Y-80510343D01*
X169737190Y-80571666D01*
X169732206Y-80641358D01*
X169690334Y-80697291D01*
X169681121Y-80703563D01*
X169526342Y-80799031D01*
X169402289Y-80923084D01*
X169310187Y-81072405D01*
X169310185Y-81072410D01*
X169289607Y-81134511D01*
X169255001Y-81238945D01*
X169255001Y-81238946D01*
X169255000Y-81238946D01*
X169244500Y-81341725D01*
X169244500Y-82641743D01*
X169244501Y-82641760D01*
X169255000Y-82744538D01*
X169255001Y-82744541D01*
X169310185Y-82911073D01*
X169310187Y-82911078D01*
X169332669Y-82947527D01*
X169402288Y-83060398D01*
X169526344Y-83184454D01*
X169675666Y-83276556D01*
X169842203Y-83331741D01*
X169944991Y-83342242D01*
X171545008Y-83342241D01*
X171647797Y-83331741D01*
X171814334Y-83276556D01*
X171963656Y-83184454D01*
X172087712Y-83060398D01*
X172179814Y-82911076D01*
X172234999Y-82744539D01*
X172245500Y-82641751D01*
X172245499Y-81341734D01*
X172234999Y-81238945D01*
X172179814Y-81072408D01*
X172087712Y-80923086D01*
X171963656Y-80799030D01*
X171814334Y-80706928D01*
X171814333Y-80706927D01*
X171808878Y-80703563D01*
X171762154Y-80651615D01*
X171750931Y-80582652D01*
X171778775Y-80518570D01*
X171786272Y-80510365D01*
X171925104Y-80371534D01*
X172050051Y-80199558D01*
X172146557Y-80010154D01*
X172212246Y-79807985D01*
X172245500Y-79598029D01*
X172245500Y-79385455D01*
X172212246Y-79175499D01*
X172146557Y-78973330D01*
X172050051Y-78783926D01*
X172050049Y-78783923D01*
X172050048Y-78783921D01*
X171925109Y-78611955D01*
X171774786Y-78461632D01*
X171602820Y-78336693D01*
X171413414Y-78240186D01*
X171413413Y-78240185D01*
X171413412Y-78240185D01*
X171211243Y-78174496D01*
X171211241Y-78174495D01*
X171211240Y-78174495D01*
X171049957Y-78148950D01*
X171001287Y-78141242D01*
X170488713Y-78141242D01*
X170440042Y-78148950D01*
X170278760Y-78174495D01*
X170076585Y-78240186D01*
X169887179Y-78336693D01*
X169715213Y-78461632D01*
X169564890Y-78611955D01*
X169439951Y-78783921D01*
X169343444Y-78973327D01*
X169343443Y-78973329D01*
X169343443Y-78973330D01*
X169335029Y-78999225D01*
X169277753Y-79175502D01*
X169244500Y-79385455D01*
X166165829Y-79385455D01*
X166179863Y-79342264D01*
X166209234Y-79251870D01*
X166223509Y-79161742D01*
X165235748Y-79161742D01*
X165257518Y-79124034D01*
X165295000Y-78984151D01*
X165295000Y-78839333D01*
X165257518Y-78699450D01*
X165235748Y-78661742D01*
X166223509Y-78661742D01*
X166209234Y-78571613D01*
X166138582Y-78354171D01*
X166034788Y-78150465D01*
X165900402Y-77965499D01*
X165738742Y-77803839D01*
X165553776Y-77669453D01*
X165350068Y-77565659D01*
X165132625Y-77495007D01*
X165132626Y-77495007D01*
X164995000Y-77473209D01*
X164995000Y-78420994D01*
X164957292Y-78399224D01*
X164817409Y-78361742D01*
X164672591Y-78361742D01*
X164532708Y-78399224D01*
X164495000Y-78420994D01*
X164495000Y-77473209D01*
X164357374Y-77495007D01*
X164139931Y-77565659D01*
X163936223Y-77669453D01*
X163751257Y-77803839D01*
X163589597Y-77965499D01*
X163455211Y-78150465D01*
X163351417Y-78354171D01*
X163280765Y-78571613D01*
X163266491Y-78661742D01*
X164254252Y-78661742D01*
X164232482Y-78699450D01*
X164195000Y-78839333D01*
X164195000Y-78984151D01*
X164232482Y-79124034D01*
X164254252Y-79161742D01*
X163266491Y-79161742D01*
X163280765Y-79251870D01*
X163351417Y-79469312D01*
X163455211Y-79673018D01*
X163589597Y-79857984D01*
X163751257Y-80019644D01*
X163751263Y-80019649D01*
X163835863Y-80081114D01*
X163878529Y-80136443D01*
X163884508Y-80206057D01*
X163851903Y-80267852D01*
X163835864Y-80281749D01*
X163750940Y-80343451D01*
X163750931Y-80343458D01*
X163589216Y-80505173D01*
X163589216Y-80505174D01*
X163589214Y-80505176D01*
X163585461Y-80510342D01*
X163454783Y-80690203D01*
X163350950Y-80893986D01*
X163280278Y-81111492D01*
X163280278Y-81111495D01*
X163244500Y-81337388D01*
X163244500Y-81566095D01*
X163280278Y-81791988D01*
X163280278Y-81791991D01*
X163350950Y-82009497D01*
X163379250Y-82065038D01*
X163454783Y-82213280D01*
X163587525Y-82395984D01*
X163611005Y-82461788D01*
X163595180Y-82529842D01*
X163545074Y-82578537D01*
X163530541Y-82585050D01*
X163502670Y-82595445D01*
X163502664Y-82595448D01*
X163387455Y-82681694D01*
X163387452Y-82681697D01*
X163301206Y-82796906D01*
X163301202Y-82796913D01*
X163250908Y-82931759D01*
X163247052Y-82967632D01*
X163244501Y-82991365D01*
X163244500Y-82991377D01*
X163244500Y-83067488D01*
X163224815Y-83134527D01*
X163172011Y-83180282D01*
X163102853Y-83190226D01*
X163039297Y-83161201D01*
X163032819Y-83155169D01*
X162776543Y-82898893D01*
X162776539Y-82898890D01*
X162651532Y-82815363D01*
X162649446Y-82814248D01*
X162620221Y-82792572D01*
X161247944Y-81420295D01*
X161226265Y-81391064D01*
X161224396Y-81387569D01*
X161224394Y-81387563D01*
X161144817Y-81268467D01*
X161136789Y-81256452D01*
X161025292Y-81144955D01*
X161025288Y-81144952D01*
X160894185Y-81057351D01*
X160894172Y-81057344D01*
X160748501Y-80997006D01*
X160748489Y-80997003D01*
X160593845Y-80966242D01*
X160593842Y-80966242D01*
X160436158Y-80966242D01*
X160436155Y-80966242D01*
X160281510Y-80997003D01*
X160281498Y-80997006D01*
X160135827Y-81057344D01*
X160135814Y-81057351D01*
X160004711Y-81144952D01*
X160004707Y-81144955D01*
X159893213Y-81256449D01*
X159893210Y-81256453D01*
X159805609Y-81387556D01*
X159805602Y-81387569D01*
X159745264Y-81533240D01*
X159745261Y-81533252D01*
X159714500Y-81687895D01*
X159714500Y-81845588D01*
X159745261Y-82000231D01*
X159745264Y-82000243D01*
X159772103Y-82065038D01*
X159779572Y-82134507D01*
X159748297Y-82196986D01*
X159688207Y-82232638D01*
X159669701Y-82235892D01*
X159666160Y-82236240D01*
X159511510Y-82267003D01*
X159511498Y-82267006D01*
X159365827Y-82327344D01*
X159365814Y-82327351D01*
X159234711Y-82414952D01*
X159234707Y-82414955D01*
X159123213Y-82526449D01*
X159123210Y-82526453D01*
X159035609Y-82657556D01*
X159035602Y-82657569D01*
X158975264Y-82803240D01*
X158975261Y-82803252D01*
X158944500Y-82957895D01*
X158944500Y-83115588D01*
X158975261Y-83270231D01*
X158975263Y-83270239D01*
X159016565Y-83369952D01*
X159017316Y-83371764D01*
X159026755Y-83419217D01*
X159026755Y-83566919D01*
X159056084Y-83714364D01*
X159056087Y-83714376D01*
X159113617Y-83853267D01*
X159113624Y-83853280D01*
X159197148Y-83978281D01*
X159197151Y-83978285D01*
X159490436Y-84271569D01*
X159523921Y-84332892D01*
X159526755Y-84359250D01*
X159526755Y-90566919D01*
X159556084Y-90714364D01*
X159556087Y-90714376D01*
X159613617Y-90853267D01*
X159613624Y-90853280D01*
X159675329Y-90945627D01*
X159696207Y-91012304D01*
X159677723Y-91079685D01*
X159625744Y-91126375D01*
X159596419Y-91136135D01*
X159491508Y-91157003D01*
X159491498Y-91157006D01*
X159345827Y-91217344D01*
X159345814Y-91217351D01*
X159214711Y-91304952D01*
X159214707Y-91304955D01*
X159103213Y-91416449D01*
X159103210Y-91416453D01*
X159015609Y-91547556D01*
X159015602Y-91547569D01*
X158955264Y-91693240D01*
X158955261Y-91693252D01*
X158924500Y-91847895D01*
X158924500Y-92005588D01*
X158955261Y-92160231D01*
X158955264Y-92160243D01*
X159015602Y-92305914D01*
X159015612Y-92305932D01*
X159075344Y-92395328D01*
X159096222Y-92462005D01*
X159077737Y-92529385D01*
X159041136Y-92567318D01*
X159029712Y-92574951D01*
X159029707Y-92574955D01*
X158918213Y-92686449D01*
X158918210Y-92686453D01*
X158830606Y-92817561D01*
X158828730Y-92821072D01*
X158807056Y-92850293D01*
X158036754Y-93620597D01*
X157803460Y-93853891D01*
X157750303Y-93907047D01*
X157697147Y-93960203D01*
X157613624Y-94085203D01*
X157613617Y-94085216D01*
X157556087Y-94224107D01*
X157556084Y-94224119D01*
X157526755Y-94371564D01*
X157526755Y-95148215D01*
X157518110Y-95177656D01*
X157511586Y-95207644D01*
X157507832Y-95212658D01*
X157507070Y-95215254D01*
X157490434Y-95235898D01*
X157467530Y-95258801D01*
X157438311Y-95280472D01*
X157434805Y-95282346D01*
X157321043Y-95358359D01*
X157254366Y-95379237D01*
X157186986Y-95360752D01*
X157164472Y-95342938D01*
X157089564Y-95268030D01*
X157056079Y-95206707D01*
X157053245Y-95180349D01*
X157053245Y-79765033D01*
X157058586Y-79729033D01*
X157059735Y-79725243D01*
X157059737Y-79725239D01*
X157090500Y-79570584D01*
X157090500Y-79412900D01*
X157090500Y-79412897D01*
X157090499Y-79412895D01*
X157078357Y-79351852D01*
X157059737Y-79258245D01*
X157031286Y-79189557D01*
X156999397Y-79112569D01*
X156999390Y-79112556D01*
X156911789Y-78981453D01*
X156911786Y-78981449D01*
X156800292Y-78869955D01*
X156800288Y-78869952D01*
X156698452Y-78801907D01*
X156669185Y-78782351D01*
X156669172Y-78782344D01*
X156523501Y-78722006D01*
X156523489Y-78722003D01*
X156368845Y-78691242D01*
X156368842Y-78691242D01*
X156211158Y-78691242D01*
X156211155Y-78691242D01*
X156056510Y-78722003D01*
X156056498Y-78722006D01*
X155910827Y-78782344D01*
X155910814Y-78782351D01*
X155779711Y-78869952D01*
X155779707Y-78869955D01*
X155668213Y-78981449D01*
X155668210Y-78981453D01*
X155580609Y-79112556D01*
X155580602Y-79112569D01*
X155520264Y-79258240D01*
X155520261Y-79258252D01*
X155489500Y-79412895D01*
X136522576Y-79412895D01*
X136447287Y-79265132D01*
X136435893Y-79249450D01*
X136326971Y-79099528D01*
X136182213Y-78954770D01*
X136016613Y-78834457D01*
X136016612Y-78834456D01*
X136016610Y-78834455D01*
X135952731Y-78801907D01*
X135834223Y-78741523D01*
X135639534Y-78678264D01*
X135464995Y-78650620D01*
X135437352Y-78646242D01*
X135232648Y-78646242D01*
X135208329Y-78650093D01*
X135030465Y-78678264D01*
X134835776Y-78741523D01*
X134653386Y-78834457D01*
X134487786Y-78954770D01*
X134343028Y-79099528D01*
X134222715Y-79265128D01*
X134129781Y-79447518D01*
X134066522Y-79642207D01*
X134034500Y-79844390D01*
X103840500Y-79844390D01*
X103840500Y-77881520D01*
X120349500Y-77881520D01*
X120349500Y-78101963D01*
X120383985Y-78319694D01*
X120452103Y-78529345D01*
X120452104Y-78529348D01*
X120511666Y-78646242D01*
X120550270Y-78722006D01*
X120552187Y-78725767D01*
X120681752Y-78904100D01*
X120681756Y-78904105D01*
X120837636Y-79059985D01*
X120837641Y-79059989D01*
X120939606Y-79134070D01*
X121015978Y-79189557D01*
X121138273Y-79251870D01*
X121212393Y-79289637D01*
X121212396Y-79289638D01*
X121317221Y-79323697D01*
X121422049Y-79357757D01*
X121639778Y-79392242D01*
X121639779Y-79392242D01*
X121860221Y-79392242D01*
X121860222Y-79392242D01*
X122077951Y-79357757D01*
X122287606Y-79289637D01*
X122484022Y-79189557D01*
X122662365Y-79059984D01*
X122712536Y-79009812D01*
X122773857Y-78976328D01*
X122843548Y-78981312D01*
X122899482Y-79023183D01*
X122916398Y-79054161D01*
X122946202Y-79134070D01*
X122946206Y-79134077D01*
X123032452Y-79249286D01*
X123032455Y-79249289D01*
X123147664Y-79335535D01*
X123147671Y-79335539D01*
X123282517Y-79385833D01*
X123282516Y-79385833D01*
X123289444Y-79386577D01*
X123342127Y-79392242D01*
X125237872Y-79392241D01*
X125297483Y-79385833D01*
X125432331Y-79335538D01*
X125547546Y-79249288D01*
X125633796Y-79134073D01*
X125684091Y-78999225D01*
X125690500Y-78939615D01*
X125690499Y-77043870D01*
X125684091Y-76984259D01*
X125663601Y-76929323D01*
X125633797Y-76849413D01*
X125633793Y-76849406D01*
X125547547Y-76734197D01*
X125547544Y-76734194D01*
X125432335Y-76647948D01*
X125432328Y-76647944D01*
X125297482Y-76597650D01*
X125297483Y-76597650D01*
X125237883Y-76591243D01*
X125237881Y-76591242D01*
X125237873Y-76591242D01*
X125237864Y-76591242D01*
X123342129Y-76591242D01*
X123342123Y-76591243D01*
X123282516Y-76597650D01*
X123147671Y-76647944D01*
X123147664Y-76647948D01*
X123032455Y-76734194D01*
X123032452Y-76734197D01*
X122946206Y-76849406D01*
X122946203Y-76849411D01*
X122916398Y-76929323D01*
X122874526Y-76985256D01*
X122809062Y-77009673D01*
X122740789Y-76994821D01*
X122712535Y-76973670D01*
X122662363Y-76923498D01*
X122662358Y-76923494D01*
X122484025Y-76793929D01*
X122484024Y-76793928D01*
X122484022Y-76793927D01*
X122366791Y-76734194D01*
X122287606Y-76693846D01*
X122287603Y-76693845D01*
X122077952Y-76625727D01*
X121969086Y-76608484D01*
X121860222Y-76591242D01*
X121639778Y-76591242D01*
X121567201Y-76602737D01*
X121422047Y-76625727D01*
X121212396Y-76693845D01*
X121212393Y-76693846D01*
X121015974Y-76793929D01*
X120837641Y-76923494D01*
X120837636Y-76923498D01*
X120681756Y-77079378D01*
X120681752Y-77079383D01*
X120552187Y-77257716D01*
X120452104Y-77454135D01*
X120452103Y-77454138D01*
X120383985Y-77663789D01*
X120349500Y-77881520D01*
X103840500Y-77881520D01*
X103840500Y-71511577D01*
X105039500Y-71511577D01*
X105039500Y-71708422D01*
X105070290Y-71902826D01*
X105131117Y-72090029D01*
X105181735Y-72189371D01*
X105220476Y-72265405D01*
X105336172Y-72424646D01*
X105475354Y-72563828D01*
X105634595Y-72679524D01*
X105717455Y-72721743D01*
X105809970Y-72768882D01*
X105809972Y-72768882D01*
X105809975Y-72768884D01*
X105910317Y-72801487D01*
X105997173Y-72829709D01*
X106191578Y-72860500D01*
X106191583Y-72860500D01*
X106388422Y-72860500D01*
X106582826Y-72829709D01*
X106770025Y-72768884D01*
X106945405Y-72679524D01*
X107104646Y-72563828D01*
X107243828Y-72424646D01*
X107359524Y-72265405D01*
X107448884Y-72090025D01*
X107509709Y-71902826D01*
X107521629Y-71827568D01*
X107540500Y-71708422D01*
X107540500Y-71511577D01*
X107509709Y-71317173D01*
X107473106Y-71204522D01*
X107448884Y-71129975D01*
X107448882Y-71129972D01*
X107448882Y-71129970D01*
X107397315Y-71028765D01*
X107359524Y-70954595D01*
X107243828Y-70795354D01*
X107104646Y-70656172D01*
X106945405Y-70540476D01*
X106907409Y-70521116D01*
X106770029Y-70451117D01*
X106582826Y-70390290D01*
X106388422Y-70359500D01*
X106388417Y-70359500D01*
X106191583Y-70359500D01*
X106191578Y-70359500D01*
X105997173Y-70390290D01*
X105809970Y-70451117D01*
X105634594Y-70540476D01*
X105543741Y-70606485D01*
X105475354Y-70656172D01*
X105475352Y-70656174D01*
X105475351Y-70656174D01*
X105336174Y-70795351D01*
X105336174Y-70795352D01*
X105336172Y-70795354D01*
X105296344Y-70850172D01*
X105220476Y-70954594D01*
X105131117Y-71129970D01*
X105070290Y-71317173D01*
X105039500Y-71511577D01*
X103840500Y-71511577D01*
X103840500Y-71055123D01*
X103860185Y-70988084D01*
X103876819Y-70967442D01*
X105657442Y-69186819D01*
X105718765Y-69153334D01*
X105745123Y-69150500D01*
X125416000Y-69150500D01*
X125483039Y-69170185D01*
G37*
%TD.AperFunction*%
%TD*%
M02*
