%TF.GenerationSoftware,KiCad,Pcbnew,9.0.6*%
%TF.CreationDate,2026-03-01T21:32:30+05:30*%
%TF.ProjectId,4th_YearProject,3474685f-5965-4617-9250-726f6a656374,RaunakR16*%
%TF.SameCoordinates,Original*%
%TF.FileFunction,Copper,L1,Top*%
%TF.FilePolarity,Positive*%
%FSLAX46Y46*%
G04 Gerber Fmt 4.6, Leading zero omitted, Abs format (unit mm)*
G04 Created by KiCad (PCBNEW 9.0.6) date 2026-03-01 21:32:30*
%MOMM*%
%LPD*%
G01*
G04 APERTURE LIST*
G04 Aperture macros list*
%AMRoundRect*
0 Rectangle with rounded corners*
0 $1 Rounding radius*
0 $2 $3 $4 $5 $6 $7 $8 $9 X,Y pos of 4 corners*
0 Add a 4 corners polygon primitive as box body*
4,1,4,$2,$3,$4,$5,$6,$7,$8,$9,$2,$3,0*
0 Add four circle primitives for the rounded corners*
1,1,$1+$1,$2,$3*
1,1,$1+$1,$4,$5*
1,1,$1+$1,$6,$7*
1,1,$1+$1,$8,$9*
0 Add four rect primitives between the rounded corners*
20,1,$1+$1,$2,$3,$4,$5,0*
20,1,$1+$1,$4,$5,$6,$7,0*
20,1,$1+$1,$6,$7,$8,$9,0*
20,1,$1+$1,$8,$9,$2,$3,0*%
G04 Aperture macros list end*
%TA.AperFunction,ComponentPad*%
%ADD10RoundRect,0.250000X-0.650000X-0.650000X0.650000X-0.650000X0.650000X0.650000X-0.650000X0.650000X0*%
%TD*%
%TA.AperFunction,ComponentPad*%
%ADD11C,1.800000*%
%TD*%
%TA.AperFunction,ComponentPad*%
%ADD12C,1.400000*%
%TD*%
%TA.AperFunction,ComponentPad*%
%ADD13C,1.600000*%
%TD*%
%TA.AperFunction,ComponentPad*%
%ADD14RoundRect,0.250001X-1.149999X-1.149999X1.149999X-1.149999X1.149999X1.149999X-1.149999X1.149999X0*%
%TD*%
%TA.AperFunction,ComponentPad*%
%ADD15C,2.800000*%
%TD*%
%TA.AperFunction,ComponentPad*%
%ADD16RoundRect,0.250000X0.725000X-0.600000X0.725000X0.600000X-0.725000X0.600000X-0.725000X-0.600000X0*%
%TD*%
%TA.AperFunction,ComponentPad*%
%ADD17O,1.950000X1.700000*%
%TD*%
%TA.AperFunction,ComponentPad*%
%ADD18C,1.200000*%
%TD*%
%TA.AperFunction,ComponentPad*%
%ADD19R,1.800000X1.800000*%
%TD*%
%TA.AperFunction,ComponentPad*%
%ADD20C,1.524000*%
%TD*%
%TA.AperFunction,ComponentPad*%
%ADD21O,1.524000X1.524000*%
%TD*%
%TA.AperFunction,ComponentPad*%
%ADD22R,2.000000X1.905000*%
%TD*%
%TA.AperFunction,ComponentPad*%
%ADD23O,2.000000X1.905000*%
%TD*%
%TA.AperFunction,ComponentPad*%
%ADD24R,1.350000X1.350000*%
%TD*%
%TA.AperFunction,ComponentPad*%
%ADD25C,1.350000*%
%TD*%
%TA.AperFunction,SMDPad,CuDef*%
%ADD26R,1.500000X0.900000*%
%TD*%
%TA.AperFunction,SMDPad,CuDef*%
%ADD27R,0.900000X1.500000*%
%TD*%
%TA.AperFunction,SMDPad,CuDef*%
%ADD28R,1.050000X1.050000*%
%TD*%
%TA.AperFunction,HeatsinkPad*%
%ADD29C,0.600000*%
%TD*%
%TA.AperFunction,HeatsinkPad*%
%ADD30R,4.200000X4.200000*%
%TD*%
%TA.AperFunction,ComponentPad*%
%ADD31RoundRect,0.250001X1.149999X-1.149999X1.149999X1.149999X-1.149999X1.149999X-1.149999X-1.149999X0*%
%TD*%
%TA.AperFunction,ComponentPad*%
%ADD32RoundRect,0.250001X-1.149999X1.149999X-1.149999X-1.149999X1.149999X-1.149999X1.149999X1.149999X0*%
%TD*%
%TA.AperFunction,ComponentPad*%
%ADD33RoundRect,0.250000X0.750000X-0.600000X0.750000X0.600000X-0.750000X0.600000X-0.750000X-0.600000X0*%
%TD*%
%TA.AperFunction,ComponentPad*%
%ADD34O,2.000000X1.700000*%
%TD*%
%TA.AperFunction,SMDPad,CuDef*%
%ADD35RoundRect,0.375000X0.625000X0.375000X-0.625000X0.375000X-0.625000X-0.375000X0.625000X-0.375000X0*%
%TD*%
%TA.AperFunction,SMDPad,CuDef*%
%ADD36RoundRect,0.500000X0.500000X1.400000X-0.500000X1.400000X-0.500000X-1.400000X0.500000X-1.400000X0*%
%TD*%
%TA.AperFunction,ViaPad*%
%ADD37C,0.600000*%
%TD*%
%TA.AperFunction,Conductor*%
%ADD38C,0.525491*%
%TD*%
%TA.AperFunction,Conductor*%
%ADD39C,1.367030*%
%TD*%
%TA.AperFunction,Conductor*%
%ADD40C,2.765520*%
%TD*%
G04 APERTURE END LIST*
D10*
%TO.P,D1,1,K*%
%TO.N,Net-(D1-K)*%
X116790000Y-96491742D03*
D11*
%TO.P,D1,2,A*%
%TO.N,GND*%
X119330000Y-96491742D03*
%TD*%
D12*
%TO.P,R4,1*%
%TO.N,Net-(D3-K)*%
X159875000Y-111946742D03*
%TO.P,R4,2*%
%TO.N,GND*%
X152255000Y-111946742D03*
%TD*%
%TO.P,R3,1*%
%TO.N,Bat_Lvl*%
X135335000Y-87080000D03*
%TO.P,R3,2*%
%TO.N,GND*%
X135335000Y-94700000D03*
%TD*%
D13*
%TO.P,C3,1*%
%TO.N,+5V*%
X135335000Y-100696742D03*
%TO.P,C3,2*%
%TO.N,GND*%
X135335000Y-98196742D03*
%TD*%
D14*
%TO.P,J1,1,Pin_1*%
%TO.N,GND*%
X118585000Y-126979242D03*
D15*
%TO.P,J1,2,Pin_2*%
%TO.N,+12V*%
X123585000Y-126979242D03*
%TD*%
D14*
%TO.P,J2,1,Pin_1*%
%TO.N,GND*%
X131038600Y-126974600D03*
D15*
%TO.P,J2,2,Pin_2*%
%TO.N,+12V*%
X136038600Y-126974600D03*
%TD*%
D16*
%TO.P,J4,1,Pin_1*%
%TO.N,+3v3*%
X170790000Y-122241742D03*
D17*
%TO.P,J4,2,Pin_2*%
%TO.N,GND*%
X170790000Y-119741742D03*
%TO.P,J4,3,Pin_3*%
%TO.N,SDA*%
X170790000Y-117241742D03*
%TO.P,J4,4,Pin_4*%
%TO.N,SCL*%
X170790000Y-114741742D03*
%TD*%
D18*
%TO.P,C2,1*%
%TO.N,+5V*%
X145790000Y-110991742D03*
%TO.P,C2,2*%
%TO.N,GND*%
X145790000Y-112991742D03*
%TD*%
D12*
%TO.P,R7,1*%
%TO.N,GPIO 36*%
X110900000Y-96700000D03*
%TO.P,R7,2*%
%TO.N,GND*%
X110900000Y-104320000D03*
%TD*%
D13*
%TO.P,C7,1*%
%TO.N,+3v3*%
X127835000Y-83446742D03*
%TO.P,C7,2*%
%TO.N,GND*%
X127835000Y-88446742D03*
%TD*%
D19*
%TO.P,D2,1,K*%
%TO.N,Net-(D2-K)*%
X124290000Y-77991742D03*
D11*
%TO.P,D2,2,A*%
%TO.N,+5V*%
X121750000Y-77991742D03*
%TD*%
D20*
%TO.P,SW1,1,1*%
%TO.N,RTS*%
X147830000Y-126946742D03*
D21*
%TO.P,SW1,2,2*%
%TO.N,GND*%
X142790000Y-126946742D03*
%TD*%
D19*
%TO.P,D4,1,K*%
%TO.N,GND*%
X165205000Y-104536742D03*
D11*
%TO.P,D4,2,A*%
%TO.N,Net-(D4-A)*%
X162665000Y-104536742D03*
%TD*%
D22*
%TO.P,Q1,1,G*%
%TO.N,Mosfet*%
X164745000Y-83991742D03*
D23*
%TO.P,Q1,2,D*%
%TO.N,Net-(J5-Pin_2)*%
X164745000Y-81451742D03*
%TO.P,Q1,3,S*%
%TO.N,GND*%
X164745000Y-78911742D03*
%TD*%
D24*
%TO.P,J6,1,Pin_1*%
%TO.N,+3v3*%
X171040000Y-98241742D03*
D25*
%TO.P,J6,2,Pin_2*%
%TO.N,TXD*%
X171040000Y-96241742D03*
%TO.P,J6,3,Pin_3*%
%TO.N,RXD*%
X171040000Y-94241742D03*
%TO.P,J6,4,Pin_4*%
%TO.N,GND*%
X171040000Y-92241742D03*
%TO.P,J6,5,Pin_5*%
%TO.N,RTS*%
X171040000Y-90241742D03*
%TO.P,J6,6,Pin_6*%
%TO.N,DTR*%
X171040000Y-88241742D03*
%TD*%
D12*
%TO.P,R1,1*%
%TO.N,Net-(D2-K)*%
X127715000Y-76446742D03*
%TO.P,R1,2*%
%TO.N,GND*%
X135335000Y-76446742D03*
%TD*%
D13*
%TO.P,C5,1*%
%TO.N,Bat_Lvl*%
X145790000Y-103741742D03*
%TO.P,C5,2*%
%TO.N,GND*%
X145790000Y-106241742D03*
%TD*%
D12*
%TO.P,R5,1*%
%TO.N,RTS*%
X159645000Y-117991742D03*
%TO.P,R5,2*%
%TO.N,+3v3*%
X152025000Y-117991742D03*
%TD*%
D26*
%TO.P,U3,1,GND*%
%TO.N,GND*%
X140790000Y-76686742D03*
%TO.P,U3,2,VDD*%
%TO.N,+3v3*%
X140790000Y-77956742D03*
%TO.P,U3,3,EN*%
%TO.N,RTS*%
X140790000Y-79226742D03*
%TO.P,U3,4,SENSOR_VP*%
%TO.N,GPIO 36*%
X140790000Y-80496742D03*
%TO.P,U3,5,SENSOR_VN*%
%TO.N,unconnected-(U3-SENSOR_VN-Pad5)*%
X140790000Y-81766742D03*
%TO.P,U3,6,IO34*%
%TO.N,Bat_Lvl*%
X140790000Y-83036742D03*
%TO.P,U3,7,IO35*%
%TO.N,unconnected-(U3-IO35-Pad7)*%
X140790000Y-84306742D03*
%TO.P,U3,8,IO32*%
%TO.N,unconnected-(U3-IO32-Pad8)*%
X140790000Y-85576742D03*
%TO.P,U3,9,IO33*%
%TO.N,unconnected-(U3-IO33-Pad9)*%
X140790000Y-86846742D03*
%TO.P,U3,10,IO25*%
%TO.N,GPIO 25*%
X140790000Y-88116742D03*
%TO.P,U3,11,IO26*%
%TO.N,GPIO 26*%
X140790000Y-89386742D03*
%TO.P,U3,12,IO27*%
%TO.N,unconnected-(U3-IO27-Pad12)*%
X140790000Y-90656742D03*
%TO.P,U3,13,IO14*%
%TO.N,unconnected-(U3-IO14-Pad13)*%
X140790000Y-91926742D03*
%TO.P,U3,14,IO12*%
%TO.N,unconnected-(U3-IO12-Pad14)*%
X140790000Y-93196742D03*
D27*
%TO.P,U3,15,GND*%
%TO.N,GND*%
X143830000Y-94446742D03*
%TO.P,U3,16,IO13*%
%TO.N,unconnected-(U3-IO13-Pad16)*%
X145100000Y-94446742D03*
%TO.P,U3,17,SHD/SD2*%
%TO.N,unconnected-(U3-SHD{slash}SD2-Pad17)*%
X146370000Y-94446742D03*
%TO.P,U3,18,SWP/SD3*%
%TO.N,unconnected-(U3-SWP{slash}SD3-Pad18)*%
X147640000Y-94446742D03*
%TO.P,U3,19,SCS/CMD*%
%TO.N,unconnected-(U3-SCS{slash}CMD-Pad19)*%
X148910000Y-94446742D03*
%TO.P,U3,20,SCK/CLK*%
%TO.N,unconnected-(U3-SCK{slash}CLK-Pad20)*%
X150180000Y-94446742D03*
%TO.P,U3,21,SDO/SD0*%
%TO.N,unconnected-(U3-SDO{slash}SD0-Pad21)*%
X151450000Y-94446742D03*
%TO.P,U3,22,SDI/SD1*%
%TO.N,unconnected-(U3-SDI{slash}SD1-Pad22)*%
X152720000Y-94446742D03*
%TO.P,U3,23,IO15*%
%TO.N,unconnected-(U3-IO15-Pad23)*%
X153990000Y-94446742D03*
%TO.P,U3,24,IO2*%
%TO.N,Net-(U3-IO2)*%
X155260000Y-94446742D03*
D26*
%TO.P,U3,25,IO0*%
%TO.N,DTR*%
X158290000Y-93196742D03*
%TO.P,U3,26,IO4*%
%TO.N,GPIO 4*%
X158290000Y-91926742D03*
%TO.P,U3,27,IO16*%
%TO.N,unconnected-(U3-IO16-Pad27)*%
X158290000Y-90656742D03*
%TO.P,U3,28,IO17*%
%TO.N,unconnected-(U3-IO17-Pad28)*%
X158290000Y-89386742D03*
%TO.P,U3,29,IO5*%
%TO.N,unconnected-(U3-IO5-Pad29)*%
X158290000Y-88116742D03*
%TO.P,U3,30,IO18*%
%TO.N,ESC SIgnal*%
X158290000Y-86846742D03*
%TO.P,U3,31,IO19*%
%TO.N,unconnected-(U3-IO19-Pad31)*%
X158290000Y-85576742D03*
%TO.P,U3,32,NC*%
%TO.N,unconnected-(U3-NC-Pad32)*%
X158290000Y-84306742D03*
%TO.P,U3,33,IO21*%
%TO.N,SDA*%
X158290000Y-83036742D03*
%TO.P,U3,34,RXD0/IO3*%
%TO.N,TXD*%
X158290000Y-81766742D03*
%TO.P,U3,35,TXD0/IO1*%
%TO.N,RXD*%
X158290000Y-80496742D03*
%TO.P,U3,36,IO22*%
%TO.N,SCL*%
X158290000Y-79226742D03*
%TO.P,U3,37,IO23*%
%TO.N,Mosfet*%
X158290000Y-77956742D03*
%TO.P,U3,38,GND*%
%TO.N,GND*%
X158290000Y-76686742D03*
D28*
%TO.P,U3,39,GND*%
X147335000Y-82501742D03*
D29*
X147335000Y-83264242D03*
D28*
X147335000Y-84026742D03*
D29*
X147335000Y-84789242D03*
D28*
X147335000Y-85551742D03*
D29*
X148097500Y-82501742D03*
X148097500Y-84026742D03*
X148097500Y-85551742D03*
D28*
X148860000Y-82501742D03*
D29*
X148860000Y-83264242D03*
D28*
X148860000Y-84026742D03*
D30*
X148860000Y-84026742D03*
D29*
X148860000Y-84789242D03*
D28*
X148860000Y-85551742D03*
D29*
X149622500Y-82501742D03*
X149622500Y-84026742D03*
X149622500Y-85551742D03*
D28*
X150385000Y-82501742D03*
D29*
X150385000Y-83264242D03*
D28*
X150385000Y-84026742D03*
D29*
X150385000Y-84789242D03*
D28*
X150385000Y-85551742D03*
%TD*%
D13*
%TO.P,C6,1*%
%TO.N,RTS*%
X135335000Y-79946742D03*
%TO.P,C6,2*%
%TO.N,GND*%
X135335000Y-82446742D03*
%TD*%
D19*
%TO.P,U1,1,VIN*%
%TO.N,+12V*%
X124035000Y-107046742D03*
D11*
%TO.P,U1,2,OUT*%
%TO.N,Net-(D1-K)*%
X120335000Y-105346742D03*
%TO.P,U1,3,GND*%
%TO.N,GND*%
X124035000Y-103646742D03*
%TO.P,U1,4,FB*%
%TO.N,+5V*%
X120335000Y-101946742D03*
%TO.P,U1,5,~{ON}/OFF*%
%TO.N,GND*%
X124035000Y-100246742D03*
%TD*%
D31*
%TO.P,J10,1,Pin_1*%
%TO.N,GND*%
X110100000Y-114800000D03*
D15*
%TO.P,J10,2,Pin_2*%
%TO.N,+5V*%
X110100000Y-109800000D03*
%TD*%
D32*
%TO.P,J9,1,Pin_1*%
%TO.N,+5V*%
X110900000Y-84100000D03*
D15*
%TO.P,J9,2,Pin_2*%
%TO.N,GPIO 36*%
X110900000Y-89100000D03*
%TD*%
D12*
%TO.P,R2,1*%
%TO.N,+12V*%
X139100000Y-105991742D03*
%TO.P,R2,2*%
%TO.N,Bat_Lvl*%
X131480000Y-105991742D03*
%TD*%
D33*
%TO.P,J5,1,Pin_1*%
%TO.N,+5V*%
X170745000Y-81991742D03*
D34*
%TO.P,J5,2,Pin_2*%
%TO.N,Net-(J5-Pin_2)*%
X170745000Y-79491742D03*
%TD*%
D13*
%TO.P,C8,1*%
%TO.N,DTR*%
X164245000Y-88491742D03*
%TO.P,C8,2*%
%TO.N,GND*%
X164245000Y-90991742D03*
%TD*%
D35*
%TO.P,U2,1,GND*%
%TO.N,GND*%
X136985000Y-118291742D03*
%TO.P,U2,2,VO*%
%TO.N,+3v3*%
X136985000Y-115991742D03*
D36*
X130685000Y-115991742D03*
D35*
%TO.P,U2,3,VI*%
%TO.N,+5V*%
X136985000Y-113691742D03*
%TD*%
D12*
%TO.P,R6,1*%
%TO.N,Net-(D4-A)*%
X159790000Y-104491742D03*
%TO.P,R6,2*%
%TO.N,Net-(U3-IO2)*%
X152170000Y-104491742D03*
%TD*%
D18*
%TO.P,C4,1*%
%TO.N,+3v3*%
X145790000Y-118991742D03*
%TO.P,C4,2*%
%TO.N,GND*%
X145790000Y-116991742D03*
%TD*%
D31*
%TO.P,J8,1,Pin_1*%
%TO.N,GND*%
X110000000Y-127900000D03*
D15*
%TO.P,J8,2,Pin_2*%
%TO.N,+12V*%
X110000000Y-122900000D03*
%TD*%
D13*
%TO.P,C1,1*%
%TO.N,+12V*%
X123585000Y-115979242D03*
%TO.P,C1,2*%
%TO.N,GND*%
X118585000Y-115979242D03*
%TD*%
D16*
%TO.P,J7,1,Pin_1*%
%TO.N,GND*%
X170740000Y-108241742D03*
D17*
%TO.P,J7,2,Pin_2*%
%TO.N,ESC SIgnal*%
X170740000Y-105741742D03*
%TO.P,J7,3,Pin_3*%
%TO.N,+5V*%
X170740000Y-103241742D03*
%TD*%
D19*
%TO.P,D3,1,K*%
%TO.N,Net-(D3-K)*%
X162750000Y-111991742D03*
D11*
%TO.P,D3,2,A*%
%TO.N,Mosfet*%
X165290000Y-111991742D03*
%TD*%
D20*
%TO.P,SW2,1,1*%
%TO.N,DTR*%
X156040000Y-126946742D03*
D21*
%TO.P,SW2,2,2*%
%TO.N,GND*%
X151000000Y-126946742D03*
%TD*%
D13*
%TO.P,L1,1,1*%
%TO.N,Net-(D1-K)*%
X117170000Y-85946742D03*
%TO.P,L1,2,2*%
%TO.N,+5V*%
X119710000Y-85946742D03*
%TD*%
D24*
%TO.P,J3,1,Pin_1*%
%TO.N,+3v3*%
X169540000Y-126991742D03*
D25*
%TO.P,J3,2,Pin_2*%
%TO.N,+5V*%
X167540000Y-126991742D03*
%TO.P,J3,3,Pin_3*%
%TO.N,GND*%
X165540000Y-126991742D03*
%TO.P,J3,4,Pin_4*%
%TO.N,GPIO 4*%
X163540000Y-126991742D03*
%TO.P,J3,5,Pin_5*%
%TO.N,GPIO 25*%
X161540000Y-126991742D03*
%TO.P,J3,6,Pin_6*%
%TO.N,GPIO 26*%
X159540000Y-126991742D03*
%TD*%
D37*
%TO.N,GND*%
X143830000Y-95951742D03*
X139090000Y-118291742D03*
%TO.N,+3v3*%
X152790000Y-129991742D03*
X130685000Y-113096742D03*
%TO.N,DTR*%
X157813983Y-95991742D03*
X159540000Y-93196742D03*
%TO.N,Mosfet*%
X161790000Y-98991742D03*
X167813030Y-83991742D03*
X168290000Y-92491742D03*
X168290000Y-90228997D03*
%TO.N,GPIO 4*%
X159290000Y-94873233D03*
X159725000Y-91926742D03*
%TO.N,GPIO 25*%
X142290000Y-88116742D03*
%TO.N,GPIO 26*%
X142290000Y-89386742D03*
%TO.N,SDA*%
X161290000Y-93991742D03*
X159745000Y-83036742D03*
%TO.N,SCL*%
X156290000Y-79491742D03*
X162566525Y-96740853D03*
%TO.N,TXD*%
X160515000Y-81766742D03*
X162790000Y-83991742D03*
%TO.N,ESC SIgnal*%
X162290000Y-87491742D03*
X162290000Y-93491742D03*
%TO.N,GPIO 36*%
X124000000Y-93200000D03*
%TD*%
D38*
%TO.N,RTS*%
X170040000Y-89241742D02*
X171040000Y-90241742D01*
X167928258Y-89241742D02*
X170040000Y-89241742D01*
X165880000Y-92090000D02*
X165880000Y-91290000D01*
X161116841Y-92700000D02*
X165270000Y-92700000D01*
X159706353Y-94110488D02*
X161116841Y-92700000D01*
X165880000Y-91290000D02*
X167928258Y-89241742D01*
X157051238Y-94110488D02*
X159706353Y-94110488D01*
X165270000Y-92700000D02*
X165880000Y-92090000D01*
D39*
%TO.N,Bat_Lvl*%
X140080000Y-101590000D02*
X138280000Y-99790000D01*
X131480000Y-104470000D02*
X132550000Y-103400000D01*
X132550000Y-103400000D02*
X138270000Y-103400000D01*
X131480000Y-105991742D02*
X131480000Y-104470000D01*
X138270000Y-103400000D02*
X140080000Y-101590000D01*
X138280000Y-90025000D02*
X135335000Y-87080000D01*
X138280000Y-99790000D02*
X138280000Y-90025000D01*
X142231742Y-103741742D02*
X140080000Y-101590000D01*
X145790000Y-103741742D02*
X142231742Y-103741742D01*
D40*
%TO.N,+12V*%
X133460000Y-123430000D02*
X136038600Y-126008600D01*
X127134242Y-123430000D02*
X133460000Y-123430000D01*
X136038600Y-126008600D02*
X136038600Y-126974600D01*
X123585000Y-126979242D02*
X127134242Y-123430000D01*
D39*
X125240000Y-108220000D02*
X124870000Y-107850000D01*
X124870000Y-107850000D02*
X124838258Y-107850000D01*
X124838258Y-107850000D02*
X124035000Y-107046742D01*
X136871742Y-108220000D02*
X125240000Y-108220000D01*
X139100000Y-105991742D02*
X136871742Y-108220000D01*
%TO.N,+5V*%
X131406742Y-100696742D02*
X135335000Y-100696742D01*
X128166398Y-97456398D02*
X131406742Y-100696742D01*
X122290000Y-97456398D02*
X128166398Y-97456398D01*
X120335000Y-99411398D02*
X122290000Y-97456398D01*
X120335000Y-101946742D02*
X120335000Y-99411398D01*
X110900000Y-84100000D02*
X112660000Y-84100000D01*
X119790000Y-82140000D02*
X119790000Y-84100000D01*
X112660000Y-84100000D02*
X114620000Y-82140000D01*
X114620000Y-82140000D02*
X119790000Y-82140000D01*
%TO.N,+3v3*%
X149720000Y-115686742D02*
X152025000Y-117991742D01*
X149720000Y-110330000D02*
X149720000Y-115686742D01*
X147960000Y-108570000D02*
X149720000Y-110330000D01*
X141660000Y-108570000D02*
X147960000Y-108570000D01*
X140080000Y-110150000D02*
X141660000Y-108570000D01*
X133680000Y-110150000D02*
X140080000Y-110150000D01*
X130733258Y-113096742D02*
X133680000Y-110150000D01*
X130685000Y-113096742D02*
X130733258Y-113096742D01*
%TO.N,GND*%
X136985000Y-118291742D02*
X139090000Y-118291742D01*
D38*
X150780000Y-82501742D02*
X150385000Y-82501742D01*
X143830000Y-95951742D02*
X143830000Y-94446742D01*
X150385000Y-82501742D02*
X150385000Y-83264242D01*
X140790000Y-76686742D02*
X141485000Y-76686742D01*
X147300000Y-82501742D02*
X148097500Y-82501742D01*
X158290000Y-76686742D02*
X156595000Y-76686742D01*
X141485000Y-76686742D02*
X147300000Y-82501742D01*
X156595000Y-76686742D02*
X150780000Y-82501742D01*
D40*
%TO.N,+12V*%
X123585000Y-126979242D02*
X123585000Y-122900000D01*
X123585000Y-122900000D02*
X123585000Y-115979242D01*
X123585000Y-107496742D02*
X124035000Y-107046742D01*
X123585000Y-115979242D02*
X123585000Y-107496742D01*
X110000000Y-122900000D02*
X123585000Y-122900000D01*
D39*
%TO.N,+5V*%
X174290000Y-82491742D02*
X173790000Y-81991742D01*
X110100000Y-109800000D02*
X107100000Y-106800000D01*
X174290000Y-129209272D02*
X174290000Y-103241742D01*
X136985000Y-113691742D02*
X141090000Y-113691742D01*
X170740000Y-103241742D02*
X174290000Y-103241742D01*
X119790000Y-84100000D02*
X119790000Y-85866742D01*
X173790000Y-81991742D02*
X170745000Y-81991742D01*
X119790000Y-85866742D02*
X119710000Y-85946742D01*
X143790000Y-110991742D02*
X145790000Y-110991742D01*
X122290000Y-88526742D02*
X122290000Y-97456398D01*
X107100000Y-87900000D02*
X110900000Y-84100000D01*
X134590000Y-113691742D02*
X136985000Y-113691742D01*
X141090000Y-113691742D02*
X143790000Y-110991742D01*
X119710000Y-85946742D02*
X122290000Y-88526742D01*
X135290000Y-120991742D02*
X133790000Y-119491742D01*
X139290000Y-120991742D02*
X135290000Y-120991742D01*
X133790000Y-114491742D02*
X134590000Y-113691742D01*
X140290000Y-129241742D02*
X142417545Y-131369287D01*
X172129985Y-131369287D02*
X174290000Y-129209272D01*
X107100000Y-106800000D02*
X107100000Y-87900000D01*
X140290000Y-121991742D02*
X140290000Y-129241742D01*
X139290000Y-120991742D02*
X140290000Y-121991742D01*
X119790000Y-79951742D02*
X119790000Y-82140000D01*
X142417545Y-131369287D02*
X172129985Y-131369287D01*
X133790000Y-119491742D02*
X133790000Y-114491742D01*
X174290000Y-103241742D02*
X174290000Y-82491742D01*
X121750000Y-77991742D02*
X119790000Y-79951742D01*
%TO.N,+3v3*%
X145790000Y-118991742D02*
X145790000Y-128741742D01*
D38*
X135537793Y-77956742D02*
X130047793Y-83446742D01*
D39*
X171480485Y-129801257D02*
X172721970Y-128559772D01*
X145790000Y-118991742D02*
X151025000Y-118991742D01*
X169540000Y-126991742D02*
X169540000Y-129801257D01*
X146849515Y-129801257D02*
X169540000Y-129801257D01*
X172040000Y-122241742D02*
X170790000Y-122241742D01*
D38*
X130047793Y-83446742D02*
X127835000Y-83446742D01*
D39*
X169540000Y-129801257D02*
X171480485Y-129801257D01*
X141290000Y-115991742D02*
X144290000Y-118991742D01*
X172721970Y-128559772D02*
X172721970Y-122923712D01*
X151025000Y-118991742D02*
X152025000Y-117991742D01*
X130685000Y-115991742D02*
X130685000Y-113096742D01*
X136985000Y-115991742D02*
X141290000Y-115991742D01*
D38*
X140790000Y-77956742D02*
X135537793Y-77956742D01*
D39*
X144290000Y-118991742D02*
X145790000Y-118991742D01*
X172721970Y-122923712D02*
X172040000Y-122241742D01*
X145790000Y-128741742D02*
X146849515Y-129801257D01*
D38*
%TO.N,Bat_Lvl*%
X139378258Y-83036742D02*
X140790000Y-83036742D01*
X135335000Y-87080000D02*
X139378258Y-83036742D01*
%TO.N,RTS*%
X149290000Y-121241742D02*
X157540000Y-121241742D01*
X147830000Y-126946742D02*
X147830000Y-122701742D01*
X155790000Y-92991742D02*
X148290000Y-92991742D01*
X148290000Y-92991742D02*
X142790000Y-87491742D01*
X142025000Y-79226742D02*
X140790000Y-79226742D01*
X147830000Y-122701742D02*
X149290000Y-121241742D01*
X136055000Y-79226742D02*
X140790000Y-79226742D01*
X159645000Y-117991742D02*
X159645000Y-115874156D01*
X159645000Y-119136742D02*
X159645000Y-117991742D01*
X135335000Y-79946742D02*
X136055000Y-79226742D01*
X142790000Y-79991742D02*
X142025000Y-79226742D01*
X156908746Y-94110488D02*
X155790000Y-92991742D01*
X157051238Y-113280394D02*
X157051238Y-94110488D01*
X159645000Y-115874156D02*
X157051238Y-113280394D01*
X157051238Y-94110488D02*
X156908746Y-94110488D01*
X142790000Y-87491742D02*
X142790000Y-79991742D01*
X157540000Y-121241742D02*
X159645000Y-119136742D01*
%TO.N,DTR*%
X164245000Y-88491742D02*
X159540000Y-93196742D01*
X170790000Y-88491742D02*
X171040000Y-88241742D01*
X164245000Y-88491742D02*
X170790000Y-88491742D01*
X161790000Y-116991742D02*
X161790000Y-118741742D01*
X161790000Y-118741742D02*
X156040000Y-124491742D01*
X159540000Y-93196742D02*
X158290000Y-93196742D01*
X156040000Y-124491742D02*
X156040000Y-126946742D01*
X157777729Y-112979471D02*
X161790000Y-116991742D01*
X157777729Y-95991742D02*
X157777729Y-112979471D01*
D39*
%TO.N,Net-(D1-K)*%
X116790000Y-101801742D02*
X120335000Y-105346742D01*
X116790000Y-96491742D02*
X116790000Y-86326742D01*
X116790000Y-86326742D02*
X117170000Y-85946742D01*
X116790000Y-96491742D02*
X116790000Y-101801742D01*
%TO.N,Net-(D2-K)*%
X124290000Y-77991742D02*
X126170000Y-77991742D01*
X126170000Y-77991742D02*
X127715000Y-76446742D01*
D38*
%TO.N,Net-(D3-K)*%
X159875000Y-111946742D02*
X162705000Y-111946742D01*
X162705000Y-111946742D02*
X162750000Y-111991742D01*
%TO.N,Mosfet*%
X164290000Y-98991742D02*
X166568746Y-101270488D01*
X164745000Y-83991742D02*
X164745000Y-83502115D01*
X164745000Y-83991742D02*
X167813030Y-83991742D01*
X166568746Y-101270488D02*
X166568746Y-110712996D01*
X161755000Y-77956742D02*
X163242982Y-79444724D01*
X163242982Y-82489724D02*
X164745000Y-83991742D01*
X163242982Y-79444724D02*
X163242982Y-82489724D01*
X158290000Y-77956742D02*
X161755000Y-77956742D01*
X166568746Y-110712996D02*
X165290000Y-111991742D01*
X168290000Y-90228997D02*
X168290000Y-92491742D01*
X161790000Y-98991742D02*
X164290000Y-98991742D01*
%TO.N,Net-(D4-A)*%
X162620000Y-104491742D02*
X162665000Y-104536742D01*
X159790000Y-104491742D02*
X162620000Y-104491742D01*
%TO.N,GPIO 4*%
X163540000Y-117714328D02*
X163540000Y-126991742D01*
X158290000Y-91926742D02*
X159725000Y-91926742D01*
X158577728Y-96204014D02*
X158577728Y-112752056D01*
X159290000Y-94873233D02*
X159290000Y-95491742D01*
X159290000Y-95491742D02*
X158577728Y-96204014D01*
X158577728Y-112752056D02*
X163540000Y-117714328D01*
%TO.N,GPIO 25*%
X140790000Y-88116742D02*
X142290000Y-88116742D01*
%TO.N,GPIO 26*%
X140790000Y-89386742D02*
X142290000Y-89386742D01*
%TO.N,SDA*%
X168790000Y-117241742D02*
X170790000Y-117241742D01*
X167295237Y-115746979D02*
X168790000Y-117241742D01*
X167295237Y-100969565D02*
X167295237Y-115746979D01*
X161290000Y-96991742D02*
X162563509Y-98265251D01*
X161290000Y-93991742D02*
X161290000Y-96991742D01*
X162563509Y-98265251D02*
X164590923Y-98265251D01*
X159745000Y-83036742D02*
X158290000Y-83036742D01*
X164590923Y-98265251D02*
X167295237Y-100969565D01*
%TO.N,SCL*%
X168021728Y-100668642D02*
X168021728Y-109223470D01*
X168021728Y-109223470D02*
X168040000Y-109241742D01*
X162566525Y-96740853D02*
X163364432Y-97538760D01*
X158290000Y-79226742D02*
X156555000Y-79226742D01*
X168040000Y-109241742D02*
X168040000Y-112991742D01*
X156555000Y-79226742D02*
X156290000Y-79491742D01*
X163364432Y-97538760D02*
X164891845Y-97538760D01*
X164891845Y-97538760D02*
X168021728Y-100668642D01*
X168040000Y-112991742D02*
X169790000Y-114741742D01*
X169790000Y-114741742D02*
X170790000Y-114741742D01*
D39*
%TO.N,Net-(J5-Pin_2)*%
X166330000Y-81451742D02*
X168290000Y-79491742D01*
X164745000Y-81451742D02*
X166330000Y-81451742D01*
X168290000Y-79491742D02*
X170745000Y-79491742D01*
D38*
%TO.N,RXD*%
X162790000Y-86491742D02*
X161790000Y-85491742D01*
X172178746Y-87770057D02*
X170900431Y-86491742D01*
X171040000Y-94241742D02*
X172178746Y-93102996D01*
X161790000Y-80991742D02*
X161290000Y-80491742D01*
X172178746Y-93102996D02*
X172178746Y-87770057D01*
X161285000Y-80496742D02*
X158290000Y-80496742D01*
X170900431Y-86491742D02*
X162790000Y-86491742D01*
X161790000Y-85491742D02*
X161790000Y-80991742D01*
X161290000Y-80491742D02*
X161285000Y-80496742D01*
%TO.N,TXD*%
X172905237Y-87469135D02*
X172905237Y-95876505D01*
X172905237Y-95876505D02*
X172540000Y-96241742D01*
X163090923Y-85765251D02*
X171201354Y-85765251D01*
X162790000Y-83991742D02*
X162790000Y-85464328D01*
X172540000Y-96241742D02*
X171040000Y-96241742D01*
X162790000Y-85464328D02*
X163090923Y-85765251D01*
X158290000Y-81766742D02*
X160515000Y-81766742D01*
X171201354Y-85765251D02*
X172905237Y-87469135D01*
%TO.N,ESC SIgnal*%
X169040000Y-105741742D02*
X170740000Y-105741742D01*
X162290000Y-94991742D02*
X164110527Y-96812269D01*
X162290000Y-87491742D02*
X161645000Y-86846742D01*
X162290000Y-93491742D02*
X162290000Y-94991742D01*
X168748219Y-105449961D02*
X169040000Y-105741742D01*
X161645000Y-86846742D02*
X158290000Y-86846742D01*
X168748219Y-100367719D02*
X168748219Y-105449961D01*
X165192767Y-96812269D02*
X168748219Y-100367719D01*
X164110527Y-96812269D02*
X165192767Y-96812269D01*
%TO.N,Net-(U3-IO2)*%
X155260000Y-94446742D02*
X155260000Y-101401742D01*
X155260000Y-101401742D02*
X152170000Y-104491742D01*
%TO.N,GPIO 36*%
X135400000Y-84900000D02*
X138800000Y-81500000D01*
X138800000Y-80768949D02*
X139072207Y-80496742D01*
X133900000Y-84900000D02*
X135400000Y-84900000D01*
X129458461Y-91341539D02*
X129500000Y-91341539D01*
D39*
X110900000Y-89100000D02*
X110900000Y-96700000D01*
D38*
X129500000Y-91341539D02*
X129500000Y-89300000D01*
X138800000Y-81500000D02*
X138800000Y-80768949D01*
X127600000Y-93200000D02*
X129458461Y-91341539D01*
X129500000Y-89300000D02*
X133900000Y-84900000D01*
X124000000Y-93200000D02*
X127600000Y-93200000D01*
X139072207Y-80496742D02*
X140790000Y-80496742D01*
%TD*%
M02*
