%TF.GenerationSoftware,KiCad,Pcbnew,9.0.6*%
%TF.CreationDate,2026-03-01T21:32:30+05:30*%
%TF.ProjectId,4th_YearProject,3474685f-5965-4617-9250-726f6a656374,RaunakR16*%
%TF.SameCoordinates,Original*%
%TF.FileFunction,Paste,Top*%
%TF.FilePolarity,Positive*%
%FSLAX46Y46*%
G04 Gerber Fmt 4.6, Leading zero omitted, Abs format (unit mm)*
G04 Created by KiCad (PCBNEW 9.0.6) date 2026-03-01 21:32:30*
%MOMM*%
%LPD*%
G01*
G04 APERTURE LIST*
G04 Aperture macros list*
%AMRoundRect*
0 Rectangle with rounded corners*
0 $1 Rounding radius*
0 $2 $3 $4 $5 $6 $7 $8 $9 X,Y pos of 4 corners*
0 Add a 4 corners polygon primitive as box body*
4,1,4,$2,$3,$4,$5,$6,$7,$8,$9,$2,$3,0*
0 Add four circle primitives for the rounded corners*
1,1,$1+$1,$2,$3*
1,1,$1+$1,$4,$5*
1,1,$1+$1,$6,$7*
1,1,$1+$1,$8,$9*
0 Add four rect primitives between the rounded corners*
20,1,$1+$1,$2,$3,$4,$5,0*
20,1,$1+$1,$4,$5,$6,$7,0*
20,1,$1+$1,$6,$7,$8,$9,0*
20,1,$1+$1,$8,$9,$2,$3,0*%
G04 Aperture macros list end*
%ADD10R,1.500000X0.900000*%
%ADD11R,0.900000X1.500000*%
%ADD12R,1.050000X1.050000*%
%ADD13RoundRect,0.375000X0.625000X0.375000X-0.625000X0.375000X-0.625000X-0.375000X0.625000X-0.375000X0*%
%ADD14RoundRect,0.500000X0.500000X1.400000X-0.500000X1.400000X-0.500000X-1.400000X0.500000X-1.400000X0*%
G04 APERTURE END LIST*
D10*
%TO.C,U3*%
X140790000Y-76686742D03*
X140790000Y-77956742D03*
X140790000Y-79226742D03*
X140790000Y-80496742D03*
X140790000Y-81766742D03*
X140790000Y-83036742D03*
X140790000Y-84306742D03*
X140790000Y-85576742D03*
X140790000Y-86846742D03*
X140790000Y-88116742D03*
X140790000Y-89386742D03*
X140790000Y-90656742D03*
X140790000Y-91926742D03*
X140790000Y-93196742D03*
D11*
X143830000Y-94446742D03*
X145100000Y-94446742D03*
X146370000Y-94446742D03*
X147640000Y-94446742D03*
X148910000Y-94446742D03*
X150180000Y-94446742D03*
X151450000Y-94446742D03*
X152720000Y-94446742D03*
X153990000Y-94446742D03*
X155260000Y-94446742D03*
D10*
X158290000Y-93196742D03*
X158290000Y-91926742D03*
X158290000Y-90656742D03*
X158290000Y-89386742D03*
X158290000Y-88116742D03*
X158290000Y-86846742D03*
X158290000Y-85576742D03*
X158290000Y-84306742D03*
X158290000Y-83036742D03*
X158290000Y-81766742D03*
X158290000Y-80496742D03*
X158290000Y-79226742D03*
X158290000Y-77956742D03*
X158290000Y-76686742D03*
D12*
X147335000Y-82501742D03*
X147335000Y-84026742D03*
X147335000Y-85551742D03*
X148860000Y-82501742D03*
X148860000Y-84026742D03*
X148860000Y-85551742D03*
X150385000Y-82501742D03*
X150385000Y-84026742D03*
X150385000Y-85551742D03*
%TD*%
D13*
%TO.C,U2*%
X136985000Y-118291742D03*
X136985000Y-115991742D03*
D14*
X130685000Y-115991742D03*
D13*
X136985000Y-113691742D03*
%TD*%
M02*
