%TF.GenerationSoftware,KiCad,Pcbnew,9.0.6*%
%TF.CreationDate,2026-03-01T21:32:30+05:30*%
%TF.ProjectId,4th_YearProject,3474685f-5965-4617-9250-726f6a656374,RaunakR16*%
%TF.SameCoordinates,Original*%
%TF.FileFunction,Legend,Top*%
%TF.FilePolarity,Positive*%
%FSLAX46Y46*%
G04 Gerber Fmt 4.6, Leading zero omitted, Abs format (unit mm)*
G04 Created by KiCad (PCBNEW 9.0.6) date 2026-03-01 21:32:30*
%MOMM*%
%LPD*%
G01*
G04 APERTURE LIST*
%ADD10C,0.100000*%
%ADD11C,0.062500*%
%ADD12C,0.125000*%
%ADD13C,0.150000*%
%ADD14C,0.120000*%
G04 APERTURE END LIST*
D10*
X125593884Y-99403208D02*
X126355789Y-99403208D01*
X146843884Y-106903208D02*
X147605789Y-106903208D01*
X132737217Y-132248609D02*
X132403884Y-132248609D01*
X132403884Y-132772419D02*
X132403884Y-131772419D01*
X132403884Y-131772419D02*
X132880074Y-131772419D01*
X133213408Y-132486704D02*
X133689598Y-132486704D01*
X133118170Y-132772419D02*
X133451503Y-131772419D01*
X133451503Y-131772419D02*
X133784836Y-132772419D01*
X134118170Y-132772419D02*
X134118170Y-131772419D01*
X134118170Y-131772419D02*
X134689598Y-132772419D01*
X134689598Y-132772419D02*
X134689598Y-131772419D01*
D11*
X165962070Y-91036111D02*
X165914451Y-91012301D01*
X165914451Y-91012301D02*
X165843022Y-91012301D01*
X165843022Y-91012301D02*
X165771594Y-91036111D01*
X165771594Y-91036111D02*
X165723975Y-91083730D01*
X165723975Y-91083730D02*
X165700165Y-91131349D01*
X165700165Y-91131349D02*
X165676356Y-91226587D01*
X165676356Y-91226587D02*
X165676356Y-91298015D01*
X165676356Y-91298015D02*
X165700165Y-91393253D01*
X165700165Y-91393253D02*
X165723975Y-91440872D01*
X165723975Y-91440872D02*
X165771594Y-91488492D01*
X165771594Y-91488492D02*
X165843022Y-91512301D01*
X165843022Y-91512301D02*
X165890641Y-91512301D01*
X165890641Y-91512301D02*
X165962070Y-91488492D01*
X165962070Y-91488492D02*
X165985879Y-91464682D01*
X165985879Y-91464682D02*
X165985879Y-91298015D01*
X165985879Y-91298015D02*
X165890641Y-91298015D01*
X166200165Y-91512301D02*
X166200165Y-91012301D01*
X166200165Y-91012301D02*
X166485879Y-91512301D01*
X166485879Y-91512301D02*
X166485879Y-91012301D01*
X166723975Y-91512301D02*
X166723975Y-91012301D01*
X166723975Y-91012301D02*
X166843023Y-91012301D01*
X166843023Y-91012301D02*
X166914451Y-91036111D01*
X166914451Y-91036111D02*
X166962070Y-91083730D01*
X166962070Y-91083730D02*
X166985880Y-91131349D01*
X166985880Y-91131349D02*
X167009689Y-91226587D01*
X167009689Y-91226587D02*
X167009689Y-91298015D01*
X167009689Y-91298015D02*
X166985880Y-91393253D01*
X166985880Y-91393253D02*
X166962070Y-91440872D01*
X166962070Y-91440872D02*
X166914451Y-91488492D01*
X166914451Y-91488492D02*
X166843023Y-91512301D01*
X166843023Y-91512301D02*
X166723975Y-91512301D01*
D12*
X173860331Y-105767309D02*
X174193664Y-105767309D01*
X174336521Y-106291119D02*
X173860331Y-106291119D01*
X173860331Y-106291119D02*
X173860331Y-105291119D01*
X173860331Y-105291119D02*
X174336521Y-105291119D01*
X174717474Y-106243500D02*
X174860331Y-106291119D01*
X174860331Y-106291119D02*
X175098426Y-106291119D01*
X175098426Y-106291119D02*
X175193664Y-106243500D01*
X175193664Y-106243500D02*
X175241283Y-106195880D01*
X175241283Y-106195880D02*
X175288902Y-106100642D01*
X175288902Y-106100642D02*
X175288902Y-106005404D01*
X175288902Y-106005404D02*
X175241283Y-105910166D01*
X175241283Y-105910166D02*
X175193664Y-105862547D01*
X175193664Y-105862547D02*
X175098426Y-105814928D01*
X175098426Y-105814928D02*
X174907950Y-105767309D01*
X174907950Y-105767309D02*
X174812712Y-105719690D01*
X174812712Y-105719690D02*
X174765093Y-105672071D01*
X174765093Y-105672071D02*
X174717474Y-105576833D01*
X174717474Y-105576833D02*
X174717474Y-105481595D01*
X174717474Y-105481595D02*
X174765093Y-105386357D01*
X174765093Y-105386357D02*
X174812712Y-105338738D01*
X174812712Y-105338738D02*
X174907950Y-105291119D01*
X174907950Y-105291119D02*
X175146045Y-105291119D01*
X175146045Y-105291119D02*
X175288902Y-105338738D01*
X176288902Y-106195880D02*
X176241283Y-106243500D01*
X176241283Y-106243500D02*
X176098426Y-106291119D01*
X176098426Y-106291119D02*
X176003188Y-106291119D01*
X176003188Y-106291119D02*
X175860331Y-106243500D01*
X175860331Y-106243500D02*
X175765093Y-106148261D01*
X175765093Y-106148261D02*
X175717474Y-106053023D01*
X175717474Y-106053023D02*
X175669855Y-105862547D01*
X175669855Y-105862547D02*
X175669855Y-105719690D01*
X175669855Y-105719690D02*
X175717474Y-105529214D01*
X175717474Y-105529214D02*
X175765093Y-105433976D01*
X175765093Y-105433976D02*
X175860331Y-105338738D01*
X175860331Y-105338738D02*
X176003188Y-105291119D01*
X176003188Y-105291119D02*
X176098426Y-105291119D01*
X176098426Y-105291119D02*
X176241283Y-105338738D01*
X176241283Y-105338738D02*
X176288902Y-105386357D01*
D10*
X133593884Y-101153208D02*
X134355789Y-101153208D01*
X133974836Y-101534161D02*
X133974836Y-100772256D01*
D12*
X174022712Y-117743500D02*
X174165569Y-117791119D01*
X174165569Y-117791119D02*
X174403664Y-117791119D01*
X174403664Y-117791119D02*
X174498902Y-117743500D01*
X174498902Y-117743500D02*
X174546521Y-117695880D01*
X174546521Y-117695880D02*
X174594140Y-117600642D01*
X174594140Y-117600642D02*
X174594140Y-117505404D01*
X174594140Y-117505404D02*
X174546521Y-117410166D01*
X174546521Y-117410166D02*
X174498902Y-117362547D01*
X174498902Y-117362547D02*
X174403664Y-117314928D01*
X174403664Y-117314928D02*
X174213188Y-117267309D01*
X174213188Y-117267309D02*
X174117950Y-117219690D01*
X174117950Y-117219690D02*
X174070331Y-117172071D01*
X174070331Y-117172071D02*
X174022712Y-117076833D01*
X174022712Y-117076833D02*
X174022712Y-116981595D01*
X174022712Y-116981595D02*
X174070331Y-116886357D01*
X174070331Y-116886357D02*
X174117950Y-116838738D01*
X174117950Y-116838738D02*
X174213188Y-116791119D01*
X174213188Y-116791119D02*
X174451283Y-116791119D01*
X174451283Y-116791119D02*
X174594140Y-116838738D01*
X175022712Y-117791119D02*
X175022712Y-116791119D01*
X175022712Y-116791119D02*
X175260807Y-116791119D01*
X175260807Y-116791119D02*
X175403664Y-116838738D01*
X175403664Y-116838738D02*
X175498902Y-116933976D01*
X175498902Y-116933976D02*
X175546521Y-117029214D01*
X175546521Y-117029214D02*
X175594140Y-117219690D01*
X175594140Y-117219690D02*
X175594140Y-117362547D01*
X175594140Y-117362547D02*
X175546521Y-117553023D01*
X175546521Y-117553023D02*
X175498902Y-117648261D01*
X175498902Y-117648261D02*
X175403664Y-117743500D01*
X175403664Y-117743500D02*
X175260807Y-117791119D01*
X175260807Y-117791119D02*
X175022712Y-117791119D01*
X175975093Y-117505404D02*
X176451283Y-117505404D01*
X175879855Y-117791119D02*
X176213188Y-116791119D01*
X176213188Y-116791119D02*
X176546521Y-117791119D01*
D10*
X104303884Y-121191466D02*
X105065789Y-121191466D01*
X104684836Y-121572419D02*
X104684836Y-120810514D01*
D11*
X166712070Y-78536111D02*
X166664451Y-78512301D01*
X166664451Y-78512301D02*
X166593022Y-78512301D01*
X166593022Y-78512301D02*
X166521594Y-78536111D01*
X166521594Y-78536111D02*
X166473975Y-78583730D01*
X166473975Y-78583730D02*
X166450165Y-78631349D01*
X166450165Y-78631349D02*
X166426356Y-78726587D01*
X166426356Y-78726587D02*
X166426356Y-78798015D01*
X166426356Y-78798015D02*
X166450165Y-78893253D01*
X166450165Y-78893253D02*
X166473975Y-78940872D01*
X166473975Y-78940872D02*
X166521594Y-78988492D01*
X166521594Y-78988492D02*
X166593022Y-79012301D01*
X166593022Y-79012301D02*
X166640641Y-79012301D01*
X166640641Y-79012301D02*
X166712070Y-78988492D01*
X166712070Y-78988492D02*
X166735879Y-78964682D01*
X166735879Y-78964682D02*
X166735879Y-78798015D01*
X166735879Y-78798015D02*
X166640641Y-78798015D01*
X166950165Y-79012301D02*
X166950165Y-78512301D01*
X166950165Y-78512301D02*
X167235879Y-79012301D01*
X167235879Y-79012301D02*
X167235879Y-78512301D01*
X167473975Y-79012301D02*
X167473975Y-78512301D01*
X167473975Y-78512301D02*
X167593023Y-78512301D01*
X167593023Y-78512301D02*
X167664451Y-78536111D01*
X167664451Y-78536111D02*
X167712070Y-78583730D01*
X167712070Y-78583730D02*
X167735880Y-78631349D01*
X167735880Y-78631349D02*
X167759689Y-78726587D01*
X167759689Y-78726587D02*
X167759689Y-78798015D01*
X167759689Y-78798015D02*
X167735880Y-78893253D01*
X167735880Y-78893253D02*
X167712070Y-78940872D01*
X167712070Y-78940872D02*
X167664451Y-78988492D01*
X167664451Y-78988492D02*
X167593023Y-79012301D01*
X167593023Y-79012301D02*
X167473975Y-79012301D01*
X159334369Y-131319671D02*
X159310559Y-131367290D01*
X159310559Y-131367290D02*
X159310559Y-131438719D01*
X159310559Y-131438719D02*
X159334369Y-131510147D01*
X159334369Y-131510147D02*
X159381988Y-131557766D01*
X159381988Y-131557766D02*
X159429607Y-131581576D01*
X159429607Y-131581576D02*
X159524845Y-131605385D01*
X159524845Y-131605385D02*
X159596273Y-131605385D01*
X159596273Y-131605385D02*
X159691511Y-131581576D01*
X159691511Y-131581576D02*
X159739130Y-131557766D01*
X159739130Y-131557766D02*
X159786750Y-131510147D01*
X159786750Y-131510147D02*
X159810559Y-131438719D01*
X159810559Y-131438719D02*
X159810559Y-131391100D01*
X159810559Y-131391100D02*
X159786750Y-131319671D01*
X159786750Y-131319671D02*
X159762940Y-131295862D01*
X159762940Y-131295862D02*
X159596273Y-131295862D01*
X159596273Y-131295862D02*
X159596273Y-131391100D01*
X159810559Y-131081576D02*
X159310559Y-131081576D01*
X159310559Y-131081576D02*
X159310559Y-130891100D01*
X159310559Y-130891100D02*
X159334369Y-130843481D01*
X159334369Y-130843481D02*
X159358178Y-130819671D01*
X159358178Y-130819671D02*
X159405797Y-130795862D01*
X159405797Y-130795862D02*
X159477226Y-130795862D01*
X159477226Y-130795862D02*
X159524845Y-130819671D01*
X159524845Y-130819671D02*
X159548654Y-130843481D01*
X159548654Y-130843481D02*
X159572464Y-130891100D01*
X159572464Y-130891100D02*
X159572464Y-131081576D01*
X159810559Y-130581576D02*
X159310559Y-130581576D01*
X159310559Y-130248243D02*
X159310559Y-130153005D01*
X159310559Y-130153005D02*
X159334369Y-130105386D01*
X159334369Y-130105386D02*
X159381988Y-130057767D01*
X159381988Y-130057767D02*
X159477226Y-130033957D01*
X159477226Y-130033957D02*
X159643892Y-130033957D01*
X159643892Y-130033957D02*
X159739130Y-130057767D01*
X159739130Y-130057767D02*
X159786750Y-130105386D01*
X159786750Y-130105386D02*
X159810559Y-130153005D01*
X159810559Y-130153005D02*
X159810559Y-130248243D01*
X159810559Y-130248243D02*
X159786750Y-130295862D01*
X159786750Y-130295862D02*
X159739130Y-130343481D01*
X159739130Y-130343481D02*
X159643892Y-130367290D01*
X159643892Y-130367290D02*
X159477226Y-130367290D01*
X159477226Y-130367290D02*
X159381988Y-130343481D01*
X159381988Y-130343481D02*
X159334369Y-130295862D01*
X159334369Y-130295862D02*
X159310559Y-130248243D01*
X159358178Y-129462528D02*
X159334369Y-129438719D01*
X159334369Y-129438719D02*
X159310559Y-129391100D01*
X159310559Y-129391100D02*
X159310559Y-129272052D01*
X159310559Y-129272052D02*
X159334369Y-129224433D01*
X159334369Y-129224433D02*
X159358178Y-129200624D01*
X159358178Y-129200624D02*
X159405797Y-129176814D01*
X159405797Y-129176814D02*
X159453416Y-129176814D01*
X159453416Y-129176814D02*
X159524845Y-129200624D01*
X159524845Y-129200624D02*
X159810559Y-129486338D01*
X159810559Y-129486338D02*
X159810559Y-129176814D01*
X159310559Y-128748243D02*
X159310559Y-128843481D01*
X159310559Y-128843481D02*
X159334369Y-128891100D01*
X159334369Y-128891100D02*
X159358178Y-128914910D01*
X159358178Y-128914910D02*
X159429607Y-128962529D01*
X159429607Y-128962529D02*
X159524845Y-128986338D01*
X159524845Y-128986338D02*
X159715321Y-128986338D01*
X159715321Y-128986338D02*
X159762940Y-128962529D01*
X159762940Y-128962529D02*
X159786750Y-128938719D01*
X159786750Y-128938719D02*
X159810559Y-128891100D01*
X159810559Y-128891100D02*
X159810559Y-128795862D01*
X159810559Y-128795862D02*
X159786750Y-128748243D01*
X159786750Y-128748243D02*
X159762940Y-128724434D01*
X159762940Y-128724434D02*
X159715321Y-128700624D01*
X159715321Y-128700624D02*
X159596273Y-128700624D01*
X159596273Y-128700624D02*
X159548654Y-128724434D01*
X159548654Y-128724434D02*
X159524845Y-128748243D01*
X159524845Y-128748243D02*
X159501035Y-128795862D01*
X159501035Y-128795862D02*
X159501035Y-128891100D01*
X159501035Y-128891100D02*
X159524845Y-128938719D01*
X159524845Y-128938719D02*
X159548654Y-128962529D01*
X159548654Y-128962529D02*
X159596273Y-128986338D01*
D12*
X172975093Y-97791119D02*
X173594140Y-97791119D01*
X173594140Y-97791119D02*
X173260807Y-98172071D01*
X173260807Y-98172071D02*
X173403664Y-98172071D01*
X173403664Y-98172071D02*
X173498902Y-98219690D01*
X173498902Y-98219690D02*
X173546521Y-98267309D01*
X173546521Y-98267309D02*
X173594140Y-98362547D01*
X173594140Y-98362547D02*
X173594140Y-98600642D01*
X173594140Y-98600642D02*
X173546521Y-98695880D01*
X173546521Y-98695880D02*
X173498902Y-98743500D01*
X173498902Y-98743500D02*
X173403664Y-98791119D01*
X173403664Y-98791119D02*
X173117950Y-98791119D01*
X173117950Y-98791119D02*
X173022712Y-98743500D01*
X173022712Y-98743500D02*
X172975093Y-98695880D01*
X173879855Y-97791119D02*
X174213188Y-98791119D01*
X174213188Y-98791119D02*
X174546521Y-97791119D01*
X174784617Y-97791119D02*
X175403664Y-97791119D01*
X175403664Y-97791119D02*
X175070331Y-98172071D01*
X175070331Y-98172071D02*
X175213188Y-98172071D01*
X175213188Y-98172071D02*
X175308426Y-98219690D01*
X175308426Y-98219690D02*
X175356045Y-98267309D01*
X175356045Y-98267309D02*
X175403664Y-98362547D01*
X175403664Y-98362547D02*
X175403664Y-98600642D01*
X175403664Y-98600642D02*
X175356045Y-98695880D01*
X175356045Y-98695880D02*
X175308426Y-98743500D01*
X175308426Y-98743500D02*
X175213188Y-98791119D01*
X175213188Y-98791119D02*
X174927474Y-98791119D01*
X174927474Y-98791119D02*
X174832236Y-98743500D01*
X174832236Y-98743500D02*
X174784617Y-98695880D01*
D10*
X165343884Y-110403208D02*
X166105789Y-110403208D01*
X165724836Y-110784161D02*
X165724836Y-110022256D01*
D12*
X174062712Y-115243500D02*
X174205569Y-115291119D01*
X174205569Y-115291119D02*
X174443664Y-115291119D01*
X174443664Y-115291119D02*
X174538902Y-115243500D01*
X174538902Y-115243500D02*
X174586521Y-115195880D01*
X174586521Y-115195880D02*
X174634140Y-115100642D01*
X174634140Y-115100642D02*
X174634140Y-115005404D01*
X174634140Y-115005404D02*
X174586521Y-114910166D01*
X174586521Y-114910166D02*
X174538902Y-114862547D01*
X174538902Y-114862547D02*
X174443664Y-114814928D01*
X174443664Y-114814928D02*
X174253188Y-114767309D01*
X174253188Y-114767309D02*
X174157950Y-114719690D01*
X174157950Y-114719690D02*
X174110331Y-114672071D01*
X174110331Y-114672071D02*
X174062712Y-114576833D01*
X174062712Y-114576833D02*
X174062712Y-114481595D01*
X174062712Y-114481595D02*
X174110331Y-114386357D01*
X174110331Y-114386357D02*
X174157950Y-114338738D01*
X174157950Y-114338738D02*
X174253188Y-114291119D01*
X174253188Y-114291119D02*
X174491283Y-114291119D01*
X174491283Y-114291119D02*
X174634140Y-114338738D01*
X175634140Y-115195880D02*
X175586521Y-115243500D01*
X175586521Y-115243500D02*
X175443664Y-115291119D01*
X175443664Y-115291119D02*
X175348426Y-115291119D01*
X175348426Y-115291119D02*
X175205569Y-115243500D01*
X175205569Y-115243500D02*
X175110331Y-115148261D01*
X175110331Y-115148261D02*
X175062712Y-115053023D01*
X175062712Y-115053023D02*
X175015093Y-114862547D01*
X175015093Y-114862547D02*
X175015093Y-114719690D01*
X175015093Y-114719690D02*
X175062712Y-114529214D01*
X175062712Y-114529214D02*
X175110331Y-114433976D01*
X175110331Y-114433976D02*
X175205569Y-114338738D01*
X175205569Y-114338738D02*
X175348426Y-114291119D01*
X175348426Y-114291119D02*
X175443664Y-114291119D01*
X175443664Y-114291119D02*
X175586521Y-114338738D01*
X175586521Y-114338738D02*
X175634140Y-114386357D01*
X176538902Y-115291119D02*
X176062712Y-115291119D01*
X176062712Y-115291119D02*
X176062712Y-114291119D01*
X173891759Y-90541119D02*
X173558426Y-90064928D01*
X173320331Y-90541119D02*
X173320331Y-89541119D01*
X173320331Y-89541119D02*
X173701283Y-89541119D01*
X173701283Y-89541119D02*
X173796521Y-89588738D01*
X173796521Y-89588738D02*
X173844140Y-89636357D01*
X173844140Y-89636357D02*
X173891759Y-89731595D01*
X173891759Y-89731595D02*
X173891759Y-89874452D01*
X173891759Y-89874452D02*
X173844140Y-89969690D01*
X173844140Y-89969690D02*
X173796521Y-90017309D01*
X173796521Y-90017309D02*
X173701283Y-90064928D01*
X173701283Y-90064928D02*
X173320331Y-90064928D01*
X174272712Y-90493500D02*
X174415569Y-90541119D01*
X174415569Y-90541119D02*
X174653664Y-90541119D01*
X174653664Y-90541119D02*
X174748902Y-90493500D01*
X174748902Y-90493500D02*
X174796521Y-90445880D01*
X174796521Y-90445880D02*
X174844140Y-90350642D01*
X174844140Y-90350642D02*
X174844140Y-90255404D01*
X174844140Y-90255404D02*
X174796521Y-90160166D01*
X174796521Y-90160166D02*
X174748902Y-90112547D01*
X174748902Y-90112547D02*
X174653664Y-90064928D01*
X174653664Y-90064928D02*
X174463188Y-90017309D01*
X174463188Y-90017309D02*
X174367950Y-89969690D01*
X174367950Y-89969690D02*
X174320331Y-89922071D01*
X174320331Y-89922071D02*
X174272712Y-89826833D01*
X174272712Y-89826833D02*
X174272712Y-89731595D01*
X174272712Y-89731595D02*
X174320331Y-89636357D01*
X174320331Y-89636357D02*
X174367950Y-89588738D01*
X174367950Y-89588738D02*
X174463188Y-89541119D01*
X174463188Y-89541119D02*
X174701283Y-89541119D01*
X174701283Y-89541119D02*
X174844140Y-89588738D01*
X175129855Y-89541119D02*
X175701283Y-89541119D01*
X175415569Y-90541119D02*
X175415569Y-89541119D01*
X173594140Y-91588738D02*
X173498902Y-91541119D01*
X173498902Y-91541119D02*
X173356045Y-91541119D01*
X173356045Y-91541119D02*
X173213188Y-91588738D01*
X173213188Y-91588738D02*
X173117950Y-91683976D01*
X173117950Y-91683976D02*
X173070331Y-91779214D01*
X173070331Y-91779214D02*
X173022712Y-91969690D01*
X173022712Y-91969690D02*
X173022712Y-92112547D01*
X173022712Y-92112547D02*
X173070331Y-92303023D01*
X173070331Y-92303023D02*
X173117950Y-92398261D01*
X173117950Y-92398261D02*
X173213188Y-92493500D01*
X173213188Y-92493500D02*
X173356045Y-92541119D01*
X173356045Y-92541119D02*
X173451283Y-92541119D01*
X173451283Y-92541119D02*
X173594140Y-92493500D01*
X173594140Y-92493500D02*
X173641759Y-92445880D01*
X173641759Y-92445880D02*
X173641759Y-92112547D01*
X173641759Y-92112547D02*
X173451283Y-92112547D01*
X174070331Y-92541119D02*
X174070331Y-91541119D01*
X174070331Y-91541119D02*
X174641759Y-92541119D01*
X174641759Y-92541119D02*
X174641759Y-91541119D01*
X175117950Y-92541119D02*
X175117950Y-91541119D01*
X175117950Y-91541119D02*
X175356045Y-91541119D01*
X175356045Y-91541119D02*
X175498902Y-91588738D01*
X175498902Y-91588738D02*
X175594140Y-91683976D01*
X175594140Y-91683976D02*
X175641759Y-91779214D01*
X175641759Y-91779214D02*
X175689378Y-91969690D01*
X175689378Y-91969690D02*
X175689378Y-92112547D01*
X175689378Y-92112547D02*
X175641759Y-92303023D01*
X175641759Y-92303023D02*
X175594140Y-92398261D01*
X175594140Y-92398261D02*
X175498902Y-92493500D01*
X175498902Y-92493500D02*
X175356045Y-92541119D01*
X175356045Y-92541119D02*
X175117950Y-92541119D01*
D10*
X104491466Y-130496115D02*
X104491466Y-129734211D01*
X104591466Y-117696115D02*
X104591466Y-116934211D01*
X146593884Y-110653208D02*
X147355789Y-110653208D01*
X146974836Y-111034161D02*
X146974836Y-110272256D01*
D12*
X173320331Y-88791119D02*
X173320331Y-87791119D01*
X173320331Y-87791119D02*
X173558426Y-87791119D01*
X173558426Y-87791119D02*
X173701283Y-87838738D01*
X173701283Y-87838738D02*
X173796521Y-87933976D01*
X173796521Y-87933976D02*
X173844140Y-88029214D01*
X173844140Y-88029214D02*
X173891759Y-88219690D01*
X173891759Y-88219690D02*
X173891759Y-88362547D01*
X173891759Y-88362547D02*
X173844140Y-88553023D01*
X173844140Y-88553023D02*
X173796521Y-88648261D01*
X173796521Y-88648261D02*
X173701283Y-88743500D01*
X173701283Y-88743500D02*
X173558426Y-88791119D01*
X173558426Y-88791119D02*
X173320331Y-88791119D01*
X174177474Y-87791119D02*
X174748902Y-87791119D01*
X174463188Y-88791119D02*
X174463188Y-87791119D01*
X175653664Y-88791119D02*
X175320331Y-88314928D01*
X175082236Y-88791119D02*
X175082236Y-87791119D01*
X175082236Y-87791119D02*
X175463188Y-87791119D01*
X175463188Y-87791119D02*
X175558426Y-87838738D01*
X175558426Y-87838738D02*
X175606045Y-87886357D01*
X175606045Y-87886357D02*
X175653664Y-87981595D01*
X175653664Y-87981595D02*
X175653664Y-88124452D01*
X175653664Y-88124452D02*
X175606045Y-88219690D01*
X175606045Y-88219690D02*
X175558426Y-88267309D01*
X175558426Y-88267309D02*
X175463188Y-88314928D01*
X175463188Y-88314928D02*
X175082236Y-88314928D01*
D11*
X167310559Y-129343481D02*
X167310559Y-129581576D01*
X167310559Y-129581576D02*
X167548654Y-129605385D01*
X167548654Y-129605385D02*
X167524845Y-129581576D01*
X167524845Y-129581576D02*
X167501035Y-129533957D01*
X167501035Y-129533957D02*
X167501035Y-129414909D01*
X167501035Y-129414909D02*
X167524845Y-129367290D01*
X167524845Y-129367290D02*
X167548654Y-129343481D01*
X167548654Y-129343481D02*
X167596273Y-129319671D01*
X167596273Y-129319671D02*
X167715321Y-129319671D01*
X167715321Y-129319671D02*
X167762940Y-129343481D01*
X167762940Y-129343481D02*
X167786750Y-129367290D01*
X167786750Y-129367290D02*
X167810559Y-129414909D01*
X167810559Y-129414909D02*
X167810559Y-129533957D01*
X167810559Y-129533957D02*
X167786750Y-129581576D01*
X167786750Y-129581576D02*
X167762940Y-129605385D01*
X167310559Y-129176814D02*
X167810559Y-129010148D01*
X167810559Y-129010148D02*
X167310559Y-128843481D01*
D12*
X173641759Y-94791119D02*
X173308426Y-94314928D01*
X173070331Y-94791119D02*
X173070331Y-93791119D01*
X173070331Y-93791119D02*
X173451283Y-93791119D01*
X173451283Y-93791119D02*
X173546521Y-93838738D01*
X173546521Y-93838738D02*
X173594140Y-93886357D01*
X173594140Y-93886357D02*
X173641759Y-93981595D01*
X173641759Y-93981595D02*
X173641759Y-94124452D01*
X173641759Y-94124452D02*
X173594140Y-94219690D01*
X173594140Y-94219690D02*
X173546521Y-94267309D01*
X173546521Y-94267309D02*
X173451283Y-94314928D01*
X173451283Y-94314928D02*
X173070331Y-94314928D01*
X173975093Y-93791119D02*
X174641759Y-94791119D01*
X174641759Y-93791119D02*
X173975093Y-94791119D01*
X175022712Y-94791119D02*
X175022712Y-93791119D01*
X175022712Y-93791119D02*
X175260807Y-93791119D01*
X175260807Y-93791119D02*
X175403664Y-93838738D01*
X175403664Y-93838738D02*
X175498902Y-93933976D01*
X175498902Y-93933976D02*
X175546521Y-94029214D01*
X175546521Y-94029214D02*
X175594140Y-94219690D01*
X175594140Y-94219690D02*
X175594140Y-94362547D01*
X175594140Y-94362547D02*
X175546521Y-94553023D01*
X175546521Y-94553023D02*
X175498902Y-94648261D01*
X175498902Y-94648261D02*
X175403664Y-94743500D01*
X175403664Y-94743500D02*
X175260807Y-94791119D01*
X175260807Y-94791119D02*
X175022712Y-94791119D01*
D10*
X128303884Y-132461466D02*
X129065789Y-132461466D01*
X146593884Y-119153208D02*
X147355789Y-119153208D01*
X146974836Y-119534161D02*
X146974836Y-118772256D01*
X126093884Y-87653208D02*
X126855789Y-87653208D01*
X152427217Y-131010351D02*
X152570074Y-131057970D01*
X152570074Y-131057970D02*
X152617693Y-131105589D01*
X152617693Y-131105589D02*
X152665312Y-131200827D01*
X152665312Y-131200827D02*
X152665312Y-131343684D01*
X152665312Y-131343684D02*
X152617693Y-131438922D01*
X152617693Y-131438922D02*
X152570074Y-131486542D01*
X152570074Y-131486542D02*
X152474836Y-131534161D01*
X152474836Y-131534161D02*
X152093884Y-131534161D01*
X152093884Y-131534161D02*
X152093884Y-130534161D01*
X152093884Y-130534161D02*
X152427217Y-130534161D01*
X152427217Y-130534161D02*
X152522455Y-130581780D01*
X152522455Y-130581780D02*
X152570074Y-130629399D01*
X152570074Y-130629399D02*
X152617693Y-130724637D01*
X152617693Y-130724637D02*
X152617693Y-130819875D01*
X152617693Y-130819875D02*
X152570074Y-130915113D01*
X152570074Y-130915113D02*
X152522455Y-130962732D01*
X152522455Y-130962732D02*
X152427217Y-131010351D01*
X152427217Y-131010351D02*
X152093884Y-131010351D01*
X153284360Y-130534161D02*
X153474836Y-130534161D01*
X153474836Y-130534161D02*
X153570074Y-130581780D01*
X153570074Y-130581780D02*
X153665312Y-130677018D01*
X153665312Y-130677018D02*
X153712931Y-130867494D01*
X153712931Y-130867494D02*
X153712931Y-131200827D01*
X153712931Y-131200827D02*
X153665312Y-131391303D01*
X153665312Y-131391303D02*
X153570074Y-131486542D01*
X153570074Y-131486542D02*
X153474836Y-131534161D01*
X153474836Y-131534161D02*
X153284360Y-131534161D01*
X153284360Y-131534161D02*
X153189122Y-131486542D01*
X153189122Y-131486542D02*
X153093884Y-131391303D01*
X153093884Y-131391303D02*
X153046265Y-131200827D01*
X153046265Y-131200827D02*
X153046265Y-130867494D01*
X153046265Y-130867494D02*
X153093884Y-130677018D01*
X153093884Y-130677018D02*
X153189122Y-130581780D01*
X153189122Y-130581780D02*
X153284360Y-130534161D01*
X154331979Y-130534161D02*
X154522455Y-130534161D01*
X154522455Y-130534161D02*
X154617693Y-130581780D01*
X154617693Y-130581780D02*
X154712931Y-130677018D01*
X154712931Y-130677018D02*
X154760550Y-130867494D01*
X154760550Y-130867494D02*
X154760550Y-131200827D01*
X154760550Y-131200827D02*
X154712931Y-131391303D01*
X154712931Y-131391303D02*
X154617693Y-131486542D01*
X154617693Y-131486542D02*
X154522455Y-131534161D01*
X154522455Y-131534161D02*
X154331979Y-131534161D01*
X154331979Y-131534161D02*
X154236741Y-131486542D01*
X154236741Y-131486542D02*
X154141503Y-131391303D01*
X154141503Y-131391303D02*
X154093884Y-131200827D01*
X154093884Y-131200827D02*
X154093884Y-130867494D01*
X154093884Y-130867494D02*
X154141503Y-130677018D01*
X154141503Y-130677018D02*
X154236741Y-130581780D01*
X154236741Y-130581780D02*
X154331979Y-130534161D01*
X155046265Y-130534161D02*
X155617693Y-130534161D01*
X155331979Y-131534161D02*
X155331979Y-130534161D01*
X146593884Y-116653208D02*
X147355789Y-116653208D01*
D12*
X174015093Y-122041119D02*
X174634140Y-122041119D01*
X174634140Y-122041119D02*
X174300807Y-122422071D01*
X174300807Y-122422071D02*
X174443664Y-122422071D01*
X174443664Y-122422071D02*
X174538902Y-122469690D01*
X174538902Y-122469690D02*
X174586521Y-122517309D01*
X174586521Y-122517309D02*
X174634140Y-122612547D01*
X174634140Y-122612547D02*
X174634140Y-122850642D01*
X174634140Y-122850642D02*
X174586521Y-122945880D01*
X174586521Y-122945880D02*
X174538902Y-122993500D01*
X174538902Y-122993500D02*
X174443664Y-123041119D01*
X174443664Y-123041119D02*
X174157950Y-123041119D01*
X174157950Y-123041119D02*
X174062712Y-122993500D01*
X174062712Y-122993500D02*
X174015093Y-122945880D01*
X174919855Y-122041119D02*
X175253188Y-123041119D01*
X175253188Y-123041119D02*
X175586521Y-122041119D01*
X175824617Y-122041119D02*
X176443664Y-122041119D01*
X176443664Y-122041119D02*
X176110331Y-122422071D01*
X176110331Y-122422071D02*
X176253188Y-122422071D01*
X176253188Y-122422071D02*
X176348426Y-122469690D01*
X176348426Y-122469690D02*
X176396045Y-122517309D01*
X176396045Y-122517309D02*
X176443664Y-122612547D01*
X176443664Y-122612547D02*
X176443664Y-122850642D01*
X176443664Y-122850642D02*
X176396045Y-122945880D01*
X176396045Y-122945880D02*
X176348426Y-122993500D01*
X176348426Y-122993500D02*
X176253188Y-123041119D01*
X176253188Y-123041119D02*
X175967474Y-123041119D01*
X175967474Y-123041119D02*
X175872236Y-122993500D01*
X175872236Y-122993500D02*
X175824617Y-122945880D01*
D10*
X104103884Y-108091466D02*
X104865789Y-108091466D01*
X104484836Y-108472419D02*
X104484836Y-107710514D01*
X105103884Y-82191466D02*
X105865789Y-82191466D01*
X105484836Y-82572419D02*
X105484836Y-81810514D01*
G36*
X114066137Y-75213907D02*
G01*
X114066137Y-75174829D01*
X114119443Y-75172752D01*
X114181834Y-75167175D01*
X114214764Y-75157677D01*
X114229719Y-75146680D01*
X114237328Y-75127355D01*
X114244299Y-75073709D01*
X114247182Y-74958002D01*
X114251945Y-74577105D01*
X114250336Y-74404729D01*
X114247854Y-74366446D01*
X114243610Y-74357617D01*
X114235580Y-74354844D01*
X114204134Y-74365774D01*
X114044949Y-74441062D01*
X114010083Y-74458831D01*
X114003319Y-74456177D01*
X113999825Y-74447229D01*
X113995062Y-74380917D01*
X114137202Y-74334223D01*
X114258509Y-74286102D01*
X114361243Y-74236936D01*
X114381027Y-74245790D01*
X114378279Y-74322665D01*
X114371441Y-74715286D01*
X114366678Y-74983342D01*
X114369306Y-75075627D01*
X114374860Y-75116699D01*
X114386388Y-75145235D01*
X114401177Y-75160296D01*
X114425734Y-75167899D01*
X114488311Y-75172691D01*
X114550471Y-75174829D01*
X114550471Y-75213907D01*
X114307266Y-75210000D01*
X114066137Y-75213907D01*
G37*
G36*
X115240396Y-74251530D02*
G01*
X115240396Y-74263070D01*
X115161438Y-74288967D01*
X115091877Y-74322128D01*
X115030652Y-74362355D01*
X114975502Y-74410398D01*
X114929984Y-74462607D01*
X114893326Y-74519281D01*
X114865516Y-74580776D01*
X114845049Y-74651649D01*
X114832571Y-74733360D01*
X114909752Y-74676207D01*
X114948134Y-74649192D01*
X114979422Y-74634502D01*
X115012824Y-74626717D01*
X115056603Y-74623817D01*
X115114053Y-74628577D01*
X115162384Y-74642017D01*
X115203273Y-74663440D01*
X115237953Y-74692937D01*
X115265385Y-74729157D01*
X115285684Y-74772696D01*
X115298607Y-74825025D01*
X115303227Y-74888026D01*
X115297217Y-74957652D01*
X115279731Y-75020354D01*
X115250966Y-75077460D01*
X115210293Y-75129949D01*
X115160539Y-75174225D01*
X115107405Y-75204920D01*
X115049996Y-75223286D01*
X114986994Y-75229539D01*
X114924856Y-75223269D01*
X114870151Y-75205096D01*
X114821291Y-75175078D01*
X114777250Y-75132086D01*
X114743623Y-75081771D01*
X114718265Y-75020073D01*
X114701887Y-74944655D01*
X114699434Y-74906467D01*
X114824389Y-74906467D01*
X114828517Y-74975780D01*
X114839975Y-75033001D01*
X114857702Y-75080110D01*
X114881114Y-75118775D01*
X114916828Y-75154570D01*
X114958266Y-75175471D01*
X115007449Y-75182644D01*
X115055597Y-75175934D01*
X115095932Y-75156498D01*
X115130425Y-75123538D01*
X115159173Y-75074922D01*
X115177669Y-75013117D01*
X115184403Y-74934616D01*
X115178046Y-74861532D01*
X115160855Y-74806099D01*
X115134516Y-74764317D01*
X115097918Y-74731930D01*
X115054884Y-74712599D01*
X115003358Y-74705882D01*
X114952552Y-74712421D01*
X114905355Y-74732016D01*
X114865451Y-74762055D01*
X114839410Y-74797229D01*
X114829084Y-74832707D01*
X114824389Y-74906467D01*
X114699434Y-74906467D01*
X114695978Y-74852672D01*
X114702562Y-74753572D01*
X114721728Y-74662914D01*
X114753009Y-74579426D01*
X114796837Y-74501905D01*
X114853902Y-74430067D01*
X114925444Y-74363393D01*
X115005747Y-74307259D01*
X115093779Y-74262556D01*
X115190509Y-74229120D01*
X115240396Y-74251530D01*
G37*
X120593884Y-76653208D02*
X121355789Y-76653208D01*
X120974836Y-77034161D02*
X120974836Y-76272256D01*
X120593884Y-75534161D02*
X120593884Y-74534161D01*
X120593884Y-74534161D02*
X120974836Y-74534161D01*
X120974836Y-74534161D02*
X121070074Y-74581780D01*
X121070074Y-74581780D02*
X121117693Y-74629399D01*
X121117693Y-74629399D02*
X121165312Y-74724637D01*
X121165312Y-74724637D02*
X121165312Y-74867494D01*
X121165312Y-74867494D02*
X121117693Y-74962732D01*
X121117693Y-74962732D02*
X121070074Y-75010351D01*
X121070074Y-75010351D02*
X120974836Y-75057970D01*
X120974836Y-75057970D02*
X120593884Y-75057970D01*
X121784360Y-74534161D02*
X121974836Y-74534161D01*
X121974836Y-74534161D02*
X122070074Y-74581780D01*
X122070074Y-74581780D02*
X122165312Y-74677018D01*
X122165312Y-74677018D02*
X122212931Y-74867494D01*
X122212931Y-74867494D02*
X122212931Y-75200827D01*
X122212931Y-75200827D02*
X122165312Y-75391303D01*
X122165312Y-75391303D02*
X122070074Y-75486542D01*
X122070074Y-75486542D02*
X121974836Y-75534161D01*
X121974836Y-75534161D02*
X121784360Y-75534161D01*
X121784360Y-75534161D02*
X121689122Y-75486542D01*
X121689122Y-75486542D02*
X121593884Y-75391303D01*
X121593884Y-75391303D02*
X121546265Y-75200827D01*
X121546265Y-75200827D02*
X121546265Y-74867494D01*
X121546265Y-74867494D02*
X121593884Y-74677018D01*
X121593884Y-74677018D02*
X121689122Y-74581780D01*
X121689122Y-74581780D02*
X121784360Y-74534161D01*
X122546265Y-74534161D02*
X122784360Y-75534161D01*
X122784360Y-75534161D02*
X122974836Y-74819875D01*
X122974836Y-74819875D02*
X123165312Y-75534161D01*
X123165312Y-75534161D02*
X123403408Y-74534161D01*
X123784360Y-75010351D02*
X124117693Y-75010351D01*
X124260550Y-75534161D02*
X123784360Y-75534161D01*
X123784360Y-75534161D02*
X123784360Y-74534161D01*
X123784360Y-74534161D02*
X124260550Y-74534161D01*
X125260550Y-75534161D02*
X124927217Y-75057970D01*
X124689122Y-75534161D02*
X124689122Y-74534161D01*
X124689122Y-74534161D02*
X125070074Y-74534161D01*
X125070074Y-74534161D02*
X125165312Y-74581780D01*
X125165312Y-74581780D02*
X125212931Y-74629399D01*
X125212931Y-74629399D02*
X125260550Y-74724637D01*
X125260550Y-74724637D02*
X125260550Y-74867494D01*
X125260550Y-74867494D02*
X125212931Y-74962732D01*
X125212931Y-74962732D02*
X125165312Y-75010351D01*
X125165312Y-75010351D02*
X125070074Y-75057970D01*
X125070074Y-75057970D02*
X124689122Y-75057970D01*
X125593884Y-102403208D02*
X126355789Y-102403208D01*
D12*
X172927474Y-95791119D02*
X173498902Y-95791119D01*
X173213188Y-96791119D02*
X173213188Y-95791119D01*
X173736998Y-95791119D02*
X174403664Y-96791119D01*
X174403664Y-95791119D02*
X173736998Y-96791119D01*
X174784617Y-96791119D02*
X174784617Y-95791119D01*
X174784617Y-95791119D02*
X175022712Y-95791119D01*
X175022712Y-95791119D02*
X175165569Y-95838738D01*
X175165569Y-95838738D02*
X175260807Y-95933976D01*
X175260807Y-95933976D02*
X175308426Y-96029214D01*
X175308426Y-96029214D02*
X175356045Y-96219690D01*
X175356045Y-96219690D02*
X175356045Y-96362547D01*
X175356045Y-96362547D02*
X175308426Y-96553023D01*
X175308426Y-96553023D02*
X175260807Y-96648261D01*
X175260807Y-96648261D02*
X175165569Y-96743500D01*
X175165569Y-96743500D02*
X175022712Y-96791119D01*
X175022712Y-96791119D02*
X174784617Y-96791119D01*
D10*
X105824800Y-88443734D02*
X105872419Y-88300877D01*
X105872419Y-88300877D02*
X105872419Y-88062782D01*
X105872419Y-88062782D02*
X105824800Y-87967544D01*
X105824800Y-87967544D02*
X105777180Y-87919925D01*
X105777180Y-87919925D02*
X105681942Y-87872306D01*
X105681942Y-87872306D02*
X105586704Y-87872306D01*
X105586704Y-87872306D02*
X105491466Y-87919925D01*
X105491466Y-87919925D02*
X105443847Y-87967544D01*
X105443847Y-87967544D02*
X105396228Y-88062782D01*
X105396228Y-88062782D02*
X105348609Y-88253258D01*
X105348609Y-88253258D02*
X105300990Y-88348496D01*
X105300990Y-88348496D02*
X105253371Y-88396115D01*
X105253371Y-88396115D02*
X105158133Y-88443734D01*
X105158133Y-88443734D02*
X105062895Y-88443734D01*
X105062895Y-88443734D02*
X104967657Y-88396115D01*
X104967657Y-88396115D02*
X104920038Y-88348496D01*
X104920038Y-88348496D02*
X104872419Y-88253258D01*
X104872419Y-88253258D02*
X104872419Y-88015163D01*
X104872419Y-88015163D02*
X104920038Y-87872306D01*
X105824800Y-87062782D02*
X105872419Y-87158020D01*
X105872419Y-87158020D02*
X105872419Y-87348496D01*
X105872419Y-87348496D02*
X105824800Y-87443734D01*
X105824800Y-87443734D02*
X105729561Y-87491353D01*
X105729561Y-87491353D02*
X105348609Y-87491353D01*
X105348609Y-87491353D02*
X105253371Y-87443734D01*
X105253371Y-87443734D02*
X105205752Y-87348496D01*
X105205752Y-87348496D02*
X105205752Y-87158020D01*
X105205752Y-87158020D02*
X105253371Y-87062782D01*
X105253371Y-87062782D02*
X105348609Y-87015163D01*
X105348609Y-87015163D02*
X105443847Y-87015163D01*
X105443847Y-87015163D02*
X105539085Y-87491353D01*
X105205752Y-86586591D02*
X105872419Y-86586591D01*
X105300990Y-86586591D02*
X105253371Y-86538972D01*
X105253371Y-86538972D02*
X105205752Y-86443734D01*
X105205752Y-86443734D02*
X105205752Y-86300877D01*
X105205752Y-86300877D02*
X105253371Y-86205639D01*
X105253371Y-86205639D02*
X105348609Y-86158020D01*
X105348609Y-86158020D02*
X105872419Y-86158020D01*
X105824800Y-85729448D02*
X105872419Y-85634210D01*
X105872419Y-85634210D02*
X105872419Y-85443734D01*
X105872419Y-85443734D02*
X105824800Y-85348496D01*
X105824800Y-85348496D02*
X105729561Y-85300877D01*
X105729561Y-85300877D02*
X105681942Y-85300877D01*
X105681942Y-85300877D02*
X105586704Y-85348496D01*
X105586704Y-85348496D02*
X105539085Y-85443734D01*
X105539085Y-85443734D02*
X105539085Y-85586591D01*
X105539085Y-85586591D02*
X105491466Y-85681829D01*
X105491466Y-85681829D02*
X105396228Y-85729448D01*
X105396228Y-85729448D02*
X105348609Y-85729448D01*
X105348609Y-85729448D02*
X105253371Y-85681829D01*
X105253371Y-85681829D02*
X105205752Y-85586591D01*
X105205752Y-85586591D02*
X105205752Y-85443734D01*
X105205752Y-85443734D02*
X105253371Y-85348496D01*
X105872419Y-84729448D02*
X105824800Y-84824686D01*
X105824800Y-84824686D02*
X105777180Y-84872305D01*
X105777180Y-84872305D02*
X105681942Y-84919924D01*
X105681942Y-84919924D02*
X105396228Y-84919924D01*
X105396228Y-84919924D02*
X105300990Y-84872305D01*
X105300990Y-84872305D02*
X105253371Y-84824686D01*
X105253371Y-84824686D02*
X105205752Y-84729448D01*
X105205752Y-84729448D02*
X105205752Y-84586591D01*
X105205752Y-84586591D02*
X105253371Y-84491353D01*
X105253371Y-84491353D02*
X105300990Y-84443734D01*
X105300990Y-84443734D02*
X105396228Y-84396115D01*
X105396228Y-84396115D02*
X105681942Y-84396115D01*
X105681942Y-84396115D02*
X105777180Y-84443734D01*
X105777180Y-84443734D02*
X105824800Y-84491353D01*
X105824800Y-84491353D02*
X105872419Y-84586591D01*
X105872419Y-84586591D02*
X105872419Y-84729448D01*
X105872419Y-83967543D02*
X105205752Y-83967543D01*
X105396228Y-83967543D02*
X105300990Y-83919924D01*
X105300990Y-83919924D02*
X105253371Y-83872305D01*
X105253371Y-83872305D02*
X105205752Y-83777067D01*
X105205752Y-83777067D02*
X105205752Y-83681829D01*
X146593884Y-113403208D02*
X147355789Y-113403208D01*
X117343884Y-114403208D02*
X118105789Y-114403208D01*
D12*
X174634140Y-119338738D02*
X174538902Y-119291119D01*
X174538902Y-119291119D02*
X174396045Y-119291119D01*
X174396045Y-119291119D02*
X174253188Y-119338738D01*
X174253188Y-119338738D02*
X174157950Y-119433976D01*
X174157950Y-119433976D02*
X174110331Y-119529214D01*
X174110331Y-119529214D02*
X174062712Y-119719690D01*
X174062712Y-119719690D02*
X174062712Y-119862547D01*
X174062712Y-119862547D02*
X174110331Y-120053023D01*
X174110331Y-120053023D02*
X174157950Y-120148261D01*
X174157950Y-120148261D02*
X174253188Y-120243500D01*
X174253188Y-120243500D02*
X174396045Y-120291119D01*
X174396045Y-120291119D02*
X174491283Y-120291119D01*
X174491283Y-120291119D02*
X174634140Y-120243500D01*
X174634140Y-120243500D02*
X174681759Y-120195880D01*
X174681759Y-120195880D02*
X174681759Y-119862547D01*
X174681759Y-119862547D02*
X174491283Y-119862547D01*
X175110331Y-120291119D02*
X175110331Y-119291119D01*
X175110331Y-119291119D02*
X175681759Y-120291119D01*
X175681759Y-120291119D02*
X175681759Y-119291119D01*
X176157950Y-120291119D02*
X176157950Y-119291119D01*
X176157950Y-119291119D02*
X176396045Y-119291119D01*
X176396045Y-119291119D02*
X176538902Y-119338738D01*
X176538902Y-119338738D02*
X176634140Y-119433976D01*
X176634140Y-119433976D02*
X176681759Y-119529214D01*
X176681759Y-119529214D02*
X176729378Y-119719690D01*
X176729378Y-119719690D02*
X176729378Y-119862547D01*
X176729378Y-119862547D02*
X176681759Y-120053023D01*
X176681759Y-120053023D02*
X176634140Y-120148261D01*
X176634140Y-120148261D02*
X176538902Y-120243500D01*
X176538902Y-120243500D02*
X176396045Y-120291119D01*
X176396045Y-120291119D02*
X176157950Y-120291119D01*
D10*
X133343884Y-97653208D02*
X134105789Y-97653208D01*
G36*
X112848474Y-74024432D02*
G01*
X113097510Y-74361304D01*
X113294248Y-74617117D01*
X113343641Y-74674948D01*
X113363857Y-74692131D01*
X113399760Y-74701381D01*
X113426413Y-74701381D01*
X113426413Y-74765861D01*
X113277853Y-74760000D01*
X113154846Y-74765861D01*
X112792145Y-74275025D01*
X112687420Y-74141406D01*
X112574891Y-74010052D01*
X112585150Y-73975247D01*
X112673260Y-73980376D01*
X112758790Y-73974185D01*
X112830443Y-73956806D01*
X112890607Y-73929425D01*
X112941164Y-73892357D01*
X112983121Y-73845256D01*
X113013085Y-73791320D01*
X113031591Y-73729198D01*
X113038067Y-73656968D01*
X113028263Y-73572591D01*
X113000744Y-73505169D01*
X112956093Y-73450797D01*
X112897126Y-73411367D01*
X112820002Y-73385939D01*
X112719422Y-73376608D01*
X112612552Y-73386677D01*
X112503176Y-73417641D01*
X112494074Y-73583290D01*
X112490902Y-73765962D01*
X112490902Y-74260828D01*
X112497641Y-74586205D01*
X112508305Y-74661997D01*
X112524726Y-74681368D01*
X112558777Y-74695447D01*
X112621053Y-74701381D01*
X112700921Y-74701381D01*
X112700921Y-74765861D01*
X112419095Y-74760000D01*
X112100450Y-74765861D01*
X112100450Y-74701381D01*
X112177295Y-74701381D01*
X112234546Y-74695670D01*
X112266238Y-74682006D01*
X112281800Y-74662913D01*
X112291808Y-74587687D01*
X112298195Y-74258172D01*
X112298195Y-73764679D01*
X112290959Y-73478666D01*
X112279235Y-73408756D01*
X112261854Y-73390414D01*
X112224810Y-73376640D01*
X112155771Y-73370746D01*
X112100450Y-73370746D01*
X112100450Y-73306266D01*
X112391434Y-73312128D01*
X112586157Y-73306266D01*
X112798282Y-73300404D01*
X112917157Y-73305492D01*
X113004580Y-73318826D01*
X113067193Y-73337957D01*
X113124911Y-73367621D01*
X113170834Y-73403749D01*
X113206595Y-73446492D01*
X113232607Y-73495724D01*
X113248635Y-73551750D01*
X113254222Y-73616119D01*
X113247725Y-73686465D01*
X113228534Y-73751837D01*
X113196401Y-73813454D01*
X113150175Y-73872207D01*
X113095407Y-73921106D01*
X113028252Y-73963009D01*
X112946751Y-73997701D01*
X112848474Y-74024432D01*
G37*
D12*
X174384140Y-107838738D02*
X174288902Y-107791119D01*
X174288902Y-107791119D02*
X174146045Y-107791119D01*
X174146045Y-107791119D02*
X174003188Y-107838738D01*
X174003188Y-107838738D02*
X173907950Y-107933976D01*
X173907950Y-107933976D02*
X173860331Y-108029214D01*
X173860331Y-108029214D02*
X173812712Y-108219690D01*
X173812712Y-108219690D02*
X173812712Y-108362547D01*
X173812712Y-108362547D02*
X173860331Y-108553023D01*
X173860331Y-108553023D02*
X173907950Y-108648261D01*
X173907950Y-108648261D02*
X174003188Y-108743500D01*
X174003188Y-108743500D02*
X174146045Y-108791119D01*
X174146045Y-108791119D02*
X174241283Y-108791119D01*
X174241283Y-108791119D02*
X174384140Y-108743500D01*
X174384140Y-108743500D02*
X174431759Y-108695880D01*
X174431759Y-108695880D02*
X174431759Y-108362547D01*
X174431759Y-108362547D02*
X174241283Y-108362547D01*
X174860331Y-108791119D02*
X174860331Y-107791119D01*
X174860331Y-107791119D02*
X175431759Y-108791119D01*
X175431759Y-108791119D02*
X175431759Y-107791119D01*
X175907950Y-108791119D02*
X175907950Y-107791119D01*
X175907950Y-107791119D02*
X176146045Y-107791119D01*
X176146045Y-107791119D02*
X176288902Y-107838738D01*
X176288902Y-107838738D02*
X176384140Y-107933976D01*
X176384140Y-107933976D02*
X176431759Y-108029214D01*
X176431759Y-108029214D02*
X176479378Y-108219690D01*
X176479378Y-108219690D02*
X176479378Y-108362547D01*
X176479378Y-108362547D02*
X176431759Y-108553023D01*
X176431759Y-108553023D02*
X176384140Y-108648261D01*
X176384140Y-108648261D02*
X176288902Y-108743500D01*
X176288902Y-108743500D02*
X176146045Y-108791119D01*
X176146045Y-108791119D02*
X175907950Y-108791119D01*
D10*
G36*
X113875662Y-73698197D02*
G01*
X113863388Y-73949890D01*
X113859267Y-74222098D01*
X113857252Y-74310026D01*
X113857252Y-74920846D01*
X113861193Y-75074519D01*
X113867510Y-75111173D01*
X113891929Y-75132120D01*
X113952506Y-75147992D01*
X114025230Y-75157243D01*
X114025230Y-75215861D01*
X113802938Y-75210000D01*
X113673795Y-75215861D01*
X113685061Y-75021871D01*
X113462677Y-75210732D01*
X113377480Y-75232753D01*
X113308988Y-75239309D01*
X113225241Y-75231011D01*
X113150159Y-75206801D01*
X113081839Y-75166599D01*
X113019010Y-75108883D01*
X112969442Y-75040730D01*
X112933137Y-74961297D01*
X112910303Y-74868450D01*
X112902232Y-74759463D01*
X112905893Y-74698921D01*
X113080560Y-74698921D01*
X113087191Y-74795397D01*
X113105776Y-74876202D01*
X113134961Y-74943966D01*
X113174257Y-75000806D01*
X113225023Y-75049785D01*
X113279237Y-75083474D01*
X113337845Y-75103531D01*
X113402319Y-75110348D01*
X113455531Y-75105240D01*
X113505381Y-75090083D01*
X113552803Y-75064553D01*
X113612495Y-75011689D01*
X113653278Y-74945759D01*
X113669231Y-74895574D01*
X113680627Y-74821538D01*
X113685061Y-74716324D01*
X113685061Y-74465364D01*
X113611100Y-74397362D01*
X113537965Y-74351242D01*
X113459732Y-74322602D01*
X113378688Y-74313140D01*
X113313563Y-74319549D01*
X113256886Y-74338016D01*
X113206922Y-74368313D01*
X113162534Y-74411417D01*
X113128819Y-74462052D01*
X113103228Y-74525011D01*
X113086592Y-74602910D01*
X113080560Y-74698921D01*
X112905893Y-74698921D01*
X112907691Y-74669191D01*
X112923079Y-74592127D01*
X112947295Y-74526272D01*
X112981342Y-74464562D01*
X113017213Y-74418757D01*
X113054822Y-74386046D01*
X113126954Y-74341054D01*
X113249545Y-74275587D01*
X113350484Y-74236934D01*
X113437124Y-74225212D01*
X113495707Y-74229018D01*
X113557474Y-74240783D01*
X113619301Y-74260007D01*
X113685061Y-74288319D01*
X113685061Y-73917924D01*
X113680350Y-73859896D01*
X113670681Y-73837141D01*
X113650867Y-73825865D01*
X113605102Y-73820746D01*
X113516991Y-73820746D01*
X113516991Y-73762128D01*
X113637338Y-73747918D01*
X113750489Y-73722431D01*
X113857252Y-73685924D01*
X113875662Y-73698197D01*
G37*
X124093884Y-114653208D02*
X124855789Y-114653208D01*
X124474836Y-115034161D02*
X124474836Y-114272256D01*
X161593884Y-103153208D02*
X162355789Y-103153208D01*
X161974836Y-103534161D02*
X161974836Y-102772256D01*
X125403884Y-132261466D02*
X126165789Y-132261466D01*
X125784836Y-132642419D02*
X125784836Y-131880514D01*
D12*
X174296521Y-102791119D02*
X173820331Y-102791119D01*
X173820331Y-102791119D02*
X173772712Y-103267309D01*
X173772712Y-103267309D02*
X173820331Y-103219690D01*
X173820331Y-103219690D02*
X173915569Y-103172071D01*
X173915569Y-103172071D02*
X174153664Y-103172071D01*
X174153664Y-103172071D02*
X174248902Y-103219690D01*
X174248902Y-103219690D02*
X174296521Y-103267309D01*
X174296521Y-103267309D02*
X174344140Y-103362547D01*
X174344140Y-103362547D02*
X174344140Y-103600642D01*
X174344140Y-103600642D02*
X174296521Y-103695880D01*
X174296521Y-103695880D02*
X174248902Y-103743500D01*
X174248902Y-103743500D02*
X174153664Y-103791119D01*
X174153664Y-103791119D02*
X173915569Y-103791119D01*
X173915569Y-103791119D02*
X173820331Y-103743500D01*
X173820331Y-103743500D02*
X173772712Y-103695880D01*
X174629855Y-102791119D02*
X174963188Y-103791119D01*
X174963188Y-103791119D02*
X175296521Y-102791119D01*
D11*
X163334369Y-130819671D02*
X163310559Y-130867290D01*
X163310559Y-130867290D02*
X163310559Y-130938719D01*
X163310559Y-130938719D02*
X163334369Y-131010147D01*
X163334369Y-131010147D02*
X163381988Y-131057766D01*
X163381988Y-131057766D02*
X163429607Y-131081576D01*
X163429607Y-131081576D02*
X163524845Y-131105385D01*
X163524845Y-131105385D02*
X163596273Y-131105385D01*
X163596273Y-131105385D02*
X163691511Y-131081576D01*
X163691511Y-131081576D02*
X163739130Y-131057766D01*
X163739130Y-131057766D02*
X163786750Y-131010147D01*
X163786750Y-131010147D02*
X163810559Y-130938719D01*
X163810559Y-130938719D02*
X163810559Y-130891100D01*
X163810559Y-130891100D02*
X163786750Y-130819671D01*
X163786750Y-130819671D02*
X163762940Y-130795862D01*
X163762940Y-130795862D02*
X163596273Y-130795862D01*
X163596273Y-130795862D02*
X163596273Y-130891100D01*
X163810559Y-130581576D02*
X163310559Y-130581576D01*
X163310559Y-130581576D02*
X163310559Y-130391100D01*
X163310559Y-130391100D02*
X163334369Y-130343481D01*
X163334369Y-130343481D02*
X163358178Y-130319671D01*
X163358178Y-130319671D02*
X163405797Y-130295862D01*
X163405797Y-130295862D02*
X163477226Y-130295862D01*
X163477226Y-130295862D02*
X163524845Y-130319671D01*
X163524845Y-130319671D02*
X163548654Y-130343481D01*
X163548654Y-130343481D02*
X163572464Y-130391100D01*
X163572464Y-130391100D02*
X163572464Y-130581576D01*
X163810559Y-130081576D02*
X163310559Y-130081576D01*
X163310559Y-129748243D02*
X163310559Y-129653005D01*
X163310559Y-129653005D02*
X163334369Y-129605386D01*
X163334369Y-129605386D02*
X163381988Y-129557767D01*
X163381988Y-129557767D02*
X163477226Y-129533957D01*
X163477226Y-129533957D02*
X163643892Y-129533957D01*
X163643892Y-129533957D02*
X163739130Y-129557767D01*
X163739130Y-129557767D02*
X163786750Y-129605386D01*
X163786750Y-129605386D02*
X163810559Y-129653005D01*
X163810559Y-129653005D02*
X163810559Y-129748243D01*
X163810559Y-129748243D02*
X163786750Y-129795862D01*
X163786750Y-129795862D02*
X163739130Y-129843481D01*
X163739130Y-129843481D02*
X163643892Y-129867290D01*
X163643892Y-129867290D02*
X163477226Y-129867290D01*
X163477226Y-129867290D02*
X163381988Y-129843481D01*
X163381988Y-129843481D02*
X163334369Y-129795862D01*
X163334369Y-129795862D02*
X163310559Y-129748243D01*
X163477226Y-128724433D02*
X163810559Y-128724433D01*
X163286750Y-128843481D02*
X163643892Y-128962528D01*
X163643892Y-128962528D02*
X163643892Y-128653005D01*
X165334369Y-129819671D02*
X165310559Y-129867290D01*
X165310559Y-129867290D02*
X165310559Y-129938719D01*
X165310559Y-129938719D02*
X165334369Y-130010147D01*
X165334369Y-130010147D02*
X165381988Y-130057766D01*
X165381988Y-130057766D02*
X165429607Y-130081576D01*
X165429607Y-130081576D02*
X165524845Y-130105385D01*
X165524845Y-130105385D02*
X165596273Y-130105385D01*
X165596273Y-130105385D02*
X165691511Y-130081576D01*
X165691511Y-130081576D02*
X165739130Y-130057766D01*
X165739130Y-130057766D02*
X165786750Y-130010147D01*
X165786750Y-130010147D02*
X165810559Y-129938719D01*
X165810559Y-129938719D02*
X165810559Y-129891100D01*
X165810559Y-129891100D02*
X165786750Y-129819671D01*
X165786750Y-129819671D02*
X165762940Y-129795862D01*
X165762940Y-129795862D02*
X165596273Y-129795862D01*
X165596273Y-129795862D02*
X165596273Y-129891100D01*
X165810559Y-129581576D02*
X165310559Y-129581576D01*
X165310559Y-129581576D02*
X165810559Y-129295862D01*
X165810559Y-129295862D02*
X165310559Y-129295862D01*
X165810559Y-129057766D02*
X165310559Y-129057766D01*
X165310559Y-129057766D02*
X165310559Y-128938718D01*
X165310559Y-128938718D02*
X165334369Y-128867290D01*
X165334369Y-128867290D02*
X165381988Y-128819671D01*
X165381988Y-128819671D02*
X165429607Y-128795861D01*
X165429607Y-128795861D02*
X165524845Y-128772052D01*
X165524845Y-128772052D02*
X165596273Y-128772052D01*
X165596273Y-128772052D02*
X165691511Y-128795861D01*
X165691511Y-128795861D02*
X165739130Y-128819671D01*
X165739130Y-128819671D02*
X165786750Y-128867290D01*
X165786750Y-128867290D02*
X165810559Y-128938718D01*
X165810559Y-128938718D02*
X165810559Y-129057766D01*
D10*
X143915312Y-131534161D02*
X143581979Y-131057970D01*
X143343884Y-131534161D02*
X143343884Y-130534161D01*
X143343884Y-130534161D02*
X143724836Y-130534161D01*
X143724836Y-130534161D02*
X143820074Y-130581780D01*
X143820074Y-130581780D02*
X143867693Y-130629399D01*
X143867693Y-130629399D02*
X143915312Y-130724637D01*
X143915312Y-130724637D02*
X143915312Y-130867494D01*
X143915312Y-130867494D02*
X143867693Y-130962732D01*
X143867693Y-130962732D02*
X143820074Y-131010351D01*
X143820074Y-131010351D02*
X143724836Y-131057970D01*
X143724836Y-131057970D02*
X143343884Y-131057970D01*
X144343884Y-131010351D02*
X144677217Y-131010351D01*
X144820074Y-131534161D02*
X144343884Y-131534161D01*
X144343884Y-131534161D02*
X144343884Y-130534161D01*
X144343884Y-130534161D02*
X144820074Y-130534161D01*
X145201027Y-131486542D02*
X145343884Y-131534161D01*
X145343884Y-131534161D02*
X145581979Y-131534161D01*
X145581979Y-131534161D02*
X145677217Y-131486542D01*
X145677217Y-131486542D02*
X145724836Y-131438922D01*
X145724836Y-131438922D02*
X145772455Y-131343684D01*
X145772455Y-131343684D02*
X145772455Y-131248446D01*
X145772455Y-131248446D02*
X145724836Y-131153208D01*
X145724836Y-131153208D02*
X145677217Y-131105589D01*
X145677217Y-131105589D02*
X145581979Y-131057970D01*
X145581979Y-131057970D02*
X145391503Y-131010351D01*
X145391503Y-131010351D02*
X145296265Y-130962732D01*
X145296265Y-130962732D02*
X145248646Y-130915113D01*
X145248646Y-130915113D02*
X145201027Y-130819875D01*
X145201027Y-130819875D02*
X145201027Y-130724637D01*
X145201027Y-130724637D02*
X145248646Y-130629399D01*
X145248646Y-130629399D02*
X145296265Y-130581780D01*
X145296265Y-130581780D02*
X145391503Y-130534161D01*
X145391503Y-130534161D02*
X145629598Y-130534161D01*
X145629598Y-130534161D02*
X145772455Y-130581780D01*
X146201027Y-131010351D02*
X146534360Y-131010351D01*
X146677217Y-131534161D02*
X146201027Y-131534161D01*
X146201027Y-131534161D02*
X146201027Y-130534161D01*
X146201027Y-130534161D02*
X146677217Y-130534161D01*
X146962932Y-130534161D02*
X147534360Y-130534161D01*
X147248646Y-131534161D02*
X147248646Y-130534161D01*
X138303884Y-132461466D02*
X139065789Y-132461466D01*
X138684836Y-132842419D02*
X138684836Y-132080514D01*
X104691466Y-115896115D02*
X104691466Y-115134211D01*
X105072419Y-115515163D02*
X104310514Y-115515163D01*
X104072419Y-114181830D02*
X104072419Y-114658020D01*
X104072419Y-114658020D02*
X104548609Y-114705639D01*
X104548609Y-114705639D02*
X104500990Y-114658020D01*
X104500990Y-114658020D02*
X104453371Y-114562782D01*
X104453371Y-114562782D02*
X104453371Y-114324687D01*
X104453371Y-114324687D02*
X104500990Y-114229449D01*
X104500990Y-114229449D02*
X104548609Y-114181830D01*
X104548609Y-114181830D02*
X104643847Y-114134211D01*
X104643847Y-114134211D02*
X104881942Y-114134211D01*
X104881942Y-114134211D02*
X104977180Y-114181830D01*
X104977180Y-114181830D02*
X105024800Y-114229449D01*
X105024800Y-114229449D02*
X105072419Y-114324687D01*
X105072419Y-114324687D02*
X105072419Y-114562782D01*
X105072419Y-114562782D02*
X105024800Y-114658020D01*
X105024800Y-114658020D02*
X104977180Y-114705639D01*
X104072419Y-113848496D02*
X105072419Y-113515163D01*
X105072419Y-113515163D02*
X104072419Y-113181830D01*
X104072419Y-111896115D02*
X104072419Y-111705639D01*
X104072419Y-111705639D02*
X104120038Y-111610401D01*
X104120038Y-111610401D02*
X104215276Y-111515163D01*
X104215276Y-111515163D02*
X104405752Y-111467544D01*
X104405752Y-111467544D02*
X104739085Y-111467544D01*
X104739085Y-111467544D02*
X104929561Y-111515163D01*
X104929561Y-111515163D02*
X105024800Y-111610401D01*
X105024800Y-111610401D02*
X105072419Y-111705639D01*
X105072419Y-111705639D02*
X105072419Y-111896115D01*
X105072419Y-111896115D02*
X105024800Y-111991353D01*
X105024800Y-111991353D02*
X104929561Y-112086591D01*
X104929561Y-112086591D02*
X104739085Y-112134210D01*
X104739085Y-112134210D02*
X104405752Y-112134210D01*
X104405752Y-112134210D02*
X104215276Y-112086591D01*
X104215276Y-112086591D02*
X104120038Y-111991353D01*
X104120038Y-111991353D02*
X104072419Y-111896115D01*
X104024800Y-110324687D02*
X105310514Y-111181829D01*
X105072419Y-109991353D02*
X104072419Y-109991353D01*
X104072419Y-109991353D02*
X104072419Y-109610401D01*
X104072419Y-109610401D02*
X104120038Y-109515163D01*
X104120038Y-109515163D02*
X104167657Y-109467544D01*
X104167657Y-109467544D02*
X104262895Y-109419925D01*
X104262895Y-109419925D02*
X104405752Y-109419925D01*
X104405752Y-109419925D02*
X104500990Y-109467544D01*
X104500990Y-109467544D02*
X104548609Y-109515163D01*
X104548609Y-109515163D02*
X104596228Y-109610401D01*
X104596228Y-109610401D02*
X104596228Y-109991353D01*
D12*
X174586521Y-81541119D02*
X174110331Y-81541119D01*
X174110331Y-81541119D02*
X174062712Y-82017309D01*
X174062712Y-82017309D02*
X174110331Y-81969690D01*
X174110331Y-81969690D02*
X174205569Y-81922071D01*
X174205569Y-81922071D02*
X174443664Y-81922071D01*
X174443664Y-81922071D02*
X174538902Y-81969690D01*
X174538902Y-81969690D02*
X174586521Y-82017309D01*
X174586521Y-82017309D02*
X174634140Y-82112547D01*
X174634140Y-82112547D02*
X174634140Y-82350642D01*
X174634140Y-82350642D02*
X174586521Y-82445880D01*
X174586521Y-82445880D02*
X174538902Y-82493500D01*
X174538902Y-82493500D02*
X174443664Y-82541119D01*
X174443664Y-82541119D02*
X174205569Y-82541119D01*
X174205569Y-82541119D02*
X174110331Y-82493500D01*
X174110331Y-82493500D02*
X174062712Y-82445880D01*
X174919855Y-81541119D02*
X175253188Y-82541119D01*
X175253188Y-82541119D02*
X175586521Y-81541119D01*
D11*
X161334369Y-131319671D02*
X161310559Y-131367290D01*
X161310559Y-131367290D02*
X161310559Y-131438719D01*
X161310559Y-131438719D02*
X161334369Y-131510147D01*
X161334369Y-131510147D02*
X161381988Y-131557766D01*
X161381988Y-131557766D02*
X161429607Y-131581576D01*
X161429607Y-131581576D02*
X161524845Y-131605385D01*
X161524845Y-131605385D02*
X161596273Y-131605385D01*
X161596273Y-131605385D02*
X161691511Y-131581576D01*
X161691511Y-131581576D02*
X161739130Y-131557766D01*
X161739130Y-131557766D02*
X161786750Y-131510147D01*
X161786750Y-131510147D02*
X161810559Y-131438719D01*
X161810559Y-131438719D02*
X161810559Y-131391100D01*
X161810559Y-131391100D02*
X161786750Y-131319671D01*
X161786750Y-131319671D02*
X161762940Y-131295862D01*
X161762940Y-131295862D02*
X161596273Y-131295862D01*
X161596273Y-131295862D02*
X161596273Y-131391100D01*
X161810559Y-131081576D02*
X161310559Y-131081576D01*
X161310559Y-131081576D02*
X161310559Y-130891100D01*
X161310559Y-130891100D02*
X161334369Y-130843481D01*
X161334369Y-130843481D02*
X161358178Y-130819671D01*
X161358178Y-130819671D02*
X161405797Y-130795862D01*
X161405797Y-130795862D02*
X161477226Y-130795862D01*
X161477226Y-130795862D02*
X161524845Y-130819671D01*
X161524845Y-130819671D02*
X161548654Y-130843481D01*
X161548654Y-130843481D02*
X161572464Y-130891100D01*
X161572464Y-130891100D02*
X161572464Y-131081576D01*
X161810559Y-130581576D02*
X161310559Y-130581576D01*
X161310559Y-130248243D02*
X161310559Y-130153005D01*
X161310559Y-130153005D02*
X161334369Y-130105386D01*
X161334369Y-130105386D02*
X161381988Y-130057767D01*
X161381988Y-130057767D02*
X161477226Y-130033957D01*
X161477226Y-130033957D02*
X161643892Y-130033957D01*
X161643892Y-130033957D02*
X161739130Y-130057767D01*
X161739130Y-130057767D02*
X161786750Y-130105386D01*
X161786750Y-130105386D02*
X161810559Y-130153005D01*
X161810559Y-130153005D02*
X161810559Y-130248243D01*
X161810559Y-130248243D02*
X161786750Y-130295862D01*
X161786750Y-130295862D02*
X161739130Y-130343481D01*
X161739130Y-130343481D02*
X161643892Y-130367290D01*
X161643892Y-130367290D02*
X161477226Y-130367290D01*
X161477226Y-130367290D02*
X161381988Y-130343481D01*
X161381988Y-130343481D02*
X161334369Y-130295862D01*
X161334369Y-130295862D02*
X161310559Y-130248243D01*
X161358178Y-129462528D02*
X161334369Y-129438719D01*
X161334369Y-129438719D02*
X161310559Y-129391100D01*
X161310559Y-129391100D02*
X161310559Y-129272052D01*
X161310559Y-129272052D02*
X161334369Y-129224433D01*
X161334369Y-129224433D02*
X161358178Y-129200624D01*
X161358178Y-129200624D02*
X161405797Y-129176814D01*
X161405797Y-129176814D02*
X161453416Y-129176814D01*
X161453416Y-129176814D02*
X161524845Y-129200624D01*
X161524845Y-129200624D02*
X161810559Y-129486338D01*
X161810559Y-129486338D02*
X161810559Y-129176814D01*
X161310559Y-128724434D02*
X161310559Y-128962529D01*
X161310559Y-128962529D02*
X161548654Y-128986338D01*
X161548654Y-128986338D02*
X161524845Y-128962529D01*
X161524845Y-128962529D02*
X161501035Y-128914910D01*
X161501035Y-128914910D02*
X161501035Y-128795862D01*
X161501035Y-128795862D02*
X161524845Y-128748243D01*
X161524845Y-128748243D02*
X161548654Y-128724434D01*
X161548654Y-128724434D02*
X161596273Y-128700624D01*
X161596273Y-128700624D02*
X161715321Y-128700624D01*
X161715321Y-128700624D02*
X161762940Y-128724434D01*
X161762940Y-128724434D02*
X161786750Y-128748243D01*
X161786750Y-128748243D02*
X161810559Y-128795862D01*
X161810559Y-128795862D02*
X161810559Y-128914910D01*
X161810559Y-128914910D02*
X161786750Y-128962529D01*
X161786750Y-128962529D02*
X161762940Y-128986338D01*
D10*
X146593884Y-103153208D02*
X147355789Y-103153208D01*
X146974836Y-103534161D02*
X146974836Y-102772256D01*
X115803884Y-132261466D02*
X116565789Y-132261466D01*
X117603884Y-132391466D02*
X118365789Y-132391466D01*
X117984836Y-132772419D02*
X117984836Y-132010514D01*
X119365788Y-132772419D02*
X118794360Y-132772419D01*
X119080074Y-132772419D02*
X119080074Y-131772419D01*
X119080074Y-131772419D02*
X118984836Y-131915276D01*
X118984836Y-131915276D02*
X118889598Y-132010514D01*
X118889598Y-132010514D02*
X118794360Y-132058133D01*
X119746741Y-131867657D02*
X119794360Y-131820038D01*
X119794360Y-131820038D02*
X119889598Y-131772419D01*
X119889598Y-131772419D02*
X120127693Y-131772419D01*
X120127693Y-131772419D02*
X120222931Y-131820038D01*
X120222931Y-131820038D02*
X120270550Y-131867657D01*
X120270550Y-131867657D02*
X120318169Y-131962895D01*
X120318169Y-131962895D02*
X120318169Y-132058133D01*
X120318169Y-132058133D02*
X120270550Y-132200990D01*
X120270550Y-132200990D02*
X119699122Y-132772419D01*
X119699122Y-132772419D02*
X120318169Y-132772419D01*
X120603884Y-131772419D02*
X120937217Y-132772419D01*
X120937217Y-132772419D02*
X121270550Y-131772419D01*
X122365789Y-132772419D02*
X122365789Y-131772419D01*
X123556264Y-131724800D02*
X122699122Y-133010514D01*
X123889598Y-132772419D02*
X123889598Y-131772419D01*
X123889598Y-131772419D02*
X124270550Y-131772419D01*
X124270550Y-131772419D02*
X124365788Y-131820038D01*
X124365788Y-131820038D02*
X124413407Y-131867657D01*
X124413407Y-131867657D02*
X124461026Y-131962895D01*
X124461026Y-131962895D02*
X124461026Y-132105752D01*
X124461026Y-132105752D02*
X124413407Y-132200990D01*
X124413407Y-132200990D02*
X124365788Y-132248609D01*
X124365788Y-132248609D02*
X124270550Y-132296228D01*
X124270550Y-132296228D02*
X123889598Y-132296228D01*
X105072419Y-128996115D02*
X104072419Y-128996115D01*
X104548609Y-128996115D02*
X104548609Y-128424687D01*
X105072419Y-128424687D02*
X104072419Y-128424687D01*
X105024800Y-127567544D02*
X105072419Y-127662782D01*
X105072419Y-127662782D02*
X105072419Y-127853258D01*
X105072419Y-127853258D02*
X105024800Y-127948496D01*
X105024800Y-127948496D02*
X104929561Y-127996115D01*
X104929561Y-127996115D02*
X104548609Y-127996115D01*
X104548609Y-127996115D02*
X104453371Y-127948496D01*
X104453371Y-127948496D02*
X104405752Y-127853258D01*
X104405752Y-127853258D02*
X104405752Y-127662782D01*
X104405752Y-127662782D02*
X104453371Y-127567544D01*
X104453371Y-127567544D02*
X104548609Y-127519925D01*
X104548609Y-127519925D02*
X104643847Y-127519925D01*
X104643847Y-127519925D02*
X104739085Y-127996115D01*
X105072419Y-126662782D02*
X104548609Y-126662782D01*
X104548609Y-126662782D02*
X104453371Y-126710401D01*
X104453371Y-126710401D02*
X104405752Y-126805639D01*
X104405752Y-126805639D02*
X104405752Y-126996115D01*
X104405752Y-126996115D02*
X104453371Y-127091353D01*
X105024800Y-126662782D02*
X105072419Y-126758020D01*
X105072419Y-126758020D02*
X105072419Y-126996115D01*
X105072419Y-126996115D02*
X105024800Y-127091353D01*
X105024800Y-127091353D02*
X104929561Y-127138972D01*
X104929561Y-127138972D02*
X104834323Y-127138972D01*
X104834323Y-127138972D02*
X104739085Y-127091353D01*
X104739085Y-127091353D02*
X104691466Y-126996115D01*
X104691466Y-126996115D02*
X104691466Y-126758020D01*
X104691466Y-126758020D02*
X104643847Y-126662782D01*
X104405752Y-126329448D02*
X104405752Y-125948496D01*
X104072419Y-126186591D02*
X104929561Y-126186591D01*
X104929561Y-126186591D02*
X105024800Y-126138972D01*
X105024800Y-126138972D02*
X105072419Y-126043734D01*
X105072419Y-126043734D02*
X105072419Y-125948496D01*
X105072419Y-124853257D02*
X104072419Y-124853257D01*
X104072419Y-124853257D02*
X104072419Y-124472305D01*
X104072419Y-124472305D02*
X104120038Y-124377067D01*
X104120038Y-124377067D02*
X104167657Y-124329448D01*
X104167657Y-124329448D02*
X104262895Y-124281829D01*
X104262895Y-124281829D02*
X104405752Y-124281829D01*
X104405752Y-124281829D02*
X104500990Y-124329448D01*
X104500990Y-124329448D02*
X104548609Y-124377067D01*
X104548609Y-124377067D02*
X104596228Y-124472305D01*
X104596228Y-124472305D02*
X104596228Y-124853257D01*
X105072419Y-123424686D02*
X104548609Y-123424686D01*
X104548609Y-123424686D02*
X104453371Y-123472305D01*
X104453371Y-123472305D02*
X104405752Y-123567543D01*
X104405752Y-123567543D02*
X104405752Y-123758019D01*
X104405752Y-123758019D02*
X104453371Y-123853257D01*
X105024800Y-123424686D02*
X105072419Y-123519924D01*
X105072419Y-123519924D02*
X105072419Y-123758019D01*
X105072419Y-123758019D02*
X105024800Y-123853257D01*
X105024800Y-123853257D02*
X104929561Y-123900876D01*
X104929561Y-123900876D02*
X104834323Y-123900876D01*
X104834323Y-123900876D02*
X104739085Y-123853257D01*
X104739085Y-123853257D02*
X104691466Y-123758019D01*
X104691466Y-123758019D02*
X104691466Y-123519924D01*
X104691466Y-123519924D02*
X104643847Y-123424686D01*
X105072419Y-122519924D02*
X104072419Y-122519924D01*
X105024800Y-122519924D02*
X105072419Y-122615162D01*
X105072419Y-122615162D02*
X105072419Y-122805638D01*
X105072419Y-122805638D02*
X105024800Y-122900876D01*
X105024800Y-122900876D02*
X104977180Y-122948495D01*
X104977180Y-122948495D02*
X104881942Y-122996114D01*
X104881942Y-122996114D02*
X104596228Y-122996114D01*
X104596228Y-122996114D02*
X104500990Y-122948495D01*
X104500990Y-122948495D02*
X104453371Y-122900876D01*
X104453371Y-122900876D02*
X104405752Y-122805638D01*
X104405752Y-122805638D02*
X104405752Y-122615162D01*
X104405752Y-122615162D02*
X104453371Y-122519924D01*
D11*
X169310559Y-130129195D02*
X169310559Y-129819671D01*
X169310559Y-129819671D02*
X169501035Y-129986338D01*
X169501035Y-129986338D02*
X169501035Y-129914909D01*
X169501035Y-129914909D02*
X169524845Y-129867290D01*
X169524845Y-129867290D02*
X169548654Y-129843481D01*
X169548654Y-129843481D02*
X169596273Y-129819671D01*
X169596273Y-129819671D02*
X169715321Y-129819671D01*
X169715321Y-129819671D02*
X169762940Y-129843481D01*
X169762940Y-129843481D02*
X169786750Y-129867290D01*
X169786750Y-129867290D02*
X169810559Y-129914909D01*
X169810559Y-129914909D02*
X169810559Y-130057766D01*
X169810559Y-130057766D02*
X169786750Y-130105385D01*
X169786750Y-130105385D02*
X169762940Y-130129195D01*
X169310559Y-129676814D02*
X169810559Y-129510148D01*
X169810559Y-129510148D02*
X169310559Y-129343481D01*
X169310559Y-129224434D02*
X169310559Y-128914910D01*
X169310559Y-128914910D02*
X169501035Y-129081577D01*
X169501035Y-129081577D02*
X169501035Y-129010148D01*
X169501035Y-129010148D02*
X169524845Y-128962529D01*
X169524845Y-128962529D02*
X169548654Y-128938720D01*
X169548654Y-128938720D02*
X169596273Y-128914910D01*
X169596273Y-128914910D02*
X169715321Y-128914910D01*
X169715321Y-128914910D02*
X169762940Y-128938720D01*
X169762940Y-128938720D02*
X169786750Y-128962529D01*
X169786750Y-128962529D02*
X169810559Y-129010148D01*
X169810559Y-129010148D02*
X169810559Y-129153005D01*
X169810559Y-129153005D02*
X169786750Y-129200624D01*
X169786750Y-129200624D02*
X169762940Y-129224434D01*
D10*
X126093884Y-82653208D02*
X126855789Y-82653208D01*
X126474836Y-83034161D02*
X126474836Y-82272256D01*
D13*
X119051905Y-94476561D02*
X119051905Y-93476561D01*
X119051905Y-93476561D02*
X119290000Y-93476561D01*
X119290000Y-93476561D02*
X119432857Y-93524180D01*
X119432857Y-93524180D02*
X119528095Y-93619418D01*
X119528095Y-93619418D02*
X119575714Y-93714656D01*
X119575714Y-93714656D02*
X119623333Y-93905132D01*
X119623333Y-93905132D02*
X119623333Y-94047989D01*
X119623333Y-94047989D02*
X119575714Y-94238465D01*
X119575714Y-94238465D02*
X119528095Y-94333703D01*
X119528095Y-94333703D02*
X119432857Y-94428942D01*
X119432857Y-94428942D02*
X119290000Y-94476561D01*
X119290000Y-94476561D02*
X119051905Y-94476561D01*
X120575714Y-94476561D02*
X120004286Y-94476561D01*
X120290000Y-94476561D02*
X120290000Y-93476561D01*
X120290000Y-93476561D02*
X120194762Y-93619418D01*
X120194762Y-93619418D02*
X120099524Y-93714656D01*
X120099524Y-93714656D02*
X120004286Y-93762275D01*
X114628095Y-96946561D02*
X114628095Y-95946561D01*
X115199523Y-96946561D02*
X114770952Y-96375132D01*
X115199523Y-95946561D02*
X114628095Y-96517989D01*
X155898333Y-114321561D02*
X155565000Y-113845370D01*
X155326905Y-114321561D02*
X155326905Y-113321561D01*
X155326905Y-113321561D02*
X155707857Y-113321561D01*
X155707857Y-113321561D02*
X155803095Y-113369180D01*
X155803095Y-113369180D02*
X155850714Y-113416799D01*
X155850714Y-113416799D02*
X155898333Y-113512037D01*
X155898333Y-113512037D02*
X155898333Y-113654894D01*
X155898333Y-113654894D02*
X155850714Y-113750132D01*
X155850714Y-113750132D02*
X155803095Y-113797751D01*
X155803095Y-113797751D02*
X155707857Y-113845370D01*
X155707857Y-113845370D02*
X155326905Y-113845370D01*
X156755476Y-113654894D02*
X156755476Y-114321561D01*
X156517381Y-113273942D02*
X156279286Y-113988227D01*
X156279286Y-113988227D02*
X156898333Y-113988227D01*
X137709819Y-91056666D02*
X137233628Y-91389999D01*
X137709819Y-91628094D02*
X136709819Y-91628094D01*
X136709819Y-91628094D02*
X136709819Y-91247142D01*
X136709819Y-91247142D02*
X136757438Y-91151904D01*
X136757438Y-91151904D02*
X136805057Y-91104285D01*
X136805057Y-91104285D02*
X136900295Y-91056666D01*
X136900295Y-91056666D02*
X137043152Y-91056666D01*
X137043152Y-91056666D02*
X137138390Y-91104285D01*
X137138390Y-91104285D02*
X137186009Y-91151904D01*
X137186009Y-91151904D02*
X137233628Y-91247142D01*
X137233628Y-91247142D02*
X137233628Y-91628094D01*
X136709819Y-90723332D02*
X136709819Y-90104285D01*
X136709819Y-90104285D02*
X137090771Y-90437618D01*
X137090771Y-90437618D02*
X137090771Y-90294761D01*
X137090771Y-90294761D02*
X137138390Y-90199523D01*
X137138390Y-90199523D02*
X137186009Y-90151904D01*
X137186009Y-90151904D02*
X137281247Y-90104285D01*
X137281247Y-90104285D02*
X137519342Y-90104285D01*
X137519342Y-90104285D02*
X137614580Y-90151904D01*
X137614580Y-90151904D02*
X137662200Y-90199523D01*
X137662200Y-90199523D02*
X137709819Y-90294761D01*
X137709819Y-90294761D02*
X137709819Y-90580475D01*
X137709819Y-90580475D02*
X137662200Y-90675713D01*
X137662200Y-90675713D02*
X137614580Y-90723332D01*
X131294580Y-99613408D02*
X131342200Y-99661027D01*
X131342200Y-99661027D02*
X131389819Y-99803884D01*
X131389819Y-99803884D02*
X131389819Y-99899122D01*
X131389819Y-99899122D02*
X131342200Y-100041979D01*
X131342200Y-100041979D02*
X131246961Y-100137217D01*
X131246961Y-100137217D02*
X131151723Y-100184836D01*
X131151723Y-100184836D02*
X130961247Y-100232455D01*
X130961247Y-100232455D02*
X130818390Y-100232455D01*
X130818390Y-100232455D02*
X130627914Y-100184836D01*
X130627914Y-100184836D02*
X130532676Y-100137217D01*
X130532676Y-100137217D02*
X130437438Y-100041979D01*
X130437438Y-100041979D02*
X130389819Y-99899122D01*
X130389819Y-99899122D02*
X130389819Y-99803884D01*
X130389819Y-99803884D02*
X130437438Y-99661027D01*
X130437438Y-99661027D02*
X130485057Y-99613408D01*
X130389819Y-99280074D02*
X130389819Y-98661027D01*
X130389819Y-98661027D02*
X130770771Y-98994360D01*
X130770771Y-98994360D02*
X130770771Y-98851503D01*
X130770771Y-98851503D02*
X130818390Y-98756265D01*
X130818390Y-98756265D02*
X130866009Y-98708646D01*
X130866009Y-98708646D02*
X130961247Y-98661027D01*
X130961247Y-98661027D02*
X131199342Y-98661027D01*
X131199342Y-98661027D02*
X131294580Y-98708646D01*
X131294580Y-98708646D02*
X131342200Y-98756265D01*
X131342200Y-98756265D02*
X131389819Y-98851503D01*
X131389819Y-98851503D02*
X131389819Y-99137217D01*
X131389819Y-99137217D02*
X131342200Y-99232455D01*
X131342200Y-99232455D02*
X131294580Y-99280074D01*
X120566666Y-129254819D02*
X120566666Y-129969104D01*
X120566666Y-129969104D02*
X120519047Y-130111961D01*
X120519047Y-130111961D02*
X120423809Y-130207200D01*
X120423809Y-130207200D02*
X120280952Y-130254819D01*
X120280952Y-130254819D02*
X120185714Y-130254819D01*
X121566666Y-130254819D02*
X120995238Y-130254819D01*
X121280952Y-130254819D02*
X121280952Y-129254819D01*
X121280952Y-129254819D02*
X121185714Y-129397676D01*
X121185714Y-129397676D02*
X121090476Y-129492914D01*
X121090476Y-129492914D02*
X120995238Y-129540533D01*
X132866666Y-129254819D02*
X132866666Y-129969104D01*
X132866666Y-129969104D02*
X132819047Y-130111961D01*
X132819047Y-130111961D02*
X132723809Y-130207200D01*
X132723809Y-130207200D02*
X132580952Y-130254819D01*
X132580952Y-130254819D02*
X132485714Y-130254819D01*
X133295238Y-129350057D02*
X133342857Y-129302438D01*
X133342857Y-129302438D02*
X133438095Y-129254819D01*
X133438095Y-129254819D02*
X133676190Y-129254819D01*
X133676190Y-129254819D02*
X133771428Y-129302438D01*
X133771428Y-129302438D02*
X133819047Y-129350057D01*
X133819047Y-129350057D02*
X133866666Y-129445295D01*
X133866666Y-129445295D02*
X133866666Y-129540533D01*
X133866666Y-129540533D02*
X133819047Y-129683390D01*
X133819047Y-129683390D02*
X133247619Y-130254819D01*
X133247619Y-130254819D02*
X133866666Y-130254819D01*
X167456666Y-123196561D02*
X167456666Y-123910846D01*
X167456666Y-123910846D02*
X167409047Y-124053703D01*
X167409047Y-124053703D02*
X167313809Y-124148942D01*
X167313809Y-124148942D02*
X167170952Y-124196561D01*
X167170952Y-124196561D02*
X167075714Y-124196561D01*
X168361428Y-123529894D02*
X168361428Y-124196561D01*
X168123333Y-123148942D02*
X167885238Y-123863227D01*
X167885238Y-123863227D02*
X168504285Y-123863227D01*
X142149580Y-112158408D02*
X142197200Y-112206027D01*
X142197200Y-112206027D02*
X142244819Y-112348884D01*
X142244819Y-112348884D02*
X142244819Y-112444122D01*
X142244819Y-112444122D02*
X142197200Y-112586979D01*
X142197200Y-112586979D02*
X142101961Y-112682217D01*
X142101961Y-112682217D02*
X142006723Y-112729836D01*
X142006723Y-112729836D02*
X141816247Y-112777455D01*
X141816247Y-112777455D02*
X141673390Y-112777455D01*
X141673390Y-112777455D02*
X141482914Y-112729836D01*
X141482914Y-112729836D02*
X141387676Y-112682217D01*
X141387676Y-112682217D02*
X141292438Y-112586979D01*
X141292438Y-112586979D02*
X141244819Y-112444122D01*
X141244819Y-112444122D02*
X141244819Y-112348884D01*
X141244819Y-112348884D02*
X141292438Y-112206027D01*
X141292438Y-112206027D02*
X141340057Y-112158408D01*
X141340057Y-111777455D02*
X141292438Y-111729836D01*
X141292438Y-111729836D02*
X141244819Y-111634598D01*
X141244819Y-111634598D02*
X141244819Y-111396503D01*
X141244819Y-111396503D02*
X141292438Y-111301265D01*
X141292438Y-111301265D02*
X141340057Y-111253646D01*
X141340057Y-111253646D02*
X141435295Y-111206027D01*
X141435295Y-111206027D02*
X141530533Y-111206027D01*
X141530533Y-111206027D02*
X141673390Y-111253646D01*
X141673390Y-111253646D02*
X142244819Y-111825074D01*
X142244819Y-111825074D02*
X142244819Y-111206027D01*
X113274819Y-100676666D02*
X112798628Y-101009999D01*
X113274819Y-101248094D02*
X112274819Y-101248094D01*
X112274819Y-101248094D02*
X112274819Y-100867142D01*
X112274819Y-100867142D02*
X112322438Y-100771904D01*
X112322438Y-100771904D02*
X112370057Y-100724285D01*
X112370057Y-100724285D02*
X112465295Y-100676666D01*
X112465295Y-100676666D02*
X112608152Y-100676666D01*
X112608152Y-100676666D02*
X112703390Y-100724285D01*
X112703390Y-100724285D02*
X112751009Y-100771904D01*
X112751009Y-100771904D02*
X112798628Y-100867142D01*
X112798628Y-100867142D02*
X112798628Y-101248094D01*
X112274819Y-100343332D02*
X112274819Y-99676666D01*
X112274819Y-99676666D02*
X113274819Y-100105237D01*
X124649580Y-86158408D02*
X124697200Y-86206027D01*
X124697200Y-86206027D02*
X124744819Y-86348884D01*
X124744819Y-86348884D02*
X124744819Y-86444122D01*
X124744819Y-86444122D02*
X124697200Y-86586979D01*
X124697200Y-86586979D02*
X124601961Y-86682217D01*
X124601961Y-86682217D02*
X124506723Y-86729836D01*
X124506723Y-86729836D02*
X124316247Y-86777455D01*
X124316247Y-86777455D02*
X124173390Y-86777455D01*
X124173390Y-86777455D02*
X123982914Y-86729836D01*
X123982914Y-86729836D02*
X123887676Y-86682217D01*
X123887676Y-86682217D02*
X123792438Y-86586979D01*
X123792438Y-86586979D02*
X123744819Y-86444122D01*
X123744819Y-86444122D02*
X123744819Y-86348884D01*
X123744819Y-86348884D02*
X123792438Y-86206027D01*
X123792438Y-86206027D02*
X123840057Y-86158408D01*
X123744819Y-85825074D02*
X123744819Y-85158408D01*
X123744819Y-85158408D02*
X124744819Y-85586979D01*
X122281905Y-81406561D02*
X122281905Y-80406561D01*
X122281905Y-80406561D02*
X122520000Y-80406561D01*
X122520000Y-80406561D02*
X122662857Y-80454180D01*
X122662857Y-80454180D02*
X122758095Y-80549418D01*
X122758095Y-80549418D02*
X122805714Y-80644656D01*
X122805714Y-80644656D02*
X122853333Y-80835132D01*
X122853333Y-80835132D02*
X122853333Y-80977989D01*
X122853333Y-80977989D02*
X122805714Y-81168465D01*
X122805714Y-81168465D02*
X122758095Y-81263703D01*
X122758095Y-81263703D02*
X122662857Y-81358942D01*
X122662857Y-81358942D02*
X122520000Y-81406561D01*
X122520000Y-81406561D02*
X122281905Y-81406561D01*
X123234286Y-80501799D02*
X123281905Y-80454180D01*
X123281905Y-80454180D02*
X123377143Y-80406561D01*
X123377143Y-80406561D02*
X123615238Y-80406561D01*
X123615238Y-80406561D02*
X123710476Y-80454180D01*
X123710476Y-80454180D02*
X123758095Y-80501799D01*
X123758095Y-80501799D02*
X123805714Y-80597037D01*
X123805714Y-80597037D02*
X123805714Y-80692275D01*
X123805714Y-80692275D02*
X123758095Y-80835132D01*
X123758095Y-80835132D02*
X123186667Y-81406561D01*
X123186667Y-81406561D02*
X123805714Y-81406561D01*
D10*
X143996667Y-125401542D02*
X144139524Y-125449161D01*
X144139524Y-125449161D02*
X144377619Y-125449161D01*
X144377619Y-125449161D02*
X144472857Y-125401542D01*
X144472857Y-125401542D02*
X144520476Y-125353922D01*
X144520476Y-125353922D02*
X144568095Y-125258684D01*
X144568095Y-125258684D02*
X144568095Y-125163446D01*
X144568095Y-125163446D02*
X144520476Y-125068208D01*
X144520476Y-125068208D02*
X144472857Y-125020589D01*
X144472857Y-125020589D02*
X144377619Y-124972970D01*
X144377619Y-124972970D02*
X144187143Y-124925351D01*
X144187143Y-124925351D02*
X144091905Y-124877732D01*
X144091905Y-124877732D02*
X144044286Y-124830113D01*
X144044286Y-124830113D02*
X143996667Y-124734875D01*
X143996667Y-124734875D02*
X143996667Y-124639637D01*
X143996667Y-124639637D02*
X144044286Y-124544399D01*
X144044286Y-124544399D02*
X144091905Y-124496780D01*
X144091905Y-124496780D02*
X144187143Y-124449161D01*
X144187143Y-124449161D02*
X144425238Y-124449161D01*
X144425238Y-124449161D02*
X144568095Y-124496780D01*
X144901429Y-124449161D02*
X145139524Y-125449161D01*
X145139524Y-125449161D02*
X145330000Y-124734875D01*
X145330000Y-124734875D02*
X145520476Y-125449161D01*
X145520476Y-125449161D02*
X145758572Y-124449161D01*
X146663333Y-125449161D02*
X146091905Y-125449161D01*
X146377619Y-125449161D02*
X146377619Y-124449161D01*
X146377619Y-124449161D02*
X146282381Y-124592018D01*
X146282381Y-124592018D02*
X146187143Y-124687256D01*
X146187143Y-124687256D02*
X146091905Y-124734875D01*
D13*
X163196905Y-107951561D02*
X163196905Y-106951561D01*
X163196905Y-106951561D02*
X163435000Y-106951561D01*
X163435000Y-106951561D02*
X163577857Y-106999180D01*
X163577857Y-106999180D02*
X163673095Y-107094418D01*
X163673095Y-107094418D02*
X163720714Y-107189656D01*
X163720714Y-107189656D02*
X163768333Y-107380132D01*
X163768333Y-107380132D02*
X163768333Y-107522989D01*
X163768333Y-107522989D02*
X163720714Y-107713465D01*
X163720714Y-107713465D02*
X163673095Y-107808703D01*
X163673095Y-107808703D02*
X163577857Y-107903942D01*
X163577857Y-107903942D02*
X163435000Y-107951561D01*
X163435000Y-107951561D02*
X163196905Y-107951561D01*
X164625476Y-107284894D02*
X164625476Y-107951561D01*
X164387381Y-106903942D02*
X164149286Y-107618227D01*
X164149286Y-107618227D02*
X164768333Y-107618227D01*
X167840057Y-77086980D02*
X167792438Y-77182218D01*
X167792438Y-77182218D02*
X167697200Y-77277456D01*
X167697200Y-77277456D02*
X167554342Y-77420313D01*
X167554342Y-77420313D02*
X167506723Y-77515551D01*
X167506723Y-77515551D02*
X167506723Y-77610789D01*
X167744819Y-77563170D02*
X167697200Y-77658408D01*
X167697200Y-77658408D02*
X167601961Y-77753646D01*
X167601961Y-77753646D02*
X167411485Y-77801265D01*
X167411485Y-77801265D02*
X167078152Y-77801265D01*
X167078152Y-77801265D02*
X166887676Y-77753646D01*
X166887676Y-77753646D02*
X166792438Y-77658408D01*
X166792438Y-77658408D02*
X166744819Y-77563170D01*
X166744819Y-77563170D02*
X166744819Y-77372694D01*
X166744819Y-77372694D02*
X166792438Y-77277456D01*
X166792438Y-77277456D02*
X166887676Y-77182218D01*
X166887676Y-77182218D02*
X167078152Y-77134599D01*
X167078152Y-77134599D02*
X167411485Y-77134599D01*
X167411485Y-77134599D02*
X167601961Y-77182218D01*
X167601961Y-77182218D02*
X167697200Y-77277456D01*
X167697200Y-77277456D02*
X167744819Y-77372694D01*
X167744819Y-77372694D02*
X167744819Y-77563170D01*
X167744819Y-76182218D02*
X167744819Y-76753646D01*
X167744819Y-76467932D02*
X166744819Y-76467932D01*
X166744819Y-76467932D02*
X166887676Y-76563170D01*
X166887676Y-76563170D02*
X166982914Y-76658408D01*
X166982914Y-76658408D02*
X167030533Y-76753646D01*
X167956666Y-97946561D02*
X167956666Y-98660846D01*
X167956666Y-98660846D02*
X167909047Y-98803703D01*
X167909047Y-98803703D02*
X167813809Y-98898942D01*
X167813809Y-98898942D02*
X167670952Y-98946561D01*
X167670952Y-98946561D02*
X167575714Y-98946561D01*
X168861428Y-97946561D02*
X168670952Y-97946561D01*
X168670952Y-97946561D02*
X168575714Y-97994180D01*
X168575714Y-97994180D02*
X168528095Y-98041799D01*
X168528095Y-98041799D02*
X168432857Y-98184656D01*
X168432857Y-98184656D02*
X168385238Y-98375132D01*
X168385238Y-98375132D02*
X168385238Y-98756084D01*
X168385238Y-98756084D02*
X168432857Y-98851322D01*
X168432857Y-98851322D02*
X168480476Y-98898942D01*
X168480476Y-98898942D02*
X168575714Y-98946561D01*
X168575714Y-98946561D02*
X168766190Y-98946561D01*
X168766190Y-98946561D02*
X168861428Y-98898942D01*
X168861428Y-98898942D02*
X168909047Y-98851322D01*
X168909047Y-98851322D02*
X168956666Y-98756084D01*
X168956666Y-98756084D02*
X168956666Y-98517989D01*
X168956666Y-98517989D02*
X168909047Y-98422751D01*
X168909047Y-98422751D02*
X168861428Y-98375132D01*
X168861428Y-98375132D02*
X168766190Y-98327513D01*
X168766190Y-98327513D02*
X168575714Y-98327513D01*
X168575714Y-98327513D02*
X168480476Y-98375132D01*
X168480476Y-98375132D02*
X168432857Y-98422751D01*
X168432857Y-98422751D02*
X168385238Y-98517989D01*
X131358333Y-78946561D02*
X131025000Y-78470370D01*
X130786905Y-78946561D02*
X130786905Y-77946561D01*
X130786905Y-77946561D02*
X131167857Y-77946561D01*
X131167857Y-77946561D02*
X131263095Y-77994180D01*
X131263095Y-77994180D02*
X131310714Y-78041799D01*
X131310714Y-78041799D02*
X131358333Y-78137037D01*
X131358333Y-78137037D02*
X131358333Y-78279894D01*
X131358333Y-78279894D02*
X131310714Y-78375132D01*
X131310714Y-78375132D02*
X131263095Y-78422751D01*
X131263095Y-78422751D02*
X131167857Y-78470370D01*
X131167857Y-78470370D02*
X130786905Y-78470370D01*
X132310714Y-78946561D02*
X131739286Y-78946561D01*
X132025000Y-78946561D02*
X132025000Y-77946561D01*
X132025000Y-77946561D02*
X131929762Y-78089418D01*
X131929762Y-78089418D02*
X131834524Y-78184656D01*
X131834524Y-78184656D02*
X131739286Y-78232275D01*
X141649580Y-105158408D02*
X141697200Y-105206027D01*
X141697200Y-105206027D02*
X141744819Y-105348884D01*
X141744819Y-105348884D02*
X141744819Y-105444122D01*
X141744819Y-105444122D02*
X141697200Y-105586979D01*
X141697200Y-105586979D02*
X141601961Y-105682217D01*
X141601961Y-105682217D02*
X141506723Y-105729836D01*
X141506723Y-105729836D02*
X141316247Y-105777455D01*
X141316247Y-105777455D02*
X141173390Y-105777455D01*
X141173390Y-105777455D02*
X140982914Y-105729836D01*
X140982914Y-105729836D02*
X140887676Y-105682217D01*
X140887676Y-105682217D02*
X140792438Y-105586979D01*
X140792438Y-105586979D02*
X140744819Y-105444122D01*
X140744819Y-105444122D02*
X140744819Y-105348884D01*
X140744819Y-105348884D02*
X140792438Y-105206027D01*
X140792438Y-105206027D02*
X140840057Y-105158408D01*
X140744819Y-104253646D02*
X140744819Y-104729836D01*
X140744819Y-104729836D02*
X141221009Y-104777455D01*
X141221009Y-104777455D02*
X141173390Y-104729836D01*
X141173390Y-104729836D02*
X141125771Y-104634598D01*
X141125771Y-104634598D02*
X141125771Y-104396503D01*
X141125771Y-104396503D02*
X141173390Y-104301265D01*
X141173390Y-104301265D02*
X141221009Y-104253646D01*
X141221009Y-104253646D02*
X141316247Y-104206027D01*
X141316247Y-104206027D02*
X141554342Y-104206027D01*
X141554342Y-104206027D02*
X141649580Y-104253646D01*
X141649580Y-104253646D02*
X141697200Y-104301265D01*
X141697200Y-104301265D02*
X141744819Y-104396503D01*
X141744819Y-104396503D02*
X141744819Y-104634598D01*
X141744819Y-104634598D02*
X141697200Y-104729836D01*
X141697200Y-104729836D02*
X141649580Y-104777455D01*
X155668333Y-120366561D02*
X155335000Y-119890370D01*
X155096905Y-120366561D02*
X155096905Y-119366561D01*
X155096905Y-119366561D02*
X155477857Y-119366561D01*
X155477857Y-119366561D02*
X155573095Y-119414180D01*
X155573095Y-119414180D02*
X155620714Y-119461799D01*
X155620714Y-119461799D02*
X155668333Y-119557037D01*
X155668333Y-119557037D02*
X155668333Y-119699894D01*
X155668333Y-119699894D02*
X155620714Y-119795132D01*
X155620714Y-119795132D02*
X155573095Y-119842751D01*
X155573095Y-119842751D02*
X155477857Y-119890370D01*
X155477857Y-119890370D02*
X155096905Y-119890370D01*
X156573095Y-119366561D02*
X156096905Y-119366561D01*
X156096905Y-119366561D02*
X156049286Y-119842751D01*
X156049286Y-119842751D02*
X156096905Y-119795132D01*
X156096905Y-119795132D02*
X156192143Y-119747513D01*
X156192143Y-119747513D02*
X156430238Y-119747513D01*
X156430238Y-119747513D02*
X156525476Y-119795132D01*
X156525476Y-119795132D02*
X156573095Y-119842751D01*
X156573095Y-119842751D02*
X156620714Y-119937989D01*
X156620714Y-119937989D02*
X156620714Y-120176084D01*
X156620714Y-120176084D02*
X156573095Y-120271322D01*
X156573095Y-120271322D02*
X156525476Y-120318942D01*
X156525476Y-120318942D02*
X156430238Y-120366561D01*
X156430238Y-120366561D02*
X156192143Y-120366561D01*
X156192143Y-120366561D02*
X156096905Y-120318942D01*
X156096905Y-120318942D02*
X156049286Y-120271322D01*
X152138095Y-88854819D02*
X152138095Y-89664342D01*
X152138095Y-89664342D02*
X152185714Y-89759580D01*
X152185714Y-89759580D02*
X152233333Y-89807200D01*
X152233333Y-89807200D02*
X152328571Y-89854819D01*
X152328571Y-89854819D02*
X152519047Y-89854819D01*
X152519047Y-89854819D02*
X152614285Y-89807200D01*
X152614285Y-89807200D02*
X152661904Y-89759580D01*
X152661904Y-89759580D02*
X152709523Y-89664342D01*
X152709523Y-89664342D02*
X152709523Y-88854819D01*
X153090476Y-88854819D02*
X153709523Y-88854819D01*
X153709523Y-88854819D02*
X153376190Y-89235771D01*
X153376190Y-89235771D02*
X153519047Y-89235771D01*
X153519047Y-89235771D02*
X153614285Y-89283390D01*
X153614285Y-89283390D02*
X153661904Y-89331009D01*
X153661904Y-89331009D02*
X153709523Y-89426247D01*
X153709523Y-89426247D02*
X153709523Y-89664342D01*
X153709523Y-89664342D02*
X153661904Y-89759580D01*
X153661904Y-89759580D02*
X153614285Y-89807200D01*
X153614285Y-89807200D02*
X153519047Y-89854819D01*
X153519047Y-89854819D02*
X153233333Y-89854819D01*
X153233333Y-89854819D02*
X153138095Y-89807200D01*
X153138095Y-89807200D02*
X153090476Y-89759580D01*
X137744580Y-81363408D02*
X137792200Y-81411027D01*
X137792200Y-81411027D02*
X137839819Y-81553884D01*
X137839819Y-81553884D02*
X137839819Y-81649122D01*
X137839819Y-81649122D02*
X137792200Y-81791979D01*
X137792200Y-81791979D02*
X137696961Y-81887217D01*
X137696961Y-81887217D02*
X137601723Y-81934836D01*
X137601723Y-81934836D02*
X137411247Y-81982455D01*
X137411247Y-81982455D02*
X137268390Y-81982455D01*
X137268390Y-81982455D02*
X137077914Y-81934836D01*
X137077914Y-81934836D02*
X136982676Y-81887217D01*
X136982676Y-81887217D02*
X136887438Y-81791979D01*
X136887438Y-81791979D02*
X136839819Y-81649122D01*
X136839819Y-81649122D02*
X136839819Y-81553884D01*
X136839819Y-81553884D02*
X136887438Y-81411027D01*
X136887438Y-81411027D02*
X136935057Y-81363408D01*
X136839819Y-80506265D02*
X136839819Y-80696741D01*
X136839819Y-80696741D02*
X136887438Y-80791979D01*
X136887438Y-80791979D02*
X136935057Y-80839598D01*
X136935057Y-80839598D02*
X137077914Y-80934836D01*
X137077914Y-80934836D02*
X137268390Y-80982455D01*
X137268390Y-80982455D02*
X137649342Y-80982455D01*
X137649342Y-80982455D02*
X137744580Y-80934836D01*
X137744580Y-80934836D02*
X137792200Y-80887217D01*
X137792200Y-80887217D02*
X137839819Y-80791979D01*
X137839819Y-80791979D02*
X137839819Y-80601503D01*
X137839819Y-80601503D02*
X137792200Y-80506265D01*
X137792200Y-80506265D02*
X137744580Y-80458646D01*
X137744580Y-80458646D02*
X137649342Y-80411027D01*
X137649342Y-80411027D02*
X137411247Y-80411027D01*
X137411247Y-80411027D02*
X137316009Y-80458646D01*
X137316009Y-80458646D02*
X137268390Y-80506265D01*
X137268390Y-80506265D02*
X137220771Y-80601503D01*
X137220771Y-80601503D02*
X137220771Y-80791979D01*
X137220771Y-80791979D02*
X137268390Y-80887217D01*
X137268390Y-80887217D02*
X137316009Y-80934836D01*
X137316009Y-80934836D02*
X137411247Y-80982455D01*
X114339819Y-104408646D02*
X115149342Y-104408646D01*
X115149342Y-104408646D02*
X115244580Y-104361027D01*
X115244580Y-104361027D02*
X115292200Y-104313408D01*
X115292200Y-104313408D02*
X115339819Y-104218170D01*
X115339819Y-104218170D02*
X115339819Y-104027694D01*
X115339819Y-104027694D02*
X115292200Y-103932456D01*
X115292200Y-103932456D02*
X115244580Y-103884837D01*
X115244580Y-103884837D02*
X115149342Y-103837218D01*
X115149342Y-103837218D02*
X114339819Y-103837218D01*
X115339819Y-102837218D02*
X115339819Y-103408646D01*
X115339819Y-103122932D02*
X114339819Y-103122932D01*
X114339819Y-103122932D02*
X114482676Y-103218170D01*
X114482676Y-103218170D02*
X114577914Y-103313408D01*
X114577914Y-103313408D02*
X114625533Y-103408646D01*
X106754819Y-113709523D02*
X107469104Y-113709523D01*
X107469104Y-113709523D02*
X107611961Y-113757142D01*
X107611961Y-113757142D02*
X107707200Y-113852380D01*
X107707200Y-113852380D02*
X107754819Y-113995237D01*
X107754819Y-113995237D02*
X107754819Y-114090475D01*
X107754819Y-112709523D02*
X107754819Y-113280951D01*
X107754819Y-112995237D02*
X106754819Y-112995237D01*
X106754819Y-112995237D02*
X106897676Y-113090475D01*
X106897676Y-113090475D02*
X106992914Y-113185713D01*
X106992914Y-113185713D02*
X107040533Y-113280951D01*
X106754819Y-112090475D02*
X106754819Y-111995237D01*
X106754819Y-111995237D02*
X106802438Y-111899999D01*
X106802438Y-111899999D02*
X106850057Y-111852380D01*
X106850057Y-111852380D02*
X106945295Y-111804761D01*
X106945295Y-111804761D02*
X107135771Y-111757142D01*
X107135771Y-111757142D02*
X107373866Y-111757142D01*
X107373866Y-111757142D02*
X107564342Y-111804761D01*
X107564342Y-111804761D02*
X107659580Y-111852380D01*
X107659580Y-111852380D02*
X107707200Y-111899999D01*
X107707200Y-111899999D02*
X107754819Y-111995237D01*
X107754819Y-111995237D02*
X107754819Y-112090475D01*
X107754819Y-112090475D02*
X107707200Y-112185713D01*
X107707200Y-112185713D02*
X107659580Y-112233332D01*
X107659580Y-112233332D02*
X107564342Y-112280951D01*
X107564342Y-112280951D02*
X107373866Y-112328570D01*
X107373866Y-112328570D02*
X107135771Y-112328570D01*
X107135771Y-112328570D02*
X106945295Y-112280951D01*
X106945295Y-112280951D02*
X106850057Y-112233332D01*
X106850057Y-112233332D02*
X106802438Y-112185713D01*
X106802438Y-112185713D02*
X106754819Y-112090475D01*
X113054819Y-86933333D02*
X113769104Y-86933333D01*
X113769104Y-86933333D02*
X113911961Y-86980952D01*
X113911961Y-86980952D02*
X114007200Y-87076190D01*
X114007200Y-87076190D02*
X114054819Y-87219047D01*
X114054819Y-87219047D02*
X114054819Y-87314285D01*
X114054819Y-86409523D02*
X114054819Y-86219047D01*
X114054819Y-86219047D02*
X114007200Y-86123809D01*
X114007200Y-86123809D02*
X113959580Y-86076190D01*
X113959580Y-86076190D02*
X113816723Y-85980952D01*
X113816723Y-85980952D02*
X113626247Y-85933333D01*
X113626247Y-85933333D02*
X113245295Y-85933333D01*
X113245295Y-85933333D02*
X113150057Y-85980952D01*
X113150057Y-85980952D02*
X113102438Y-86028571D01*
X113102438Y-86028571D02*
X113054819Y-86123809D01*
X113054819Y-86123809D02*
X113054819Y-86314285D01*
X113054819Y-86314285D02*
X113102438Y-86409523D01*
X113102438Y-86409523D02*
X113150057Y-86457142D01*
X113150057Y-86457142D02*
X113245295Y-86504761D01*
X113245295Y-86504761D02*
X113483390Y-86504761D01*
X113483390Y-86504761D02*
X113578628Y-86457142D01*
X113578628Y-86457142D02*
X113626247Y-86409523D01*
X113626247Y-86409523D02*
X113673866Y-86314285D01*
X113673866Y-86314285D02*
X113673866Y-86123809D01*
X113673866Y-86123809D02*
X113626247Y-86028571D01*
X113626247Y-86028571D02*
X113578628Y-85980952D01*
X113578628Y-85980952D02*
X113483390Y-85933333D01*
X135123333Y-108366561D02*
X134790000Y-107890370D01*
X134551905Y-108366561D02*
X134551905Y-107366561D01*
X134551905Y-107366561D02*
X134932857Y-107366561D01*
X134932857Y-107366561D02*
X135028095Y-107414180D01*
X135028095Y-107414180D02*
X135075714Y-107461799D01*
X135075714Y-107461799D02*
X135123333Y-107557037D01*
X135123333Y-107557037D02*
X135123333Y-107699894D01*
X135123333Y-107699894D02*
X135075714Y-107795132D01*
X135075714Y-107795132D02*
X135028095Y-107842751D01*
X135028095Y-107842751D02*
X134932857Y-107890370D01*
X134932857Y-107890370D02*
X134551905Y-107890370D01*
X135504286Y-107461799D02*
X135551905Y-107414180D01*
X135551905Y-107414180D02*
X135647143Y-107366561D01*
X135647143Y-107366561D02*
X135885238Y-107366561D01*
X135885238Y-107366561D02*
X135980476Y-107414180D01*
X135980476Y-107414180D02*
X136028095Y-107461799D01*
X136028095Y-107461799D02*
X136075714Y-107557037D01*
X136075714Y-107557037D02*
X136075714Y-107652275D01*
X136075714Y-107652275D02*
X136028095Y-107795132D01*
X136028095Y-107795132D02*
X135456667Y-108366561D01*
X135456667Y-108366561D02*
X136075714Y-108366561D01*
X170956666Y-85446561D02*
X170956666Y-86160846D01*
X170956666Y-86160846D02*
X170909047Y-86303703D01*
X170909047Y-86303703D02*
X170813809Y-86398942D01*
X170813809Y-86398942D02*
X170670952Y-86446561D01*
X170670952Y-86446561D02*
X170575714Y-86446561D01*
X171909047Y-85446561D02*
X171432857Y-85446561D01*
X171432857Y-85446561D02*
X171385238Y-85922751D01*
X171385238Y-85922751D02*
X171432857Y-85875132D01*
X171432857Y-85875132D02*
X171528095Y-85827513D01*
X171528095Y-85827513D02*
X171766190Y-85827513D01*
X171766190Y-85827513D02*
X171861428Y-85875132D01*
X171861428Y-85875132D02*
X171909047Y-85922751D01*
X171909047Y-85922751D02*
X171956666Y-86017989D01*
X171956666Y-86017989D02*
X171956666Y-86256084D01*
X171956666Y-86256084D02*
X171909047Y-86351322D01*
X171909047Y-86351322D02*
X171861428Y-86398942D01*
X171861428Y-86398942D02*
X171766190Y-86446561D01*
X171766190Y-86446561D02*
X171528095Y-86446561D01*
X171528095Y-86446561D02*
X171432857Y-86398942D01*
X171432857Y-86398942D02*
X171385238Y-86351322D01*
X166654580Y-88408408D02*
X166702200Y-88456027D01*
X166702200Y-88456027D02*
X166749819Y-88598884D01*
X166749819Y-88598884D02*
X166749819Y-88694122D01*
X166749819Y-88694122D02*
X166702200Y-88836979D01*
X166702200Y-88836979D02*
X166606961Y-88932217D01*
X166606961Y-88932217D02*
X166511723Y-88979836D01*
X166511723Y-88979836D02*
X166321247Y-89027455D01*
X166321247Y-89027455D02*
X166178390Y-89027455D01*
X166178390Y-89027455D02*
X165987914Y-88979836D01*
X165987914Y-88979836D02*
X165892676Y-88932217D01*
X165892676Y-88932217D02*
X165797438Y-88836979D01*
X165797438Y-88836979D02*
X165749819Y-88694122D01*
X165749819Y-88694122D02*
X165749819Y-88598884D01*
X165749819Y-88598884D02*
X165797438Y-88456027D01*
X165797438Y-88456027D02*
X165845057Y-88408408D01*
X166178390Y-87836979D02*
X166130771Y-87932217D01*
X166130771Y-87932217D02*
X166083152Y-87979836D01*
X166083152Y-87979836D02*
X165987914Y-88027455D01*
X165987914Y-88027455D02*
X165940295Y-88027455D01*
X165940295Y-88027455D02*
X165845057Y-87979836D01*
X165845057Y-87979836D02*
X165797438Y-87932217D01*
X165797438Y-87932217D02*
X165749819Y-87836979D01*
X165749819Y-87836979D02*
X165749819Y-87646503D01*
X165749819Y-87646503D02*
X165797438Y-87551265D01*
X165797438Y-87551265D02*
X165845057Y-87503646D01*
X165845057Y-87503646D02*
X165940295Y-87456027D01*
X165940295Y-87456027D02*
X165987914Y-87456027D01*
X165987914Y-87456027D02*
X166083152Y-87503646D01*
X166083152Y-87503646D02*
X166130771Y-87551265D01*
X166130771Y-87551265D02*
X166178390Y-87646503D01*
X166178390Y-87646503D02*
X166178390Y-87836979D01*
X166178390Y-87836979D02*
X166226009Y-87932217D01*
X166226009Y-87932217D02*
X166273628Y-87979836D01*
X166273628Y-87979836D02*
X166368866Y-88027455D01*
X166368866Y-88027455D02*
X166559342Y-88027455D01*
X166559342Y-88027455D02*
X166654580Y-87979836D01*
X166654580Y-87979836D02*
X166702200Y-87932217D01*
X166702200Y-87932217D02*
X166749819Y-87836979D01*
X166749819Y-87836979D02*
X166749819Y-87646503D01*
X166749819Y-87646503D02*
X166702200Y-87551265D01*
X166702200Y-87551265D02*
X166654580Y-87503646D01*
X166654580Y-87503646D02*
X166559342Y-87456027D01*
X166559342Y-87456027D02*
X166368866Y-87456027D01*
X166368866Y-87456027D02*
X166273628Y-87503646D01*
X166273628Y-87503646D02*
X166226009Y-87551265D01*
X166226009Y-87551265D02*
X166178390Y-87646503D01*
X131528095Y-119946561D02*
X131528095Y-120756084D01*
X131528095Y-120756084D02*
X131575714Y-120851322D01*
X131575714Y-120851322D02*
X131623333Y-120898942D01*
X131623333Y-120898942D02*
X131718571Y-120946561D01*
X131718571Y-120946561D02*
X131909047Y-120946561D01*
X131909047Y-120946561D02*
X132004285Y-120898942D01*
X132004285Y-120898942D02*
X132051904Y-120851322D01*
X132051904Y-120851322D02*
X132099523Y-120756084D01*
X132099523Y-120756084D02*
X132099523Y-119946561D01*
X132528095Y-120041799D02*
X132575714Y-119994180D01*
X132575714Y-119994180D02*
X132670952Y-119946561D01*
X132670952Y-119946561D02*
X132909047Y-119946561D01*
X132909047Y-119946561D02*
X133004285Y-119994180D01*
X133004285Y-119994180D02*
X133051904Y-120041799D01*
X133051904Y-120041799D02*
X133099523Y-120137037D01*
X133099523Y-120137037D02*
X133099523Y-120232275D01*
X133099523Y-120232275D02*
X133051904Y-120375132D01*
X133051904Y-120375132D02*
X132480476Y-120946561D01*
X132480476Y-120946561D02*
X133099523Y-120946561D01*
X155813333Y-106866561D02*
X155480000Y-106390370D01*
X155241905Y-106866561D02*
X155241905Y-105866561D01*
X155241905Y-105866561D02*
X155622857Y-105866561D01*
X155622857Y-105866561D02*
X155718095Y-105914180D01*
X155718095Y-105914180D02*
X155765714Y-105961799D01*
X155765714Y-105961799D02*
X155813333Y-106057037D01*
X155813333Y-106057037D02*
X155813333Y-106199894D01*
X155813333Y-106199894D02*
X155765714Y-106295132D01*
X155765714Y-106295132D02*
X155718095Y-106342751D01*
X155718095Y-106342751D02*
X155622857Y-106390370D01*
X155622857Y-106390370D02*
X155241905Y-106390370D01*
X156670476Y-105866561D02*
X156480000Y-105866561D01*
X156480000Y-105866561D02*
X156384762Y-105914180D01*
X156384762Y-105914180D02*
X156337143Y-105961799D01*
X156337143Y-105961799D02*
X156241905Y-106104656D01*
X156241905Y-106104656D02*
X156194286Y-106295132D01*
X156194286Y-106295132D02*
X156194286Y-106676084D01*
X156194286Y-106676084D02*
X156241905Y-106771322D01*
X156241905Y-106771322D02*
X156289524Y-106818942D01*
X156289524Y-106818942D02*
X156384762Y-106866561D01*
X156384762Y-106866561D02*
X156575238Y-106866561D01*
X156575238Y-106866561D02*
X156670476Y-106818942D01*
X156670476Y-106818942D02*
X156718095Y-106771322D01*
X156718095Y-106771322D02*
X156765714Y-106676084D01*
X156765714Y-106676084D02*
X156765714Y-106437989D01*
X156765714Y-106437989D02*
X156718095Y-106342751D01*
X156718095Y-106342751D02*
X156670476Y-106295132D01*
X156670476Y-106295132D02*
X156575238Y-106247513D01*
X156575238Y-106247513D02*
X156384762Y-106247513D01*
X156384762Y-106247513D02*
X156289524Y-106295132D01*
X156289524Y-106295132D02*
X156241905Y-106342751D01*
X156241905Y-106342751D02*
X156194286Y-106437989D01*
X142149580Y-118158408D02*
X142197200Y-118206027D01*
X142197200Y-118206027D02*
X142244819Y-118348884D01*
X142244819Y-118348884D02*
X142244819Y-118444122D01*
X142244819Y-118444122D02*
X142197200Y-118586979D01*
X142197200Y-118586979D02*
X142101961Y-118682217D01*
X142101961Y-118682217D02*
X142006723Y-118729836D01*
X142006723Y-118729836D02*
X141816247Y-118777455D01*
X141816247Y-118777455D02*
X141673390Y-118777455D01*
X141673390Y-118777455D02*
X141482914Y-118729836D01*
X141482914Y-118729836D02*
X141387676Y-118682217D01*
X141387676Y-118682217D02*
X141292438Y-118586979D01*
X141292438Y-118586979D02*
X141244819Y-118444122D01*
X141244819Y-118444122D02*
X141244819Y-118348884D01*
X141244819Y-118348884D02*
X141292438Y-118206027D01*
X141292438Y-118206027D02*
X141340057Y-118158408D01*
X141578152Y-117301265D02*
X142244819Y-117301265D01*
X141197200Y-117539360D02*
X141911485Y-117777455D01*
X141911485Y-117777455D02*
X141911485Y-117158408D01*
X106854819Y-126233333D02*
X107569104Y-126233333D01*
X107569104Y-126233333D02*
X107711961Y-126280952D01*
X107711961Y-126280952D02*
X107807200Y-126376190D01*
X107807200Y-126376190D02*
X107854819Y-126519047D01*
X107854819Y-126519047D02*
X107854819Y-126614285D01*
X107283390Y-125614285D02*
X107235771Y-125709523D01*
X107235771Y-125709523D02*
X107188152Y-125757142D01*
X107188152Y-125757142D02*
X107092914Y-125804761D01*
X107092914Y-125804761D02*
X107045295Y-125804761D01*
X107045295Y-125804761D02*
X106950057Y-125757142D01*
X106950057Y-125757142D02*
X106902438Y-125709523D01*
X106902438Y-125709523D02*
X106854819Y-125614285D01*
X106854819Y-125614285D02*
X106854819Y-125423809D01*
X106854819Y-125423809D02*
X106902438Y-125328571D01*
X106902438Y-125328571D02*
X106950057Y-125280952D01*
X106950057Y-125280952D02*
X107045295Y-125233333D01*
X107045295Y-125233333D02*
X107092914Y-125233333D01*
X107092914Y-125233333D02*
X107188152Y-125280952D01*
X107188152Y-125280952D02*
X107235771Y-125328571D01*
X107235771Y-125328571D02*
X107283390Y-125423809D01*
X107283390Y-125423809D02*
X107283390Y-125614285D01*
X107283390Y-125614285D02*
X107331009Y-125709523D01*
X107331009Y-125709523D02*
X107378628Y-125757142D01*
X107378628Y-125757142D02*
X107473866Y-125804761D01*
X107473866Y-125804761D02*
X107664342Y-125804761D01*
X107664342Y-125804761D02*
X107759580Y-125757142D01*
X107759580Y-125757142D02*
X107807200Y-125709523D01*
X107807200Y-125709523D02*
X107854819Y-125614285D01*
X107854819Y-125614285D02*
X107854819Y-125423809D01*
X107854819Y-125423809D02*
X107807200Y-125328571D01*
X107807200Y-125328571D02*
X107759580Y-125280952D01*
X107759580Y-125280952D02*
X107664342Y-125233333D01*
X107664342Y-125233333D02*
X107473866Y-125233333D01*
X107473866Y-125233333D02*
X107378628Y-125280952D01*
X107378628Y-125280952D02*
X107331009Y-125328571D01*
X107331009Y-125328571D02*
X107283390Y-125423809D01*
X116533333Y-111859580D02*
X116485714Y-111907200D01*
X116485714Y-111907200D02*
X116342857Y-111954819D01*
X116342857Y-111954819D02*
X116247619Y-111954819D01*
X116247619Y-111954819D02*
X116104762Y-111907200D01*
X116104762Y-111907200D02*
X116009524Y-111811961D01*
X116009524Y-111811961D02*
X115961905Y-111716723D01*
X115961905Y-111716723D02*
X115914286Y-111526247D01*
X115914286Y-111526247D02*
X115914286Y-111383390D01*
X115914286Y-111383390D02*
X115961905Y-111192914D01*
X115961905Y-111192914D02*
X116009524Y-111097676D01*
X116009524Y-111097676D02*
X116104762Y-111002438D01*
X116104762Y-111002438D02*
X116247619Y-110954819D01*
X116247619Y-110954819D02*
X116342857Y-110954819D01*
X116342857Y-110954819D02*
X116485714Y-111002438D01*
X116485714Y-111002438D02*
X116533333Y-111050057D01*
X117485714Y-111954819D02*
X116914286Y-111954819D01*
X117200000Y-111954819D02*
X117200000Y-110954819D01*
X117200000Y-110954819D02*
X117104762Y-111097676D01*
X117104762Y-111097676D02*
X117009524Y-111192914D01*
X117009524Y-111192914D02*
X116914286Y-111240533D01*
X167456666Y-109446561D02*
X167456666Y-110160846D01*
X167456666Y-110160846D02*
X167409047Y-110303703D01*
X167409047Y-110303703D02*
X167313809Y-110398942D01*
X167313809Y-110398942D02*
X167170952Y-110446561D01*
X167170952Y-110446561D02*
X167075714Y-110446561D01*
X167837619Y-109446561D02*
X168504285Y-109446561D01*
X168504285Y-109446561D02*
X168075714Y-110446561D01*
X163281905Y-115946561D02*
X163281905Y-114946561D01*
X163281905Y-114946561D02*
X163520000Y-114946561D01*
X163520000Y-114946561D02*
X163662857Y-114994180D01*
X163662857Y-114994180D02*
X163758095Y-115089418D01*
X163758095Y-115089418D02*
X163805714Y-115184656D01*
X163805714Y-115184656D02*
X163853333Y-115375132D01*
X163853333Y-115375132D02*
X163853333Y-115517989D01*
X163853333Y-115517989D02*
X163805714Y-115708465D01*
X163805714Y-115708465D02*
X163758095Y-115803703D01*
X163758095Y-115803703D02*
X163662857Y-115898942D01*
X163662857Y-115898942D02*
X163520000Y-115946561D01*
X163520000Y-115946561D02*
X163281905Y-115946561D01*
X164186667Y-114946561D02*
X164805714Y-114946561D01*
X164805714Y-114946561D02*
X164472381Y-115327513D01*
X164472381Y-115327513D02*
X164615238Y-115327513D01*
X164615238Y-115327513D02*
X164710476Y-115375132D01*
X164710476Y-115375132D02*
X164758095Y-115422751D01*
X164758095Y-115422751D02*
X164805714Y-115517989D01*
X164805714Y-115517989D02*
X164805714Y-115756084D01*
X164805714Y-115756084D02*
X164758095Y-115851322D01*
X164758095Y-115851322D02*
X164710476Y-115898942D01*
X164710476Y-115898942D02*
X164615238Y-115946561D01*
X164615238Y-115946561D02*
X164329524Y-115946561D01*
X164329524Y-115946561D02*
X164234286Y-115898942D01*
X164234286Y-115898942D02*
X164186667Y-115851322D01*
D10*
X152161667Y-125401542D02*
X152304524Y-125449161D01*
X152304524Y-125449161D02*
X152542619Y-125449161D01*
X152542619Y-125449161D02*
X152637857Y-125401542D01*
X152637857Y-125401542D02*
X152685476Y-125353922D01*
X152685476Y-125353922D02*
X152733095Y-125258684D01*
X152733095Y-125258684D02*
X152733095Y-125163446D01*
X152733095Y-125163446D02*
X152685476Y-125068208D01*
X152685476Y-125068208D02*
X152637857Y-125020589D01*
X152637857Y-125020589D02*
X152542619Y-124972970D01*
X152542619Y-124972970D02*
X152352143Y-124925351D01*
X152352143Y-124925351D02*
X152256905Y-124877732D01*
X152256905Y-124877732D02*
X152209286Y-124830113D01*
X152209286Y-124830113D02*
X152161667Y-124734875D01*
X152161667Y-124734875D02*
X152161667Y-124639637D01*
X152161667Y-124639637D02*
X152209286Y-124544399D01*
X152209286Y-124544399D02*
X152256905Y-124496780D01*
X152256905Y-124496780D02*
X152352143Y-124449161D01*
X152352143Y-124449161D02*
X152590238Y-124449161D01*
X152590238Y-124449161D02*
X152733095Y-124496780D01*
X153066429Y-124449161D02*
X153304524Y-125449161D01*
X153304524Y-125449161D02*
X153495000Y-124734875D01*
X153495000Y-124734875D02*
X153685476Y-125449161D01*
X153685476Y-125449161D02*
X153923572Y-124449161D01*
X154256905Y-124544399D02*
X154304524Y-124496780D01*
X154304524Y-124496780D02*
X154399762Y-124449161D01*
X154399762Y-124449161D02*
X154637857Y-124449161D01*
X154637857Y-124449161D02*
X154733095Y-124496780D01*
X154733095Y-124496780D02*
X154780714Y-124544399D01*
X154780714Y-124544399D02*
X154828333Y-124639637D01*
X154828333Y-124639637D02*
X154828333Y-124734875D01*
X154828333Y-124734875D02*
X154780714Y-124877732D01*
X154780714Y-124877732D02*
X154209286Y-125449161D01*
X154209286Y-125449161D02*
X154828333Y-125449161D01*
D13*
X116623333Y-83946561D02*
X116147143Y-83946561D01*
X116147143Y-83946561D02*
X116147143Y-82946561D01*
X117480476Y-83946561D02*
X116909048Y-83946561D01*
X117194762Y-83946561D02*
X117194762Y-82946561D01*
X117194762Y-82946561D02*
X117099524Y-83089418D01*
X117099524Y-83089418D02*
X117004286Y-83184656D01*
X117004286Y-83184656D02*
X116909048Y-83232275D01*
X158456666Y-124196561D02*
X158456666Y-124910846D01*
X158456666Y-124910846D02*
X158409047Y-125053703D01*
X158409047Y-125053703D02*
X158313809Y-125148942D01*
X158313809Y-125148942D02*
X158170952Y-125196561D01*
X158170952Y-125196561D02*
X158075714Y-125196561D01*
X158837619Y-124196561D02*
X159456666Y-124196561D01*
X159456666Y-124196561D02*
X159123333Y-124577513D01*
X159123333Y-124577513D02*
X159266190Y-124577513D01*
X159266190Y-124577513D02*
X159361428Y-124625132D01*
X159361428Y-124625132D02*
X159409047Y-124672751D01*
X159409047Y-124672751D02*
X159456666Y-124767989D01*
X159456666Y-124767989D02*
X159456666Y-125006084D01*
X159456666Y-125006084D02*
X159409047Y-125101322D01*
X159409047Y-125101322D02*
X159361428Y-125148942D01*
X159361428Y-125148942D02*
X159266190Y-125196561D01*
X159266190Y-125196561D02*
X158980476Y-125196561D01*
X158980476Y-125196561D02*
X158885238Y-125148942D01*
X158885238Y-125148942D02*
X158837619Y-125101322D01*
D14*
%TO.C,D1*%
X118271463Y-95471742D02*
G75*
G02*
X118271463Y-97511742I1058537J-1020000D01*
G01*
%TO.C,R4*%
X153195000Y-111946742D02*
X154145000Y-111946742D01*
X158935000Y-111946742D02*
X157985000Y-111946742D01*
X157985000Y-112866742D02*
X154145000Y-112866742D01*
X154145000Y-111026742D01*
X157985000Y-111026742D01*
X157985000Y-112866742D01*
%TO.C,R3*%
X135335000Y-88020000D02*
X135335000Y-88970000D01*
X135335000Y-93760000D02*
X135335000Y-92810000D01*
X136255000Y-88970000D02*
X134415000Y-88970000D01*
X134415000Y-92810000D01*
X136255000Y-92810000D01*
X136255000Y-88970000D01*
%TO.C,C3*%
X138605000Y-99446742D02*
G75*
G02*
X132065000Y-99446742I-3270000J0D01*
G01*
X132065000Y-99446742D02*
G75*
G02*
X138605000Y-99446742I3270000J0D01*
G01*
%TO.C,J1*%
X115465000Y-122859242D02*
X126205000Y-122859242D01*
X115465000Y-126479242D02*
X116705000Y-126479242D01*
X115465000Y-127479242D02*
X116705000Y-127479242D01*
X115465000Y-128779242D02*
X116705000Y-128779242D01*
X115465000Y-130899242D02*
X115465000Y-122859242D01*
X118285000Y-130899242D02*
X115465000Y-130899242D01*
X120465000Y-126479242D02*
X121773000Y-126479242D01*
X120465000Y-127479242D02*
X121773000Y-127479242D01*
X120465000Y-128779242D02*
X123042000Y-128779242D01*
X124128000Y-128779242D02*
X126205000Y-128779242D01*
X125397000Y-126479242D02*
X126205000Y-126479242D01*
X125397000Y-127479242D02*
X126205000Y-127479242D01*
X126205000Y-122859242D02*
X126205000Y-130899242D01*
X126205000Y-130899242D02*
X118885000Y-130899242D01*
X119025000Y-131509242D02*
X118145000Y-131509242D01*
X118585000Y-130899242D01*
X119025000Y-131509242D01*
G36*
X119025000Y-131509242D02*
G01*
X118145000Y-131509242D01*
X118585000Y-130899242D01*
X119025000Y-131509242D01*
G37*
%TO.C,J2*%
X127918600Y-122854600D02*
X138658600Y-122854600D01*
X127918600Y-126474600D02*
X129158600Y-126474600D01*
X127918600Y-127474600D02*
X129158600Y-127474600D01*
X127918600Y-128774600D02*
X129158600Y-128774600D01*
X127918600Y-130894600D02*
X127918600Y-122854600D01*
X130738600Y-130894600D02*
X127918600Y-130894600D01*
X132918600Y-126474600D02*
X134226600Y-126474600D01*
X132918600Y-127474600D02*
X134226600Y-127474600D01*
X132918600Y-128774600D02*
X135495600Y-128774600D01*
X136581600Y-128774600D02*
X138658600Y-128774600D01*
X137850600Y-126474600D02*
X138658600Y-126474600D01*
X137850600Y-127474600D02*
X138658600Y-127474600D01*
X138658600Y-122854600D02*
X138658600Y-130894600D01*
X138658600Y-130894600D02*
X131338600Y-130894600D01*
X131478600Y-131504600D02*
X130598600Y-131504600D01*
X131038600Y-130894600D01*
X131478600Y-131504600D01*
G36*
X131478600Y-131504600D02*
G01*
X130598600Y-131504600D01*
X131038600Y-130894600D01*
X131478600Y-131504600D01*
G37*
%TO.C,J4*%
X169080000Y-112131742D02*
X169080000Y-124851742D01*
X169080000Y-124851742D02*
X173100000Y-124851742D01*
X169580000Y-112631742D02*
X170790000Y-112631742D01*
X169580000Y-124351742D02*
X169580000Y-112631742D01*
X170790000Y-112631742D02*
X170790000Y-112131742D01*
X170790000Y-124351742D02*
X169580000Y-124351742D01*
X170790000Y-124851742D02*
X170790000Y-124351742D01*
X170900000Y-125151742D02*
X173400000Y-125151742D01*
X171600000Y-112131742D02*
X171600000Y-113131742D01*
X171600000Y-113131742D02*
X173100000Y-113131742D01*
X171600000Y-123851742D02*
X173100000Y-123851742D01*
X171600000Y-124851742D02*
X171600000Y-123851742D01*
X173100000Y-112131742D02*
X169080000Y-112131742D01*
X173100000Y-124851742D02*
X173100000Y-112131742D01*
X173400000Y-125151742D02*
X173400000Y-122651742D01*
%TO.C,C2*%
X148410000Y-111991742D02*
G75*
G02*
X143170000Y-111991742I-2620000J0D01*
G01*
X143170000Y-111991742D02*
G75*
G02*
X148410000Y-111991742I2620000J0D01*
G01*
%TO.C,R7*%
X110900000Y-97640000D02*
X110900000Y-98590000D01*
X110900000Y-103380000D02*
X110900000Y-102430000D01*
X111820000Y-98590000D02*
X109980000Y-98590000D01*
X109980000Y-102430000D01*
X111820000Y-102430000D01*
X111820000Y-98590000D01*
%TO.C,C7*%
X132955000Y-85946742D02*
G75*
G02*
X122715000Y-85946742I-5120000J0D01*
G01*
X122715000Y-85946742D02*
G75*
G02*
X132955000Y-85946742I5120000J0D01*
G01*
%TO.C,D2*%
X124580000Y-76911742D02*
X124580000Y-76755742D01*
X124580000Y-79227742D02*
X124580000Y-79071742D01*
X121348563Y-76911742D02*
G75*
G02*
X124580000Y-76756226I1671437J-1080000D01*
G01*
X121979039Y-76911742D02*
G75*
G02*
X124060961Y-76911742I1040961J-1080000D01*
G01*
X124060961Y-79071742D02*
G75*
G02*
X121979039Y-79071742I-1040961J1080000D01*
G01*
X124580000Y-79227258D02*
G75*
G02*
X121348563Y-79071742I-1560000J1235516D01*
G01*
D10*
%TO.C,SW1*%
X141330000Y-127946742D02*
X141330000Y-125946742D01*
X143330000Y-123946742D02*
X147330000Y-123946742D01*
X147330000Y-129946742D02*
X143330000Y-129946742D01*
X149330000Y-125946742D02*
X149330000Y-127946742D01*
X141330000Y-125946742D02*
G75*
G02*
X143330000Y-123946742I2000000J0D01*
G01*
X143330000Y-129946742D02*
G75*
G02*
X141330000Y-127946742I0J2000000D01*
G01*
X147330000Y-123946742D02*
G75*
G02*
X149330000Y-125946742I1J-1999999D01*
G01*
X149330000Y-127946742D02*
G75*
G02*
X147330000Y-129946742I-1999999J-1D01*
G01*
D14*
%TO.C,D4*%
X165495000Y-103456742D02*
X165495000Y-103300742D01*
X165495000Y-105772742D02*
X165495000Y-105616742D01*
X162263563Y-103456742D02*
G75*
G02*
X165495000Y-103301226I1671437J-1080000D01*
G01*
X162894039Y-103456742D02*
G75*
G02*
X164975961Y-103456742I1040961J-1080000D01*
G01*
X164975961Y-105616742D02*
G75*
G02*
X162894039Y-105616742I-1040961J1080000D01*
G01*
X165495000Y-105772258D02*
G75*
G02*
X162263563Y-105616742I-1560000J1235516D01*
G01*
%TO.C,Q1*%
X161485000Y-76341742D02*
X166105000Y-76341742D01*
X161485000Y-79601742D02*
X162865000Y-79601742D01*
X161485000Y-83301742D02*
X162865000Y-83301742D01*
X161485000Y-86561742D02*
X161485000Y-76341742D01*
X162865000Y-86561742D02*
X162865000Y-76341742D01*
X166105000Y-76341742D02*
X166105000Y-86561742D01*
X166105000Y-86561742D02*
X161485000Y-86561742D01*
%TO.C,J6*%
X169980000Y-97241742D02*
X169980000Y-87181742D01*
X169980000Y-99301742D02*
X169980000Y-98241742D01*
X171040000Y-99301742D02*
X169980000Y-99301742D01*
X172100000Y-87181742D02*
X169980000Y-87181742D01*
X172100000Y-97241742D02*
X169980000Y-97241742D01*
X172100000Y-97241742D02*
X172100000Y-87181742D01*
%TO.C,R1*%
X128655000Y-76446742D02*
X129605000Y-76446742D01*
X134395000Y-76446742D02*
X133445000Y-76446742D01*
X129605000Y-75526742D02*
X133445000Y-75526742D01*
X133445000Y-77366742D01*
X129605000Y-77366742D01*
X129605000Y-75526742D01*
%TO.C,C5*%
X149060000Y-104991742D02*
G75*
G02*
X142520000Y-104991742I-3270000J0D01*
G01*
X142520000Y-104991742D02*
G75*
G02*
X149060000Y-104991742I3270000J0D01*
G01*
%TO.C,R5*%
X152965000Y-117991742D02*
X153915000Y-117991742D01*
X158705000Y-117991742D02*
X157755000Y-117991742D01*
X157755000Y-118911742D02*
X153915000Y-118911742D01*
X153915000Y-117071742D01*
X157755000Y-117071742D01*
X157755000Y-118911742D01*
%TO.C,U3*%
X140420000Y-69076742D02*
X140420000Y-75236742D01*
X140420000Y-69076742D02*
X158660000Y-69076742D01*
X140420000Y-94036742D02*
X140420000Y-94816742D01*
X140420000Y-94816742D02*
X141420000Y-94816742D01*
X158660000Y-69076742D02*
X158660000Y-75491742D01*
X158660000Y-94036742D02*
X158660000Y-94816742D01*
X158660000Y-94816742D02*
X157660000Y-94816742D01*
X140415000Y-75961742D02*
X139915000Y-75961742D01*
X140415000Y-75461742D01*
X140415000Y-75961742D01*
G36*
X140415000Y-75961742D02*
G01*
X139915000Y-75961742D01*
X140415000Y-75461742D01*
X140415000Y-75961742D01*
G37*
%TO.C,C6*%
X134415000Y-81961742D02*
X134415000Y-80431742D01*
X136255000Y-80431742D02*
X136255000Y-81961742D01*
%TO.C,U1*%
X115725000Y-98536742D02*
X120345000Y-98536742D01*
X115725000Y-101796742D02*
X117105000Y-101796742D01*
X115725000Y-105496742D02*
X117105000Y-105496742D01*
X115725000Y-108756742D02*
X115725000Y-98536742D01*
X117105000Y-108756742D02*
X117105000Y-98536742D01*
X120345000Y-98536742D02*
X120345000Y-100786742D01*
X120345000Y-99761742D02*
X122981000Y-99761742D01*
X120345000Y-100731742D02*
X122981000Y-100731742D01*
X120345000Y-103106742D02*
X120345000Y-104186742D01*
X120345000Y-103161742D02*
X122981000Y-103161742D01*
X120345000Y-104131742D02*
X122981000Y-104131742D01*
X120345000Y-106506742D02*
X120345000Y-108756742D01*
X120345000Y-106561742D02*
X122875000Y-106561742D01*
X120345000Y-107531742D02*
X122875000Y-107531742D01*
X120345000Y-108756742D02*
X115725000Y-108756742D01*
%TO.C,J10*%
X105980000Y-107180000D02*
X114020000Y-107180000D01*
X105980000Y-117920000D02*
X105980000Y-107180000D01*
X109600000Y-107988000D02*
X109600000Y-107180000D01*
X109600000Y-112920000D02*
X109600000Y-111612000D01*
X109600000Y-117920000D02*
X109600000Y-116680000D01*
X110600000Y-107988000D02*
X110600000Y-107180000D01*
X110600000Y-112920000D02*
X110600000Y-111612000D01*
X110600000Y-117920000D02*
X110600000Y-116680000D01*
X111900000Y-109257000D02*
X111900000Y-107180000D01*
X111900000Y-112920000D02*
X111900000Y-110343000D01*
X111900000Y-117920000D02*
X111900000Y-116680000D01*
X114020000Y-107180000D02*
X114020000Y-114500000D01*
X114020000Y-115100000D02*
X114020000Y-117920000D01*
X114020000Y-117920000D02*
X105980000Y-117920000D01*
X114630000Y-115240000D02*
X114020000Y-114800000D01*
X114630000Y-114360000D01*
X114630000Y-115240000D01*
G36*
X114630000Y-115240000D02*
G01*
X114020000Y-114800000D01*
X114630000Y-114360000D01*
X114630000Y-115240000D01*
G37*
%TO.C,J9*%
X106980000Y-80980000D02*
X115020000Y-80980000D01*
X106980000Y-83800000D02*
X106980000Y-80980000D01*
X106980000Y-91720000D02*
X106980000Y-84400000D01*
X109100000Y-80980000D02*
X109100000Y-82220000D01*
X109100000Y-85980000D02*
X109100000Y-88557000D01*
X109100000Y-89643000D02*
X109100000Y-91720000D01*
X110400000Y-80980000D02*
X110400000Y-82220000D01*
X110400000Y-85980000D02*
X110400000Y-87288000D01*
X110400000Y-90912000D02*
X110400000Y-91720000D01*
X111400000Y-80980000D02*
X111400000Y-82220000D01*
X111400000Y-85980000D02*
X111400000Y-87288000D01*
X111400000Y-90912000D02*
X111400000Y-91720000D01*
X115020000Y-80980000D02*
X115020000Y-91720000D01*
X115020000Y-91720000D02*
X106980000Y-91720000D01*
X106980000Y-84100000D02*
X106370000Y-84540000D01*
X106370000Y-83660000D01*
X106980000Y-84100000D01*
G36*
X106980000Y-84100000D02*
G01*
X106370000Y-84540000D01*
X106370000Y-83660000D01*
X106980000Y-84100000D01*
G37*
%TO.C,R2*%
X132420000Y-105991742D02*
X133370000Y-105991742D01*
X138160000Y-105991742D02*
X137210000Y-105991742D01*
X137210000Y-106911742D02*
X133370000Y-106911742D01*
X133370000Y-105071742D01*
X137210000Y-105071742D01*
X137210000Y-106911742D01*
%TO.C,J5*%
X169035000Y-76881742D02*
X169035000Y-84601742D01*
X169035000Y-84601742D02*
X173055000Y-84601742D01*
X169535000Y-77381742D02*
X170745000Y-77381742D01*
X169535000Y-84101742D02*
X169535000Y-77381742D01*
X170745000Y-77381742D02*
X170745000Y-76881742D01*
X170745000Y-84101742D02*
X169535000Y-84101742D01*
X170745000Y-84601742D02*
X170745000Y-84101742D01*
X170855000Y-84901742D02*
X173355000Y-84901742D01*
X171555000Y-76881742D02*
X171555000Y-77881742D01*
X171555000Y-77881742D02*
X173055000Y-77881742D01*
X171555000Y-83601742D02*
X173055000Y-83601742D01*
X171555000Y-84601742D02*
X171555000Y-83601742D01*
X173055000Y-76881742D02*
X169035000Y-76881742D01*
X173055000Y-84601742D02*
X173055000Y-76881742D01*
X173355000Y-84901742D02*
X173355000Y-82401742D01*
%TO.C,C8*%
X163325000Y-90506742D02*
X163325000Y-88976742D01*
X165165000Y-88976742D02*
X165165000Y-90506742D01*
%TO.C,U2*%
X131925000Y-112581742D02*
X131925000Y-113841742D01*
X131925000Y-119401742D02*
X131925000Y-118141742D01*
X135685000Y-112581742D02*
X131925000Y-112581742D01*
X135685000Y-119401742D02*
X131925000Y-119401742D01*
X137205000Y-119631742D02*
X136725000Y-119631742D01*
X136965000Y-119301742D01*
X137205000Y-119631742D01*
G36*
X137205000Y-119631742D02*
G01*
X136725000Y-119631742D01*
X136965000Y-119301742D01*
X137205000Y-119631742D01*
G37*
%TO.C,R6*%
X153110000Y-104491742D02*
X154060000Y-104491742D01*
X158850000Y-104491742D02*
X157900000Y-104491742D01*
X157900000Y-105411742D02*
X154060000Y-105411742D01*
X154060000Y-103571742D01*
X157900000Y-103571742D01*
X157900000Y-105411742D01*
%TO.C,C4*%
X148410000Y-117991742D02*
G75*
G02*
X143170000Y-117991742I-2620000J0D01*
G01*
X143170000Y-117991742D02*
G75*
G02*
X148410000Y-117991742I2620000J0D01*
G01*
%TO.C,J8*%
X105880000Y-120280000D02*
X113920000Y-120280000D01*
X105880000Y-131020000D02*
X105880000Y-120280000D01*
X109500000Y-121088000D02*
X109500000Y-120280000D01*
X109500000Y-126020000D02*
X109500000Y-124712000D01*
X109500000Y-131020000D02*
X109500000Y-129780000D01*
X110500000Y-121088000D02*
X110500000Y-120280000D01*
X110500000Y-126020000D02*
X110500000Y-124712000D01*
X110500000Y-131020000D02*
X110500000Y-129780000D01*
X111800000Y-122357000D02*
X111800000Y-120280000D01*
X111800000Y-126020000D02*
X111800000Y-123443000D01*
X111800000Y-131020000D02*
X111800000Y-129780000D01*
X113920000Y-120280000D02*
X113920000Y-127600000D01*
X113920000Y-128200000D02*
X113920000Y-131020000D01*
X113920000Y-131020000D02*
X105880000Y-131020000D01*
X114530000Y-128340000D02*
X113920000Y-127900000D01*
X114530000Y-127460000D01*
X114530000Y-128340000D01*
G36*
X114530000Y-128340000D02*
G01*
X113920000Y-127900000D01*
X114530000Y-127460000D01*
X114530000Y-128340000D01*
G37*
%TO.C,C1*%
X126205000Y-115979242D02*
G75*
G02*
X115965000Y-115979242I-5120000J0D01*
G01*
X115965000Y-115979242D02*
G75*
G02*
X126205000Y-115979242I5120000J0D01*
G01*
%TO.C,J7*%
X169030000Y-100631742D02*
X169030000Y-110851742D01*
X169030000Y-110851742D02*
X173050000Y-110851742D01*
X169530000Y-101131742D02*
X170740000Y-101131742D01*
X169530000Y-110351742D02*
X169530000Y-101131742D01*
X170740000Y-101131742D02*
X170740000Y-100631742D01*
X170740000Y-110351742D02*
X169530000Y-110351742D01*
X170740000Y-110851742D02*
X170740000Y-110351742D01*
X170850000Y-111151742D02*
X173350000Y-111151742D01*
X171550000Y-100631742D02*
X171550000Y-101631742D01*
X171550000Y-101631742D02*
X173050000Y-101631742D01*
X171550000Y-109851742D02*
X173050000Y-109851742D01*
X171550000Y-110851742D02*
X171550000Y-109851742D01*
X173050000Y-100631742D02*
X169030000Y-100631742D01*
X173050000Y-110851742D02*
X173050000Y-100631742D01*
X173350000Y-111151742D02*
X173350000Y-108651742D01*
%TO.C,D3*%
X162460000Y-110755742D02*
X162460000Y-110911742D01*
X162460000Y-113071742D02*
X162460000Y-113227742D01*
X162460000Y-110756226D02*
G75*
G02*
X165691437Y-110911742I1560000J-1235516D01*
G01*
X162979039Y-110911742D02*
G75*
G02*
X165060961Y-110911742I1040961J-1080000D01*
G01*
X165060961Y-113071742D02*
G75*
G02*
X162979039Y-113071742I-1040961J1080000D01*
G01*
X165691437Y-113071742D02*
G75*
G02*
X162460000Y-113227258I-1671437J1080000D01*
G01*
D10*
%TO.C,SW2*%
X149540000Y-127946742D02*
X149540000Y-125946742D01*
X151540000Y-123946742D02*
X155540000Y-123946742D01*
X155540000Y-129946742D02*
X151540000Y-129946742D01*
X157540000Y-125946742D02*
X157540000Y-127946742D01*
X149540000Y-125946742D02*
G75*
G02*
X151540000Y-123946742I2000000J0D01*
G01*
X151540000Y-129946742D02*
G75*
G02*
X149540000Y-127946742I0J2000000D01*
G01*
X155540000Y-123946742D02*
G75*
G02*
X157540000Y-125946742I1J-1999999D01*
G01*
X157540000Y-127946742D02*
G75*
G02*
X155540000Y-129946742I-1999999J-1D01*
G01*
D14*
%TO.C,L1*%
X118390000Y-85946742D02*
X118610000Y-85946742D01*
X118390000Y-85946742D02*
G75*
G02*
X115950000Y-85946742I-1220000J0D01*
G01*
X115950000Y-85946742D02*
G75*
G02*
X118390000Y-85946742I1220000J0D01*
G01*
%TO.C,J3*%
X158480000Y-125931742D02*
X158480000Y-128051742D01*
X168540000Y-125931742D02*
X158480000Y-125931742D01*
X168540000Y-125931742D02*
X168540000Y-128051742D01*
X168540000Y-128051742D02*
X158480000Y-128051742D01*
X170600000Y-126991742D02*
X170600000Y-128051742D01*
X170600000Y-128051742D02*
X169540000Y-128051742D01*
%TD*%
M02*
