%TF.GenerationSoftware,KiCad,Pcbnew,9.0.6*%
%TF.CreationDate,2026-03-01T21:32:31+05:30*%
%TF.ProjectId,4th_YearProject,3474685f-5965-4617-9250-726f6a656374,RaunakR16*%
%TF.SameCoordinates,Original*%
%TF.FileFunction,Other,User*%
%FSLAX46Y46*%
G04 Gerber Fmt 4.6, Leading zero omitted, Abs format (unit mm)*
G04 Created by KiCad (PCBNEW 9.0.6) date 2026-03-01 21:32:31*
%MOMM*%
%LPD*%
G01*
G04 APERTURE LIST*
%ADD10C,0.050000*%
G04 APERTURE END LIST*
%TO.C,D1*%
D10*
X115640000Y-94891742D02*
X120940000Y-94891742D01*
X120940000Y-98091742D01*
X115640000Y-98091742D01*
X115640000Y-94891742D01*
%TO.C,R4*%
X160825000Y-112996742D02*
X151305000Y-112996742D01*
X151305000Y-110896742D01*
X160825000Y-110896742D01*
X160825000Y-112996742D01*
%TO.C,R3*%
X136385000Y-86130000D02*
X134285000Y-86130000D01*
X134285000Y-95650000D01*
X136385000Y-95650000D01*
X136385000Y-86130000D01*
%TO.C,C3*%
X138735000Y-99446742D02*
G75*
G02*
X131935000Y-99446742I-3400000J0D01*
G01*
X131935000Y-99446742D02*
G75*
G02*
X138735000Y-99446742I3400000J0D01*
G01*
%TO.C,J1*%
X115085000Y-122479242D02*
X115085000Y-131289242D01*
X115085000Y-131289242D02*
X126585000Y-131289242D01*
X126585000Y-122479242D02*
X115085000Y-122479242D01*
X126585000Y-131289242D02*
X126585000Y-122479242D01*
%TO.C,J2*%
X127538600Y-122474600D02*
X127538600Y-131284600D01*
X127538600Y-131284600D02*
X139038600Y-131284600D01*
X139038600Y-122474600D02*
X127538600Y-122474600D01*
X139038600Y-131284600D02*
X139038600Y-122474600D01*
%TO.C,J4*%
X168690000Y-111741742D02*
X168690000Y-125241742D01*
X168690000Y-125241742D02*
X173490000Y-125241742D01*
X173490000Y-111741742D02*
X168690000Y-111741742D01*
X173490000Y-125241742D02*
X173490000Y-111741742D01*
%TO.C,C2*%
X148540000Y-111991742D02*
G75*
G02*
X143040000Y-111991742I-2750000J0D01*
G01*
X143040000Y-111991742D02*
G75*
G02*
X148540000Y-111991742I2750000J0D01*
G01*
%TO.C,R7*%
X111950000Y-95750000D02*
X109850000Y-95750000D01*
X109850000Y-105270000D01*
X111950000Y-105270000D01*
X111950000Y-95750000D01*
%TO.C,C7*%
X133085000Y-85946742D02*
G75*
G02*
X122585000Y-85946742I-5250000J0D01*
G01*
X122585000Y-85946742D02*
G75*
G02*
X133085000Y-85946742I5250000J0D01*
G01*
%TO.C,D2*%
X120600000Y-75781742D02*
X120600000Y-80201742D01*
X120600000Y-80201742D02*
X125440000Y-80201742D01*
X125440000Y-75781742D02*
X120600000Y-75781742D01*
X125440000Y-80201742D02*
X125440000Y-75781742D01*
%TO.C,D4*%
X161515000Y-102326742D02*
X161515000Y-106746742D01*
X161515000Y-106746742D02*
X166355000Y-106746742D01*
X166355000Y-102326742D02*
X161515000Y-102326742D01*
X166355000Y-106746742D02*
X166355000Y-102326742D01*
%TO.C,Q1*%
X161345000Y-86701742D02*
X166245000Y-86701742D01*
X166245000Y-76201742D01*
X161345000Y-76201742D01*
X161345000Y-86701742D01*
%TO.C,J6*%
X169540000Y-86741742D02*
X172540000Y-86741742D01*
X169540000Y-99741742D02*
X169540000Y-86741742D01*
X172540000Y-86741742D02*
X172540000Y-99741742D01*
X172540000Y-99741742D02*
X169540000Y-99741742D01*
%TO.C,R1*%
X126765000Y-75396742D02*
X136285000Y-75396742D01*
X136285000Y-77496742D01*
X126765000Y-77496742D01*
X126765000Y-75396742D01*
%TO.C,C5*%
X149190000Y-104991742D02*
G75*
G02*
X142390000Y-104991742I-3400000J0D01*
G01*
X142390000Y-104991742D02*
G75*
G02*
X149190000Y-104991742I3400000J0D01*
G01*
%TO.C,R5*%
X160595000Y-119041742D02*
X151075000Y-119041742D01*
X151075000Y-116941742D01*
X160595000Y-116941742D01*
X160595000Y-119041742D01*
%TO.C,U3*%
X125540000Y-54196742D02*
X125540000Y-75136742D01*
X125540000Y-75136742D02*
X139790000Y-75136742D01*
X139790000Y-95446742D02*
X139790000Y-75136742D01*
X139790000Y-95446742D02*
X159290000Y-95446742D01*
X159290000Y-75136742D02*
X159290000Y-95446742D01*
X159290000Y-75136742D02*
X173540000Y-75136742D01*
X173540000Y-54196742D02*
X125540000Y-54196742D01*
X173540000Y-75136742D02*
X173540000Y-54196742D01*
%TO.C,C6*%
X136385000Y-78896742D02*
X134285000Y-78896742D01*
X134285000Y-83496742D01*
X136385000Y-83496742D01*
X136385000Y-78896742D01*
%TO.C,U1*%
X115585000Y-98396742D02*
X120485000Y-98396742D01*
X115585000Y-108896742D02*
X115585000Y-98396742D01*
X120485000Y-98396742D02*
X120485000Y-99616742D01*
X120485000Y-99616742D02*
X122885000Y-99616742D01*
X120485000Y-107676742D02*
X120485000Y-108896742D01*
X120485000Y-108896742D02*
X115585000Y-108896742D01*
X121485000Y-100876742D02*
X121485000Y-103016742D01*
X121485000Y-103016742D02*
X122885000Y-103016742D01*
X121485000Y-104276742D02*
X121485000Y-106416742D01*
X121485000Y-106416742D02*
X122885000Y-106416742D01*
X122885000Y-99096742D02*
X125185000Y-99096742D01*
X122885000Y-99616742D02*
X122885000Y-99096742D01*
X122885000Y-100876742D02*
X121485000Y-100876742D01*
X122885000Y-101406742D02*
X122885000Y-100876742D01*
X122885000Y-102496742D02*
X125185000Y-102496742D01*
X122885000Y-103016742D02*
X122885000Y-102496742D01*
X122885000Y-104276742D02*
X121485000Y-104276742D01*
X122885000Y-104796742D02*
X122885000Y-104276742D01*
X122885000Y-105896742D02*
X125185000Y-105896742D01*
X122885000Y-106416742D02*
X122885000Y-105896742D01*
X122885000Y-107676742D02*
X120485000Y-107676742D01*
X122885000Y-108196742D02*
X122885000Y-107676742D01*
X125185000Y-99096742D02*
X125185000Y-101406742D01*
X125185000Y-101406742D02*
X122885000Y-101406742D01*
X125185000Y-102496742D02*
X125185000Y-104796742D01*
X125185000Y-104796742D02*
X122885000Y-104796742D01*
X125185000Y-105896742D02*
X125185000Y-108196742D01*
X125185000Y-108196742D02*
X122885000Y-108196742D01*
%TO.C,J10*%
X105600000Y-106800000D02*
X105600000Y-118300000D01*
X105600000Y-118300000D02*
X114410000Y-118300000D01*
X114410000Y-106800000D02*
X105600000Y-106800000D01*
X114410000Y-118300000D02*
X114410000Y-106800000D01*
%TO.C,J9*%
X106590000Y-80600000D02*
X106590000Y-92100000D01*
X106590000Y-92100000D02*
X115400000Y-92100000D01*
X115400000Y-80600000D02*
X106590000Y-80600000D01*
X115400000Y-92100000D02*
X115400000Y-80600000D01*
%TO.C,R2*%
X140050000Y-107041742D02*
X130530000Y-107041742D01*
X130530000Y-104941742D01*
X140050000Y-104941742D01*
X140050000Y-107041742D01*
%TO.C,J5*%
X168645000Y-76491742D02*
X168645000Y-84991742D01*
X168645000Y-84991742D02*
X173445000Y-84991742D01*
X173445000Y-76491742D02*
X168645000Y-76491742D01*
X173445000Y-84991742D02*
X173445000Y-76491742D01*
%TO.C,C8*%
X165295000Y-87441742D02*
X163195000Y-87441742D01*
X163195000Y-92041742D01*
X165295000Y-92041742D01*
X165295000Y-87441742D01*
%TO.C,U2*%
X129435000Y-112391742D02*
X129435000Y-119591742D01*
X129435000Y-119591742D02*
X138235000Y-119591742D01*
X138235000Y-112391742D02*
X129435000Y-112391742D01*
X138235000Y-119591742D02*
X138235000Y-112391742D01*
%TO.C,R6*%
X160740000Y-105541742D02*
X151220000Y-105541742D01*
X151220000Y-103441742D01*
X160740000Y-103441742D01*
X160740000Y-105541742D01*
%TO.C,C4*%
X148540000Y-117991742D02*
G75*
G02*
X143040000Y-117991742I-2750000J0D01*
G01*
X143040000Y-117991742D02*
G75*
G02*
X148540000Y-117991742I2750000J0D01*
G01*
%TO.C,J8*%
X105500000Y-119900000D02*
X105500000Y-131400000D01*
X105500000Y-131400000D02*
X114310000Y-131400000D01*
X114310000Y-119900000D02*
X105500000Y-119900000D01*
X114310000Y-131400000D02*
X114310000Y-119900000D01*
%TO.C,C1*%
X126335000Y-115979242D02*
G75*
G02*
X115835000Y-115979242I-5250000J0D01*
G01*
X115835000Y-115979242D02*
G75*
G02*
X126335000Y-115979242I5250000J0D01*
G01*
%TO.C,J7*%
X168640000Y-100241742D02*
X168640000Y-111241742D01*
X168640000Y-111241742D02*
X173440000Y-111241742D01*
X173440000Y-100241742D02*
X168640000Y-100241742D01*
X173440000Y-111241742D02*
X173440000Y-100241742D01*
%TO.C,D3*%
X161600000Y-109781742D02*
X161600000Y-114201742D01*
X161600000Y-114201742D02*
X166440000Y-114201742D01*
X166440000Y-109781742D02*
X161600000Y-109781742D01*
X166440000Y-114201742D02*
X166440000Y-109781742D01*
%TO.C,L1*%
X115820000Y-84596742D02*
X120760000Y-84596742D01*
X120760000Y-87296742D01*
X115820000Y-87296742D01*
X115820000Y-84596742D01*
%TO.C,J3*%
X158040000Y-125491742D02*
X171040000Y-125491742D01*
X158040000Y-128491742D02*
X158040000Y-125491742D01*
X171040000Y-125491742D02*
X171040000Y-128491742D01*
X171040000Y-128491742D02*
X158040000Y-128491742D01*
%TD*%
M02*
