%TF.GenerationSoftware,KiCad,Pcbnew,9.0.6*%
%TF.CreationDate,2026-03-01T21:32:30+05:30*%
%TF.ProjectId,4th_YearProject,3474685f-5965-4617-9250-726f6a656374,RaunakR16*%
%TF.SameCoordinates,Original*%
%TF.FileFunction,Soldermask,Top*%
%TF.FilePolarity,Negative*%
%FSLAX46Y46*%
G04 Gerber Fmt 4.6, Leading zero omitted, Abs format (unit mm)*
G04 Created by KiCad (PCBNEW 9.0.6) date 2026-03-01 21:32:30*
%MOMM*%
%LPD*%
G01*
G04 APERTURE LIST*
G04 Aperture macros list*
%AMRoundRect*
0 Rectangle with rounded corners*
0 $1 Rounding radius*
0 $2 $3 $4 $5 $6 $7 $8 $9 X,Y pos of 4 corners*
0 Add a 4 corners polygon primitive as box body*
4,1,4,$2,$3,$4,$5,$6,$7,$8,$9,$2,$3,0*
0 Add four circle primitives for the rounded corners*
1,1,$1+$1,$2,$3*
1,1,$1+$1,$4,$5*
1,1,$1+$1,$6,$7*
1,1,$1+$1,$8,$9*
0 Add four rect primitives between the rounded corners*
20,1,$1+$1,$2,$3,$4,$5,0*
20,1,$1+$1,$4,$5,$6,$7,0*
20,1,$1+$1,$6,$7,$8,$9,0*
20,1,$1+$1,$8,$9,$2,$3,0*%
G04 Aperture macros list end*
%ADD10RoundRect,0.250000X-0.650000X-0.650000X0.650000X-0.650000X0.650000X0.650000X-0.650000X0.650000X0*%
%ADD11C,1.800000*%
%ADD12C,1.400000*%
%ADD13C,1.600000*%
%ADD14RoundRect,0.250001X-1.149999X-1.149999X1.149999X-1.149999X1.149999X1.149999X-1.149999X1.149999X0*%
%ADD15C,2.800000*%
%ADD16RoundRect,0.250000X0.725000X-0.600000X0.725000X0.600000X-0.725000X0.600000X-0.725000X-0.600000X0*%
%ADD17O,1.950000X1.700000*%
%ADD18C,1.200000*%
%ADD19R,1.800000X1.800000*%
%ADD20C,1.524000*%
%ADD21O,1.524000X1.524000*%
%ADD22R,2.000000X1.905000*%
%ADD23O,2.000000X1.905000*%
%ADD24R,1.350000X1.350000*%
%ADD25C,1.350000*%
%ADD26R,1.500000X0.900000*%
%ADD27R,0.900000X1.500000*%
%ADD28C,0.600000*%
%ADD29R,4.200000X4.200000*%
%ADD30RoundRect,0.250001X1.149999X-1.149999X1.149999X1.149999X-1.149999X1.149999X-1.149999X-1.149999X0*%
%ADD31RoundRect,0.250001X-1.149999X1.149999X-1.149999X-1.149999X1.149999X-1.149999X1.149999X1.149999X0*%
%ADD32RoundRect,0.250000X0.750000X-0.600000X0.750000X0.600000X-0.750000X0.600000X-0.750000X-0.600000X0*%
%ADD33O,2.000000X1.700000*%
%ADD34RoundRect,0.375000X0.625000X0.375000X-0.625000X0.375000X-0.625000X-0.375000X0.625000X-0.375000X0*%
%ADD35RoundRect,0.500000X0.500000X1.400000X-0.500000X1.400000X-0.500000X-1.400000X0.500000X-1.400000X0*%
G04 APERTURE END LIST*
D10*
%TO.C,D1*%
X116790000Y-96491742D03*
D11*
X119330000Y-96491742D03*
%TD*%
D12*
%TO.C,R4*%
X159875000Y-111946742D03*
X152255000Y-111946742D03*
%TD*%
%TO.C,R3*%
X135335000Y-87080000D03*
X135335000Y-94700000D03*
%TD*%
D13*
%TO.C,C3*%
X135335000Y-100696742D03*
X135335000Y-98196742D03*
%TD*%
D14*
%TO.C,J1*%
X118585000Y-126979242D03*
D15*
X123585000Y-126979242D03*
%TD*%
D14*
%TO.C,J2*%
X131038600Y-126974600D03*
D15*
X136038600Y-126974600D03*
%TD*%
D16*
%TO.C,J4*%
X170790000Y-122241742D03*
D17*
X170790000Y-119741742D03*
X170790000Y-117241742D03*
X170790000Y-114741742D03*
%TD*%
D18*
%TO.C,C2*%
X145790000Y-110991742D03*
X145790000Y-112991742D03*
%TD*%
D12*
%TO.C,R7*%
X110900000Y-96700000D03*
X110900000Y-104320000D03*
%TD*%
D13*
%TO.C,C7*%
X127835000Y-83446742D03*
X127835000Y-88446742D03*
%TD*%
D19*
%TO.C,D2*%
X124290000Y-77991742D03*
D11*
X121750000Y-77991742D03*
%TD*%
D20*
%TO.C,SW1*%
X147830000Y-126946742D03*
D21*
X142790000Y-126946742D03*
%TD*%
D19*
%TO.C,D4*%
X165205000Y-104536742D03*
D11*
X162665000Y-104536742D03*
%TD*%
D22*
%TO.C,Q1*%
X164745000Y-83991742D03*
D23*
X164745000Y-81451742D03*
X164745000Y-78911742D03*
%TD*%
D24*
%TO.C,J6*%
X171040000Y-98241742D03*
D25*
X171040000Y-96241742D03*
X171040000Y-94241742D03*
X171040000Y-92241742D03*
X171040000Y-90241742D03*
X171040000Y-88241742D03*
%TD*%
D12*
%TO.C,R1*%
X127715000Y-76446742D03*
X135335000Y-76446742D03*
%TD*%
D13*
%TO.C,C5*%
X145790000Y-103741742D03*
X145790000Y-106241742D03*
%TD*%
D12*
%TO.C,R5*%
X159645000Y-117991742D03*
X152025000Y-117991742D03*
%TD*%
D26*
%TO.C,U3*%
X140790000Y-76686742D03*
X140790000Y-77956742D03*
X140790000Y-79226742D03*
X140790000Y-80496742D03*
X140790000Y-81766742D03*
X140790000Y-83036742D03*
X140790000Y-84306742D03*
X140790000Y-85576742D03*
X140790000Y-86846742D03*
X140790000Y-88116742D03*
X140790000Y-89386742D03*
X140790000Y-90656742D03*
X140790000Y-91926742D03*
X140790000Y-93196742D03*
D27*
X143830000Y-94446742D03*
X145100000Y-94446742D03*
X146370000Y-94446742D03*
X147640000Y-94446742D03*
X148910000Y-94446742D03*
X150180000Y-94446742D03*
X151450000Y-94446742D03*
X152720000Y-94446742D03*
X153990000Y-94446742D03*
X155260000Y-94446742D03*
D26*
X158290000Y-93196742D03*
X158290000Y-91926742D03*
X158290000Y-90656742D03*
X158290000Y-89386742D03*
X158290000Y-88116742D03*
X158290000Y-86846742D03*
X158290000Y-85576742D03*
X158290000Y-84306742D03*
X158290000Y-83036742D03*
X158290000Y-81766742D03*
X158290000Y-80496742D03*
X158290000Y-79226742D03*
X158290000Y-77956742D03*
X158290000Y-76686742D03*
D28*
X147335000Y-83264242D03*
X147335000Y-84789242D03*
X148097500Y-82501742D03*
X148097500Y-84026742D03*
X148097500Y-85551742D03*
X148860000Y-83264242D03*
D29*
X148860000Y-84026742D03*
D28*
X148860000Y-84789242D03*
X149622500Y-82501742D03*
X149622500Y-84026742D03*
X149622500Y-85551742D03*
X150385000Y-83264242D03*
X150385000Y-84789242D03*
%TD*%
D13*
%TO.C,C6*%
X135335000Y-79946742D03*
X135335000Y-82446742D03*
%TD*%
D19*
%TO.C,U1*%
X124035000Y-107046742D03*
D11*
X120335000Y-105346742D03*
X124035000Y-103646742D03*
X120335000Y-101946742D03*
X124035000Y-100246742D03*
%TD*%
D30*
%TO.C,J10*%
X110100000Y-114800000D03*
D15*
X110100000Y-109800000D03*
%TD*%
D31*
%TO.C,J9*%
X110900000Y-84100000D03*
D15*
X110900000Y-89100000D03*
%TD*%
D12*
%TO.C,R2*%
X139100000Y-105991742D03*
X131480000Y-105991742D03*
%TD*%
D32*
%TO.C,J5*%
X170745000Y-81991742D03*
D33*
X170745000Y-79491742D03*
%TD*%
D13*
%TO.C,C8*%
X164245000Y-88491742D03*
X164245000Y-90991742D03*
%TD*%
D34*
%TO.C,U2*%
X136985000Y-118291742D03*
X136985000Y-115991742D03*
D35*
X130685000Y-115991742D03*
D34*
X136985000Y-113691742D03*
%TD*%
D12*
%TO.C,R6*%
X159790000Y-104491742D03*
X152170000Y-104491742D03*
%TD*%
D18*
%TO.C,C4*%
X145790000Y-118991742D03*
X145790000Y-116991742D03*
%TD*%
D30*
%TO.C,J8*%
X110000000Y-127900000D03*
D15*
X110000000Y-122900000D03*
%TD*%
D13*
%TO.C,C1*%
X123585000Y-115979242D03*
X118585000Y-115979242D03*
%TD*%
D16*
%TO.C,J7*%
X170740000Y-108241742D03*
D17*
X170740000Y-105741742D03*
X170740000Y-103241742D03*
%TD*%
D19*
%TO.C,D3*%
X162750000Y-111991742D03*
D11*
X165290000Y-111991742D03*
%TD*%
D20*
%TO.C,SW2*%
X156040000Y-126946742D03*
D21*
X151000000Y-126946742D03*
%TD*%
D13*
%TO.C,L1*%
X117170000Y-85946742D03*
X119710000Y-85946742D03*
%TD*%
D24*
%TO.C,J3*%
X169540000Y-126991742D03*
D25*
X167540000Y-126991742D03*
X165540000Y-126991742D03*
X163540000Y-126991742D03*
X161540000Y-126991742D03*
X159540000Y-126991742D03*
%TD*%
M02*
