%TF.GenerationSoftware,KiCad,Pcbnew,9.0.6*%
%TF.CreationDate,2026-03-01T21:32:31+05:30*%
%TF.ProjectId,4th_YearProject,3474685f-5965-4617-9250-726f6a656374,RaunakR16*%
%TF.SameCoordinates,Original*%
%TF.FileFunction,Other,Comment*%
%FSLAX46Y46*%
G04 Gerber Fmt 4.6, Leading zero omitted, Abs format (unit mm)*
G04 Created by KiCad (PCBNEW 9.0.6) date 2026-03-01 21:32:31*
%MOMM*%
%LPD*%
G01*
G04 APERTURE LIST*
%ADD10C,0.150000*%
G04 APERTURE END LIST*
D10*
X146778095Y-72105846D02*
X147254285Y-72105846D01*
X146682857Y-72391561D02*
X147016190Y-71391561D01*
X147016190Y-71391561D02*
X147349523Y-72391561D01*
X147682857Y-71724894D02*
X147682857Y-72391561D01*
X147682857Y-71820132D02*
X147730476Y-71772513D01*
X147730476Y-71772513D02*
X147825714Y-71724894D01*
X147825714Y-71724894D02*
X147968571Y-71724894D01*
X147968571Y-71724894D02*
X148063809Y-71772513D01*
X148063809Y-71772513D02*
X148111428Y-71867751D01*
X148111428Y-71867751D02*
X148111428Y-72391561D01*
X148444762Y-71724894D02*
X148825714Y-71724894D01*
X148587619Y-71391561D02*
X148587619Y-72248703D01*
X148587619Y-72248703D02*
X148635238Y-72343942D01*
X148635238Y-72343942D02*
X148730476Y-72391561D01*
X148730476Y-72391561D02*
X148825714Y-72391561D01*
X149540000Y-72343942D02*
X149444762Y-72391561D01*
X149444762Y-72391561D02*
X149254286Y-72391561D01*
X149254286Y-72391561D02*
X149159048Y-72343942D01*
X149159048Y-72343942D02*
X149111429Y-72248703D01*
X149111429Y-72248703D02*
X149111429Y-71867751D01*
X149111429Y-71867751D02*
X149159048Y-71772513D01*
X149159048Y-71772513D02*
X149254286Y-71724894D01*
X149254286Y-71724894D02*
X149444762Y-71724894D01*
X149444762Y-71724894D02*
X149540000Y-71772513D01*
X149540000Y-71772513D02*
X149587619Y-71867751D01*
X149587619Y-71867751D02*
X149587619Y-71962989D01*
X149587619Y-71962989D02*
X149111429Y-72058227D01*
X150016191Y-71724894D02*
X150016191Y-72391561D01*
X150016191Y-71820132D02*
X150063810Y-71772513D01*
X150063810Y-71772513D02*
X150159048Y-71724894D01*
X150159048Y-71724894D02*
X150301905Y-71724894D01*
X150301905Y-71724894D02*
X150397143Y-71772513D01*
X150397143Y-71772513D02*
X150444762Y-71867751D01*
X150444762Y-71867751D02*
X150444762Y-72391561D01*
X150920953Y-71724894D02*
X150920953Y-72391561D01*
X150920953Y-71820132D02*
X150968572Y-71772513D01*
X150968572Y-71772513D02*
X151063810Y-71724894D01*
X151063810Y-71724894D02*
X151206667Y-71724894D01*
X151206667Y-71724894D02*
X151301905Y-71772513D01*
X151301905Y-71772513D02*
X151349524Y-71867751D01*
X151349524Y-71867751D02*
X151349524Y-72391561D01*
X152254286Y-72391561D02*
X152254286Y-71867751D01*
X152254286Y-71867751D02*
X152206667Y-71772513D01*
X152206667Y-71772513D02*
X152111429Y-71724894D01*
X152111429Y-71724894D02*
X151920953Y-71724894D01*
X151920953Y-71724894D02*
X151825715Y-71772513D01*
X152254286Y-72343942D02*
X152159048Y-72391561D01*
X152159048Y-72391561D02*
X151920953Y-72391561D01*
X151920953Y-72391561D02*
X151825715Y-72343942D01*
X151825715Y-72343942D02*
X151778096Y-72248703D01*
X151778096Y-72248703D02*
X151778096Y-72153465D01*
X151778096Y-72153465D02*
X151825715Y-72058227D01*
X151825715Y-72058227D02*
X151920953Y-72010608D01*
X151920953Y-72010608D02*
X152159048Y-72010608D01*
X152159048Y-72010608D02*
X152254286Y-71962989D01*
X137447142Y-63374180D02*
X137447142Y-61374180D01*
X138589999Y-63374180D02*
X137732856Y-62231322D01*
X138589999Y-61374180D02*
X137447142Y-62517037D01*
X139447142Y-62326561D02*
X140113809Y-62326561D01*
X140399523Y-63374180D02*
X139447142Y-63374180D01*
X139447142Y-63374180D02*
X139447142Y-61374180D01*
X139447142Y-61374180D02*
X140399523Y-61374180D01*
X141256666Y-62326561D02*
X141923333Y-62326561D01*
X142209047Y-63374180D02*
X141256666Y-63374180D01*
X141256666Y-63374180D02*
X141256666Y-61374180D01*
X141256666Y-61374180D02*
X142209047Y-61374180D01*
X143066190Y-63374180D02*
X143066190Y-61374180D01*
X143066190Y-61374180D02*
X143828095Y-61374180D01*
X143828095Y-61374180D02*
X144018571Y-61469418D01*
X144018571Y-61469418D02*
X144113809Y-61564656D01*
X144113809Y-61564656D02*
X144209047Y-61755132D01*
X144209047Y-61755132D02*
X144209047Y-62040846D01*
X144209047Y-62040846D02*
X144113809Y-62231322D01*
X144113809Y-62231322D02*
X144018571Y-62326561D01*
X144018571Y-62326561D02*
X143828095Y-62421799D01*
X143828095Y-62421799D02*
X143066190Y-62421799D01*
X145066190Y-62612275D02*
X146590000Y-62612275D01*
X147923332Y-61374180D02*
X148304285Y-61374180D01*
X148304285Y-61374180D02*
X148494761Y-61469418D01*
X148494761Y-61469418D02*
X148685237Y-61659894D01*
X148685237Y-61659894D02*
X148780475Y-62040846D01*
X148780475Y-62040846D02*
X148780475Y-62707513D01*
X148780475Y-62707513D02*
X148685237Y-63088465D01*
X148685237Y-63088465D02*
X148494761Y-63278942D01*
X148494761Y-63278942D02*
X148304285Y-63374180D01*
X148304285Y-63374180D02*
X147923332Y-63374180D01*
X147923332Y-63374180D02*
X147732856Y-63278942D01*
X147732856Y-63278942D02*
X147542380Y-63088465D01*
X147542380Y-63088465D02*
X147447142Y-62707513D01*
X147447142Y-62707513D02*
X147447142Y-62040846D01*
X147447142Y-62040846D02*
X147542380Y-61659894D01*
X147542380Y-61659894D02*
X147732856Y-61469418D01*
X147732856Y-61469418D02*
X147923332Y-61374180D01*
X149637618Y-61374180D02*
X149637618Y-62993227D01*
X149637618Y-62993227D02*
X149732856Y-63183703D01*
X149732856Y-63183703D02*
X149828094Y-63278942D01*
X149828094Y-63278942D02*
X150018570Y-63374180D01*
X150018570Y-63374180D02*
X150399523Y-63374180D01*
X150399523Y-63374180D02*
X150589999Y-63278942D01*
X150589999Y-63278942D02*
X150685237Y-63183703D01*
X150685237Y-63183703D02*
X150780475Y-62993227D01*
X150780475Y-62993227D02*
X150780475Y-61374180D01*
X151447142Y-61374180D02*
X152589999Y-61374180D01*
X152018570Y-63374180D02*
X152018570Y-61374180D01*
X154590000Y-61374180D02*
X155923333Y-61374180D01*
X155923333Y-61374180D02*
X154590000Y-63374180D01*
X154590000Y-63374180D02*
X155923333Y-63374180D01*
X157066190Y-61374180D02*
X157447143Y-61374180D01*
X157447143Y-61374180D02*
X157637619Y-61469418D01*
X157637619Y-61469418D02*
X157828095Y-61659894D01*
X157828095Y-61659894D02*
X157923333Y-62040846D01*
X157923333Y-62040846D02*
X157923333Y-62707513D01*
X157923333Y-62707513D02*
X157828095Y-63088465D01*
X157828095Y-63088465D02*
X157637619Y-63278942D01*
X157637619Y-63278942D02*
X157447143Y-63374180D01*
X157447143Y-63374180D02*
X157066190Y-63374180D01*
X157066190Y-63374180D02*
X156875714Y-63278942D01*
X156875714Y-63278942D02*
X156685238Y-63088465D01*
X156685238Y-63088465D02*
X156590000Y-62707513D01*
X156590000Y-62707513D02*
X156590000Y-62040846D01*
X156590000Y-62040846D02*
X156685238Y-61659894D01*
X156685238Y-61659894D02*
X156875714Y-61469418D01*
X156875714Y-61469418D02*
X157066190Y-61374180D01*
X158780476Y-63374180D02*
X158780476Y-61374180D01*
X158780476Y-61374180D02*
X159923333Y-63374180D01*
X159923333Y-63374180D02*
X159923333Y-61374180D01*
X160875714Y-62326561D02*
X161542381Y-62326561D01*
X161828095Y-63374180D02*
X160875714Y-63374180D01*
X160875714Y-63374180D02*
X160875714Y-61374180D01*
X160875714Y-61374180D02*
X161828095Y-61374180D01*
M02*
